<svg width="125" height="105" viewBox="0 0 125 105" fill="none" xmlns="http://www.w3.org/2000/svg">
<path d="M74.6073 11.9212L74.6073 21.1084L26.0725 21.1084L26.0725 11.9212L31.4653 11.9212L31.4653 7.94744L36.858 7.94744L36.858 3.97372L63.8218 3.97372L63.8218 7.94744L69.2146 7.94744L69.2146 11.9212L74.6073 11.9212Z" fill="#D7DF23"/>
<path d="M74.6072 11.9212L74.6073 7.9475L69.2145 7.9475L69.2145 11.9212L74.6072 11.9212Z" fill="black"/>
<path d="M26.0724 11.9212L26.0725 7.9475L31.4652 7.9475L31.4652 11.9212L26.0724 11.9212Z" fill="black"/>
<path d="M69.2145 7.9475L69.2145 3.97375L63.8218 3.97375L63.8218 7.94748L69.2145 7.9475Z" fill="black"/>
<path d="M31.4652 7.9475L31.4652 3.97375L36.8579 3.97375L36.8579 7.94748L31.4652 7.9475Z" fill="black"/>
<path d="M20.6797 20.6952L26.0724 20.6952L26.0724 11.9212L20.6797 11.9212L20.6797 20.6952Z" fill="black"/>
<path d="M74.6073 24.6689L74.6072 20.6952L26.0724 20.6952L26.0725 24.6689L74.6073 24.6689Z" fill="black"/>
<path d="M80 11.9212L74.6072 11.9212L74.6072 20.6952L80 20.6952L80 11.9212Z" fill="black"/>
<path d="M36.858 1.2013e-06L36.8579 3.97375L63.8218 3.97375L63.8218 2.45597e-08L36.858 1.2013e-06Z" fill="black"/>
<path d="M20.5 73.1186V17.7949H105.5V73.1186H20.5Z" fill="#D7DF23"/>
<path d="M113 17.7948H105.5V73.1185H113V17.7948Z" fill="black"/>
<path d="M20.5 12.9133V17.7948H105.5V12.9133H20.5Z" fill="black"/>
<path d="M13 73.1185H20.5V17.7948H13V73.1185Z" fill="black"/>
<path d="M20.5 73.1185V78H105.5V73.1185H20.5Z" fill="black"/>
<path d="M1.34063 98.76L7.02063 83.72H8.54063L2.86063 98.76H1.34063ZM13.7664 97.16C12.8384 97.16 12.1077 96.9253 11.5744 96.456C11.041 95.976 10.7744 95.3307 10.7744 94.52C10.7744 93.6987 11.041 93.0533 11.5744 92.584C12.1077 92.1147 12.8277 91.88 13.7344 91.88H16.4544V91C16.4544 90.456 16.289 90.04 15.9584 89.752C15.6384 89.4533 15.1797 89.304 14.5824 89.304C14.0597 89.304 13.6224 89.416 13.2704 89.64C12.9184 89.8533 12.7157 90.1467 12.6624 90.52H11.2224C11.3184 89.7627 11.6757 89.16 12.2944 88.712C12.913 88.264 13.6864 88.04 14.6144 88.04C15.6277 88.04 16.4277 88.3013 17.0144 88.824C17.601 89.3467 17.8944 90.056 17.8944 90.952V97H16.4864V95.32H16.2464L16.4864 95.08C16.4864 95.72 16.2357 96.2267 15.7344 96.6C15.2437 96.9733 14.5877 97.16 13.7664 97.16ZM14.1184 96.024C14.801 96.024 15.361 95.8533 15.7984 95.512C16.2357 95.1707 16.4544 94.7333 16.4544 94.2V92.952H13.7664C13.2864 92.952 12.9077 93.0853 12.6304 93.352C12.353 93.6187 12.2144 93.9813 12.2144 94.44C12.2144 94.9307 12.3797 95.32 12.7104 95.608C13.0517 95.8853 13.521 96.024 14.1184 96.024ZM21.1041 97V88.2H22.5121V89.88H22.8481L22.3841 90.92C22.3841 89.9707 22.5868 89.256 22.9921 88.776C23.4081 88.2853 24.0215 88.04 24.8321 88.04C25.7601 88.04 26.4961 88.3333 27.0401 88.92C27.5948 89.496 27.8721 90.28 27.8721 91.272V91.8H26.4321V91.4C26.4321 90.7067 26.2615 90.1787 25.9201 89.816C25.5895 89.4427 25.1148 89.256 24.4961 89.256C23.8881 89.256 23.4081 89.4427 23.0561 89.816C22.7148 90.1893 22.5441 90.7173 22.5441 91.4V97H21.1041ZM33.7859 97.16C33.0819 97.16 32.4632 97.0267 31.9299 96.76C31.4072 96.4933 31.0019 96.1093 30.7139 95.608C30.4259 95.096 30.2819 94.4933 30.2819 93.8V91.4C30.2819 90.696 30.4259 90.0933 30.7139 89.592C31.0019 89.0907 31.4072 88.7067 31.9299 88.44C32.4632 88.1733 33.0819 88.04 33.7859 88.04C34.7992 88.04 35.6152 88.312 36.2339 88.856C36.8525 89.4 37.1779 90.1413 37.2099 91.08H35.7699C35.7379 90.5147 35.5459 90.0827 35.1939 89.784C34.8525 89.4747 34.3832 89.32 33.7859 89.32C33.1565 89.32 32.6552 89.5013 32.2819 89.864C31.9085 90.216 31.7219 90.7227 31.7219 91.384V93.8C31.7219 94.4613 31.9085 94.9733 32.2819 95.336C32.6552 95.6987 33.1565 95.88 33.7859 95.88C34.3832 95.88 34.8525 95.7253 35.1939 95.416C35.5459 95.1067 35.7379 94.6747 35.7699 94.12H37.2099C37.1779 95.0587 36.8525 95.8 36.2339 96.344C35.6152 96.888 34.7992 97.16 33.7859 97.16ZM39.9876 97V85.32H41.4276V88.2V89.88H41.7316L41.4276 90.216C41.4276 89.5227 41.6356 88.9893 42.0516 88.616C42.4676 88.232 43.0436 88.04 43.7796 88.04C44.665 88.04 45.369 88.312 45.8916 88.856C46.4143 89.4 46.6756 90.1413 46.6756 91.08V97H45.2356V91.24C45.2356 90.6107 45.065 90.1253 44.7236 89.784C44.393 89.432 43.9396 89.256 43.3636 89.256C42.7663 89.256 42.2916 89.4427 41.9396 89.816C41.5983 90.1893 41.4276 90.7173 41.4276 91.4V97H39.9876ZM49.4694 97V95.688H52.5894V89.512H49.8694V88.2H54.0294V95.688H56.9894V97H49.4694ZM53.1494 86.616C52.7974 86.616 52.52 86.5253 52.3174 86.344C52.1147 86.1627 52.0134 85.9173 52.0134 85.608C52.0134 85.288 52.1147 85.0373 52.3174 84.856C52.52 84.664 52.7974 84.568 53.1494 84.568C53.5014 84.568 53.7787 84.664 53.9814 84.856C54.184 85.0373 54.2854 85.288 54.2854 85.608C54.2854 85.9173 54.184 86.1627 53.9814 86.344C53.7787 86.5253 53.5014 86.616 53.1494 86.616ZM63.4631 97C62.7058 97 62.1138 96.7973 61.6871 96.392C61.2711 95.9867 61.0631 95.416 61.0631 94.68V89.512H58.5831V88.2H61.0631V85.72H62.5031V88.2H66.0231V89.512H62.5031V94.68C62.5031 95.352 62.8231 95.688 63.4631 95.688H65.8631V97H63.4631ZM72.0969 97.16C71.4035 97.16 70.7955 97.0213 70.2729 96.744C69.7609 96.4667 69.3609 96.0773 69.0729 95.576C68.7955 95.064 68.6569 94.472 68.6569 93.8V91.4C68.6569 90.7173 68.7955 90.1253 69.0729 89.624C69.3609 89.1227 69.7609 88.7333 70.2729 88.456C70.7955 88.1787 71.4035 88.04 72.0969 88.04C72.7902 88.04 73.3929 88.1787 73.9049 88.456C74.4275 88.7333 74.8275 89.1227 75.1049 89.624C75.3929 90.1253 75.5369 90.7173 75.5369 91.4V92.952H70.0649V93.8C70.0649 94.4933 70.2409 95.0267 70.5929 95.4C70.9449 95.7627 71.4462 95.944 72.0969 95.944C72.6515 95.944 73.0995 95.848 73.4409 95.656C73.7822 95.4533 73.9902 95.1547 74.0649 94.76H75.5049C75.4089 95.496 75.0462 96.0827 74.4169 96.52C73.7982 96.9467 73.0249 97.16 72.0969 97.16ZM74.1289 91.992V91.4C74.1289 90.7067 73.9529 90.1733 73.6009 89.8C73.2595 89.4267 72.7582 89.24 72.0969 89.24C71.4462 89.24 70.9449 89.4267 70.5929 89.8C70.2409 90.1733 70.0649 90.7067 70.0649 91.4V91.864H74.2409L74.1289 91.992ZM81.7546 97.16C81.0506 97.16 80.432 97.0267 79.8986 96.76C79.376 96.4933 78.9706 96.1093 78.6826 95.608C78.3946 95.096 78.2506 94.4933 78.2506 93.8V91.4C78.2506 90.696 78.3946 90.0933 78.6826 89.592C78.9706 89.0907 79.376 88.7067 79.8986 88.44C80.432 88.1733 81.0506 88.04 81.7546 88.04C82.768 88.04 83.584 88.312 84.2026 88.856C84.8213 89.4 85.1466 90.1413 85.1786 91.08H83.7386C83.7066 90.5147 83.5146 90.0827 83.1626 89.784C82.8213 89.4747 82.352 89.32 81.7546 89.32C81.1253 89.32 80.624 89.5013 80.2506 89.864C79.8773 90.216 79.6906 90.7227 79.6906 91.384V93.8C79.6906 94.4613 79.8773 94.9733 80.2506 95.336C80.624 95.6987 81.1253 95.88 81.7546 95.88C82.352 95.88 82.8213 95.7253 83.1626 95.416C83.5146 95.1067 83.7066 94.6747 83.7386 94.12H85.1786C85.1466 95.0587 84.8213 95.8 84.2026 96.344C83.584 96.888 82.768 97.16 81.7546 97.16ZM92.2444 97C91.487 97 90.895 96.7973 90.4684 96.392C90.0524 95.9867 89.8444 95.416 89.8444 94.68V89.512H87.3644V88.2H89.8444V85.72H91.2844V88.2H94.8044V89.512H91.2844V94.68C91.2844 95.352 91.6044 95.688 92.2444 95.688H94.6444V97H92.2444ZM100.862 97.16C99.8488 97.16 99.0381 96.8613 98.4301 96.264C97.8221 95.656 97.5181 94.8347 97.5181 93.8V88.2H98.9581V93.8C98.9581 94.4613 99.1288 94.9787 99.4701 95.352C99.8115 95.7147 100.275 95.896 100.862 95.896C101.459 95.896 101.929 95.7147 102.27 95.352C102.622 94.9787 102.798 94.4613 102.798 93.8V88.2H104.238V93.8C104.238 94.8347 103.929 95.656 103.31 96.264C102.691 96.8613 101.875 97.16 100.862 97.16ZM107.448 97V88.2H108.856V89.88H109.192L108.728 90.92C108.728 89.9707 108.931 89.256 109.336 88.776C109.752 88.2853 110.365 88.04 111.176 88.04C112.104 88.04 112.84 88.3333 113.384 88.92C113.939 89.496 114.216 90.28 114.216 91.272V91.8H112.776V91.4C112.776 90.7067 112.605 90.1787 112.264 89.816C111.933 89.4427 111.459 89.256 110.84 89.256C110.232 89.256 109.752 89.4427 109.4 89.816C109.059 90.1893 108.888 90.7173 108.888 91.4V97H107.448ZM120.066 97.16C119.372 97.16 118.764 97.0213 118.242 96.744C117.73 96.4667 117.33 96.0773 117.042 95.576C116.764 95.064 116.626 94.472 116.626 93.8V91.4C116.626 90.7173 116.764 90.1253 117.042 89.624C117.33 89.1227 117.73 88.7333 118.242 88.456C118.764 88.1787 119.372 88.04 120.066 88.04C120.759 88.04 121.362 88.1787 121.874 88.456C122.396 88.7333 122.796 89.1227 123.074 89.624C123.362 90.1253 123.506 90.7173 123.506 91.4V92.952H118.034V93.8C118.034 94.4933 118.21 95.0267 118.562 95.4C118.914 95.7627 119.415 95.944 120.066 95.944C120.62 95.944 121.068 95.848 121.41 95.656C121.751 95.4533 121.959 95.1547 122.034 94.76H123.474C123.378 95.496 123.015 96.0827 122.386 96.52C121.767 96.9467 120.994 97.16 120.066 97.16ZM122.098 91.992V91.4C122.098 90.7067 121.922 90.1733 121.57 89.8C121.228 89.4267 120.727 89.24 120.066 89.24C119.415 89.24 118.914 89.4267 118.562 89.8C118.21 90.1733 118.034 90.7067 118.034 91.4V91.864H122.21L122.098 91.992Z" fill="#CBD5E1"/>
<path d="M68.4285 50.2857V56.7142H66.2857V54.5714H59.8571H57.7143V48.1428H53.4285V46H49.1428V43.8571H53.4285V41.7143H57.7143V39.5714H62V37.4285H66.2857V35.2857H70.5714V33.1428H74.8571V37.4285H72.7143V43.8571H70.5714V50.2857H68.4285Z" fill="white"/>
<path d="M47 43.8571H49.1429V46H47V43.8571Z" fill="black"/>
<path d="M66.2857 56.7143H68.4286V58.8571H66.2857V56.7143Z" fill="black"/>
<path d="M64.1429 54.5714H66.2857V56.7143H64.1429V54.5714Z" fill="black"/>
<path d="M59.8571 46H62V48.1429H59.8571V46Z" fill="black"/>
<path d="M62 43.8571H64.1429V46H62V43.8571Z" fill="black"/>
<path d="M64.1429 41.7143H66.2857V43.8571H64.1429V41.7143Z" fill="black"/>
<path d="M66.2857 39.5714H68.4286V41.7143H66.2857V39.5714Z" fill="black"/>
<path d="M68.4286 37.4286H70.5714V39.5714H68.4286V37.4286Z" fill="black"/>
<path d="M70.5714 35.2857H72.7143V37.4286H70.5714V35.2857Z" fill="black"/>
<path d="M49.1429 41.7143V43.8571H53.4286V41.7143H49.1429Z" fill="black"/>
<path d="M53.4286 48.1429V46H49.1429V48.1429H53.4286Z" fill="black"/>
<path d="M59.8571 54.5714H57.7143V50.2857H59.8571V48.1429H53.4286V50.2857H55.5714V58.8571H57.7143V56.7143H59.8571V54.5714Z" fill="black"/>
<path d="M64.1429 52.4286H62V50.2857H59.8571V54.5714H64.1429V52.4286Z" fill="black"/>
<path d="M70.5714 50.2857H68.4286V56.7143H70.5714V50.2857Z" fill="black"/>
<path d="M72.7143 43.8571H70.5714V50.2857H72.7143V43.8571Z" fill="black"/>
<path d="M53.4286 39.5714V41.7143H57.7143V39.5714H53.4286Z" fill="black"/>
<path d="M57.7143 37.4286V39.5714H62V37.4286H57.7143Z" fill="black"/>
<path d="M62 35.2857V37.4286H66.2857V35.2857H62Z" fill="black"/>
<path d="M70.5714 35.2857V33.1429H66.2857V35.2857H70.5714Z" fill="black"/>
<path d="M70.5714 31V33.1429H74.8571V31H70.5714Z" fill="black"/>
<path d="M77 33.1429H74.8571V37.4286H77V33.1429Z" fill="black"/>
<path d="M74.8571 37.4286H72.7143V43.8571H74.8571V37.4286Z" fill="black"/>
</svg>
