<svg width="85" height="66" viewBox="0 0 85 66" fill="none" xmlns="http://www.w3.org/2000/svg">
<path d="M51.9717 10.0564L51.9717 17.8066L11.0283 17.8066L11.0283 10.0564L15.5776 10.0564L15.5776 6.70423L20.1268 6.70423L20.1268 3.35204L42.8732 3.35204L42.8732 6.70423L47.4224 6.70423L47.4224 10.0564L51.9717 10.0564Z" fill="#D7DF23"/>
<path d="M51.9721 10.0567L51.9721 6.70455L47.4229 6.70455L47.4229 10.0567L51.9721 10.0567Z" fill="black"/>
<path d="M11.0288 10.0567L11.0288 6.70455L15.5781 6.70455L15.5781 10.0567L11.0288 10.0567Z" fill="black"/>
<path d="M47.4229 6.70455L47.4229 3.35234L42.8736 3.35234L42.8736 6.70453L47.4229 6.70455Z" fill="black"/>
<path d="M15.5781 6.70455L15.578 3.35234L20.1273 3.35234L20.1273 6.70453L15.5781 6.70455Z" fill="black"/>
<path d="M6.47949 17.4583L11.0288 17.4583L11.0288 10.0567L6.47949 10.0567L6.47949 17.4583Z" fill="black"/>
<path d="M51.9721 20.8105L51.9721 17.4583L11.0288 17.4583L11.0288 20.8105L51.9721 20.8105Z" fill="black"/>
<path d="M56.5214 10.0567L51.9721 10.0567L51.9721 17.4583L56.5214 17.4583L56.5214 10.0567Z" fill="black"/>
<path d="M20.1273 0.000136733L20.1273 3.35234L42.8736 3.35234L42.8736 0.000135741L20.1273 0.000136733Z" fill="black"/>
<path d="M6.35938 62.0698V15.3994H78.0643V62.0698H6.35938Z" fill="#D7DF23"/>
<path d="M84.3587 15.011H78.0318V61.6814H84.3587V15.011Z" fill="black"/>
<path d="M6.32691 10.8931V15.011H78.0318V10.8931H6.32691Z" fill="black"/>
<path d="M0 61.6814H6.32691V15.011H0V61.6814Z" fill="black"/>
<path d="M6.32691 61.6814V65.7994H78.0318V61.6814H6.32691Z" fill="black"/>
<path d="M36.75 26.75H47.25V28.5H50.75V30.25H52.5V33.75H54.25V44.25H52.5V47.75H50.75V49.5H47.25V51.25H36.75V49.5H33.25V47.75H31.5V44.25H29.75V33.75H31.5V30.25H33.25V28.5H36.75V26.75Z" fill="white"/>
<path d="M47.25 25V26.75H36.75V25H47.25Z" fill="black"/>
<path d="M33.25 28.5V26.75H36.75V28.5H33.25Z" fill="black"/>
<path d="M31.5 30.25V28.5H33.25V30.25H31.5Z" fill="black"/>
<path d="M29.75 33.75V30.25H31.5V33.75H29.75Z" fill="black"/>
<path d="M29.75 44.25H28V33.75H29.75V44.25Z" fill="black"/>
<path d="M31.5 47.75H29.75V44.25H31.5V47.75Z" fill="black"/>
<path d="M33.25 49.5H31.5V47.75H33.25V49.5Z" fill="black"/>
<path d="M36.75 51.25H33.25V49.5H36.75V51.25Z" fill="black"/>
<path d="M47.25 51.25V53H36.75V51.25H47.25Z" fill="black"/>
<path d="M50.75 49.5V51.25H47.25V49.5H50.75Z" fill="black"/>
<path d="M52.5 47.75V49.5H50.75V47.75H52.5Z" fill="black"/>
<path d="M54.25 44.25V47.75H52.5V44.25H54.25Z" fill="black"/>
<path d="M54.25 33.75H56V44.25H54.25V33.75Z" fill="black"/>
<path d="M52.5 30.25H54.25V33.75H52.5V30.25Z" fill="black"/>
<path d="M50.75 28.5H52.5V30.25H50.75V28.5Z" fill="black"/>
<path d="M50.75 28.5V26.75H47.25V28.5H50.75Z" fill="black"/>
<path d="M36.75 44.25H38.5V46H40.25V47.75H42V46H45.5V44.25H47.25V40.75H45.5V39H42V37.25H38.5V33.75H45.5V35.5H47.25V33.75H45.5V32H43.75V30.25H42V32H38.5V33.75H36.75V37.25H38.5V39H42V40.75H45.5V44.25H38.5V42.5H36.75V44.25Z" fill="black"/>
</svg>
