<svg width="462" height="374" viewBox="0 0 462 374" fill="none" xmlns="http://www.w3.org/2000/svg">
<rect width="462" height="374" fill="#1E1E1E"/>
<g clip-path="url(#clip0_0_1)">
<rect width="1440" height="3665" transform="translate(-827 -1417)" fill="#0A0B0F"/>
<rect x="-827" y="-559" width="1440" height="996" fill="white"/>
<rect x="1" y="1" width="460" height="372" fill="white" stroke="black" stroke-width="2"/>
<path d="M229.972 361C287.353 361 333.869 357.955 333.869 354.199C333.869 350.444 287.353 347.399 229.972 347.399C172.591 347.399 126.075 350.444 126.075 354.199C126.075 357.955 172.591 361 229.972 361Z" fill="black"/>
<path d="M126.83 306.966C128.281 307.593 131.825 307.518 131.825 307.518C131.825 307.518 131.069 305.198 131.001 305.054C130.246 303.43 127.767 300.747 125.765 301.019C125.43 301.072 125.111 301.196 124.828 301.382C124.545 301.568 124.305 301.812 124.123 302.097C123.942 302.383 123.823 302.704 123.775 303.04C123.727 303.375 123.751 303.716 123.845 304.042C124.17 305.394 125.591 306.422 126.83 306.966Z" fill="black"/>
<path d="M128.047 317.22C129.558 317.439 132.709 316.525 132.966 316.464C133.485 318.268 134.123 320.035 134.878 321.753C135.316 322.758 135.784 323.763 136.268 324.776C135.981 324.36 135.716 324.02 135.671 323.93C134.492 322.569 131.417 320.628 129.558 321.421C129.253 321.56 128.981 321.763 128.76 322.014C128.538 322.266 128.372 322.561 128.272 322.881C128.172 323.201 128.141 323.539 128.18 323.872C128.22 324.205 128.329 324.526 128.5 324.814C129.188 326.06 130.827 326.68 132.165 326.869C133.502 327.058 136.223 326.34 136.94 326.113C137.129 326.499 137.311 326.869 137.5 327.254C138.421 329.083 139.336 330.896 140.19 332.702C140.484 333.337 140.756 333.979 141.036 334.614C140.779 334.236 140.56 333.926 140.522 333.858C139.343 332.498 136.26 330.556 134.402 331.342C134.097 331.483 133.826 331.685 133.605 331.937C133.385 332.189 133.219 332.484 133.119 332.804C133.02 333.123 132.988 333.46 133.027 333.793C133.065 334.126 133.173 334.447 133.344 334.735C134.031 335.989 135.679 336.601 137.008 336.798C138.338 336.994 140.786 336.337 141.655 336.103C141.912 336.76 142.177 337.425 142.411 338.075C142.547 338.528 142.721 338.944 142.834 339.405C142.948 339.866 143.084 340.304 143.212 340.75C143.416 341.611 143.635 342.503 143.816 343.341C143.945 343.931 144.058 344.497 144.179 345.064C143.885 344.422 143.288 343.19 143.227 343.092C142.267 341.581 139.517 339.178 137.568 339.677C137.245 339.769 136.945 339.928 136.688 340.143C136.431 340.358 136.222 340.625 136.074 340.927C135.927 341.228 135.844 341.557 135.832 341.892C135.82 342.228 135.878 342.562 136.003 342.873C136.495 344.21 138.021 345.072 139.313 345.465C140.726 345.895 143.847 345.465 144.255 345.465C144.444 346.402 144.617 347.316 144.769 348.177C145.109 350.081 145.358 351.797 145.524 353.24H146.847C146.612 351.729 146.31 349.961 145.917 347.951C145.728 346.999 145.509 345.986 145.275 344.928C146.219 344.551 147.14 344.117 148.033 343.629C149.068 344.747 151.713 346.062 152.053 346.228C151.69 347.112 151.335 347.966 150.98 348.774C150.224 350.459 149.559 351.948 148.94 353.217H150.375C150.897 352.046 151.478 350.716 152.083 349.235C152.453 348.344 152.839 347.376 153.209 346.379C153.587 346.455 156.692 347.089 158.143 346.764C159.45 346.462 161.045 345.722 161.626 344.422C161.775 344.122 161.859 343.794 161.873 343.46C161.887 343.125 161.829 342.792 161.705 342.481C161.581 342.17 161.393 341.889 161.153 341.655C160.913 341.422 160.626 341.242 160.312 341.127C158.4 340.485 155.483 342.639 154.41 344.105C154.35 344.188 153.768 345.193 153.413 345.835C153.564 345.427 153.715 345.034 153.866 344.611C154.168 343.78 154.448 342.941 154.758 342.034C154.886 341.596 155.022 341.15 155.158 340.704C155.294 340.258 155.393 339.775 155.513 339.306C155.778 338.211 155.982 337.092 156.171 335.959C156.926 336.223 159.503 337.13 160.856 337.04C162.208 336.949 163.878 336.45 164.634 335.256C164.826 334.982 164.958 334.67 165.022 334.341C165.086 334.012 165.08 333.674 165.005 333.347C164.929 333.021 164.786 332.714 164.584 332.447C164.382 332.179 164.126 331.958 163.833 331.796C162.034 330.866 158.823 332.551 157.546 333.843C157.463 333.926 156.654 334.939 156.216 335.506C156.322 334.826 156.435 334.146 156.518 333.45C156.768 331.448 156.957 329.415 157.153 327.405C157.214 326.786 157.282 326.166 157.35 325.547C157.606 325.645 160.674 326.786 162.186 326.68C163.531 326.589 165.208 326.098 165.964 324.904C166.156 324.63 166.288 324.317 166.351 323.988C166.414 323.659 166.408 323.32 166.331 322.994C166.255 322.667 166.111 322.36 165.908 322.093C165.706 321.826 165.449 321.605 165.155 321.444C163.364 320.514 160.153 322.199 158.876 323.491C158.778 323.59 157.606 325.048 157.365 325.433C157.508 324.073 157.667 322.713 157.879 321.383C158.15 319.596 158.538 317.829 159.042 316.094C159.156 316.139 162.359 317.348 163.908 317.242C165.246 317.144 166.931 316.653 167.686 315.459C167.879 315.185 168.011 314.873 168.075 314.544C168.139 314.215 168.133 313.877 168.057 313.55C167.982 313.224 167.838 312.917 167.637 312.65C167.435 312.382 167.179 312.16 166.885 311.998C165.087 311.069 161.876 312.754 160.599 314.046C160.501 314.144 159.239 315.724 159.035 316.026C159.035 315.92 159.088 315.814 159.118 315.708C159.669 313.969 160.375 312.282 161.226 310.669C161.687 309.769 162.17 308.938 162.669 308.137C163.243 308.424 165.873 309.701 167.278 309.762C168.684 309.822 170.346 309.512 171.253 308.409C171.474 308.158 171.64 307.862 171.74 307.542C171.84 307.222 171.871 306.885 171.832 306.552C171.793 306.219 171.684 305.898 171.513 305.61C171.341 305.322 171.111 305.074 170.837 304.88C169.152 303.762 165.767 305.107 164.362 306.225C164.286 306.286 163.606 306.981 163.062 307.518C163.296 307.162 163.523 306.762 163.75 306.452C164.596 305.183 165.442 304.064 166.205 303.09C166.644 302.538 167.052 302.047 167.437 301.578C168.14 301.578 170.996 301.48 172.243 300.898C173.49 300.317 174.857 299.259 175.152 297.876C175.231 297.551 175.241 297.213 175.182 296.883C175.122 296.554 174.995 296.241 174.807 295.964C174.619 295.687 174.375 295.452 174.091 295.275C173.807 295.098 173.489 294.983 173.157 294.937C171.147 294.725 168.767 297.475 168.034 299.115C167.966 299.259 167.233 301.601 167.278 301.601H167.324C166.938 302.032 166.568 302.493 166.115 303.014C165.359 303.981 164.445 305.077 163.576 306.331C162.617 307.676 161.739 309.076 160.946 310.525C160.039 312.138 159.28 313.83 158.679 315.58C158.679 315.58 158.679 315.625 158.679 315.648C158.679 315.059 158.679 313.381 158.642 313.275C158.415 311.485 156.919 308.175 154.932 307.805C154.599 307.752 154.259 307.771 153.934 307.859C153.609 307.948 153.306 308.105 153.046 308.319C152.786 308.533 152.575 308.8 152.425 309.102C152.276 309.405 152.193 309.735 152.181 310.072C152.06 311.492 153.088 312.913 154.093 313.85C155.226 314.862 158.37 315.837 158.627 315.912C158.065 317.71 157.62 319.543 157.297 321.398C157.108 322.479 156.949 323.567 156.798 324.67C156.798 324.156 156.798 323.695 156.798 323.635C156.564 321.844 155.068 318.534 153.08 318.164C152.748 318.112 152.407 318.13 152.082 318.219C151.757 318.308 151.455 318.464 151.195 318.678C150.935 318.893 150.723 319.16 150.574 319.462C150.425 319.764 150.342 320.094 150.33 320.431C150.209 321.852 151.244 323.272 152.242 324.171C153.239 325.071 155.921 325.97 156.632 326.196L156.473 327.458C156.231 329.483 155.997 331.501 155.717 333.503C155.619 334.198 155.491 334.878 155.37 335.566C155.37 335.113 155.37 334.727 155.37 334.667C155.143 332.884 153.647 329.566 151.66 329.196C151.327 329.146 150.988 329.166 150.664 329.256C150.34 329.346 150.038 329.503 149.779 329.716C149.52 329.93 149.308 330.196 149.158 330.497C149.008 330.798 148.924 331.127 148.909 331.463C148.788 332.876 149.816 334.304 150.821 335.196C151.826 336.087 154.244 336.911 155.083 337.183C154.939 337.878 154.788 338.573 154.614 339.238C154.486 339.692 154.395 340.138 154.236 340.583C154.078 341.029 153.949 341.475 153.813 341.913C153.511 342.744 153.201 343.606 152.884 344.414C152.672 344.973 152.453 345.502 152.234 346.039C152.347 345.351 152.529 343.991 152.536 343.87C152.516 342.277 152.086 340.716 151.29 339.337C151.305 339.161 151.305 338.984 151.29 338.808C151.248 338.475 151.136 338.154 150.962 337.867C150.788 337.58 150.556 337.333 150.28 337.142C150.004 336.951 149.691 336.82 149.361 336.758C149.031 336.696 148.692 336.705 148.365 336.783C146.416 337.296 145.184 340.719 145.093 342.518C145.093 342.624 145.154 343.787 145.207 344.513C145.109 344.089 145.018 343.681 144.912 343.243C144.708 342.382 144.481 341.528 144.24 340.606L143.832 339.269C143.711 338.823 143.522 338.362 143.363 337.908C142.978 336.851 142.532 335.8 142.063 334.758C142.819 334.576 145.494 333.896 146.597 333.073C147.7 332.249 148.743 330.775 148.743 329.37C148.753 329.035 148.692 328.701 148.564 328.392C148.436 328.082 148.244 327.802 148.001 327.571C147.758 327.34 147.469 327.163 147.153 327.051C146.837 326.939 146.501 326.895 146.166 326.922C144.164 327.141 142.388 330.337 142.056 332.098C142.056 332.211 141.912 333.503 141.867 334.221C141.58 333.594 141.293 332.967 140.983 332.34C140.084 330.534 139.124 328.735 138.172 326.937C137.877 326.385 137.59 325.826 137.303 325.275C137.575 325.214 140.764 324.474 141.965 323.552C143.038 322.736 144.172 321.398 144.157 319.97C144.165 319.636 144.103 319.303 143.975 318.994C143.846 318.685 143.655 318.406 143.412 318.176C143.169 317.946 142.88 317.77 142.564 317.658C142.249 317.547 141.913 317.503 141.58 317.53C139.577 317.741 137.802 320.937 137.469 322.705C137.469 322.834 137.273 324.7 137.25 325.176C136.623 323.96 136.003 322.743 135.444 321.519C134.679 319.868 134.02 318.169 133.472 316.434C133.601 316.434 136.933 315.678 138.164 314.704C139.23 313.88 140.363 312.542 140.356 311.122C140.364 310.786 140.302 310.453 140.173 310.143C140.045 309.833 139.852 309.553 139.609 309.323C139.365 309.092 139.075 308.915 138.759 308.803C138.443 308.691 138.106 308.647 137.772 308.674C135.769 308.893 133.993 312.089 133.669 313.85C133.669 313.993 133.457 315.996 133.449 316.358C133.449 316.26 133.374 316.162 133.344 316.056C132.845 314.302 132.503 312.506 132.324 310.691C132.21 309.686 132.157 308.727 132.135 307.782C132.769 307.707 135.671 307.321 136.872 306.596C138.074 305.87 139.29 304.692 139.441 303.271C139.487 302.941 139.463 302.606 139.371 302.286C139.28 301.966 139.122 301.668 138.908 301.413C138.695 301.158 138.43 300.95 138.132 300.802C137.833 300.655 137.507 300.572 137.175 300.558C135.157 300.558 133.079 303.543 132.52 305.251C132.52 305.349 132.286 306.331 132.15 307.049C132.15 306.618 132.15 306.188 132.15 305.78C132.15 304.268 132.248 302.855 132.339 301.616C132.399 300.914 132.467 300.279 132.543 299.689C133.125 299.289 135.459 297.642 136.177 296.463C136.895 295.284 137.447 293.66 136.933 292.33C136.82 292.014 136.642 291.726 136.41 291.484C136.179 291.242 135.899 291.052 135.589 290.925C135.279 290.798 134.946 290.738 134.611 290.748C134.276 290.758 133.947 290.839 133.646 290.985C131.855 291.907 131.379 295.518 131.681 297.294C131.681 297.445 132.384 299.803 132.437 299.78C132.361 300.347 132.286 300.959 132.21 301.631C132.089 302.863 131.961 304.261 131.923 305.795C131.868 307.446 131.908 309.098 132.044 310.744C132.188 312.586 132.494 314.412 132.958 316.2V316.268C132.641 315.769 131.704 314.401 131.621 314.303C130.442 312.943 127.367 311.001 125.508 311.794C125.203 311.934 124.931 312.136 124.71 312.388C124.488 312.639 124.322 312.935 124.222 313.255C124.122 313.575 124.091 313.912 124.13 314.245C124.17 314.578 124.279 314.899 124.45 315.187C125.077 316.419 126.717 317.023 128.047 317.22Z" fill="black"/>
<path d="M162.646 307.744C162.646 307.744 163.289 305.387 163.311 305.236C163.561 303.452 162.994 299.856 161.173 298.979C160.867 298.842 160.536 298.77 160.201 298.769C159.866 298.768 159.535 298.837 159.228 298.973C158.922 299.108 158.647 299.307 158.423 299.555C158.198 299.803 158.028 300.096 157.924 300.415C157.44 301.752 158.052 303.4 158.785 304.525C159.647 305.84 162.646 307.737 162.646 307.744Z" fill="black"/>
<path d="M302.67 313.117C303.932 313.668 306.999 313.593 306.999 313.593C306.999 313.593 306.342 311.583 306.282 311.462C305.609 310.056 303.478 307.729 301.748 307.963C301.461 308.009 301.187 308.115 300.943 308.274C300.7 308.433 300.493 308.642 300.336 308.887C300.179 309.132 300.076 309.407 300.032 309.694C299.989 309.982 300.007 310.275 300.085 310.555C300.373 311.757 301.604 312.641 302.67 313.117Z" fill="black"/>
<path d="M303.735 322.01C305.035 322.199 307.778 321.406 307.989 321.338C308.443 322.906 308.999 324.443 309.652 325.94C310.029 326.816 310.407 327.677 310.861 328.546C310.604 328.176 310.385 327.851 310.347 327.791C309.319 326.604 306.652 324.927 305.057 325.607C304.794 325.728 304.558 325.904 304.367 326.122C304.175 326.34 304.032 326.596 303.946 326.873C303.859 327.15 303.832 327.443 303.866 327.731C303.9 328.019 303.995 328.297 304.143 328.546C304.733 329.635 306.161 330.171 307.317 330.337C308.473 330.504 310.838 329.876 311.458 329.703L311.949 330.692C312.704 332.272 313.535 333.843 314.276 335.415C314.533 335.967 314.767 336.518 315.032 337.07L314.586 336.435C313.558 335.256 310.891 333.571 309.296 334.251C309.032 334.373 308.795 334.548 308.603 334.767C308.411 334.986 308.267 335.242 308.181 335.52C308.094 335.799 308.068 336.092 308.102 336.381C308.137 336.67 308.232 336.948 308.382 337.198C308.972 338.279 310.4 338.815 311.556 338.981C312.712 339.148 314.843 338.581 315.583 338.377C315.81 338.951 316.037 339.526 316.225 340.092C316.354 340.478 316.497 340.848 316.603 341.241C316.709 341.634 316.815 341.996 316.928 342.404C317.102 343.16 317.291 343.916 317.45 344.671C317.563 345.185 317.661 345.669 317.759 346.183C317.51 345.631 317.004 344.558 316.943 344.475C316.112 343.153 313.724 341.09 312.032 341.52C311.752 341.599 311.492 341.736 311.269 341.922C311.045 342.108 310.864 342.339 310.736 342.6C310.608 342.861 310.537 343.146 310.527 343.437C310.518 343.728 310.569 344.017 310.679 344.286C311.102 345.45 312.425 346.19 313.543 346.553C314.775 346.931 317.495 346.591 317.835 346.553C317.994 347.361 318.145 348.155 318.273 348.903C318.568 350.558 318.787 352.039 318.953 353.293H320.102C319.898 352.001 319.641 350.452 319.293 348.714C319.135 347.89 318.946 347.006 318.742 346.107C319.558 345.777 320.356 345.401 321.129 344.981C322.184 345.893 323.358 346.656 324.62 347.248C324.303 348.004 323.993 348.759 323.691 349.454C323.056 350.913 322.452 352.212 321.923 353.308H323.162C323.615 352.295 324.122 351.139 324.673 349.855C324.998 349.099 325.323 348.238 325.648 347.376C325.98 347.444 328.67 347.996 329.925 347.709C331.066 347.452 332.441 346.81 332.947 345.684C333.075 345.423 333.147 345.137 333.158 344.847C333.168 344.556 333.118 344.267 333.01 343.997C332.901 343.727 332.738 343.482 332.529 343.28C332.32 343.077 332.072 342.92 331.799 342.82C330.144 342.268 327.613 344.15 326.683 345.404C326.63 345.48 326.124 346.349 325.814 346.915C325.95 346.56 326.079 346.22 326.215 345.85C326.479 345.132 326.721 344.407 326.97 343.621C327.084 343.236 327.197 342.865 327.318 342.465C327.439 342.064 327.522 341.656 327.628 341.248C327.854 340.304 328.036 339.337 328.194 338.354C328.829 338.581 331.088 339.367 332.252 339.284C333.416 339.201 334.882 338.778 335.554 337.773C335.725 337.534 335.842 337.262 335.9 336.974C335.957 336.687 335.953 336.39 335.887 336.105C335.822 335.819 335.696 335.55 335.519 335.317C335.341 335.083 335.117 334.89 334.859 334.75C333.302 333.949 330.514 335.423 329.411 336.526C329.335 336.594 328.655 337.478 328.255 337.969C328.346 337.372 328.444 336.783 328.519 336.186C328.731 334.448 328.897 332.687 329.071 330.896C329.124 330.36 329.177 329.823 329.237 329.287C329.464 329.37 332.124 330.367 333.431 330.269C334.595 330.194 336.053 329.763 336.733 328.758C336.903 328.519 337.02 328.247 337.077 327.959C337.134 327.671 337.129 327.374 337.063 327.088C336.996 326.803 336.87 326.534 336.692 326.301C336.514 326.068 336.288 325.875 336.03 325.736C334.519 324.935 331.693 326.408 330.582 327.511C330.499 327.594 329.487 328.864 329.245 329.196C329.373 328.018 329.509 326.839 329.691 325.69C329.923 324.128 330.259 322.583 330.695 321.066C330.801 321.104 333.574 322.154 334.912 322.056C336.076 321.98 337.541 321.549 338.214 320.544C338.384 320.306 338.502 320.034 338.56 319.746C338.617 319.459 338.613 319.162 338.547 318.877C338.481 318.591 338.356 318.322 338.178 318.089C338.001 317.855 337.776 317.662 337.519 317.522C335.962 316.721 333.174 318.194 332.071 319.298C331.98 319.388 330.892 320.748 330.711 321.013C330.711 320.922 330.756 320.832 330.779 320.741C331.261 319.234 331.875 317.772 332.615 316.373C333.008 315.618 333.431 314.862 333.862 314.175C334.36 314.424 336.642 315.535 337.859 315.58C339.075 315.625 340.519 315.368 341.304 314.409C341.495 314.19 341.638 313.934 341.724 313.656C341.81 313.379 341.836 313.087 341.802 312.798C341.768 312.51 341.674 312.232 341.525 311.982C341.377 311.733 341.178 311.517 340.942 311.349C339.483 310.381 336.552 311.545 335.327 312.52C335.267 312.573 334.647 313.185 334.209 313.638C334.406 313.328 334.602 313.003 334.799 312.716C335.554 311.613 336.31 310.646 336.929 309.8C337.307 309.316 337.685 308.893 337.995 308.5C338.607 308.5 341.085 308.409 342.166 307.903C343.246 307.397 344.433 306.482 344.69 305.273C344.758 304.991 344.766 304.697 344.714 304.412C344.661 304.126 344.55 303.854 344.386 303.614C344.222 303.374 344.01 303.171 343.763 303.019C343.516 302.866 343.239 302.766 342.952 302.727C341.214 302.538 339.174 304.918 338.516 306.346C338.456 306.475 337.821 308.5 337.851 308.5H337.889C337.564 308.87 337.209 309.256 336.839 309.724C336.159 310.563 335.403 311.515 334.64 312.603C333.814 313.769 333.057 314.983 332.373 316.237C331.596 317.641 330.944 319.11 330.423 320.628C330.426 320.645 330.426 320.663 330.423 320.68C330.423 320.167 330.423 318.731 330.423 318.625C330.219 317.114 328.912 314.197 327.197 313.88C326.91 313.836 326.618 313.853 326.338 313.93C326.058 314.007 325.797 314.141 325.573 314.325C325.349 314.509 325.165 314.738 325.035 314.997C324.905 315.256 324.83 315.54 324.817 315.829C324.711 317.061 325.572 318.293 326.472 319.071C327.454 319.948 330.182 320.794 330.401 320.862C329.909 322.418 329.523 324.006 329.245 325.615C329.078 326.552 328.942 327.496 328.814 328.448C328.814 328.002 328.814 327.609 328.814 327.557C328.61 326.008 327.303 323.129 325.595 322.811C325.308 322.766 325.014 322.783 324.734 322.859C324.453 322.935 324.191 323.069 323.966 323.253C323.741 323.437 323.557 323.666 323.426 323.926C323.295 324.186 323.221 324.47 323.207 324.761C323.102 325.992 324.001 327.224 324.87 327.995C325.739 328.766 328.058 329.559 328.648 329.755L328.512 330.851C328.3 332.604 328.096 334.357 327.847 336.072C327.764 336.677 327.65 337.266 327.545 337.856C327.545 337.463 327.545 337.1 327.545 337.1C327.348 335.589 326.033 332.672 324.326 332.355C324.038 332.31 323.745 332.326 323.464 332.402C323.183 332.478 322.922 332.613 322.697 332.797C322.471 332.98 322.287 333.21 322.157 333.47C322.026 333.729 321.951 334.014 321.938 334.304C321.84 335.536 322.731 336.768 323.6 337.538C324.735 338.301 325.982 338.882 327.295 339.261C327.167 339.866 327.038 340.47 326.887 341.044C326.781 341.437 326.698 341.8 326.562 342.216C326.426 342.631 326.313 342.971 326.192 343.364C325.928 344.082 325.663 344.83 325.391 345.533C325.202 346.016 325.013 346.477 324.824 346.946C324.923 346.341 325.081 345.162 325.089 345.064C325.069 343.691 324.697 342.346 324.008 341.158C324.02 341.004 324.02 340.85 324.008 340.697C323.972 340.409 323.875 340.132 323.724 339.883C323.573 339.635 323.372 339.422 323.133 339.256C322.895 339.091 322.624 338.978 322.338 338.924C322.053 338.87 321.76 338.877 321.477 338.944C319.784 339.39 318.711 342.359 318.636 343.916C318.636 344.006 318.689 345.011 318.742 345.646C318.651 345.276 318.575 344.89 318.485 344.543C318.303 343.787 318.107 343.032 317.895 342.276C317.782 341.898 317.661 341.52 317.548 341.12C317.434 340.719 317.276 340.364 317.14 339.941C316.8 339.027 316.422 338.113 316.014 337.206C316.671 337.055 318.983 336.45 319.913 335.747C320.842 335.045 321.817 333.874 321.809 332.642C321.818 332.348 321.765 332.056 321.652 331.785C321.539 331.514 321.37 331.269 321.155 331.069C320.941 330.868 320.686 330.715 320.408 330.62C320.13 330.525 319.835 330.491 319.543 330.519C317.805 330.708 316.293 333.481 315.984 335.007C315.984 335.105 315.855 336.231 315.817 336.843C315.568 336.307 315.319 335.755 315.062 335.219C314.306 333.654 313.445 332.09 312.621 330.534C312.364 330.05 312.122 329.574 311.866 329.098C312.092 329.038 314.888 328.403 315.908 327.587C316.83 326.877 317.812 325.713 317.805 324.481C317.814 324.188 317.76 323.895 317.647 323.624C317.534 323.353 317.365 323.109 317.151 322.908C316.936 322.707 316.681 322.554 316.403 322.459C316.125 322.364 315.83 322.33 315.538 322.358C313.8 322.547 312.289 325.32 311.971 326.846C311.971 326.96 311.805 328.577 311.79 328.992C311.238 327.934 310.702 326.884 310.218 325.819C309.554 324.389 308.984 322.917 308.511 321.413C308.616 321.413 311.533 320.726 312.576 319.902C313.505 319.192 314.48 318.028 314.472 316.797C314.481 316.503 314.428 316.211 314.315 315.94C314.202 315.668 314.033 315.424 313.818 315.223C313.604 315.022 313.349 314.869 313.071 314.775C312.793 314.68 312.498 314.645 312.206 314.673C310.468 314.862 308.956 317.635 308.647 319.162C308.647 319.283 308.465 321.028 308.458 321.338C308.458 321.255 308.39 321.164 308.367 321.081C307.935 319.559 307.639 318.001 307.483 316.426C307.385 315.557 307.339 314.719 307.317 313.903C307.868 313.835 310.385 313.502 311.42 312.875C312.455 312.248 313.528 311.22 313.649 309.988C313.689 309.701 313.669 309.408 313.588 309.129C313.508 308.849 313.369 308.59 313.181 308.369C312.994 308.147 312.761 307.967 312.499 307.841C312.237 307.715 311.952 307.646 311.662 307.639C309.908 307.639 308.11 310.223 307.627 311.711C307.627 311.794 307.423 312.641 307.309 313.26C307.309 312.898 307.309 312.505 307.309 312.165C307.309 310.842 307.4 309.633 307.483 308.56C307.528 307.948 307.589 307.397 307.649 306.883C308.155 306.535 310.181 305.107 310.8 304.087C311.42 303.067 311.911 301.654 311.458 300.506C311.359 300.232 311.205 299.981 311.003 299.771C310.802 299.561 310.559 299.395 310.29 299.285C310.021 299.174 309.731 299.121 309.44 299.13C309.149 299.139 308.864 299.208 308.601 299.334C307.052 300.135 306.644 303.264 306.901 304.805C306.901 304.941 307.506 306.981 307.536 306.966C307.468 307.457 307.4 307.986 307.339 308.568C307.234 309.641 307.12 310.835 307.09 312.18C307.038 313.611 307.071 315.044 307.188 316.472C307.311 318.072 307.58 319.658 307.989 321.209C307.987 321.227 307.987 321.245 307.989 321.262C307.71 320.832 306.901 319.645 306.833 319.562C305.805 318.383 303.138 316.698 301.544 317.378C301.28 317.501 301.044 317.677 300.853 317.895C300.661 318.114 300.518 318.371 300.432 318.649C300.345 318.926 300.318 319.219 300.353 319.508C300.387 319.797 300.481 320.075 300.63 320.325C301.151 321.308 302.579 321.844 303.735 322.01Z" fill="black"/>
<path d="M333.733 313.789C333.733 313.789 334.285 311.749 334.307 311.621C334.519 310.109 334.028 306.951 332.456 306.195C332.191 306.076 331.904 306.014 331.613 306.013C331.322 306.012 331.035 306.072 330.769 306.19C330.503 306.308 330.265 306.48 330.07 306.696C329.875 306.911 329.728 307.166 329.638 307.442C329.215 308.598 329.751 310.026 330.393 311.001C331.126 312.157 333.726 313.789 333.733 313.789Z" fill="black"/>
<path d="M268.274 320.809C269.307 321.08 270.373 321.197 271.44 321.157C271.44 321.157 270.957 319.683 270.919 319.6C270.428 318.565 268.863 316.865 267.594 317.031C267.383 317.064 267.182 317.142 267.003 317.259C266.825 317.376 266.673 317.53 266.558 317.71C266.443 317.89 266.368 318.092 266.336 318.303C266.305 318.514 266.319 318.73 266.377 318.935C266.541 319.365 266.794 319.755 267.122 320.079C267.449 320.402 267.842 320.651 268.274 320.809Z" fill="black"/>
<path d="M269.052 327.315C270.109 327.307 271.158 327.141 272.165 326.824C272.496 327.973 272.902 329.099 273.382 330.194C273.664 330.828 273.959 331.463 274.266 332.098C274.085 331.826 273.919 331.592 273.888 331.561C273.133 330.692 271.191 329.461 270.012 329.967C269.819 330.055 269.647 330.183 269.506 330.342C269.366 330.501 269.261 330.688 269.197 330.89C269.134 331.092 269.114 331.306 269.138 331.517C269.163 331.727 269.231 331.931 269.339 332.113C269.607 332.487 269.953 332.798 270.354 333.024C270.755 333.25 271.2 333.385 271.659 333.42C272.684 333.424 273.704 333.268 274.682 332.959L275.044 333.715C275.626 334.871 276.208 335.982 276.745 337.168C276.933 337.568 277.107 337.977 277.281 338.385C277.122 338.143 276.979 337.946 276.956 337.916C276.2 337.055 274.251 335.823 273.08 336.322C272.886 336.41 272.712 336.538 272.571 336.697C272.43 336.857 272.324 337.044 272.261 337.248C272.197 337.451 272.178 337.666 272.203 337.877C272.228 338.089 272.298 338.293 272.407 338.475C272.676 338.849 273.022 339.159 273.423 339.385C273.824 339.61 274.269 339.746 274.727 339.782C275.727 339.789 276.721 339.639 277.674 339.337C277.84 339.76 278.006 340.175 278.15 340.591C278.241 340.878 278.346 341.143 278.422 341.437C278.498 341.732 278.581 342.004 278.656 342.291C278.792 342.835 278.928 343.402 279.042 343.938C279.125 344.309 279.2 344.694 279.268 345.026C279.087 344.618 278.709 343.833 278.671 343.772C278.059 342.805 276.314 341.294 275.075 341.611C274.87 341.669 274.679 341.769 274.516 341.905C274.353 342.042 274.22 342.211 274.126 342.402C274.033 342.593 273.981 342.802 273.974 343.015C273.967 343.227 274.004 343.439 274.085 343.636C274.295 344.045 274.592 344.404 274.955 344.687C275.317 344.97 275.737 345.171 276.185 345.276C277.225 345.435 278.282 345.435 279.321 345.276C279.442 345.873 279.555 346.455 279.646 346.999C279.858 348.208 280.024 349.265 280.145 350.218H280.976C280.832 349.265 280.636 348.132 280.387 346.863C280.266 346.258 280.13 345.616 279.979 344.951C280.579 344.711 281.164 344.436 281.732 344.127C282.501 344.79 283.358 345.345 284.278 345.775C284.051 346.334 283.825 346.885 283.606 347.392C283.137 348.457 282.699 349.409 282.306 350.218H283.243C283.583 349.462 283.946 348.623 284.331 347.686C284.565 347.12 284.807 346.507 285.041 345.873C286.068 346.114 287.126 346.196 288.177 346.115C288.634 346.039 289.069 345.865 289.451 345.603C289.833 345.342 290.154 345.001 290.391 344.603C290.486 344.413 290.539 344.204 290.547 343.991C290.556 343.779 290.519 343.567 290.44 343.369C290.361 343.171 290.241 342.993 290.088 342.845C289.935 342.697 289.752 342.583 289.552 342.51C288.336 342.102 286.484 343.477 285.774 344.399C285.736 344.452 285.366 345.087 285.139 345.495C285.238 345.238 285.336 344.989 285.434 344.739C285.623 344.218 285.804 343.681 285.993 343.107C286.076 342.828 286.167 342.548 286.25 342.261C286.333 341.974 286.401 341.672 286.477 341.377C286.643 340.682 286.779 339.971 286.892 339.254C287.842 339.629 288.843 339.859 289.862 339.934C290.323 339.934 290.778 339.833 291.196 339.638C291.613 339.444 291.983 339.16 292.28 338.808C292.403 338.633 292.488 338.435 292.528 338.226C292.569 338.016 292.565 337.801 292.516 337.593C292.468 337.385 292.376 337.19 292.247 337.021C292.117 336.851 291.954 336.711 291.766 336.609C290.633 336.027 288.593 337.108 287.784 337.909C287.731 337.961 287.217 338.604 286.938 338.966C287.006 338.536 287.074 338.105 287.127 337.659C287.285 336.39 287.406 335.105 287.535 333.821C287.572 333.42 287.61 333.027 287.656 332.642C288.637 333.033 289.671 333.275 290.723 333.36C291.184 333.356 291.639 333.253 292.056 333.058C292.474 332.862 292.844 332.578 293.141 332.226C293.263 332.052 293.347 331.854 293.387 331.646C293.427 331.437 293.422 331.223 293.374 331.016C293.325 330.809 293.234 330.615 293.105 330.446C292.977 330.277 292.814 330.137 292.628 330.035C291.494 329.446 289.454 330.526 288.645 331.335C288.577 331.395 287.837 332.325 287.663 332.566C287.754 331.705 287.852 330.844 287.988 329.997C288.167 328.854 288.419 327.723 288.744 326.612C289.73 327.017 290.772 327.272 291.834 327.368C292.294 327.365 292.748 327.263 293.164 327.067C293.581 326.871 293.949 326.587 294.245 326.234C294.368 326.06 294.453 325.862 294.494 325.653C294.535 325.444 294.532 325.229 294.484 325.021C294.436 324.814 294.345 324.619 294.217 324.449C294.088 324.279 293.925 324.138 293.738 324.035C292.597 323.454 290.557 324.534 289.749 325.343C289.688 325.403 288.887 326.4 288.759 326.589C288.759 326.529 288.759 326.461 288.812 326.393C289.159 325.289 289.607 324.219 290.149 323.197C290.436 322.63 290.746 322.101 291.063 321.595C291.98 322.084 292.966 322.43 293.988 322.622C294.446 322.669 294.908 322.616 295.344 322.467C295.779 322.319 296.178 322.078 296.511 321.761C296.657 321.601 296.767 321.412 296.833 321.206C296.9 321 296.921 320.782 296.896 320.567C296.871 320.352 296.8 320.145 296.688 319.96C296.576 319.775 296.426 319.616 296.247 319.494C295.174 318.784 293.028 319.638 292.136 320.348C292.091 320.386 291.638 320.832 291.313 321.164C291.456 320.937 291.608 320.703 291.751 320.492C292.288 319.683 292.824 318.98 293.308 318.353L294.063 317.401C295.087 317.411 296.106 317.266 297.086 316.97C297.515 316.804 297.903 316.545 298.222 316.212C298.541 315.879 298.782 315.48 298.929 315.044C298.981 314.837 298.989 314.623 298.952 314.413C298.916 314.204 298.835 314.004 298.716 313.828C298.597 313.652 298.442 313.503 298.261 313.391C298.081 313.279 297.878 313.206 297.668 313.177C296.391 313.041 294.879 314.787 294.411 315.829C294.411 315.92 293.905 317.409 293.935 317.409C293.693 317.688 293.436 317.983 293.179 318.308C292.688 318.92 292.129 319.615 291.57 320.416C290.965 321.272 290.408 322.16 289.9 323.076C289.354 324.09 288.897 325.149 288.532 326.242V326.28C288.532 325.909 288.532 324.859 288.532 324.768C288.381 323.635 287.429 321.534 286.175 321.3C285.964 321.266 285.749 321.276 285.543 321.331C285.337 321.386 285.145 321.483 284.98 321.617C284.814 321.752 284.679 321.919 284.583 322.109C284.486 322.299 284.432 322.508 284.422 322.721C284.441 323.181 284.559 323.631 284.769 324.041C284.979 324.45 285.276 324.809 285.638 325.093C286.525 325.671 287.492 326.115 288.509 326.408C288.152 327.546 287.872 328.708 287.671 329.884C287.55 330.571 287.444 331.259 287.353 331.962C287.353 331.637 287.353 331.342 287.353 331.304C287.202 330.171 286.25 328.063 284.996 327.836C284.785 327.802 284.569 327.813 284.363 327.868C284.156 327.923 283.964 328.021 283.798 328.156C283.633 328.291 283.497 328.46 283.402 328.651C283.306 328.842 283.252 329.051 283.243 329.264C283.259 329.725 283.377 330.176 283.587 330.586C283.797 330.996 284.095 331.355 284.459 331.637C285.316 332.204 286.253 332.637 287.24 332.921C287.24 333.186 287.172 333.458 287.142 333.722C286.983 335.007 286.84 336.292 286.651 337.546C286.59 337.984 286.507 338.422 286.432 338.853C286.432 338.566 286.432 338.324 286.432 338.286C286.288 337.153 285.336 335.045 284.074 334.81C283.864 334.777 283.649 334.789 283.443 334.845C283.238 334.9 283.046 334.999 282.881 335.134C282.717 335.268 282.582 335.437 282.487 335.627C282.392 335.817 282.338 336.026 282.329 336.239C282.347 336.699 282.465 337.149 282.676 337.559C282.886 337.969 283.182 338.328 283.545 338.611C284.376 339.167 285.289 339.59 286.25 339.866C286.152 340.311 286.061 340.75 285.948 341.173C285.872 341.46 285.812 341.747 285.714 342.027L285.442 342.873C285.245 343.402 285.056 343.946 284.852 344.46C284.716 344.815 284.58 345.147 284.444 345.487C284.512 345.049 284.626 344.188 284.633 344.112C284.627 343.111 284.367 342.129 283.878 341.256C283.893 341.143 283.893 341.029 283.878 340.916C283.851 340.705 283.781 340.502 283.671 340.32C283.561 340.138 283.414 339.981 283.239 339.86C283.064 339.738 282.866 339.655 282.657 339.616C282.448 339.577 282.233 339.582 282.026 339.631C280.795 339.964 280.009 342.132 279.948 343.273C279.948 343.341 279.986 344.074 280.024 344.543C279.963 344.271 279.903 344.006 279.835 343.734C279.707 343.19 279.563 342.646 279.404 342.057C279.321 341.785 279.238 341.498 279.147 341.211C279.057 340.923 278.951 340.636 278.853 340.349C278.611 339.677 278.324 339.012 278.029 338.347C279.03 338.14 279.994 337.781 280.885 337.281C281.266 337.025 281.587 336.69 281.827 336.299C282.067 335.908 282.22 335.47 282.276 335.015C282.282 334.802 282.243 334.59 282.161 334.393C282.08 334.196 281.958 334.019 281.803 333.873C281.648 333.726 281.464 333.615 281.263 333.544C281.062 333.474 280.848 333.447 280.636 333.466C279.366 333.602 278.256 335.627 278.029 336.745C278.029 336.82 277.938 337.637 277.908 338.09C277.727 337.697 277.545 337.296 277.349 336.896C276.782 335.755 276.17 334.629 275.566 333.473L275.014 332.423C276.048 332.205 277.043 331.836 277.969 331.327C278.351 331.073 278.673 330.738 278.913 330.347C279.153 329.955 279.305 329.516 279.359 329.06C279.365 328.848 279.326 328.637 279.245 328.441C279.164 328.245 279.043 328.068 278.889 327.921C278.735 327.775 278.552 327.663 278.351 327.593C278.151 327.522 277.938 327.494 277.727 327.511C276.45 327.647 275.347 329.672 275.12 330.791C275.12 330.881 274.991 332.06 274.984 332.362C274.583 331.607 274.191 330.851 273.835 330.043C273.346 328.996 272.926 327.918 272.581 326.816C273.623 326.599 274.626 326.227 275.558 325.713C275.942 325.46 276.265 325.125 276.505 324.734C276.745 324.342 276.897 323.903 276.949 323.446C276.956 323.232 276.918 323.02 276.837 322.822C276.756 322.624 276.634 322.446 276.479 322.299C276.324 322.152 276.139 322.039 275.938 321.969C275.736 321.898 275.522 321.871 275.309 321.889C274.039 322.033 272.936 324.058 272.702 325.176C272.702 325.267 272.574 326.537 272.566 326.771C272.547 326.704 272.524 326.639 272.498 326.574C272.183 325.46 271.968 324.319 271.856 323.166C271.78 322.532 271.75 321.92 271.727 321.33C272.767 321.233 273.786 320.978 274.75 320.575C275.159 320.363 275.517 320.065 275.798 319.701C276.08 319.337 276.279 318.915 276.382 318.467C276.412 318.255 276.397 318.04 276.338 317.836C276.278 317.631 276.177 317.441 276.039 317.278C275.901 317.115 275.731 316.984 275.538 316.892C275.346 316.799 275.137 316.749 274.923 316.744C273.646 316.744 272.324 318.633 271.977 319.721C271.977 319.781 271.825 320.401 271.742 320.862C271.742 320.59 271.742 320.31 271.742 320.053C271.742 319.086 271.803 318.202 271.863 317.416C271.901 316.97 271.946 316.562 271.992 316.192C272.816 315.624 273.552 314.936 274.175 314.152C274.441 313.776 274.621 313.346 274.703 312.893C274.785 312.441 274.767 311.975 274.651 311.53C274.581 311.329 274.469 311.145 274.323 310.99C274.176 310.835 273.999 310.713 273.802 310.632C273.605 310.55 273.393 310.512 273.18 310.518C272.967 310.524 272.758 310.576 272.566 310.669C271.433 311.258 271.13 313.547 271.319 314.673C271.319 314.772 271.765 316.268 271.788 316.253C271.742 316.615 271.689 317.008 271.644 317.431C271.569 318.187 271.485 319.101 271.463 320.076C271.429 321.122 271.454 322.169 271.538 323.212C271.631 324.383 271.826 325.543 272.12 326.68C272.12 326.68 272.12 326.68 272.12 326.718C271.916 326.4 271.327 325.532 271.274 325.471C270.518 324.61 268.569 323.378 267.39 323.877C267.196 323.965 267.023 324.093 266.882 324.252C266.74 324.412 266.635 324.599 266.571 324.803C266.508 325.006 266.488 325.221 266.513 325.432C266.538 325.644 266.608 325.848 266.717 326.03C266.99 326.401 267.34 326.708 267.743 326.93C268.146 327.152 268.593 327.283 269.052 327.315Z" fill="black"/>
<path d="M291.003 321.3C291.003 321.3 291.411 319.789 291.426 319.706C291.585 318.58 291.222 316.298 290.066 315.739C289.872 315.652 289.663 315.607 289.45 315.607C289.238 315.606 289.028 315.651 288.834 315.737C288.641 315.823 288.467 315.95 288.325 316.107C288.183 316.265 288.076 316.451 288.011 316.653C287.907 317.101 287.902 317.566 287.996 318.016C288.09 318.466 288.281 318.891 288.555 319.26C289.267 320.056 290.092 320.743 291.003 321.3Z" fill="black"/>
<path d="M332.668 57.0459C332.039 59.5322 332.199 62.1527 333.126 64.5438C334.054 66.9349 335.703 68.9781 337.844 70.39C339.985 71.8019 342.512 72.5124 345.075 72.4231C347.638 72.3337 350.11 71.4489 352.148 69.8914L356.931 74.4704C356.808 74.9693 356.817 75.4916 356.957 75.9859C357.098 76.4802 357.365 76.9293 357.732 77.2888L368.121 87.467C368.4 87.7374 368.73 87.9502 369.091 88.0933C369.452 88.2365 369.837 88.307 370.226 88.3011C370.614 88.2951 370.998 88.2127 371.354 88.0586C371.711 87.9045 372.033 87.6816 372.304 87.4028C372.574 87.1239 372.787 86.7946 372.93 86.4335C373.073 86.0724 373.144 85.6867 373.138 85.2983C373.132 84.9099 373.049 84.5265 372.895 84.17C372.741 83.8135 372.518 83.4908 372.239 83.2204L361.827 73.0347C361.452 72.6738 360.988 72.4181 360.483 72.2934C359.977 72.1687 359.448 72.1794 358.948 72.3244L354.271 67.821C355.4 66.4377 356.21 64.8227 356.644 63.0908C357.04 61.5165 357.123 59.8795 356.888 58.2732C356.652 56.6668 356.102 55.1227 355.27 53.7288C354.437 52.335 353.338 51.1188 352.036 50.1496C350.733 49.1805 349.252 48.4774 347.678 48.0805C346.104 47.6836 344.467 47.6006 342.861 47.8363C341.254 48.0721 339.71 48.6219 338.316 49.4544C336.922 50.2869 335.706 51.3858 334.737 52.6884C333.768 53.9909 333.065 55.4716 332.668 57.0459ZM354.498 62.5316C354.008 64.4782 352.952 66.2358 351.463 67.5821C349.974 68.9283 348.119 69.8028 346.133 70.0949C344.147 70.387 342.119 70.0836 340.306 69.223C338.492 68.3624 336.975 66.9834 335.945 65.2603C334.916 63.5372 334.42 61.5475 334.522 59.5428C334.623 57.5381 335.316 55.6084 336.515 53.9979C337.713 52.3874 339.361 51.1684 341.252 50.495C343.143 49.8217 345.192 49.7243 347.138 50.2151C349.746 50.8748 351.985 52.5421 353.365 54.8512C354.745 57.1603 355.152 59.9226 354.498 62.5316Z" stroke="black" stroke-miterlimit="10"/>
<path d="M104.162 206.786C102.288 207.234 100.599 208.254 99.3305 209.705C98.062 211.155 97.2761 212.965 97.0818 214.882C96.8875 216.799 97.2944 218.729 98.2462 220.405C99.1979 222.08 100.647 223.418 102.394 224.233L101.003 229.016C100.628 229.107 100.282 229.294 100.001 229.559C99.72 229.824 99.5133 230.158 99.4013 230.528L96.19 241.008C96.0317 241.576 96.101 242.183 96.3832 242.701C96.6653 243.219 97.1381 243.606 97.7012 243.781C98.2692 243.939 98.8765 243.87 99.3942 243.588C99.912 243.306 100.299 242.833 100.474 242.27L103.663 231.79C103.776 231.414 103.787 231.014 103.694 230.633C103.601 230.252 103.408 229.902 103.134 229.621L104.509 224.921C105.874 225.202 107.284 225.173 108.636 224.835C109.988 224.498 111.247 223.86 112.319 222.971C113.391 222.081 114.25 220.962 114.831 219.695C115.412 218.429 115.701 217.048 115.677 215.655C115.653 214.262 115.315 212.893 114.69 211.647C114.065 210.402 113.168 209.314 112.065 208.462C110.962 207.61 109.682 207.018 108.319 206.728C106.956 206.438 105.546 206.458 104.192 206.786H104.162ZM108.076 223.259C106.607 223.608 105.068 223.514 103.653 222.988C102.238 222.463 101.011 221.529 100.126 220.306C99.2415 219.083 98.7396 217.625 98.6837 216.116C98.6279 214.608 99.0206 213.117 99.8123 211.831C100.604 210.546 101.759 209.525 103.131 208.896C104.504 208.267 106.031 208.059 107.522 208.299C109.012 208.539 110.398 209.215 111.504 210.242C112.61 211.269 113.387 212.602 113.735 214.07C114.202 216.035 113.872 218.104 112.817 219.826C111.762 221.548 110.068 222.782 108.106 223.259H108.076Z" stroke="black" stroke-miterlimit="10"/>
<path d="M356.084 137.149H334.171C332.749 137.149 331.384 137.714 330.378 138.72C329.372 139.726 328.807 141.091 328.807 142.514V154.641C328.807 156.064 329.372 157.429 330.378 158.435C331.384 159.441 332.749 160.006 334.171 160.006H349.435L348.679 167.562L355.782 160.006H356.084C356.789 160.006 357.487 159.867 358.137 159.598C358.788 159.328 359.38 158.933 359.878 158.435C360.376 157.937 360.771 157.345 361.041 156.694C361.31 156.043 361.449 155.346 361.449 154.641V142.514C361.449 141.809 361.31 141.111 361.041 140.461C360.771 139.81 360.376 139.218 359.878 138.72C359.38 138.222 358.788 137.827 358.137 137.557C357.487 137.287 356.789 137.149 356.084 137.149Z" stroke="black" stroke-miterlimit="10"/>
<path d="M105.749 165.862H120.596C121.074 165.862 121.546 165.956 121.987 166.139C122.428 166.321 122.829 166.589 123.166 166.927C123.504 167.264 123.772 167.665 123.954 168.106C124.137 168.547 124.231 169.019 124.231 169.497V177.71C124.231 178.187 124.137 178.66 123.954 179.101C123.772 179.542 123.504 179.943 123.166 180.28C122.829 180.618 122.428 180.885 121.987 181.068C121.546 181.251 121.074 181.345 120.596 181.345H110.26L110.796 186.453L105.953 181.345H105.749C104.785 181.345 103.86 180.962 103.179 180.28C102.497 179.599 102.114 178.674 102.114 177.71V169.497C102.114 168.533 102.497 167.608 103.179 166.927C103.86 166.245 104.785 165.862 105.749 165.862Z" stroke="black" stroke-miterlimit="10"/>
<path d="M215.502 27.4028H230.35C231.314 27.4028 232.238 27.7858 232.92 28.4674C233.601 29.149 233.984 30.0734 233.984 31.0373V39.2509C233.984 40.2148 233.601 41.1393 232.92 41.8209C232.238 42.5025 231.314 42.8854 230.35 42.8854H220.013L220.549 47.9934L215.706 42.8854H215.502C214.538 42.8854 213.613 42.5025 212.932 41.8209C212.25 41.1393 211.867 40.2148 211.867 39.2509V31.0373C211.867 30.0734 212.25 29.149 212.932 28.4674C213.613 27.7858 214.538 27.4028 215.502 27.4028Z" stroke="black" stroke-miterlimit="10"/>
<path d="M195.327 44.0869L231.657 145.612L309.674 45.6888" stroke="black" stroke-miterlimit="10"/>
<path d="M340.662 110.347L231.657 145.612L304.861 227.898" stroke="black" stroke-miterlimit="10"/>
<path d="M147.768 224.694L231.657 145.612L117.309 126.374" stroke="black" stroke-miterlimit="10"/>
<path d="M349.991 115.788C352.82 110.383 350.732 103.707 345.326 100.877C339.921 98.048 333.245 100.136 330.416 105.542C327.586 110.947 329.675 117.623 335.08 120.452C340.485 123.282 347.161 121.193 349.991 115.788Z" fill="black" stroke="black" stroke-width="0.5" stroke-miterlimit="10"/>
<path d="M343.858 109.901H336.657C335.982 109.901 335.334 110.17 334.857 110.647C334.379 111.125 334.111 111.772 334.111 112.448V118.493C335.871 119.866 338.043 120.604 340.275 120.586C342.507 120.568 344.667 119.796 346.405 118.394V112.448C346.405 111.772 346.137 111.125 345.659 110.647C345.181 110.17 344.534 109.901 343.858 109.901Z" fill="white" stroke="black" stroke-miterlimit="10"/>
<path d="M340.133 108.79C340.858 108.79 341.567 108.575 342.169 108.173C342.772 107.77 343.242 107.198 343.519 106.528C343.796 105.858 343.869 105.122 343.728 104.411C343.586 103.7 343.237 103.047 342.725 102.534C342.212 102.022 341.559 101.673 340.848 101.531C340.137 101.39 339.401 101.463 338.731 101.74C338.061 102.017 337.489 102.487 337.086 103.09C336.684 103.692 336.469 104.401 336.469 105.126C336.469 106.098 336.855 107.03 337.542 107.717C338.229 108.404 339.161 108.79 340.133 108.79Z" fill="white" stroke="black" stroke-miterlimit="10"/>
<path d="M316.174 228.239C318.529 222.611 315.876 216.139 310.248 213.783C304.62 211.428 298.148 214.081 295.792 219.709C293.437 225.337 296.09 231.809 301.718 234.165C307.346 236.52 313.818 233.867 316.174 228.239Z" fill="black" stroke="black" stroke-width="0.5" stroke-miterlimit="10"/>
<path d="M309.689 223.244H302.488C302.154 223.243 301.823 223.308 301.515 223.435C301.206 223.562 300.925 223.749 300.688 223.985C300.452 224.22 300.264 224.501 300.136 224.809C300.008 225.118 299.942 225.448 299.942 225.783V231.827C301.702 233.201 303.874 233.938 306.106 233.92C308.338 233.903 310.498 233.13 312.236 231.729V225.783C312.236 225.448 312.17 225.118 312.042 224.809C311.914 224.501 311.726 224.22 311.49 223.985C311.253 223.749 310.972 223.562 310.663 223.435C310.354 223.308 310.024 223.243 309.689 223.244Z" fill="white" stroke="black" stroke-miterlimit="10"/>
<path d="M305.911 222.125C306.636 222.125 307.345 221.91 307.947 221.508C308.55 221.105 309.02 220.532 309.297 219.863C309.574 219.193 309.647 218.456 309.506 217.745C309.364 217.035 309.015 216.382 308.503 215.869C307.99 215.357 307.337 215.007 306.626 214.866C305.915 214.725 305.179 214.797 304.509 215.075C303.839 215.352 303.267 215.822 302.864 216.424C302.462 217.027 302.247 217.736 302.247 218.46C302.247 218.942 302.341 219.418 302.526 219.863C302.71 220.307 302.98 220.711 303.32 221.052C303.66 221.392 304.064 221.662 304.509 221.846C304.954 222.03 305.43 222.125 305.911 222.125Z" fill="white" stroke="black" stroke-miterlimit="10"/>
<path d="M194.851 51.2198C199.183 51.2198 202.694 47.7082 202.694 43.3765C202.694 39.0448 199.183 35.5332 194.851 35.5332C190.519 35.5332 187.008 39.0448 187.008 43.3765C187.008 47.7082 190.519 51.2198 194.851 51.2198Z" fill="black" stroke="black" stroke-width="0.5" stroke-miterlimit="10"/>
<path d="M197.45 42.8855H192.342C191.863 42.8855 191.404 43.0758 191.065 43.4144C190.727 43.7531 190.536 44.2125 190.536 44.6914V48.9304C191.786 49.9014 193.326 50.4228 194.908 50.4105C196.49 50.3981 198.022 49.8527 199.256 48.8624V44.6536C199.246 44.1813 199.052 43.7316 198.714 43.401C198.376 43.0705 197.923 42.8854 197.45 42.8855Z" fill="white" stroke="black" stroke-miterlimit="10"/>
<path d="M194.836 42.0544C195.35 42.0544 195.852 41.9019 196.28 41.6163C196.707 41.3307 197.04 40.9247 197.237 40.4498C197.434 39.9748 197.485 39.4522 197.385 38.9479C197.285 38.4437 197.037 37.9806 196.674 37.617C196.31 37.2535 195.847 37.006 195.343 36.9057C194.839 36.8054 194.316 36.8568 193.841 37.0536C193.366 37.2503 192.96 37.5835 192.674 38.0109C192.389 38.4384 192.236 38.9409 192.236 39.455C192.236 40.1444 192.51 40.8056 192.998 41.293C193.485 41.7805 194.146 42.0544 194.836 42.0544Z" fill="white" stroke="black" stroke-miterlimit="10"/>
<path d="M153.804 226.433C155.472 222.435 153.583 217.842 149.586 216.174C145.588 214.506 140.995 216.394 139.327 220.392C137.659 224.39 139.547 228.983 143.545 230.651C147.542 232.319 152.135 230.431 153.804 226.433Z" fill="black" stroke="black" stroke-width="0.5" stroke-miterlimit="10"/>
<path d="M149.166 222.881H144.058C143.82 222.88 143.584 222.926 143.363 223.017C143.143 223.108 142.942 223.241 142.774 223.41C142.605 223.578 142.472 223.779 142.381 223.999C142.29 224.22 142.244 224.456 142.245 224.694V228.979C143.493 229.955 145.035 230.48 146.62 230.468C148.205 230.456 149.739 229.907 150.972 228.911V224.694C150.973 224.457 150.927 224.221 150.837 224.001C150.747 223.781 150.614 223.581 150.446 223.412C150.278 223.244 150.079 223.11 149.859 223.019C149.64 222.928 149.404 222.881 149.166 222.881Z" fill="white" stroke="black" stroke-miterlimit="10"/>
<path d="M146.522 222.087C147.036 222.087 147.538 221.935 147.966 221.649C148.393 221.364 148.726 220.958 148.923 220.483C149.12 220.008 149.171 219.485 149.071 218.981C148.971 218.477 148.723 218.014 148.36 217.65C147.996 217.286 147.533 217.039 147.029 216.939C146.524 216.838 146.002 216.89 145.527 217.087C145.052 217.283 144.646 217.616 144.36 218.044C144.075 218.471 143.922 218.974 143.922 219.488C143.922 220.177 144.196 220.839 144.684 221.326C145.171 221.813 145.832 222.087 146.522 222.087Z" fill="white" stroke="black" stroke-miterlimit="10"/>
<path d="M316.831 45.658C318.409 41.6238 316.417 37.0744 312.383 35.4967C308.349 33.9189 303.8 35.9103 302.222 39.9445C300.644 43.9787 302.635 48.528 306.67 50.1058C310.704 51.6835 315.253 49.6922 316.831 45.658Z" fill="black" stroke="black" stroke-width="0.5" stroke-miterlimit="10"/>
<path d="M312.145 42.2734H307.03C306.792 42.2734 306.558 42.3202 306.339 42.4109C306.119 42.5017 305.92 42.6347 305.753 42.8024C305.585 42.9701 305.452 43.1692 305.361 43.3883C305.27 43.6074 305.224 43.8422 305.224 44.0794V48.3713C306.474 49.3428 308.016 49.8645 309.599 49.8522C311.183 49.8399 312.716 49.2942 313.951 48.3033V44.0794C313.951 43.8422 313.904 43.6074 313.814 43.3883C313.723 43.1692 313.59 42.9701 313.422 42.8024C313.254 42.6347 313.055 42.5017 312.836 42.4109C312.617 42.3202 312.382 42.2734 312.145 42.2734Z" fill="white" stroke="black" stroke-miterlimit="10"/>
<path d="M309.501 41.4799C310.015 41.4799 310.517 41.3274 310.945 41.0418C311.372 40.7562 311.705 40.3503 311.902 39.8753C312.099 39.4003 312.15 38.8777 312.05 38.3735C311.95 37.8693 311.702 37.4061 311.339 37.0426C310.975 36.6791 310.512 36.4315 310.008 36.3312C309.504 36.2309 308.981 36.2824 308.506 36.4791C308.031 36.6758 307.625 37.009 307.339 37.4365C307.054 37.8639 306.901 38.3665 306.901 38.8806C306.901 39.57 307.175 40.2311 307.663 40.7186C308.15 41.206 308.811 41.4799 309.501 41.4799Z" fill="white" stroke="black" stroke-miterlimit="10"/>
<path d="M129.537 130.066C132.611 122.78 129.197 114.381 121.911 111.307C114.625 108.232 106.227 111.646 103.152 118.932C100.077 126.218 103.491 134.617 110.777 137.691C118.063 140.766 126.462 137.352 129.537 130.066Z" fill="black" stroke="black" stroke-width="0.5" stroke-miterlimit="10"/>
<path d="M121.095 123.533H111.763C110.889 123.533 110.05 123.88 109.431 124.497C108.812 125.115 108.463 125.953 108.461 126.827V134.655C110.743 136.43 113.556 137.384 116.446 137.362C119.337 137.34 122.135 136.344 124.39 134.534V126.827C124.39 125.953 124.042 125.115 123.425 124.498C122.807 123.88 121.969 123.533 121.095 123.533Z" fill="white" stroke="black" stroke-miterlimit="10"/>
<path d="M116.252 122.082C117.19 122.082 118.108 121.803 118.888 121.282C119.668 120.76 120.276 120.019 120.636 119.152C120.995 118.285 121.089 117.331 120.906 116.411C120.723 115.49 120.271 114.645 119.607 113.981C118.943 113.317 118.098 112.865 117.177 112.682C116.257 112.499 115.303 112.593 114.436 112.952C113.569 113.311 112.827 113.92 112.306 114.7C111.785 115.48 111.506 116.398 111.506 117.336C111.506 118.595 112.006 119.802 112.896 120.692C113.786 121.582 114.993 122.082 116.252 122.082Z" fill="white" stroke="black" stroke-miterlimit="10"/>
<path d="M162.926 67.5489C162.926 67.5035 162.926 67.4582 162.926 67.4129C162.712 65.452 161.939 63.5937 160.7 62.0588C159.461 60.5239 157.808 59.3767 155.937 58.7535C154.037 58.1089 151.986 58.0588 150.058 58.6099C150.485 57.1598 150.631 55.6416 150.489 54.1367C150.208 51.1272 148.794 48.3371 146.532 46.3319C144.27 44.3267 141.331 43.2564 138.31 43.3381C135.288 43.4198 132.411 44.6473 130.261 46.7718C128.111 48.8963 126.85 51.7587 126.732 54.7789C126.558 54.7789 126.384 54.7789 126.211 54.7789C123.05 54.7789 120.019 56.0344 117.785 58.2691C115.55 60.5038 114.295 63.5347 114.295 66.695C114.292 67.7622 114.434 68.8248 114.718 69.8535C115.118 71.2351 115.958 72.4484 117.11 73.309C118.262 74.1696 119.664 74.6304 121.103 74.6214H156.299C157.209 74.6257 158.11 74.4422 158.945 74.0825C159.781 73.7227 160.533 73.1943 161.155 72.5305C161.777 71.8666 162.256 71.0816 162.56 70.2244C162.865 69.3672 162.989 68.4564 162.926 67.5489Z" stroke="black" stroke-miterlimit="10"/>
<path d="M343.692 188.5C343.689 188.475 343.689 188.45 343.692 188.425C343.577 187.364 343.16 186.359 342.49 185.528C341.821 184.698 340.926 184.077 339.914 183.74C338.889 183.39 337.781 183.364 336.74 183.664C336.975 182.881 337.057 182.06 336.982 181.246C336.871 179.59 336.122 178.04 334.894 176.923C333.666 175.805 332.053 175.206 330.393 175.251C328.733 175.296 327.154 175.981 325.988 177.164C324.822 178.346 324.159 179.934 324.137 181.594H323.857C322.151 181.596 320.516 182.275 319.31 183.482C318.104 184.689 317.427 186.326 317.427 188.032C317.429 188.606 317.505 189.177 317.654 189.732C317.868 190.479 318.32 191.136 318.942 191.603C319.564 192.069 320.322 192.32 321.099 192.316H340.095C340.588 192.322 341.076 192.225 341.53 192.032C341.983 191.839 342.392 191.555 342.73 191.196C343.068 190.838 343.328 190.413 343.493 189.949C343.659 189.485 343.727 188.992 343.692 188.5Z" stroke="black" stroke-miterlimit="10"/>
<path d="M176.625 246.728C176.625 246.728 176.625 246.683 176.625 246.66C176.511 245.599 176.095 244.593 175.425 243.763C174.755 242.932 173.86 242.312 172.847 241.976C171.822 241.626 170.714 241.6 169.674 241.9C169.905 241.116 169.985 240.296 169.908 239.482C169.746 237.92 169.024 236.469 167.875 235.398C166.727 234.327 165.229 233.708 163.659 233.656C161.972 233.615 160.336 234.24 159.106 235.395C157.876 236.55 157.15 238.143 157.085 239.83H156.805C155.96 239.829 155.122 239.994 154.341 240.318C153.559 240.641 152.849 241.115 152.251 241.713C151.653 242.311 151.179 243.021 150.856 243.803C150.532 244.584 150.367 245.422 150.368 246.267C150.368 246.842 150.447 247.414 150.602 247.968C150.814 248.716 151.266 249.375 151.888 249.842C152.511 250.308 153.269 250.558 154.047 250.552H173.036C173.529 250.556 174.017 250.458 174.47 250.265C174.923 250.071 175.331 249.786 175.668 249.426C176.006 249.067 176.265 248.642 176.429 248.178C176.594 247.713 176.661 247.22 176.625 246.728Z" stroke="black" stroke-miterlimit="10"/>
<path d="M284.754 49.9052C284.758 49.8827 284.758 49.8597 284.754 49.8372C284.642 48.7755 284.226 47.7687 283.556 46.9377C282.886 46.1067 281.99 45.4868 280.976 45.1523C279.952 44.8003 278.844 44.7713 277.802 45.0692C278.038 44.2889 278.117 43.4699 278.037 42.6588C277.925 41.0019 277.177 39.4525 275.948 38.3349C274.72 37.2174 273.107 36.6183 271.447 36.6632C269.787 36.7082 268.209 37.3936 267.043 38.5759C265.876 39.7583 265.213 41.3459 265.191 43.0064H264.912C263.922 43.0088 262.946 43.239 262.06 43.6791C261.174 44.1192 260.401 44.7574 259.801 45.5443C259.201 46.3312 258.791 47.2456 258.601 48.2168C258.412 49.1879 258.448 50.1896 258.708 51.1444C258.922 51.8918 259.375 52.5488 259.997 53.0153C260.619 53.4818 261.376 53.7323 262.154 53.7286H281.15C281.644 53.7363 282.134 53.6409 282.59 53.4485C283.045 53.2561 283.456 52.971 283.795 52.6113C284.134 52.2516 284.394 51.8252 284.559 51.3593C284.725 50.8934 284.791 50.3981 284.754 49.9052Z" stroke="black" stroke-miterlimit="10"/>
<path d="M289.207 201.609C321.274 169.542 321.274 117.551 289.207 85.4838C257.14 53.4168 205.149 53.4167 173.082 85.4838C141.015 117.551 141.015 169.542 173.082 201.609C205.149 233.676 257.14 233.676 289.207 201.609Z" fill="white" stroke="black" stroke-miterlimit="10"/>
<path d="M228.189 105.533L235.987 109.04L238.125 112.546L241.639 113.913L242.024 117.616L240.664 119.754L237.936 120.344L232.088 118.001V117.246L235.397 115.878L234.234 111.79L228.944 109.84L226.609 106.72L228.189 105.533ZM277.304 195.565L271.07 193.034L263.468 190.306H257.423L251.771 189.135L245.53 190.495L242.024 190.691H239.886L235.79 193.034L231.861 194.59L226.572 191.281L227.932 185.818L224.622 184.458H220.723L220.141 182.705L220.527 179.191L219.167 177.249L216.439 177.634L215.683 179.584L212.374 179.78L209.449 176.274L208.278 171.597L211.202 166.134L216.854 166.527L218.418 167.894H220.753L223.678 166.134L226.209 166.89L229.715 172.934L231.083 172.738L230.69 168.257L229.594 165.945L229.979 162.242L237.188 159.122L238.163 151.913L241.283 149.374L243.815 144.894L245.764 144.508L250.245 141.584L250.442 140.027L247.328 140.216L246.739 138.66H244.601L241.283 139.415L242.84 136.884L249.641 134.934L251.197 133.181L253.925 137.466L255.685 139.219L258.413 138.463L257.242 135.932L253.147 133.008L248.469 127.718L243.603 124.401L238.926 123.646L236.584 121.311L233.463 120.555L233.077 121.311L232.685 126.963L233.44 128.905L231.687 135.146L227.803 132.048L228.385 129.32L224.305 127.356L222.537 125.247L223.511 120.381L229.163 116.286L229.556 111.609L227.41 111.805L226.043 110.052L225.461 107.128L224.093 106.931L223.338 110.052L221.199 110.437L220.224 103.637L218.638 102.579L215.91 101.408L212.797 102.964L216.688 106.667L217.444 109.984L210.424 104.695L205.55 99.4054L205.165 94.1161L200.125 92.6653L196.226 95.2042C195.286 95.773 194.318 96.2925 193.324 96.7607C191.786 97.1275 190.223 97.38 188.647 97.5164L187.892 100.834L183.411 101.022L183.804 103.168L191.012 104.34L194.715 108.427V115.228L192.569 121.273L192.962 127.703L187.506 137.247L186.335 151.475L188.035 159.704L190.566 165.945L193.491 166.33L192.516 163.217L190.959 160.875L189.985 156.59L191.738 156.198L194.465 163.217L196.415 169.451V174.514L200.117 179.002L206.744 183.868L216.877 186.604L219.998 189.52L222.333 192.641L225.846 194.787L230.131 195.951L234.415 195.762C234.415 195.762 234.226 197.711 234.226 198.686C234.226 199.661 231.498 202.97 231.498 202.97L229.36 206.854L230.916 211.138L235.208 212.891L241.253 219.133L243.981 220.297V223.221L244.321 224.581C259.478 222.132 273.64 215.465 285.185 205.343L285.291 203.93L290.58 194.379L288.049 192.626L277.304 195.565ZM297.6 118.591L295.454 114.88L292.726 110.596L291.97 104.748L295.476 105.337L295.673 103.387L293.134 103.191L295.28 102.216L297.622 100.856V98.9067L295.28 95.786L294.781 91.5923C283.456 77.7328 267.914 67.9517 250.52 63.7371C233.125 59.5224 214.83 61.1049 198.417 68.2438L202.906 71.4249L200.125 74.931L196.422 75.6866L196.037 80.9759L194.473 81.5577L192.524 83.6886L192.72 87.1946L196.037 87.5876L194.669 90.8972H197.987L203.631 83.6886L204.22 80.5679L209.676 80.1825L211.036 77.8401L216.688 77.2583L217.277 73.9411L221.365 73.7522C221.365 73.7522 224.29 72.1881 224.879 72.1881C226.004 72.4326 227.11 72.7583 228.189 73.1628L231.113 75.5052H235.208L238.714 73.3593L243.195 73.7522C243.84 74.1714 244.576 74.4305 245.341 74.5078C246.316 74.5078 249.24 73.1402 249.24 73.1402L254.885 76.6462L257.227 78.4068V81.3235L260.151 81.7164L261.126 79.9634L263.657 81.1346L263.461 82.6912L257.62 84.2477L260.929 88.5396L267.942 92.4386L270.866 96.33L275.158 96.723L276.132 94.7735L277.689 94.3805L272.619 90.4891L269.506 90.0962L272.037 89.3406L269.702 86.0234L273.012 85.8345L277.296 88.1694L278.271 92.8466L280.417 95.378L282.17 101.03L286.462 104.151V110.581L290.943 113.505L290.746 115.651L290.164 118.182L291.328 121.689L291.721 123.442L295.03 124.031L296.595 120.714L297.6 118.591ZM300.131 98.9445V100.063L299.111 103.191L299.693 105.919L301.839 106.674V110.377L299.504 109.402L298.929 119.958L296.595 124.243L298.151 129.706L300.682 132.04V142.566L303.221 150.75L305.949 156.983L310.43 158.155L311.986 154.256L312.621 153.757C313.043 150.37 313.255 146.961 313.256 143.549C313.28 127.723 308.71 112.231 300.101 98.952L300.131 98.9445ZM255.111 97.7279L242.266 92.0759L236.614 92.2724L235.254 95.9749L232.911 93.436L228.627 94.4108L228.234 100.849L231.74 103.38L234.279 99.6774L237.15 102.579L243.195 107.868L244.366 113.52L249.429 119.951L257.62 118.591L257.423 115.666L255.67 112.349L255.285 104.559L257.234 101.242L255.111 97.7279ZM265.637 102.012L262.713 101.257L260.181 103.403L261.542 109.055H264.08L265.637 102.012ZM283.772 105.715L277.145 102.209L275.777 99.8739L274.221 100.456L275.581 104.355L276.752 109.417L279.676 110.589L280.258 109.833L278.505 106.909L283.575 108.858L283.772 105.715ZM226.866 176.07L226.111 176.826L231.959 178.579L234.302 181.307L238.004 181.7L239.364 179.554L234.883 178.798L226.866 176.07ZM244.245 179.773L240.15 180.944L240.739 182.501H245.802L246.777 180.944L245.024 181.133L244.245 179.773Z" fill="white" stroke="black" stroke-miterlimit="10"/>
<path d="M289.288 245.391C289.219 247.515 289.474 249.637 290.043 251.685C290.943 254.556 291.834 257.254 292.733 258.334C293.633 259.415 295.076 257.617 293.814 255.455C292.552 253.294 293.277 250.967 293.995 250.967C294.713 250.967 300.463 254.556 301.363 255.818C302.262 257.08 304.959 260.314 304.959 258.153C304.959 255.992 300.826 251.504 300.108 250.242C299.39 248.98 295.431 243.592 295.431 243.592L289.288 245.391Z" fill="white" stroke="black" stroke-linejoin="round"/>
<path d="M291.834 238.734L295.431 243.592L288.6 247.363L285.366 243.411L291.834 238.734Z" fill="white" stroke="black" stroke-linejoin="round"/>
<path d="M253.728 339.397C253.728 339.397 251.031 345.328 249.95 346.953C248.87 348.578 247.971 349.288 246.172 349.651C244.374 350.013 241.321 350.368 241.321 351.804C241.342 352.696 241.603 353.565 242.077 354.32C242.077 354.32 250.525 356.119 253.411 355.401C256.298 354.683 259.161 350.724 259.161 350.724L260.96 351.804L266.173 346.772C265.845 345.004 265.23 343.301 264.352 341.732C262.735 338.498 261.836 336.163 261.836 336.163C261.836 336.163 257.862 339.397 253.728 339.397Z" fill="black" stroke="black" stroke-linejoin="round"/>
<path d="M265.025 343.22C263.136 344.996 258.768 349.265 257.575 350.315C256.063 351.653 252.965 354.328 250.593 354.328C248.885 354.328 244.117 353.64 241.525 353.247C241.641 353.621 241.804 353.979 242.009 354.313C242.009 354.313 250.457 356.111 253.343 355.393C256.23 354.675 259.093 350.716 259.093 350.716L260.892 351.796L266.105 346.764C265.907 345.539 265.544 344.347 265.025 343.22Z" stroke="black" stroke-linejoin="round"/>
<path d="M239.712 315.489C239.712 315.489 243.127 322.675 246.512 326.99C249.897 331.304 253.698 341.014 253.698 341.014C253.698 341.014 256.758 342.095 258.912 340.47C260.281 339.355 261.284 337.854 261.791 336.163C261.791 336.163 257.476 322.857 255.859 317.106C254.242 311.356 250.283 298.768 248.484 295.715C247.122 293.466 245.634 291.297 244.026 289.217C244.026 289.217 242.047 301.08 241.147 305.568C240.248 310.056 239.712 315.489 239.712 315.489Z" fill="black" stroke="black" stroke-linejoin="round"/>
<path d="M223.708 232.802L223.889 244.303C223.889 244.303 220.867 265.52 223.353 276.303C225.839 287.086 229.821 298.972 229.821 298.972C229.821 298.972 227.849 318.746 227.123 323.597C226.398 328.448 223.345 337.621 223.345 337.621C223.345 337.621 228.559 340.319 229.458 340.319H231.256C231.256 340.319 236.644 325.758 237.725 323.597C238.805 321.436 242.576 317.31 243.837 308.319C245.099 299.327 245.462 289.972 245.462 289.972C245.462 289.972 254.446 278.464 256.607 274.86C258.768 271.256 262.176 263.888 262.176 263.888C262.176 263.888 266.136 253.642 265.592 243.759C265.048 233.875 262.002 228.843 262.002 228.843C262.002 228.843 244.381 232.976 236.115 232.976C227.849 232.976 223.708 232.802 223.708 232.802Z" fill="black" stroke="black" stroke-linejoin="round"/>
<path d="M228.294 168.242C228.294 168.242 231.785 171.733 231.256 172.95C230.727 174.166 221.675 174.695 219.756 176.962C217.837 179.229 209.646 207.988 209.646 207.988C209.646 207.988 199.883 205.192 199.014 204.497C198.145 203.802 197.095 204.323 196.574 206.416C196.052 208.509 190.823 213.217 191.519 214.433C192.214 215.65 201.802 220.357 206.51 221.581C209.376 222.319 212.293 222.842 215.237 223.145L214.542 232.039C214.542 232.039 223.428 237.094 240.686 234.827C257.945 232.56 265.108 228.903 265.108 228.903L263.023 210.95C263.023 210.95 274.357 232.213 276.268 235.885C278.18 239.557 280.621 244.952 282.714 245.648C284.807 246.343 292.303 241.461 292.476 239.376C292.65 237.29 286.205 227.173 281.142 218.46C276.08 209.748 269.113 185.168 268.07 179.924C267.027 174.68 264.232 170.335 261.27 169.64C258.307 168.945 250.29 168.937 246.799 168.242C243.308 167.547 238.435 161.797 236.168 154.475L228.294 168.242Z" fill="white" stroke="black" stroke-miterlimit="10"/>
<path d="M222.038 184.465C222.922 182.591 223.602 181.314 223.602 181.314" stroke="black" stroke-miterlimit="10"/>
<path d="M215.237 223.145C215.237 223.145 217.33 200.666 218.199 195.263C218.749 192.591 219.588 189.986 220.7 187.495" stroke="black" stroke-miterlimit="10"/>
<path d="M257.227 190.344C256.97 189.105 256.728 187.888 256.532 186.717" stroke="black" stroke-miterlimit="10"/>
<path d="M262.985 210.95C262.985 210.95 260.091 202.373 257.998 193.714" stroke="black" stroke-miterlimit="10"/>
<path d="M226.572 174.446C227.41 176.244 230.1 179.879 238.253 179.735C247.872 179.577 252.104 172.935 253.66 168.892C251.36 168.799 249.067 168.577 246.792 168.227C243.309 167.532 238.427 161.782 236.16 154.46L228.294 168.242C228.294 168.242 231.785 171.733 231.256 172.95C231.015 173.517 228.914 173.94 226.572 174.446Z" fill="white" stroke="black" stroke-miterlimit="10"/>
<path d="M234.815 159.439L232.443 160.951L228.294 168.22C229.282 169.212 230.159 170.309 230.909 171.492C234.815 166.844 234.815 159.439 234.815 159.439Z" fill="black" stroke="black" stroke-linejoin="round"/>
<path d="M208.082 151.694C208.082 151.694 211.391 157.445 212.26 160.059C213.534 163.263 215.96 165.874 219.061 167.381C222.197 168.771 223.768 169.995 226.556 170.169C230.554 170.418 233.523 164.766 235.095 160.407C236.667 156.047 236.667 155.351 236.667 155.351C236.667 155.351 239.1 151.694 239.1 147.856C239.1 144.017 234.747 139.665 229.866 137.398C224.985 135.131 221.675 131.822 216.62 136.355C211.565 140.889 208.082 151.694 208.082 151.694Z" fill="white" stroke="black" stroke-miterlimit="10"/>
<path d="M216.794 157.263C217.164 158.273 217.398 159.327 217.489 160.399C217.489 161.623 219.061 162.144 220.451 159.53" stroke="black" stroke-miterlimit="10"/>
<path d="M220.799 163.028C220.799 163.028 225.159 163.723 226.028 158.495" stroke="black" stroke-miterlimit="10"/>
<path d="M221.69 151.218C222.098 151.914 222.113 152.662 221.69 152.896C221.267 153.13 220.648 152.745 220.24 152.05C219.831 151.354 219.824 150.599 220.24 150.372C220.655 150.145 221.282 150.523 221.69 151.218Z" fill="black"/>
<path d="M214.656 154.717C215.064 155.412 215.079 156.168 214.656 156.394C214.232 156.621 213.613 156.243 213.212 155.548C212.812 154.853 212.789 154.097 213.212 153.87C213.635 153.644 214.255 154.006 214.656 154.717Z" fill="black"/>
<path d="M216.696 148.891C216.696 148.891 217.451 146.156 222.355 146.518" stroke="black" stroke-miterlimit="10"/>
<path d="M213.039 151.634C213.039 151.634 210.303 151.634 210.485 153.825" stroke="black" stroke-miterlimit="10"/>
<path d="M220.625 139.136C220.625 139.136 218.358 141.75 215.744 144.365C213.129 146.979 208.777 150.818 208.777 155.518C208.777 160.218 208.951 160.747 208.951 160.747C208.951 160.747 201.455 156.916 199.362 151.679C197.269 146.443 201.976 134.421 207.727 129.011C213.477 123.6 220.277 122.565 227.773 123.087C235.269 123.608 242.764 131.104 244.684 138.599C246.603 146.095 242.764 154.286 241.54 155.676C240.316 157.067 236.485 157.248 236.485 157.248C237.303 154.597 237.484 151.791 237.014 149.057C236.138 145.045 233.697 145.921 233.349 147.659C233.002 149.397 232.828 150.1 232.828 150.1C232.828 150.1 229.345 147.659 225.68 145.045C223.524 143.532 221.785 141.5 220.625 139.136Z" fill="black" stroke="black" stroke-linejoin="round"/>
<path d="M187.514 209.559L192.214 202.585L194.481 204.852L187.514 209.559Z" fill="white" stroke="black" stroke-linejoin="round"/>
<path d="M204.13 199.275L193.181 199.321L182.746 179.221L193.695 179.176L204.13 199.275Z" fill="black" stroke="black" stroke-linejoin="round"/>
<path d="M184.552 188.984C184.552 188.984 187.34 191.598 187.514 192.822C187.688 194.047 189.078 198.746 189.781 201.013C190.483 203.28 193.09 205.721 193.09 205.721L195.357 203.454L194.481 199.615C195.317 198.874 196.189 198.176 197.095 197.522C198.145 196.827 199.362 194.908 198.667 194.908C198.139 194.924 197.613 194.985 197.095 195.089C197.095 195.089 198.667 192.649 197.624 192.475C196.932 192.362 196.232 192.301 195.531 192.293C195.531 192.293 197.269 190.208 195.878 190.027C194.488 189.845 189.599 192.467 189.599 192.467L187.514 189.324C187.069 189.069 186.577 188.908 186.068 188.849C185.559 188.791 185.043 188.837 184.552 188.984Z" fill="white" stroke="black" stroke-linejoin="round"/>
<path d="M185.126 187.835C184.977 187.964 184.866 188.133 184.808 188.321C184.749 188.509 184.744 188.71 184.794 188.901C184.843 189.092 184.945 189.266 185.088 189.402C185.231 189.538 185.409 189.631 185.602 189.671C185.923 189.785 186.268 189.813 186.603 189.753C186.938 189.693 187.252 189.548 187.514 189.331C188.383 188.289 191.866 185.5 191.866 184.103C191.866 182.705 190.302 184.276 189.599 184.631C188.028 185.582 186.532 186.654 185.126 187.835Z" fill="white" stroke="black" stroke-linejoin="round"/>
<path d="M195.531 192.293C195.531 192.293 190.302 194.908 189.425 195.958" stroke="black" stroke-linejoin="round"/>
<path d="M197.103 195.089C197.103 195.089 192.924 197.001 191.526 198.573" stroke="black" stroke-linejoin="round"/>
<path d="M197.443 204.323L195.009 202.23L187.514 209.552L192.569 213.39C192.569 213.39 197.269 208.857 197.443 204.323Z" fill="white" stroke="black" stroke-linejoin="round"/>
<path d="M245.643 244.847C245.643 244.847 237.551 263.896 235.752 271.837C233.954 279.779 230.539 294.846 230.539 295.745" stroke="black" stroke-linejoin="round"/>
<path d="M233.954 250.242L238.631 255.629" stroke="black" stroke-linejoin="round"/>
<path d="M223.353 337.062C223.353 337.062 222.272 339.397 217.058 340.47C211.845 341.543 206.994 339.578 206.094 339.752C205.195 339.926 204.296 341.55 204.296 342.994C204.296 344.437 210.59 348.381 213.107 349.643C215.111 350.496 217.233 351.041 219.401 351.26H220.292L220.119 353.058C221.58 353.64 223.079 354.12 224.607 354.494C225.98 354.697 227.375 354.697 228.748 354.494C229.294 352.195 229.595 349.844 229.647 347.482C229.769 345.012 230.316 342.581 231.264 340.296L223.353 337.062Z" fill="black" stroke="black" stroke-linejoin="round"/>
<path d="M229.292 351.683C225.748 351.222 219.212 350.172 215.245 348.661C211.044 347.074 206.336 343.84 204.341 342.404C204.311 342.592 204.296 342.781 204.296 342.971C204.296 344.407 210.59 348.359 213.107 349.62C215.111 350.473 217.233 351.018 219.401 351.237H220.292L220.119 353.036C221.58 353.618 223.079 354.097 224.607 354.471C225.98 354.674 227.375 354.674 228.748 354.471C228.748 354.471 229.035 353.323 229.292 351.683Z" stroke="black" stroke-linejoin="round"/>
</g>
<defs>
<clipPath id="clip0_0_1">
<rect width="1440" height="3665" fill="white" transform="translate(-827 -1417)"/>
</clipPath>
</defs>
</svg>
