<svg width="462" height="374" viewBox="0 0 462 374" fill="none" xmlns="http://www.w3.org/2000/svg">
<rect width="462" height="374" fill="#1E1E1E"/>
<g clip-path="url(#clip0_0_1)">
<rect width="1440" height="3665" transform="translate(-150 -988)" fill="#0A0B0F"/>
<rect x="-150" y="-130" width="1440" height="996" fill="white"/>
<rect x="1" y="1" width="460" height="372" fill="white" stroke="black" stroke-width="2"/>
<path d="M242.849 332.188V324.38H219.83V332.188C219.832 334.738 218.973 337.213 217.391 339.213L216.378 340.493H246.301L245.296 339.213C243.709 337.216 242.846 334.739 242.849 332.188Z" fill="white" stroke="black" stroke-linecap="round" stroke-linejoin="round"/>
<g style="mix-blend-mode:multiply">
<path d="M218.422 337.667H244.266C243.334 335.991 242.846 334.105 242.849 332.188V324.38H219.83V332.188C219.831 334.104 219.347 335.989 218.422 337.667Z" fill="white"/>
</g>
<path d="M242.848 325.557H219.83V328.855H242.848V325.557Z" fill="black" stroke="black" stroke-width="1.09543" stroke-linecap="round" stroke-linejoin="round"/>
<path d="M269.612 257.464H193.067C188.661 257.464 185.088 261.036 185.088 265.443V318.866C185.088 323.273 188.661 326.845 193.067 326.845H269.612C274.018 326.845 277.591 323.273 277.591 318.866V265.443C277.591 261.036 274.018 257.464 269.612 257.464Z" fill="black" stroke="black" stroke-width="1.09543" stroke-linecap="round" stroke-linejoin="round"/>
<path d="M185.088 316.057H277.591V318.9C277.591 319.948 277.384 320.986 276.983 321.954C276.582 322.922 275.995 323.801 275.254 324.542C274.513 325.283 273.633 325.871 272.665 326.272C271.697 326.673 270.66 326.879 269.612 326.879H193.067C192.019 326.879 190.982 326.673 190.014 326.272C189.046 325.871 188.166 325.283 187.425 324.542C186.684 323.801 186.097 322.922 185.696 321.954C185.295 320.986 185.088 319.948 185.088 318.9V316.1V316.057Z" fill="white" stroke="black" stroke-linecap="round" stroke-linejoin="round"/>
<path d="M272.944 261.776H189.743V310.793H272.944V261.776Z" fill="white" stroke="black" stroke-width="1.09543" stroke-linecap="round" stroke-linejoin="round"/>
<path d="M233.049 321.477C233.049 321.138 232.948 320.805 232.759 320.523C232.57 320.24 232.302 320.02 231.988 319.89C231.674 319.76 231.329 319.726 230.996 319.793C230.662 319.859 230.356 320.022 230.116 320.263C229.876 320.503 229.712 320.809 229.646 321.142C229.58 321.475 229.614 321.821 229.744 322.135C229.874 322.449 230.094 322.717 230.376 322.906C230.659 323.094 230.991 323.195 231.331 323.195C231.786 323.195 232.223 323.014 232.545 322.692C232.868 322.37 233.049 321.933 233.049 321.477Z" fill="black" stroke="black" stroke-width="1.09543" stroke-linecap="round" stroke-linejoin="round"/>
<path d="M246.301 340.493H216.378V341.884H246.301V340.493Z" fill="white" stroke="black" stroke-linecap="round" stroke-linejoin="round"/>
<path d="M220.792 261.002C220.792 261.002 216.747 259.877 213.818 262.128C210.889 264.378 210.674 270.218 212.47 273.147C214.265 276.076 216.764 277.862 213.595 279.889C210.425 281.916 208.201 283.265 208.648 286.855C209.094 290.445 212.47 295.178 217.863 295.401C223.257 295.624 229.785 290.909 229.785 285.739C229.785 280.568 225.963 277.193 227.311 274.272C228.66 271.352 232.705 267.521 229.562 263.476C226.418 259.431 220.792 261.002 220.792 261.002Z" fill="black" stroke="black" stroke-linecap="round" stroke-linejoin="round"/>
<path d="M260.404 310.045L251.266 290.608H210.005L202.275 310.045H260.404Z" fill="white" stroke="black" stroke-linecap="round" stroke-linejoin="round"/>
<path d="M244.996 310.045L251.266 290.609L230.558 279.331L210.005 290.609L214.883 310.045H244.996Z" fill="white" stroke="black" stroke-linecap="round" stroke-linejoin="round"/>
<path d="M227.011 281.272L221.127 284.545C220.045 287.474 219.074 291.966 221.986 294.542C223.79 296.174 230.747 290.952 230.747 290.952C230.747 290.952 235.694 296.346 239.739 294.542C242.608 293.271 241.303 288.178 239.576 284.236L233.16 280.749L227.011 281.272Z" fill="white" stroke="black" stroke-linecap="round" stroke-linejoin="round"/>
<path d="M224.889 274.066V282.655L227.079 289.045C227.299 289.693 227.716 290.254 228.273 290.65C228.83 291.046 229.498 291.256 230.181 291.25C230.865 291.244 231.529 291.023 232.079 290.618C232.629 290.213 233.038 289.645 233.246 288.994L235.35 282.526V273.568L224.889 274.066Z" fill="white" stroke="black" stroke-linecap="round" stroke-linejoin="round"/>
<path d="M222.63 264.369C222.63 264.369 220.457 260.513 219.255 262.652C218.052 264.79 219.736 269.394 220.457 270.596C221.179 271.799 222.39 269.875 222.39 269.875" fill="white"/>
<path d="M222.63 264.369C222.63 264.369 220.457 260.513 219.255 262.652C218.052 264.79 219.736 269.394 220.457 270.596C221.179 271.799 222.39 269.875 222.39 269.875" stroke="black" stroke-linecap="round" stroke-linejoin="round"/>
<path d="M238.142 264.369C238.142 264.369 240.315 260.513 241.517 262.652C242.72 264.79 241.036 269.394 240.315 270.596C239.593 271.799 238.382 269.875 238.382 269.875" fill="white"/>
<path d="M238.142 264.369C238.142 264.369 240.315 260.513 241.517 262.652C242.72 264.79 241.036 269.394 240.315 270.596C239.593 271.799 238.382 269.875 238.382 269.875" stroke="black" stroke-linecap="round" stroke-linejoin="round"/>
<path d="M239.233 263.648C239.233 270.425 235.247 279.769 230.326 279.769C225.404 279.769 221.419 270.425 221.419 263.648C221.419 256.871 225.413 251.366 230.326 251.366C235.239 251.366 239.233 256.863 239.233 263.648Z" fill="white" stroke="black" stroke-linecap="round" stroke-linejoin="round"/>
<path d="M226.882 258.306C226.882 258.306 228.685 254.26 231.606 258.306C234.526 262.351 233.177 265.28 235.651 266.173C236.285 266.454 237 266.494 237.662 266.287C238.324 266.08 238.888 265.64 239.25 265.048C239.25 265.048 246.224 260.333 239.25 252.688C237.888 251.21 236.212 250.056 234.345 249.313C232.478 248.569 230.467 248.255 228.462 248.394C224.863 248.626 224.417 253.118 224.417 253.118C224.417 253.118 221.711 252.448 220.595 255.591C219.478 258.735 221.711 267.504 221.711 265.263C221.711 263.021 224.64 256.055 226.882 258.306Z" fill="black" stroke="black" stroke-linecap="round" stroke-linejoin="round"/>
<path d="M351.258 222.962V215.146H328.24V222.962C328.241 225.514 327.378 227.99 325.792 229.988L324.787 231.294H354.711L353.697 230.022C352.109 228.013 351.249 225.524 351.258 222.962Z" fill="white" stroke="black" stroke-linecap="round" stroke-linejoin="round"/>
<g style="mix-blend-mode:multiply">
<path d="M326.822 228.434H352.666C351.742 226.758 351.258 224.876 351.258 222.962V215.146H328.24V222.962C328.241 224.877 327.753 226.76 326.822 228.434Z" fill="white"/>
</g>
<path d="M351.258 216.323H328.24V219.621H351.258V216.323Z" fill="black" stroke="black" stroke-width="1.09543" stroke-linecap="round" stroke-linejoin="round"/>
<path d="M378.021 148.23H301.476C297.07 148.23 293.497 151.803 293.497 156.209V209.632C293.497 214.039 297.07 217.612 301.476 217.612H378.021C382.428 217.612 386 214.039 386 209.632V156.209C386 151.803 382.428 148.23 378.021 148.23Z" fill="black" stroke="black" stroke-width="1.09543" stroke-linecap="round" stroke-linejoin="round"/>
<path d="M293.497 206.824H386V209.624C386 210.672 385.794 211.709 385.393 212.677C384.992 213.645 384.404 214.525 383.663 215.266C382.922 216.007 382.042 216.594 381.074 216.995C380.106 217.396 379.069 217.603 378.021 217.603H301.476C300.429 217.603 299.391 217.396 298.423 216.995C297.455 216.594 296.575 216.007 295.834 215.266C295.093 214.525 294.506 213.645 294.105 212.677C293.704 211.709 293.497 210.672 293.497 209.624V206.824Z" fill="white" stroke="black" stroke-linecap="round" stroke-linejoin="round"/>
<path d="M381.345 152.55H298.144V201.567H381.345V152.55Z" fill="white" stroke="black" stroke-width="1.09543" stroke-linecap="round" stroke-linejoin="round"/>
<path d="M341.449 212.218C341.449 211.878 341.349 211.546 341.16 211.263C340.971 210.981 340.703 210.761 340.389 210.631C340.075 210.5 339.73 210.466 339.396 210.533C339.063 210.599 338.757 210.763 338.517 211.003C338.277 211.243 338.113 211.549 338.047 211.882C337.981 212.216 338.015 212.561 338.145 212.875C338.275 213.189 338.495 213.457 338.777 213.646C339.06 213.835 339.392 213.935 339.732 213.935C340.187 213.935 340.624 213.754 340.946 213.432C341.268 213.11 341.449 212.673 341.449 212.218Z" fill="black" stroke="black" stroke-width="1.09543" stroke-linecap="round" stroke-linejoin="round"/>
<path d="M354.711 231.259H324.787V232.651H354.711V231.259Z" fill="white" stroke="black" stroke-linecap="round" stroke-linejoin="round"/>
<path d="M368.65 201.215L359.666 182.114H318.405L310.821 201.215H368.65Z" fill="white" stroke="black" stroke-linecap="round" stroke-linejoin="round"/>
<path d="M359.666 201.215V182.113L343.691 172.949L338.958 170.836L333.633 172.949L318.405 182.113V201.215H359.666Z" fill="white" stroke="black" stroke-linecap="round" stroke-linejoin="round"/>
<path d="M335.239 184.913L338.057 189.345L336.648 201.018H341.681L339.268 189.345L342.488 184.716L338.263 179.88L335.239 184.913Z" fill="black" stroke="black" stroke-linecap="round" stroke-linejoin="round"/>
<path d="M338.649 183.702L334.235 187.129L331.014 174.847L333.633 172.949H343.691L345.907 174.452L344.095 187.327L338.649 183.702Z" fill="white" stroke="black" stroke-linecap="round" stroke-linejoin="round"/>
<path d="M333.29 165.571V174.169L338.649 183.702L343.76 174.048V165.073L333.29 165.571Z" fill="white" stroke="black" stroke-linecap="round" stroke-linejoin="round"/>
<path d="M331.031 155.874C331.031 155.874 328.866 152.018 327.664 154.157C326.462 156.295 328.145 160.89 328.866 162.101C329.588 163.312 330.79 161.38 330.79 161.38" fill="white"/>
<path d="M331.031 155.874C331.031 155.874 328.866 152.018 327.664 154.157C326.462 156.295 328.145 160.89 328.866 162.101C329.588 163.312 330.79 161.38 330.79 161.38" stroke="black" stroke-linecap="round" stroke-linejoin="round"/>
<path d="M346.551 155.874C346.551 155.874 348.715 152.018 349.918 154.157C351.12 156.295 349.437 160.89 348.715 162.101C347.994 163.312 346.792 161.38 346.792 161.38" fill="white"/>
<path d="M346.551 155.874C346.551 155.874 348.715 152.018 349.918 154.157C351.12 156.295 349.437 160.89 348.715 162.101C347.994 163.312 346.792 161.38 346.792 161.38" stroke="black" stroke-linecap="round" stroke-linejoin="round"/>
<path d="M347.642 155.153C347.642 161.93 343.657 171.283 338.735 171.283C333.814 171.283 329.871 161.93 329.871 155.153C329.871 148.376 333.857 142.871 338.778 142.871C343.699 142.871 347.642 148.368 347.642 155.153Z" fill="white" stroke="black" stroke-linecap="round" stroke-linejoin="round"/>
<path d="M327.999 191.956L334.338 201.215H343.313L349.935 194.37L345.709 189.139L350.94 188.736L350.339 177.063L345.907 174.452L338.46 201.018L331.014 174.847L327.389 177.063L325.981 187.533L330.412 188.332L327.999 191.956Z" fill="white" stroke="black" stroke-linecap="round" stroke-linejoin="round"/>
<path d="M329.811 156.939C329.811 156.939 331.804 157.197 331.417 156.536C331.031 155.874 331.417 153.521 331.417 153.521C331.877 153.154 332.225 152.666 332.422 152.112C332.826 151.107 331.821 149.69 331.821 148.488C331.821 147.285 338.057 149.69 339.062 149.69C340.067 149.69 345.709 148.282 345.709 148.282C345.709 148.282 344.696 151.906 345.306 152.31C345.916 152.714 346.311 154.526 346.311 154.526C346.311 154.526 345.709 157.747 345.907 158.348C346.105 158.949 347.316 159.353 347.522 158.752C347.728 158.15 347.719 152.911 347.719 152.911C347.719 152.911 349.128 153.117 349.128 150.334C349.128 147.552 347.522 141.273 344.696 140.071C341.87 138.868 335.446 138.86 332.826 140.268C330.206 141.677 328.394 148.118 329.004 150.334C329.446 152.511 329.716 154.72 329.811 156.939Z" fill="black" stroke="black" stroke-linecap="round" stroke-linejoin="round"/>
<path d="M242.849 116.374V108.558H219.83V116.374C219.83 118.921 218.971 121.393 217.391 123.391L216.378 124.671H246.301L245.296 123.391C243.71 121.396 242.848 118.922 242.849 116.374Z" fill="white" stroke="black" stroke-linecap="round" stroke-linejoin="round"/>
<g style="mix-blend-mode:multiply">
<path d="M218.422 121.845H244.266C243.335 120.172 242.847 118.288 242.849 116.374V108.558H219.83V116.374C219.83 118.287 219.346 120.169 218.422 121.845Z" fill="white"/>
</g>
<path d="M242.848 109.735H219.83V113.033H242.848V109.735Z" fill="black" stroke="black" stroke-width="1.09543" stroke-linecap="round" stroke-linejoin="round"/>
<path d="M269.612 41.6418H193.067C188.661 41.6418 185.088 45.2142 185.088 49.621V103.044C185.088 107.451 188.661 111.023 193.067 111.023H269.612C274.018 111.023 277.591 107.451 277.591 103.044V49.621C277.591 45.2142 274.018 41.6418 269.612 41.6418Z" fill="black" stroke="black" stroke-width="1.09543" stroke-linecap="round" stroke-linejoin="round"/>
<path d="M185.088 100.235H277.591V103.035C277.591 105.152 276.75 107.181 275.254 108.677C273.757 110.174 271.728 111.014 269.612 111.014H193.067C190.951 111.014 188.922 110.174 187.425 108.677C185.929 107.181 185.088 105.152 185.088 103.035V100.235Z" fill="white" stroke="black" stroke-linecap="round" stroke-linejoin="round"/>
<path d="M272.944 45.9534H189.743V94.9703H272.944V45.9534Z" fill="white" stroke="black" stroke-width="1.09543" stroke-linecap="round" stroke-linejoin="round"/>
<path d="M231.339 107.339C232.283 107.339 233.049 106.573 233.049 105.629C233.049 104.685 232.283 103.92 231.339 103.92C230.395 103.92 229.63 104.685 229.63 105.629C229.63 106.573 230.395 107.339 231.339 107.339Z" fill="black" stroke="black" stroke-width="1.09543" stroke-linecap="round" stroke-linejoin="round"/>
<path d="M246.301 124.671H216.378V126.062H246.301V124.671Z" fill="white" stroke="black" stroke-linecap="round" stroke-linejoin="round"/>
<path d="M260.404 94.7558L251.266 75.3191H210.005L202.275 94.7558H260.404Z" fill="white" stroke="black" stroke-linecap="round" stroke-linejoin="round"/>
<path d="M216.747 51.0036C216.747 51.0036 215.261 57.9349 216.747 60.7606C218.233 63.5864 220.328 66.9704 219.195 69.4183C218.061 71.8661 216.936 72.4244 216.558 77.1483C216.18 81.8722 223.712 91.2599 232.37 90.3151C241.028 89.3703 246.112 82.2243 244.601 76.3925C243.089 70.5606 240.65 69.8048 241.397 66.0858C242.144 62.3668 244.034 59.876 243.115 54.7999C242.196 49.7239 237.661 41.4356 232.207 39.5546C226.753 37.6736 223.317 40.3104 221.29 43.8491C219.263 47.3877 217.108 49.5349 216.747 51.0036Z" fill="black" stroke="black" stroke-linecap="round" stroke-linejoin="round"/>
<path d="M244.996 94.7557L251.266 75.319L230.558 64.0417L210.005 75.319L214.883 94.7557H244.996Z" fill="white" stroke="black" stroke-linecap="round" stroke-linejoin="round"/>
<path d="M222.484 68.4736L220.337 75.0613L225.233 76.3754L220.904 79.5791L229.939 88.4171L238.408 80.5153L234.268 76.5644L240.1 75.0613L238.571 68.4135L230.558 64.0417L222.484 68.4736Z" fill="white" stroke="black" stroke-linecap="round" stroke-linejoin="round"/>
<path d="M224.889 58.7767V67.3742L230.24 82.9631L235.35 67.2454V58.2786L224.889 58.7767Z" fill="white" stroke="black" stroke-linecap="round" stroke-linejoin="round"/>
<path d="M222.63 49.0799C222.63 49.0799 220.457 45.2234 219.255 47.3621C218.052 49.5007 219.736 54.0958 220.457 55.3068C221.179 56.5179 222.39 54.5768 222.39 54.5768" fill="white"/>
<path d="M222.63 49.0799C222.63 49.0799 220.457 45.2234 219.255 47.3621C218.052 49.5007 219.736 54.0958 220.457 55.3068C221.179 56.5179 222.39 54.5768 222.39 54.5768" stroke="black" stroke-linecap="round" stroke-linejoin="round"/>
<path d="M238.142 49.0799C238.142 49.0799 240.315 45.2234 241.517 47.3621C242.72 49.5007 241.036 54.0958 240.315 55.3068C239.593 56.5179 238.382 54.5768 238.382 54.5768" fill="white"/>
<path d="M238.142 49.0799C238.142 49.0799 240.315 45.2234 241.517 47.3621C242.72 49.5007 241.036 54.0958 240.315 55.3068C239.593 56.5179 238.382 54.5768 238.382 54.5768" stroke="black" stroke-linecap="round" stroke-linejoin="round"/>
<path d="M239.233 48.3498C239.233 55.1264 235.247 64.4798 230.326 64.4798C225.404 64.4798 221.419 55.135 221.419 48.3498C221.419 41.5645 225.413 36.0676 230.326 36.0676C235.239 36.0676 239.233 41.5731 239.233 48.3498Z" fill="white" stroke="black" stroke-linecap="round" stroke-linejoin="round"/>
<path d="M228.617 39.4946C228.617 37.502 228.016 34.8222 225.25 35.7498C221.995 36.8578 219.847 43.8148 218.276 46.6491C217.47 47.9791 216.949 49.462 216.747 51.0037C215.974 55.8135 219.968 59.816 219.968 59.816C219.968 59.816 219.023 54.7399 219.59 51.3473C219.908 49.4577 220.861 48.7706 222.527 48.0921C226.341 46.632 228.617 43.8148 228.617 39.4946Z" fill="black" stroke="black" stroke-linecap="round" stroke-linejoin="round"/>
<path d="M245.889 48.951C244.673 46.9054 243.163 45.0503 241.406 43.4455C239.336 41.3756 238.211 36.2995 233.504 34.5989C228.797 32.8983 226.727 35.1658 226.916 38.5584C226.945 39.101 227.014 39.6407 227.122 40.1731C227.118 40.1988 227.118 40.2248 227.122 40.2504C227.122 40.2504 227.122 40.3363 227.208 40.4995C227.348 41.4068 227.783 42.2428 228.445 42.8786L228.565 42.9645C229.529 44.3551 230.622 45.652 231.829 46.8381C235.78 50.789 240.676 54.362 240.865 58.5019C241.011 61.8859 239.799 64.5141 239.147 67.9497H238.984C238.611 69.7877 237.843 71.5226 236.733 73.0343C235.015 75.1043 234.844 76.6073 238.803 76.7963C244.094 77.0454 246.731 70.0282 247.461 65.7681C248.185 61.8269 248.214 57.7894 247.547 53.8381C247.257 52.1315 246.697 50.4818 245.889 48.951Z" fill="black" stroke="black" stroke-linecap="round" stroke-linejoin="round"/>
<path d="M134.448 222.962V215.146H111.429V222.962C111.427 225.513 110.565 227.988 108.982 229.988L107.977 231.294H137.892L136.887 230.022C135.299 228.013 134.439 225.524 134.448 222.962Z" fill="white" stroke="black" stroke-linecap="round" stroke-linejoin="round"/>
<g style="mix-blend-mode:multiply">
<path d="M109.995 228.434H135.839C134.915 226.758 134.43 224.876 134.43 222.962V215.146H111.412V222.962C111.409 224.876 110.922 226.759 109.995 228.434Z" fill="white"/>
</g>
<path d="M134.448 216.323H111.429V219.621H134.448V216.323Z" fill="black" stroke="black" stroke-width="1.09543" stroke-linecap="round" stroke-linejoin="round"/>
<path d="M161.211 148.23H84.6664C80.2596 148.23 76.6873 151.803 76.6873 156.209V209.632C76.6873 214.039 80.2596 217.612 84.6664 217.612H161.211C165.618 217.612 169.19 214.039 169.19 209.632V156.209C169.19 151.803 165.618 148.23 161.211 148.23Z" fill="black" stroke="black" stroke-width="1.09543" stroke-linecap="round" stroke-linejoin="round"/>
<path d="M76.6873 206.824H169.19V209.624C169.19 210.672 168.984 211.709 168.583 212.677C168.182 213.645 167.594 214.525 166.853 215.266C166.112 216.007 165.232 216.594 164.264 216.995C163.296 217.396 162.259 217.603 161.211 217.603H84.6664C83.6185 217.603 82.581 217.396 81.6129 216.995C80.6448 216.594 79.7652 216.007 79.0243 215.266C78.2834 214.525 77.6956 213.645 77.2946 212.677C76.8936 211.709 76.6873 210.672 76.6873 209.624V206.824Z" fill="white" stroke="black" stroke-linecap="round" stroke-linejoin="round"/>
<path d="M164.535 152.55H81.3337V201.567H164.535V152.55Z" fill="white" stroke="black" stroke-width="1.09543" stroke-linecap="round" stroke-linejoin="round"/>
<path d="M124.639 212.218C124.639 211.878 124.538 211.546 124.35 211.263C124.161 210.981 123.893 210.761 123.579 210.631C123.265 210.5 122.919 210.466 122.586 210.533C122.253 210.599 121.947 210.763 121.707 211.003C121.466 211.243 121.303 211.549 121.236 211.882C121.17 212.216 121.204 212.561 121.334 212.875C121.464 213.189 121.684 213.457 121.967 213.646C122.249 213.835 122.582 213.935 122.921 213.935C123.377 213.935 123.814 213.754 124.136 213.432C124.458 213.11 124.639 212.673 124.639 212.218Z" fill="black" stroke="black" stroke-width="1.09543" stroke-linecap="round" stroke-linejoin="round"/>
<path d="M137.9 231.259H107.977V232.651H137.9V231.259Z" fill="white" stroke="black" stroke-linecap="round" stroke-linejoin="round"/>
<path d="M151.995 201.353L142.856 181.907H101.595L93.8735 201.353H151.995Z" fill="white" stroke="black" stroke-linecap="round" stroke-linejoin="round"/>
<path d="M142.856 201.352V181.907L129.492 172.751L122.148 170.63L114.805 172.751L101.595 181.907V201.352H142.856Z" fill="white" stroke="black" stroke-linecap="round" stroke-linejoin="round"/>
<path d="M117.725 168.929C117.725 168.929 114.788 169.788 114.195 170.398C113.602 171.008 113.164 174.074 112.58 175.689C111.996 177.304 110.081 180.095 110.674 180.241C111.266 180.387 116.256 177.888 116.256 177.888L121.985 184.381L127.422 177.596C127.422 177.596 131.716 180.834 131.974 180.387C132.232 179.94 130.067 174.658 129.921 172.451C129.775 170.244 126.537 169.513 124.631 169.367C122.724 169.221 117.725 168.929 117.725 168.929Z" fill="white" stroke="black" stroke-linecap="round" stroke-linejoin="round"/>
<path d="M116.48 165.373V173.962L121.839 183.831L126.95 173.842V164.867L116.48 165.373Z" fill="white" stroke="black" stroke-linecap="round" stroke-linejoin="round"/>
<path d="M114.221 155.711C114.221 155.711 112.056 151.863 110.854 153.993C109.652 156.123 111.335 160.735 112.056 161.938C112.778 163.14 113.98 161.216 113.98 161.216" fill="white"/>
<path d="M114.221 155.711C114.221 155.711 112.056 151.863 110.854 153.993C109.652 156.123 111.335 160.735 112.056 161.938C112.778 163.14 113.98 161.216 113.98 161.216" stroke="black" stroke-linecap="round" stroke-linejoin="round"/>
<path d="M129.75 155.711C129.75 155.711 131.914 151.863 133.116 153.993C134.319 156.123 132.635 160.735 131.914 161.938C131.192 163.14 129.99 161.216 129.99 161.216" fill="white"/>
<path d="M129.75 155.711C129.75 155.711 131.914 151.863 133.116 153.993C134.319 156.123 132.635 160.735 131.914 161.938C131.192 163.14 129.99 161.216 129.99 161.216" stroke="black" stroke-linecap="round" stroke-linejoin="round"/>
<path d="M130.832 154.947C130.832 161.723 126.846 171.077 121.925 171.077C117.004 171.077 113.018 161.723 113.018 154.947C113.018 148.17 117.004 142.673 121.925 142.673C126.846 142.673 130.832 148.17 130.832 154.947Z" fill="white" stroke="black" stroke-linecap="round" stroke-linejoin="round"/>
<path d="M128.942 151.545C128.942 151.545 128.315 153.263 129.062 154.036C129.81 154.809 129.689 155.9 129.561 157.394C129.432 158.889 129.81 159.765 130.308 159.267C130.806 158.769 131.304 151.794 131.304 151.296C131.304 150.798 128.942 151.545 128.942 151.545Z" fill="black" stroke="black" stroke-linecap="round" stroke-linejoin="round"/>
<path d="M113.121 153.907L113.37 157.772C113.468 157.807 113.572 157.822 113.676 157.815C113.78 157.809 113.882 157.782 113.975 157.735C114.068 157.689 114.15 157.624 114.218 157.545C114.285 157.466 114.336 157.374 114.367 157.274C114.616 156.527 113.989 154.157 114.616 152.911C115.243 151.666 117.605 151.047 117.725 150.171C117.845 149.295 116.48 147.68 116.48 147.062C116.48 146.444 116.858 145.817 119.967 148.78C123.076 151.743 128.813 152.387 131.802 151.64C134.791 150.893 131.184 146.409 130.437 145.413C129.689 144.417 132.429 145.164 130.935 142.673C129.44 140.182 124.201 138.559 118.97 140.431C113.74 142.304 110.751 144.915 111.498 147.534C112.245 150.154 113.121 153.907 113.121 153.907Z" fill="black" stroke="black" stroke-linecap="round" stroke-linejoin="round"/>
<path d="M231.692 217.431V244.409" stroke="black" stroke-width="2" stroke-miterlimit="10"/>
<path d="M227.32 243.129L231.692 250.687L236.055 243.129H227.32Z" fill="black"/>
<path d="M231.692 159.671V132.693" stroke="black" stroke-width="2" stroke-miterlimit="10"/>
<path d="M236.055 133.973L231.692 126.414L227.32 133.973H236.055Z" fill="black"/>
<path d="M202.816 188.555H175.838" stroke="black" stroke-width="2" stroke-miterlimit="10"/>
<path d="M177.117 184.183L169.551 188.555L177.117 192.918V184.183Z" fill="black"/>
<path d="M184.744 120.917L165.016 140.646" stroke="black" stroke-width="2" stroke-miterlimit="10"/>
<path d="M180.751 118.727L189.185 116.468L186.926 124.911L180.751 118.727Z" fill="black"/>
<path d="M162.826 136.652L160.567 145.095L169.01 142.836L162.826 136.652Z" fill="black"/>
<path d="M279.996 120.917L299.724 140.646" stroke="black" stroke-width="2" stroke-miterlimit="10"/>
<path d="M277.805 124.911L275.547 116.468L283.981 118.736L277.805 124.911Z" fill="black"/>
<path d="M295.731 142.836L304.165 145.095L301.906 136.652L295.731 142.836Z" fill="black"/>
<path d="M184.744 252.414L165.016 232.685" stroke="black" stroke-width="2" stroke-miterlimit="10"/>
<path d="M186.926 248.428L189.194 256.863L180.751 254.604L186.926 248.428Z" fill="black"/>
<path d="M169.01 230.503L160.567 228.244L162.826 236.679L169.01 230.503Z" fill="black"/>
<path d="M279.996 252.414L299.724 232.685" stroke="black" stroke-width="2" stroke-miterlimit="10"/>
<path d="M283.981 254.604L275.547 256.863L277.805 248.428L283.981 254.604Z" fill="black"/>
<path d="M301.906 236.679L304.165 228.244L295.731 230.503L301.906 236.679Z" fill="black"/>
<path d="M260.568 188.555H287.545" stroke="black" stroke-width="2" stroke-miterlimit="10"/>
<path d="M286.266 192.918L293.832 188.555L286.266 184.183V192.918Z" fill="black"/>
<path d="M232.739 190.573H230.094V200.193H232.739C236.725 200.193 237.953 198.398 237.953 195.22C237.953 192.042 236.725 190.573 232.739 190.573Z" fill="black"/>
<path d="M231.339 154.371C224.663 154.371 218.137 156.351 212.586 160.06C207.035 163.769 202.709 169.04 200.154 175.208C197.599 181.376 196.931 188.163 198.233 194.711C199.536 201.258 202.751 207.273 207.471 211.994C212.192 216.714 218.206 219.929 224.754 221.231C231.302 222.534 238.089 221.865 244.257 219.311C250.424 216.756 255.696 212.429 259.405 206.879C263.114 201.328 265.094 194.802 265.094 188.126C265.094 179.173 261.538 170.588 255.207 164.258C248.877 157.927 240.292 154.371 231.339 154.371ZM231.339 216.907C225.645 216.907 220.079 215.219 215.344 212.055C210.61 208.892 206.92 204.395 204.741 199.134C202.562 193.874 201.992 188.085 203.102 182.5C204.213 176.916 206.955 171.786 210.982 167.759C215.008 163.733 220.138 160.991 225.723 159.88C231.307 158.769 237.096 159.339 242.357 161.518C247.617 163.697 252.114 167.388 255.277 172.122C258.441 176.857 260.129 182.423 260.129 188.117C260.123 195.75 257.087 203.069 251.689 208.467C246.292 213.865 238.973 216.9 231.339 216.907Z" fill="black"/>
<path d="M237.197 181.529C237.197 178.729 235.969 177.355 232.456 177.355H230.094V185.772H232.456C235.917 185.772 237.197 184.321 237.197 181.529Z" fill="black"/>
<path d="M231.339 161.311C226.035 161.309 220.85 162.881 216.439 165.827C212.028 168.772 208.59 172.96 206.559 177.86C204.528 182.76 203.997 188.152 205.031 193.355C206.065 198.557 208.619 203.336 212.37 207.086C216.121 210.837 220.899 213.391 226.102 214.425C231.304 215.46 236.696 214.928 241.596 212.897C246.496 210.867 250.684 207.429 253.63 203.018C256.576 198.607 258.147 193.421 258.145 188.117C258.139 181.01 255.312 174.195 250.287 169.17C245.261 164.144 238.447 161.318 231.339 161.311ZM236.716 203.809V209.821H233.281V204.049H230.12V209.821H226.684V204.058H219.083V199.532H220.578C220.904 199.478 221.205 199.32 221.436 199.082C221.666 198.843 221.814 198.538 221.857 198.209V179.099C221.815 178.77 221.668 178.463 221.437 178.225C221.207 177.986 220.905 177.829 220.578 177.776H219.083V173.284H226.684V167.478H230.12V173.284H232.817H233.349V167.478H236.785V173.542C242.153 174.306 244.987 176.814 244.987 181.203C244.987 185.077 242.788 186.975 238.743 187.808V187.98C243.45 188.684 246.044 190.977 246.044 195.151C245.975 200.15 242.496 203.027 236.716 203.809Z" fill="black"/>
<circle cx="231.5" cy="188.5" r="25.5" fill="black"/>
<g filter="url(#filter0_d_0_1)">
<path d="M234 195V193V191V189H230V191V193V195V197V199H234V197V195Z" fill="white" stroke="white" stroke-width="0.218748"/>
<path d="M236 203H238H240H242V199H240H238H236H234V203H236Z" fill="white" stroke="white" stroke-width="0.218748"/>
<path d="M238 189H240H242V185H240H238H236H234V189H236H238Z" fill="white" stroke="white" stroke-width="0.218748"/>
</g>
<g filter="url(#filter1_d_0_1)">
<path d="M230 179V181V183V185V187V189H234V187V185V183V181V179H230Z" fill="white" stroke="white" stroke-width="0.218748"/>
<path d="M226 189H224H222V193H224H226H228H230V189H228H226Z" fill="white" stroke="white" stroke-width="0.218748"/>
<path d="M228 175H226H224H222V179H224H226H228H230V175H228Z" fill="white" stroke="white" stroke-width="0.218748"/>
</g>
</g>
<defs>
<filter id="filter0_d_0_1" x="228.878" y="184.891" width="13.2312" height="18.2185" filterUnits="userSpaceOnUse" color-interpolation-filters="sRGB">
<feFlood flood-opacity="0" result="BackgroundImageFix"/>
<feColorMatrix in="SourceAlpha" type="matrix" values="0 0 0 0 0 0 0 0 0 0 0 0 0 0 0 0 0 0 127 0" result="hardAlpha"/>
<feOffset dx="-1.01272"/>
<feComposite in2="hardAlpha" operator="out"/>
<feColorMatrix type="matrix" values="0 0 0 0 0.843137 0 0 0 0 0.87451 0 0 0 0 0.137255 0 0 0 1 0"/>
<feBlend mode="normal" in2="BackgroundImageFix" result="effect1_dropShadow_0_1"/>
<feBlend mode="normal" in="SourceGraphic" in2="effect1_dropShadow_0_1" result="shape"/>
</filter>
<filter id="filter1_d_0_1" x="220.878" y="174.891" width="13.2314" height="18.2188" filterUnits="userSpaceOnUse" color-interpolation-filters="sRGB">
<feFlood flood-opacity="0" result="BackgroundImageFix"/>
<feColorMatrix in="SourceAlpha" type="matrix" values="0 0 0 0 0 0 0 0 0 0 0 0 0 0 0 0 0 0 127 0" result="hardAlpha"/>
<feOffset dx="-1.01272"/>
<feComposite in2="hardAlpha" operator="out"/>
<feColorMatrix type="matrix" values="0 0 0 0 0.843137 0 0 0 0 0.87451 0 0 0 0 0.137255 0 0 0 1 0"/>
<feBlend mode="normal" in2="BackgroundImageFix" result="effect1_dropShadow_0_1"/>
<feBlend mode="normal" in="SourceGraphic" in2="effect1_dropShadow_0_1" result="shape"/>
</filter>
<clipPath id="clip0_0_1">
<rect width="1440" height="3665" fill="white" transform="translate(-150 -988)"/>
</clipPath>
</defs>
</svg>
