<svg width="223" height="60" viewBox="0 0 223 60" fill="none" xmlns="http://www.w3.org/2000/svg">
<path d="M59.504 0H0V59.504H59.504V0Z" fill="#272727"/>
<g filter="url(#filter0_d_1667_63)">
<path d="M32.4736 37.9127V35.1926V32.4724V29.7522H27.0332V32.4724V35.1926V37.9127V40.6329V43.3531H32.4736V40.6329V37.9127Z" fill="white"/>
<path d="M35.1948 48.7939H37.915H40.6352H43.3553V43.3535H40.6352H37.915H35.1948H32.4746V48.7939H35.1948Z" fill="white"/>
<path d="M37.915 29.7524H40.6352H43.3553V24.312H40.6352H37.915H35.1948H32.4746V29.7524H35.1948H37.915Z" fill="white"/>
</g>
<g filter="url(#filter1_d_1667_63)">
<path d="M27.0312 16.1511V18.8713V21.5915V24.3117V27.0318V29.752H32.4716V27.0318V24.3117V21.5915V18.8713V16.1511H27.0312Z" fill="#D7DF23"/>
<path d="M21.5908 29.7522H18.8706H16.1504V35.1926H18.8706H21.5908H24.3109H27.0311V29.7522H24.3109H21.5908Z" fill="#D7DF23"/>
<path d="M24.3109 10.7104H21.5908H18.8706H16.1504V16.1508H18.8706H21.5908H24.3109H27.0311V10.7104H24.3109Z" fill="#D7DF23"/>
</g>
<path d="M82.3151 44.0745V15.1156H90.9234C92.8804 15.1156 94.573 15.4858 96.0011 16.2263C97.4557 16.9668 98.5797 18.0115 99.373 19.3602C100.166 20.709 100.563 22.309 100.563 24.1603V34.9901C100.563 36.8149 100.166 38.4149 99.373 39.7901C98.5797 41.1389 97.4557 42.1968 96.0011 42.9637C94.573 43.7042 92.8804 44.0745 90.9234 44.0745H82.3151ZM87.2738 39.5124H90.9234C92.3515 39.5124 93.4887 39.1157 94.335 38.3224C95.1813 37.5025 95.6044 36.3918 95.6044 34.9901V24.1603C95.6044 22.7851 95.1813 21.7007 94.335 20.9074C93.4887 20.0875 92.3515 19.6776 90.9234 19.6776H87.2738V39.5124ZM115.067 44.4712C113.216 44.4712 111.602 44.1141 110.227 43.4001C108.852 42.686 107.781 41.6943 107.014 40.4248C106.273 39.129 105.903 37.6215 105.903 35.9025V30.4281C105.903 28.7091 106.273 27.2148 107.014 25.9454C107.781 24.6495 108.852 23.6446 110.227 22.9305C111.602 22.2165 113.216 21.8594 115.067 21.8594C116.892 21.8594 118.478 22.2165 119.827 22.9305C121.202 23.6446 122.26 24.6495 123.001 25.9454C123.768 27.2148 124.151 28.7091 124.151 30.4281V34.3554H110.703V35.9025C110.703 37.4364 111.073 38.6 111.814 39.3934C112.554 40.1604 113.652 40.5439 115.106 40.5439C116.217 40.5439 117.116 40.3587 117.804 39.9885C118.492 39.5918 118.928 39.0232 119.113 38.2827H123.992C123.622 40.1604 122.617 41.6678 120.978 42.805C119.364 43.9158 117.394 44.4712 115.067 44.4712ZM119.351 31.5785V30.3884C119.351 28.881 118.994 27.7305 118.28 26.9371C117.566 26.1173 116.495 25.7074 115.067 25.7074C113.639 25.7074 112.554 26.1173 111.814 26.9371C111.073 27.757 110.703 28.9206 110.703 30.4281V31.2611L119.708 31.1818L119.351 31.5785ZM138.932 44.4712C137.081 44.4712 135.455 44.1274 134.053 43.4397C132.678 42.7257 131.607 41.7339 130.84 40.4645C130.073 39.1686 129.689 37.648 129.689 35.9025V30.4281C129.689 28.6562 130.073 27.1355 130.84 25.8661C131.607 24.5966 132.678 23.6181 134.053 22.9305C135.455 22.2165 137.081 21.8594 138.932 21.8594C141.683 21.8594 143.878 22.5735 145.518 24.0016C147.157 25.4033 148.017 27.3206 148.096 29.7537H143.137C143.058 28.6165 142.648 27.7438 141.908 27.1355C141.194 26.5008 140.202 26.1834 138.932 26.1834C137.61 26.1834 136.565 26.5537 135.799 27.2942C135.032 28.0082 134.648 29.0396 134.648 30.3884V35.9025C134.648 37.2513 135.032 38.2959 135.799 39.0364C136.565 39.7769 137.61 40.1472 138.932 40.1472C140.202 40.1472 141.194 39.843 141.908 39.2348C142.648 38.6 143.058 37.7141 143.137 36.5769H148.096C148.017 39.01 147.157 40.9406 145.518 42.3687C143.878 43.7703 141.683 44.4712 138.932 44.4712ZM160.18 44.4712C157.932 44.4712 156.16 43.8761 154.864 42.686C153.568 41.4959 152.92 39.8959 152.92 37.886C152.92 35.7438 153.634 34.0909 155.062 32.9273C156.491 31.7636 158.514 31.1818 161.132 31.1818H166.567V29.3173C166.567 28.2595 166.223 27.4396 165.535 26.8578C164.848 26.2495 163.909 25.9454 162.719 25.9454C161.634 25.9454 160.735 26.1834 160.021 26.6595C159.307 27.1355 158.884 27.7834 158.752 28.6033H153.912C154.15 26.5405 155.076 24.9008 156.689 23.6842C158.302 22.4677 160.365 21.8594 162.877 21.8594C165.549 21.8594 167.651 22.5338 169.185 23.8826C170.745 25.2049 171.525 27.0033 171.525 29.2777V44.0745H166.725V40.2662H165.932L166.725 39.1951C166.725 40.8083 166.13 42.091 164.94 43.0431C163.75 43.9951 162.163 44.4712 160.18 44.4712ZM161.806 40.7422C163.208 40.7422 164.345 40.3852 165.218 39.6711C166.117 38.9571 166.567 38.0314 166.567 36.8942V34.2364H161.211C160.206 34.2364 159.4 34.5273 158.791 35.1091C158.183 35.6909 157.879 36.4579 157.879 37.41C157.879 38.4414 158.223 39.2612 158.91 39.8695C159.625 40.4513 160.59 40.7422 161.806 40.7422ZM185.553 44.4315C183.887 44.4315 182.432 44.167 181.189 43.6381C179.946 43.1092 178.968 42.3819 178.254 41.4563C177.566 40.5042 177.196 39.3934 177.143 38.124H182.102C182.155 38.8116 182.485 39.367 183.093 39.7901C183.728 40.2133 184.548 40.4248 185.553 40.4248H187.298C188.515 40.4248 189.427 40.1868 190.036 39.7108C190.644 39.2348 190.948 38.5868 190.948 37.767C190.948 37 190.67 36.405 190.115 35.9818C189.586 35.5323 188.753 35.2413 187.616 35.1091L184.918 34.7124C182.432 34.3686 180.608 33.7074 179.444 32.7289C178.28 31.7504 177.698 30.2826 177.698 28.3256C177.698 26.2892 178.386 24.7156 179.761 23.6049C181.136 22.4677 183.16 21.8991 185.831 21.8991H187.338C189.771 21.8991 191.715 22.4412 193.17 23.5256C194.624 24.6099 195.404 26.0644 195.51 27.8892H190.551C190.472 27.3074 190.141 26.8314 189.56 26.4611C189.004 26.0909 188.264 25.9057 187.338 25.9057H185.831C184.693 25.9057 183.86 26.1173 183.332 26.5405C182.829 26.9371 182.578 27.5322 182.578 28.3256C182.578 29.0661 182.803 29.6215 183.252 29.9917C183.702 30.3355 184.429 30.5868 185.434 30.7454L188.251 31.1421C190.842 31.5124 192.746 32.2132 193.963 33.2446C195.206 34.2496 195.827 35.7438 195.827 37.7273C195.827 39.843 195.1 41.4959 193.646 42.686C192.218 43.8497 190.102 44.4315 187.298 44.4315H185.553ZM212.553 44.0745C210.463 44.0745 208.824 43.4926 207.634 42.329C206.47 41.1654 205.888 39.5653 205.888 37.529V26.7388H199.977V22.2561H205.888V16.1073H210.886V22.2561H219.257V26.7388H210.886V37.529C210.886 38.9042 211.561 39.5918 212.91 39.5918H218.86V44.0745H212.553Z" fill="white"/>
<defs>
<filter id="filter0_d_1667_63" x="25.8354" y="24.312" width="17.52" height="24.4819" filterUnits="userSpaceOnUse" color-interpolation-filters="sRGB">
<feFlood flood-opacity="0" result="BackgroundImageFix"/>
<feColorMatrix in="SourceAlpha" type="matrix" values="0 0 0 0 0 0 0 0 0 0 0 0 0 0 0 0 0 0 127 0" result="hardAlpha"/>
<feOffset dx="-1.19776"/>
<feComposite in2="hardAlpha" operator="out"/>
<feColorMatrix type="matrix" values="0 0 0 0 0 0 0 0 0 0 0 0 0 0 0 0 0 0 0.25 0"/>
<feBlend mode="normal" in2="BackgroundImageFix" result="effect1_dropShadow_1667_63"/>
<feBlend mode="normal" in="SourceGraphic" in2="effect1_dropShadow_1667_63" result="shape"/>
</filter>
<filter id="filter1_d_1667_63" x="14.9526" y="10.7104" width="17.5181" height="24.4822" filterUnits="userSpaceOnUse" color-interpolation-filters="sRGB">
<feFlood flood-opacity="0" result="BackgroundImageFix"/>
<feColorMatrix in="SourceAlpha" type="matrix" values="0 0 0 0 0 0 0 0 0 0 0 0 0 0 0 0 0 0 127 0" result="hardAlpha"/>
<feOffset dx="-1.19776"/>
<feComposite in2="hardAlpha" operator="out"/>
<feColorMatrix type="matrix" values="0 0 0 0 0 0 0 0 0 0 0 0 0 0 0 0 0 0 0.25 0"/>
<feBlend mode="normal" in2="BackgroundImageFix" result="effect1_dropShadow_1667_63"/>
<feBlend mode="normal" in="SourceGraphic" in2="effect1_dropShadow_1667_63" result="shape"/>
</filter>
</defs>
</svg>
