<svg width="80" height="80" viewBox="0 0 80 80" fill="none" xmlns="http://www.w3.org/2000/svg">
                <rect x="0.666667" y="0.666667" width="78.6667" height="78.6667" class="color_2" fill="black" stroke="white"
                  stroke-width="1.33333" />
                <path
                  d="M42.3806 35.8094V33.4284V31.0475V28.6665H37.6187V31.0475V33.4284V35.8094V38.1903V40.5713H42.3806V38.1903V35.8094Z"
                  class='color_1' fill="white" />
                <path
                  d="M44.7613 45.3332H47.1423H49.5232H51.9042V40.5713H49.5232H47.1423H44.7613H42.3804V45.3332H44.7613Z"
                  class='color_1' fill="white" />
                <path
                  d="M47.1423 28.6667H49.5232H51.9042V23.9048H49.5232H47.1423H44.7613H42.3804V28.6667H44.7613H47.1423Z"
                  class='color_1' fill="white" />
                <path
                  d="M37.952 19.1432V17.0955H42.0472V19.1432V21.5241V23.9051V26.286V28.3336H37.952V26.286V23.9051V21.5241V19.1432Z"
                  class="color_2" fill="black" stroke="white" stroke-width="0.666667" />
                <path
                  d="M30.4762 28.9998H32.8571H35.2381H37.2857V33.0951H35.2381H32.8571H30.4762H28.4285V28.9998H30.4762Z"
                  class="color_2" fill="black" stroke="white" stroke-width="0.666667" />
                <path
                  d="M32.8571 12.3333H35.2381H37.2857V16.4286H35.2381H32.8571H30.4762H28.4285V12.3333H30.4762H32.8571Z"
                  class="color_2" fill="black" stroke="white" stroke-width="0.666667" />
                <path
                  d="M16.84 68.6665V58.9332H20C20.6756 58.9332 21.2622 59.0621 21.76 59.3198C22.2667 59.5776 22.6578 59.9421 22.9333 60.4132C23.2178 60.8754 23.36 61.4221 23.36 62.0532V65.5332C23.36 66.1554 23.2178 66.7021 22.9333 67.1732C22.6578 67.6443 22.2667 68.0132 21.76 68.2798C21.2622 68.5376 20.6756 68.6665 20 68.6665H16.84ZM18.84 66.7998H20C20.4089 66.7998 20.7378 66.6843 20.9867 66.4532C21.2356 66.2221 21.36 65.9154 21.36 65.5332V62.0532C21.36 61.6798 21.2356 61.3776 20.9867 61.1465C20.7378 60.9154 20.4089 60.7998 20 60.7998H18.84V66.7998ZM25.0615 68.6665V58.9332H31.0615V60.6398H27.0215V62.8265H30.5948V64.5332H27.0215V66.9598H31.0615V68.6665H25.0615ZM36.0429 68.7998C35.394 68.7998 34.8251 68.6798 34.3363 68.4398C33.8474 68.1909 33.4651 67.8487 33.1896 67.4132C32.9229 66.9687 32.7896 66.4532 32.7896 65.8665V61.7332C32.7896 61.1376 32.9229 60.6221 33.1896 60.1865C33.4651 59.7509 33.8474 59.4132 34.3363 59.1732C34.8251 58.9243 35.394 58.7998 36.0429 58.7998C36.7007 58.7998 37.2696 58.9243 37.7496 59.1732C38.2385 59.4132 38.6163 59.7509 38.8829 60.1865C39.1585 60.6221 39.2963 61.1376 39.2963 61.7332H37.2963C37.2963 61.3421 37.1851 61.0443 36.9629 60.8398C36.7496 60.6354 36.4429 60.5332 36.0429 60.5332C35.6429 60.5332 35.3318 60.6354 35.1096 60.8398C34.8963 61.0443 34.7896 61.3421 34.7896 61.7332V65.8665C34.7896 66.2487 34.8963 66.5465 35.1096 66.7598C35.3318 66.9643 35.6429 67.0665 36.0429 67.0665C36.4429 67.0665 36.7496 66.9643 36.9629 66.7598C37.1851 66.5465 37.2963 66.2487 37.2963 65.8665H39.2963C39.2963 66.4532 39.1585 66.9687 38.8829 67.4132C38.6163 67.8487 38.2385 68.1909 37.7496 68.4398C37.2696 68.6798 36.7007 68.7998 36.0429 68.7998ZM40.3177 68.6665L42.7044 58.9332H45.2377L47.651 68.6665H45.611L45.1444 66.4665H42.8244L42.3577 68.6665H40.3177ZM43.1577 64.8665H44.7977L44.331 62.5198C44.2688 62.1821 44.2022 61.8487 44.131 61.5198C44.0688 61.1821 44.0199 60.9198 43.9844 60.7332C43.9488 60.9198 43.8999 61.1776 43.8377 61.5065C43.7844 61.8354 43.7222 62.1687 43.651 62.5065L43.1577 64.8665ZM51.9792 68.7998C51.2947 68.7998 50.6992 68.6843 50.1925 68.4532C49.6858 68.2221 49.2947 67.8976 49.0192 67.4798C48.7436 67.0621 48.6058 66.5687 48.6058 65.9998H50.6058C50.6058 66.3287 50.7303 66.5909 50.9792 66.7865C51.2369 66.9732 51.5836 67.0665 52.0192 67.0665C52.4369 67.0665 52.7614 66.9732 52.9925 66.7865C53.2325 66.5998 53.3525 66.3421 53.3525 66.0132C53.3525 65.7287 53.2636 65.4843 53.0858 65.2798C52.9081 65.0754 52.6592 64.9376 52.3392 64.8665L51.3525 64.6398C50.5258 64.4443 49.8814 64.0843 49.4192 63.5598C48.9658 63.0265 48.7392 62.3776 48.7392 61.6132C48.7392 61.0443 48.8681 60.5509 49.1258 60.1332C49.3925 59.7065 49.7658 59.3776 50.2458 59.1465C50.7258 58.9154 51.2947 58.7998 51.9525 58.7998C52.9481 58.7998 53.7347 59.0487 54.3125 59.5465C54.8992 60.0354 55.1925 60.6976 55.1925 61.5332H53.1925C53.1925 61.2221 53.0814 60.9776 52.8592 60.7998C52.6458 60.6221 52.3347 60.5332 51.9258 60.5332C51.5436 60.5332 51.2503 60.6221 51.0458 60.7998C50.8414 60.9687 50.7392 61.2132 50.7392 61.5332C50.7392 61.8176 50.8192 62.0621 50.9792 62.2665C51.1481 62.4621 51.3836 62.5954 51.6858 62.6665L52.7258 62.9065C53.5881 63.1021 54.2414 63.4576 54.6858 63.9732C55.1303 64.4798 55.3525 65.1287 55.3525 65.9198C55.3525 66.4887 55.2103 66.9909 54.9258 67.4265C54.6503 67.8621 54.2592 68.1998 53.7525 68.4398C53.2547 68.6798 52.6636 68.7998 51.9792 68.7998ZM58.974 68.6665V60.7998H56.5073V58.9332H63.4406V60.7998H60.974V68.6665H58.974Z"
                  class='color_1' fill="white" />
              </svg>