<svg width="861" height="150" viewBox="0 0 861 150" fill="none" xmlns="http://www.w3.org/2000/svg">
<path d="M150.926 0H0.925781V150H150.926V0Z" fill="#272727"/>
<g filter="url(#filter0_d_625_131)">
<path d="M82.7831 95.5709V88.7138V81.8566V74.9995H69.0688V81.8566V88.7138V95.5709V102.428V109.285H82.7831V102.428V95.5709Z" fill="white"/>
<path d="M89.6408 123H96.498H103.355H110.212V109.286H103.355H96.498H89.6408H82.7837V123H89.6408Z" fill="white"/>
<path d="M96.498 75.0004H103.355H110.212V61.2861H103.355H96.498H89.6408H82.7837V75.0004H89.6408H96.498Z" fill="white"/>
</g>
<g filter="url(#filter1_d_625_131)">
<path d="M69.0684 40.7144V47.5715V54.4286V61.2858V68.1429V75H82.7826V68.1429V61.2858V54.4286V47.5715V40.7144H69.0684Z" fill="#D7DF23"/>
<path d="M55.3544 74.9995H48.4973H41.6401V88.7138H48.4973H55.3544H62.2115H69.0687V74.9995H62.2115H55.3544Z" fill="#D7DF23"/>
<path d="M62.2115 27H55.3544H48.4973H41.6401V40.7143H48.4973H55.3544H62.2115H69.0687V27H62.2115Z" fill="#D7DF23"/>
</g>
<path d="M208.426 111V38H230.126C235.059 38 239.326 38.9333 242.926 40.8C246.592 42.6667 249.426 45.3 251.426 48.7C253.426 52.1 254.426 56.1333 254.426 60.8V88.1C254.426 92.7 253.426 96.7333 251.426 100.2C249.426 103.6 246.592 106.267 242.926 108.2C239.326 110.067 235.059 111 230.126 111H208.426ZM220.926 99.5H230.126C233.726 99.5 236.592 98.5 238.726 96.5C240.859 94.4333 241.926 91.6333 241.926 88.1V60.8C241.926 57.3333 240.859 54.6 238.726 52.6C236.592 50.5333 233.726 49.5 230.126 49.5H220.926V99.5ZM290.987 112C286.32 112 282.253 111.1 278.787 109.3C275.32 107.5 272.62 105 270.687 101.8C268.82 98.5333 267.887 94.7333 267.887 90.4V76.6C267.887 72.2667 268.82 68.5 270.687 65.3C272.62 62.0333 275.32 59.5 278.787 57.7C282.253 55.9 286.32 55 290.987 55C295.587 55 299.587 55.9 302.987 57.7C306.453 59.5 309.12 62.0333 310.987 65.3C312.92 68.5 313.887 72.2667 313.887 76.6V86.5H279.987V90.4C279.987 94.2667 280.92 97.2 282.787 99.2C284.653 101.133 287.42 102.1 291.087 102.1C293.887 102.1 296.153 101.633 297.887 100.7C299.62 99.7 300.72 98.2667 301.187 96.4H313.487C312.553 101.133 310.02 104.933 305.887 107.8C301.82 110.6 296.853 112 290.987 112ZM301.787 79.5V76.5C301.787 72.7 300.887 69.8 299.087 67.8C297.287 65.7333 294.587 64.7 290.987 64.7C287.387 64.7 284.653 65.7333 282.787 67.8C280.92 69.8667 279.987 72.8 279.987 76.6V78.7L302.687 78.5L301.787 79.5ZM351.148 112C346.481 112 342.381 111.133 338.848 109.4C335.381 107.6 332.681 105.1 330.748 101.9C328.814 98.6333 327.848 94.8 327.848 90.4V76.6C327.848 72.1333 328.814 68.3 330.748 65.1C332.681 61.9 335.381 59.4333 338.848 57.7C342.381 55.9 346.481 55 351.148 55C358.081 55 363.614 56.8 367.748 60.4C371.881 63.9333 374.048 68.7667 374.248 74.9H361.748C361.548 72.0333 360.514 69.8333 358.648 68.3C356.848 66.7 354.348 65.9 351.148 65.9C347.814 65.9 345.181 66.8333 343.248 68.7C341.314 70.5 340.348 73.1 340.348 76.5V90.4C340.348 93.8 341.314 96.4333 343.248 98.3C345.181 100.167 347.814 101.1 351.148 101.1C354.348 101.1 356.848 100.333 358.648 98.8C360.514 97.2 361.548 94.9667 361.748 92.1H374.248C374.048 98.2333 371.881 103.1 367.748 106.7C363.614 110.233 358.081 112 351.148 112ZM404.709 112C399.042 112 394.575 110.5 391.309 107.5C388.042 104.5 386.409 100.467 386.409 95.4C386.409 90 388.209 85.8333 391.809 82.9C395.409 79.9667 400.509 78.5 407.109 78.5H420.809V73.8C420.809 71.1333 419.942 69.0667 418.209 67.6C416.475 66.0667 414.109 65.3 411.109 65.3C408.375 65.3 406.109 65.9 404.309 67.1C402.509 68.3 401.442 69.9333 401.109 72H388.909C389.509 66.8 391.842 62.6667 395.909 59.6C399.975 56.5333 405.175 55 411.509 55C418.242 55 423.542 56.7 427.409 60.1C431.342 63.4333 433.309 67.9667 433.309 73.7V111H421.209V101.4H419.209L421.209 98.7C421.209 102.767 419.709 106 416.709 108.4C413.709 110.8 409.709 112 404.709 112ZM408.809 102.6C412.342 102.6 415.209 101.7 417.409 99.9C419.675 98.1 420.809 95.7667 420.809 92.9V86.2H407.309C404.775 86.2 402.742 86.9333 401.209 88.4C399.675 89.8667 398.909 91.8 398.909 94.2C398.909 96.8 399.775 98.8667 401.509 100.4C403.309 101.867 405.742 102.6 408.809 102.6ZM468.67 111.9C464.47 111.9 460.803 111.233 457.67 109.9C454.536 108.567 452.07 106.733 450.27 104.4C448.536 102 447.603 99.2 447.47 96H459.97C460.103 97.7333 460.936 99.1333 462.47 100.2C464.07 101.267 466.136 101.8 468.67 101.8H473.07C476.136 101.8 478.436 101.2 479.97 100C481.503 98.8 482.27 97.1667 482.27 95.1C482.27 93.1667 481.57 91.6667 480.17 90.6C478.836 89.4667 476.736 88.7333 473.87 88.4L467.07 87.4C460.803 86.5333 456.203 84.8667 453.27 82.4C450.336 79.9333 448.87 76.2333 448.87 71.3C448.87 66.1667 450.603 62.2 454.07 59.4C457.536 56.5333 462.636 55.1 469.37 55.1H473.17C479.303 55.1 484.203 56.4667 487.87 59.2C491.536 61.9333 493.503 65.6 493.77 70.2H481.27C481.07 68.7333 480.236 67.5333 478.77 66.6C477.37 65.6667 475.503 65.2 473.17 65.2H469.37C466.503 65.2 464.403 65.7333 463.07 66.8C461.803 67.8 461.17 69.3 461.17 71.3C461.17 73.1667 461.736 74.5667 462.87 75.5C464.003 76.3667 465.836 77 468.37 77.4L475.47 78.4C482.003 79.3333 486.803 81.1 489.87 83.7C493.003 86.2333 494.57 90 494.57 95C494.57 100.333 492.736 104.5 489.07 107.5C485.47 110.433 480.136 111.9 473.07 111.9H468.67ZM536.73 111C531.464 111 527.33 109.533 524.33 106.6C521.397 103.667 519.93 99.6333 519.93 94.5V67.3H505.03V56H519.93V40.5H532.53V56H553.63V67.3H532.53V94.5C532.53 97.9667 534.23 99.7 537.63 99.7H552.63V111H536.73ZM590.691 112C587.825 112 585.525 111.167 583.791 109.5C582.125 107.833 581.291 105.567 581.291 102.7C581.291 99.8333 582.125 97.5667 583.791 95.9C585.525 94.1667 587.825 93.3 590.691 93.3C593.558 93.3 595.825 94.1667 597.491 95.9C599.225 97.5667 600.091 99.8333 600.091 102.7C600.091 105.567 599.225 107.833 597.491 109.5C595.825 111.167 593.558 112 590.691 112ZM659.052 111C655.452 111 652.286 110.267 649.552 108.8C646.886 107.333 644.786 105.267 643.252 102.6C641.719 99.8667 640.952 96.7333 640.952 93.2V49.3H623.352V38H653.452V93.2C653.452 95.2 654.019 96.8 655.152 98C656.352 99.1333 657.952 99.7 659.952 99.7H676.552V111H659.052ZM688.213 111V99.6H707.413V67.3H690.713V56H719.413V99.6H736.413V111H688.213ZM712.413 46.8C709.88 46.8 707.88 46.1667 706.413 44.9C704.947 43.5667 704.213 41.8 704.213 39.6C704.213 37.4 704.947 35.6667 706.413 34.4C707.88 33.0667 709.88 32.4 712.413 32.4C714.947 32.4 716.947 33.0667 718.413 34.4C719.88 35.6667 720.613 37.4 720.613 39.6C720.613 41.8 719.88 43.5667 718.413 44.9C716.947 46.1667 714.947 46.8 712.413 46.8ZM762.574 111L744.474 56H757.274L767.774 89.4C768.374 91.4 768.941 93.4667 769.474 95.6C770.074 97.7333 770.508 99.4333 770.774 100.7C771.108 99.4333 771.541 97.7333 772.074 95.6C772.608 93.4667 773.141 91.4333 773.674 89.5L783.974 56H796.674L778.674 111H762.574ZM830.635 112C825.968 112 821.902 111.1 818.435 109.3C814.968 107.5 812.268 105 810.335 101.8C808.468 98.5333 807.535 94.7333 807.535 90.4V76.6C807.535 72.2667 808.468 68.5 810.335 65.3C812.268 62.0333 814.968 59.5 818.435 57.7C821.902 55.9 825.968 55 830.635 55C835.235 55 839.235 55.9 842.635 57.7C846.102 59.5 848.768 62.0333 850.635 65.3C852.568 68.5 853.535 72.2667 853.535 76.6V86.5H819.635V90.4C819.635 94.2667 820.568 97.2 822.435 99.2C824.302 101.133 827.068 102.1 830.735 102.1C833.535 102.1 835.802 101.633 837.535 100.7C839.268 99.7 840.368 98.2667 840.835 96.4H853.135C852.202 101.133 849.668 104.933 845.535 107.8C841.468 110.6 836.502 112 830.635 112ZM841.435 79.5V76.5C841.435 72.7 840.535 69.8 838.735 67.8C836.935 65.7333 834.235 64.7 830.635 64.7C827.035 64.7 824.302 65.7333 822.435 67.8C820.568 69.8667 819.635 72.8 819.635 76.6V78.7L842.335 78.5L841.435 79.5Z" fill="white"/>
<defs>
<filter id="filter0_d_625_131" x="66.0495" y="61.2861" width="44.1629" height="61.7139" filterUnits="userSpaceOnUse" color-interpolation-filters="sRGB">
<feFlood flood-opacity="0" result="BackgroundImageFix"/>
<feColorMatrix in="SourceAlpha" type="matrix" values="0 0 0 0 0 0 0 0 0 0 0 0 0 0 0 0 0 0 127 0" result="hardAlpha"/>
<feOffset dx="-3.01932"/>
<feComposite in2="hardAlpha" operator="out"/>
<feColorMatrix type="matrix" values="0 0 0 0 0 0 0 0 0 0 0 0 0 0 0 0 0 0 0.25 0"/>
<feBlend mode="normal" in2="BackgroundImageFix" result="effect1_dropShadow_625_131"/>
<feBlend mode="normal" in="SourceGraphic" in2="effect1_dropShadow_625_131" result="shape"/>
</filter>
<filter id="filter1_d_625_131" x="38.6208" y="27" width="44.1619" height="61.7139" filterUnits="userSpaceOnUse" color-interpolation-filters="sRGB">
<feFlood flood-opacity="0" result="BackgroundImageFix"/>
<feColorMatrix in="SourceAlpha" type="matrix" values="0 0 0 0 0 0 0 0 0 0 0 0 0 0 0 0 0 0 127 0" result="hardAlpha"/>
<feOffset dx="-3.01932"/>
<feComposite in2="hardAlpha" operator="out"/>
<feColorMatrix type="matrix" values="0 0 0 0 0 0 0 0 0 0 0 0 0 0 0 0 0 0 0.25 0"/>
<feBlend mode="normal" in2="BackgroundImageFix" result="effect1_dropShadow_625_131"/>
<feBlend mode="normal" in="SourceGraphic" in2="effect1_dropShadow_625_131" result="shape"/>
</filter>
</defs>
</svg>
