<svg width="41" height="30" viewBox="0 0 41 30" fill="none" xmlns="http://www.w3.org/2000/svg">
<path d="M24.7188 7.8832H27.1186V5.4834H24.7188V7.8832Z" fill="white"/>
<path d="M27.1186 10.283H29.5185V7.8832H27.1186V10.283Z" fill="white"/>
<path d="M27.1186 22.282H29.5185V19.8822H27.1186V22.282Z" fill="white"/>
<path d="M24.7188 24.6818H27.1186V22.282H24.7188V24.6818Z" fill="white"/>
<path d="M31.9184 10.283H29.5185V19.8822H31.9184V10.283Z" fill="white"/>
<path d="M33.5195 5.4833H35.9194V3.0835H33.5195V5.4833Z" fill="white"/>
<path d="M33.5195 27.0815H35.9194V24.6817H33.5195V27.0815Z" fill="white"/>
<path d="M35.9194 24.6817H38.3193V19.8821H35.9194V24.6817Z" fill="white"/>
<path d="M40.7192 10.2829H38.3193V19.8821H40.7192V10.2829Z" fill="white"/>
<path d="M38.3193 5.4833H35.9194V10.2829H38.3193V5.4833Z" fill="white"/>
<path d="M19.9193 12.6829H22.3192V10.2831H19.9193V12.6829Z" fill="white"/>
<path d="M19.9193 19.8823H22.3192V17.4825H19.9193V19.8823Z" fill="white"/>
<path d="M24.7191 12.6829H22.3192V17.4825H24.7191V12.6829Z" fill="white"/>
<path d="M7.91841 27.0819V29.4817H3.11864V27.0819H7.91841Z" fill="white"/>
<path d="M12.7182 24.6821V27.0819H7.91841V24.6821H12.7182Z" fill="white"/>
<path d="M17.5179 22.2823V24.6821H12.7182V22.2823H17.5179Z" fill="white"/>
<path d="M12.7182 7.88349V5.48369H17.5179V7.88349H12.7182Z" fill="white"/>
<path d="M7.91841 5.48369V3.08389H12.7182V5.48369H7.91841Z" fill="white"/>
<path d="M3.11864 3.08389V0.684082H7.91841V3.08389H3.11864Z" fill="white"/>
<path d="M3.11864 27.0819H0.71875V3.08389H3.11864V27.0819Z" fill="white"/>
<path d="M19.934 7.8835L17.5179 7.88349L17.518 10.2888H19.934V7.8835Z" fill="white"/>
<path d="M19.9219 19.8847H17.5059V22.29H19.9219V19.8847Z" fill="white"/>
</svg>
