<svg width="41" height="30" viewBox="0 0 41 30" fill="none" xmlns="http://www.w3.org/2000/svg">
<path d="M24.5146 7.8832H26.9145V5.4834H24.5146V7.8832Z" fill="black"/>
<path d="M26.9145 10.283H29.3144V7.8832H26.9145V10.283Z" fill="black"/>
<path d="M26.9145 22.282H29.3144V19.8822H26.9145V22.282Z" fill="black"/>
<path d="M24.5146 24.6818H26.9145V22.282H24.5146V24.6818Z" fill="black"/>
<path d="M31.7143 10.283H29.3144V19.8822H31.7143V10.283Z" fill="black"/>
<path d="M33.3154 5.4833H35.7153V3.0835H33.3154V5.4833Z" fill="black"/>
<path d="M33.3154 27.0815H35.7153V24.6817H33.3154V27.0815Z" fill="black"/>
<path d="M35.7153 24.6817H38.1152V19.8821H35.7153V24.6817Z" fill="black"/>
<path d="M40.5151 10.2829H38.1152V19.8821H40.5151V10.2829Z" fill="black"/>
<path d="M38.1152 5.4833H35.7153V10.2829H38.1152V5.4833Z" fill="black"/>
<path d="M19.7152 12.6829H22.1151V10.2831H19.7152V12.6829Z" fill="black"/>
<path d="M19.7152 19.8823H22.1151V17.4825H19.7152V19.8823Z" fill="black"/>
<path d="M24.515 12.6829H22.1151V17.4825H24.515V12.6829Z" fill="black"/>
<path d="M7.7143 27.0819V29.4817H2.91453V27.0819H7.7143Z" fill="black"/>
<path d="M12.5141 24.6821V27.0819H7.7143V24.6821H12.5141Z" fill="black"/>
<path d="M17.3138 22.2823V24.6821H12.5141V22.2823H17.3138Z" fill="black"/>
<path d="M12.5141 7.88349V5.48369H17.3138V7.88349H12.5141Z" fill="black"/>
<path d="M7.7143 5.48369V3.08389H12.5141V5.48369H7.7143Z" fill="black"/>
<path d="M2.91453 3.08389V0.684082H7.7143V3.08389H2.91453Z" fill="black"/>
<path d="M2.91453 27.0819H0.514648V3.08389H2.91453V27.0819Z" fill="black"/>
<path d="M19.7298 7.8835L17.3138 7.88349L17.3139 10.2888H19.7298V7.8835Z" fill="black"/>
<path d="M19.7178 19.8847H17.3018V22.29H19.7178V19.8847Z" fill="black"/>
</svg>
