<svg width="100" height="105" viewBox="0 0 100 105" fill="none" xmlns="http://www.w3.org/2000/svg">
<path d="M61.6073 11.9212L61.6073 21.1084L13.0725 21.1084L13.0725 11.9212L18.4653 11.9212L18.4653 7.94744L23.858 7.94744L23.858 3.97372L50.8218 3.97372L50.8218 7.94744L56.2146 7.94744L56.2146 11.9212L61.6073 11.9212Z" fill="#D7DF23"/>
<path d="M61.6072 11.9212L61.6073 7.9475L56.2145 7.9475L56.2145 11.9212L61.6072 11.9212Z" fill="black"/>
<path d="M13.0724 11.9212L13.0725 7.9475L18.4652 7.9475L18.4652 11.9212L13.0724 11.9212Z" fill="black"/>
<path d="M56.2145 7.9475L56.2145 3.97375L50.8218 3.97375L50.8218 7.94748L56.2145 7.9475Z" fill="black"/>
<path d="M18.4652 7.9475L18.4652 3.97375L23.8579 3.97375L23.8579 7.94748L18.4652 7.9475Z" fill="black"/>
<path d="M7.67969 20.6952L13.0724 20.6952L13.0724 11.9212L7.67969 11.9212L7.67969 20.6952Z" fill="black"/>
<path d="M61.6073 24.6689L61.6072 20.6952L13.0724 20.6952L13.0725 24.6689L61.6073 24.6689Z" fill="black"/>
<path d="M67 11.9212L61.6072 11.9212L61.6072 20.6952L67 20.6952L67 11.9212Z" fill="black"/>
<path d="M23.858 1.2013e-06L23.8579 3.97375L50.8218 3.97375L50.8218 2.45597e-08L23.858 1.2013e-06Z" fill="black"/>
<path d="M7.5 73.1186V17.7949H92.5V73.1186H7.5Z" fill="#D7DF23"/>
<path d="M100 17.7948H92.5V73.1185H100V17.7948Z" fill="black"/>
<path d="M7.5 12.9133V17.7948H92.5V12.9133H7.5Z" fill="black"/>
<path d="M0 73.1185H7.5V17.7948H0V73.1185Z" fill="black"/>
<path d="M7.5 73.1185V78H92.5V73.1185H7.5Z" fill="black"/>
<path d="M26.2156 98.76L31.8956 83.72H33.4156L27.7356 98.76H26.2156ZM38.8974 97.16C38.0227 97.16 37.3134 96.8667 36.7694 96.28C36.236 95.6933 35.9694 94.8987 35.9694 93.896V91.32C35.9694 90.3067 36.236 89.5067 36.7694 88.92C37.3027 88.3333 38.012 88.04 38.8974 88.04C39.6227 88.04 40.204 88.2373 40.6414 88.632C41.0787 89.0267 41.2974 89.5547 41.2974 90.216L41.0094 89.88H41.3294L41.2974 87.88V85.32H42.7374V97H41.2974V95.32H41.0094L41.2974 94.984C41.2974 95.656 41.0787 96.1893 40.6414 96.584C40.204 96.968 39.6227 97.16 38.8974 97.16ZM39.3774 95.912C39.9747 95.912 40.444 95.7253 40.7854 95.352C41.1267 94.9787 41.2974 94.4613 41.2974 93.8V91.4C41.2974 90.7387 41.1267 90.2213 40.7854 89.848C40.444 89.4747 39.9747 89.288 39.3774 89.288C38.7694 89.288 38.2894 89.4693 37.9374 89.832C37.5854 90.1947 37.4094 90.7173 37.4094 91.4V93.8C37.4094 94.4827 37.5854 95.0053 37.9374 95.368C38.2894 95.7307 38.7694 95.912 39.3774 95.912ZM49.0031 97.128C48.2991 97.128 47.6911 96.9947 47.1791 96.728C46.6671 96.4613 46.2671 96.0773 45.9791 95.576C45.7018 95.064 45.5631 94.4613 45.5631 93.768V91.432C45.5631 90.728 45.7018 90.1253 45.9791 89.624C46.2671 89.1227 46.6671 88.7387 47.1791 88.472C47.6911 88.2053 48.2991 88.072 49.0031 88.072C49.7071 88.072 50.3151 88.2053 50.8271 88.472C51.3391 88.7387 51.7338 89.1227 52.0111 89.624C52.2991 90.1253 52.4431 90.7227 52.4431 91.416V93.768C52.4431 94.4613 52.2991 95.064 52.0111 95.576C51.7338 96.0773 51.3391 96.4613 50.8271 96.728C50.3151 96.9947 49.7071 97.128 49.0031 97.128ZM49.0031 95.848C49.6325 95.848 50.1231 95.672 50.4751 95.32C50.8271 94.968 51.0031 94.4507 51.0031 93.768V91.432C51.0031 90.7493 50.8271 90.232 50.4751 89.88C50.1231 89.528 49.6325 89.352 49.0031 89.352C48.3845 89.352 47.8938 89.528 47.5311 89.88C47.1791 90.232 47.0031 90.7493 47.0031 91.432V93.768C47.0031 94.4507 47.1791 94.968 47.5311 95.32C47.8938 95.672 48.3845 95.848 49.0031 95.848ZM58.6609 97.16C57.9569 97.16 57.3382 97.0267 56.8049 96.76C56.2822 96.4933 55.8769 96.1093 55.5889 95.608C55.3009 95.096 55.1569 94.4933 55.1569 93.8V91.4C55.1569 90.696 55.3009 90.0933 55.5889 89.592C55.8769 89.0907 56.2822 88.7067 56.8049 88.44C57.3382 88.1733 57.9569 88.04 58.6609 88.04C59.6742 88.04 60.4902 88.312 61.1089 88.856C61.7275 89.4 62.0529 90.1413 62.0849 91.08H60.6449C60.6129 90.5147 60.4209 90.0827 60.0689 89.784C59.7275 89.4747 59.2582 89.32 58.6609 89.32C58.0315 89.32 57.5302 89.5013 57.1569 89.864C56.7835 90.216 56.5969 90.7227 56.5969 91.384V93.8C56.5969 94.4613 56.7835 94.9733 57.1569 95.336C57.5302 95.6987 58.0315 95.88 58.6609 95.88C59.2582 95.88 59.7275 95.7253 60.0689 95.416C60.4209 95.1067 60.6129 94.6747 60.6449 94.12H62.0849C62.0529 95.0587 61.7275 95.8 61.1089 96.344C60.4902 96.888 59.6742 97.16 58.6609 97.16ZM67.9186 97.128C67.3213 97.128 66.7986 97.0373 66.3506 96.856C65.9133 96.664 65.5613 96.3973 65.2946 96.056C65.0386 95.7147 64.884 95.3093 64.8306 94.84H66.2706C66.3346 95.1493 66.5053 95.3947 66.7826 95.576C67.0706 95.7573 67.4493 95.848 67.9186 95.848H68.5906C69.156 95.848 69.5773 95.736 69.8546 95.512C70.132 95.2773 70.2706 94.968 70.2706 94.584C70.2706 94.2107 70.1426 93.9173 69.8866 93.704C69.6413 93.48 69.2733 93.3307 68.7826 93.256L67.5986 93.064C66.7346 92.9147 66.0893 92.648 65.6626 92.264C65.2466 91.8693 65.0386 91.2987 65.0386 90.552C65.0386 89.7627 65.2893 89.1547 65.7906 88.728C66.292 88.2907 67.044 88.072 68.0466 88.072H68.6546C69.4973 88.072 70.1746 88.2693 70.6866 88.664C71.1986 89.0587 71.508 89.592 71.6146 90.264H70.1746C70.1106 89.9867 69.9506 89.768 69.6946 89.608C69.4386 89.4373 69.092 89.352 68.6546 89.352H68.0466C67.5026 89.352 67.1026 89.4533 66.8466 89.656C66.6013 89.8587 66.4786 90.1627 66.4786 90.568C66.4786 90.9307 66.5853 91.1973 66.7986 91.368C67.012 91.5387 67.348 91.6613 67.8066 91.736L68.9906 91.928C69.94 92.0773 70.628 92.3547 71.0546 92.76C71.492 93.1653 71.7106 93.752 71.7106 94.52C71.7106 95.3307 71.4493 95.9707 70.9266 96.44C70.4146 96.8987 69.636 97.128 68.5906 97.128H67.9186Z" fill="#CBD5E1"/>
<path d="M56.2857 34.2857H58.4286V36.4286H56.2857V34.2857Z" fill="black"/>
<path d="M60.5714 57.8571H62.7143V38.5714H60.5714V36.4286H58.4286V38.5714H54.1429V34.2857H56.2857V32.1429H54.1429V30H52H39.1429V32.1429H52V40.7143H60.5714V57.8571Z" fill="black"/>
<path d="M39.1429 32.1429H37V57.8571H39.1429V32.1429Z" fill="black"/>
<path d="M39.1429 57.8571V60H60.5714V57.8571H39.1429Z" fill="black"/>
<path d="M52 32.1428H39.1428V57.8571H60.5714V40.7143H52V32.1428Z" fill="white"/>
<path d="M54.1428 38.5714V34.2857H56.2857V36.4285H58.4285V38.5714H54.1428Z" fill="white"/>
</svg>
