<svg width="100" height="105" viewBox="0 0 100 105" fill="none" xmlns="http://www.w3.org/2000/svg">
<path d="M61.6073 11.9212L61.6073 21.1084L13.0725 21.1084L13.0725 11.9212L18.4653 11.9212L18.4653 7.94744L23.858 7.94744L23.858 3.97372L50.8218 3.97372L50.8218 7.94744L56.2146 7.94744L56.2146 11.9212L61.6073 11.9212Z" fill="#D7DF23"/>
<path d="M61.6072 11.9212L61.6073 7.9475L56.2145 7.9475L56.2145 11.9212L61.6072 11.9212Z" fill="black"/>
<path d="M13.0724 11.9212L13.0725 7.9475L18.4652 7.9475L18.4652 11.9212L13.0724 11.9212Z" fill="black"/>
<path d="M56.2145 7.9475L56.2145 3.97375L50.8218 3.97375L50.8218 7.94748L56.2145 7.9475Z" fill="black"/>
<path d="M18.4652 7.9475L18.4652 3.97375L23.8579 3.97375L23.8579 7.94748L18.4652 7.9475Z" fill="black"/>
<path d="M7.67969 20.6952L13.0724 20.6952L13.0724 11.9212L7.67969 11.9212L7.67969 20.6952Z" fill="black"/>
<path d="M61.6073 24.6689L61.6072 20.6952L13.0724 20.6952L13.0725 24.6689L61.6073 24.6689Z" fill="black"/>
<path d="M67 11.9212L61.6072 11.9212L61.6072 20.6952L67 20.6952L67 11.9212Z" fill="black"/>
<path d="M23.858 1.2013e-06L23.8579 3.97375L50.8218 3.97375L50.8218 2.45597e-08L23.858 1.2013e-06Z" fill="black"/>
<path d="M7.5 73.1186V17.7949H92.5V73.1186H7.5Z" fill="#D7DF23"/>
<path d="M100 17.7948H92.5V73.1185H100V17.7948Z" fill="black"/>
<path d="M7.5 12.9133V17.7948H92.5V12.9133H7.5Z" fill="black"/>
<path d="M0 73.1185H7.5V17.7948H0V73.1185Z" fill="black"/>
<path d="M7.5 73.1185V78H92.5V73.1185H7.5Z" fill="black"/>
<path d="M2.23125 98.76L7.91125 83.72H9.43125L3.75125 98.76H2.23125ZM15.425 97.16C14.7317 97.16 14.1237 97.0213 13.601 96.744C13.089 96.4667 12.689 96.0773 12.401 95.576C12.1237 95.064 11.985 94.472 11.985 93.8V91.4C11.985 90.7173 12.1237 90.1253 12.401 89.624C12.689 89.1227 13.089 88.7333 13.601 88.456C14.1237 88.1787 14.7317 88.04 15.425 88.04C16.1183 88.04 16.721 88.1787 17.233 88.456C17.7557 88.7333 18.1557 89.1227 18.433 89.624C18.721 90.1253 18.865 90.7173 18.865 91.4V92.952H13.393V93.8C13.393 94.4933 13.569 95.0267 13.921 95.4C14.273 95.7627 14.7743 95.944 15.425 95.944C15.9797 95.944 16.4277 95.848 16.769 95.656C17.1103 95.4533 17.3183 95.1547 17.393 94.76H18.833C18.737 95.496 18.3743 96.0827 17.745 96.52C17.1263 96.9467 16.353 97.16 15.425 97.16ZM17.457 91.992V91.4C17.457 90.7067 17.281 90.1733 16.929 89.8C16.5877 89.4267 16.0863 89.24 15.425 89.24C14.7743 89.24 14.273 89.4267 13.921 89.8C13.569 90.1733 13.393 90.7067 13.393 91.4V91.864H17.569L17.457 91.992ZM25.0828 97.16C24.3788 97.16 23.7601 97.0267 23.2268 96.76C22.7041 96.4933 22.2988 96.1093 22.0108 95.608C21.7228 95.096 21.5788 94.4933 21.5788 93.8V91.4C21.5788 90.696 21.7228 90.0933 22.0108 89.592C22.2988 89.0907 22.7041 88.7067 23.2268 88.44C23.7601 88.1733 24.3788 88.04 25.0828 88.04C26.0961 88.04 26.9121 88.312 27.5308 88.856C28.1494 89.4 28.4748 90.1413 28.5068 91.08H27.0668C27.0348 90.5147 26.8428 90.0827 26.4908 89.784C26.1494 89.4747 25.6801 89.32 25.0828 89.32C24.4534 89.32 23.9521 89.5013 23.5788 89.864C23.2054 90.216 23.0188 90.7227 23.0188 91.384V93.8C23.0188 94.4613 23.2054 94.9733 23.5788 95.336C23.9521 95.6987 24.4534 95.88 25.0828 95.88C25.6801 95.88 26.1494 95.7253 26.4908 95.416C26.8428 95.1067 27.0348 94.6747 27.0668 94.12H28.5068C28.4748 95.0587 28.1494 95.8 27.5308 96.344C26.9121 96.888 26.0961 97.16 25.0828 97.16ZM34.6125 97.128C33.9085 97.128 33.3005 96.9947 32.7885 96.728C32.2765 96.4613 31.8765 96.0773 31.5885 95.576C31.3112 95.064 31.1725 94.4613 31.1725 93.768V91.432C31.1725 90.728 31.3112 90.1253 31.5885 89.624C31.8765 89.1227 32.2765 88.7387 32.7885 88.472C33.3005 88.2053 33.9085 88.072 34.6125 88.072C35.3165 88.072 35.9245 88.2053 36.4365 88.472C36.9485 88.7387 37.3432 89.1227 37.6205 89.624C37.9085 90.1253 38.0525 90.7227 38.0525 91.416V93.768C38.0525 94.4613 37.9085 95.064 37.6205 95.576C37.3432 96.0773 36.9485 96.4613 36.4365 96.728C35.9245 96.9947 35.3165 97.128 34.6125 97.128ZM34.6125 95.848C35.2418 95.848 35.7325 95.672 36.0845 95.32C36.4365 94.968 36.6125 94.4507 36.6125 93.768V91.432C36.6125 90.7493 36.4365 90.232 36.0845 89.88C35.7325 89.528 35.2418 89.352 34.6125 89.352C33.9938 89.352 33.5032 89.528 33.1405 89.88C32.7885 90.232 32.6125 90.7493 32.6125 91.432V93.768C32.6125 94.4507 32.7885 94.968 33.1405 95.32C33.5032 95.672 33.9938 95.848 34.6125 95.848ZM43.9343 97.128C43.3369 97.128 42.8143 97.0373 42.3663 96.856C41.9289 96.664 41.5769 96.3973 41.3103 96.056C41.0543 95.7147 40.8996 95.3093 40.8463 94.84H42.2863C42.3503 95.1493 42.5209 95.3947 42.7983 95.576C43.0863 95.7573 43.4649 95.848 43.9343 95.848H44.6063C45.1716 95.848 45.5929 95.736 45.8703 95.512C46.1476 95.2773 46.2863 94.968 46.2863 94.584C46.2863 94.2107 46.1583 93.9173 45.9023 93.704C45.6569 93.48 45.2889 93.3307 44.7983 93.256L43.6143 93.064C42.7503 92.9147 42.1049 92.648 41.6783 92.264C41.2623 91.8693 41.0543 91.2987 41.0543 90.552C41.0543 89.7627 41.3049 89.1547 41.8063 88.728C42.3076 88.2907 43.0596 88.072 44.0623 88.072H44.6703C45.5129 88.072 46.1903 88.2693 46.7023 88.664C47.2143 89.0587 47.5236 89.592 47.6302 90.264H46.1903C46.1263 89.9867 45.9663 89.768 45.7103 89.608C45.4543 89.4373 45.1076 89.352 44.6703 89.352H44.0623C43.5183 89.352 43.1183 89.4533 42.8623 89.656C42.6169 89.8587 42.4943 90.1627 42.4943 90.568C42.4943 90.9307 42.6009 91.1973 42.8143 91.368C43.0276 91.5387 43.3636 91.6613 43.8223 91.736L45.0063 91.928C45.9556 92.0773 46.6436 92.3547 47.0703 92.76C47.5076 93.1653 47.7263 93.752 47.7263 94.52C47.7263 95.3307 47.4649 95.9707 46.9423 96.44C46.4303 96.8987 45.6516 97.128 44.6063 97.128H43.9343ZM51.848 99.88L53.144 96.456L49.88 88.2H51.48L53.528 93.64C53.6027 93.8213 53.672 94.04 53.736 94.296C53.8 94.5413 53.8533 94.7493 53.896 94.92C53.9387 94.7493 53.992 94.5413 54.056 94.296C54.12 94.04 54.184 93.8213 54.248 93.64L56.168 88.2H57.72L53.384 99.88H51.848ZM63.1218 97.128C62.5244 97.128 62.0018 97.0373 61.5538 96.856C61.1164 96.664 60.7644 96.3973 60.4978 96.056C60.2418 95.7147 60.0871 95.3093 60.0338 94.84H61.4738C61.5378 95.1493 61.7084 95.3947 61.9858 95.576C62.2738 95.7573 62.6524 95.848 63.1218 95.848H63.7938C64.3591 95.848 64.7804 95.736 65.0578 95.512C65.3351 95.2773 65.4738 94.968 65.4738 94.584C65.4738 94.2107 65.3458 93.9173 65.0898 93.704C64.8444 93.48 64.4764 93.3307 63.9858 93.256L62.8018 93.064C61.9378 92.9147 61.2924 92.648 60.8658 92.264C60.4498 91.8693 60.2418 91.2987 60.2418 90.552C60.2418 89.7627 60.4924 89.1547 60.9938 88.728C61.4951 88.2907 62.2471 88.072 63.2498 88.072H63.8578C64.7004 88.072 65.3778 88.2693 65.8898 88.664C66.4018 89.0587 66.7111 89.592 66.8177 90.264H65.3778C65.3138 89.9867 65.1538 89.768 64.8978 89.608C64.6418 89.4373 64.2951 89.352 63.8578 89.352H63.2498C62.7058 89.352 62.3058 89.4533 62.0498 89.656C61.8044 89.8587 61.6818 90.1627 61.6818 90.568C61.6818 90.9307 61.7884 91.1973 62.0018 91.368C62.2151 91.5387 62.5511 91.6613 63.0098 91.736L64.1938 91.928C65.1431 92.0773 65.8311 92.3547 66.2578 92.76C66.6951 93.1653 66.9138 93.752 66.9138 94.52C66.9138 95.3307 66.6524 95.9707 66.1298 96.44C65.6178 96.8987 64.8391 97.128 63.7938 97.128H63.1218ZM73.9475 97C73.1902 97 72.5982 96.7973 72.1715 96.392C71.7555 95.9867 71.5475 95.416 71.5475 94.68V89.512H69.0675V88.2H71.5475V85.72H72.9875V88.2H76.5075V89.512H72.9875V94.68C72.9875 95.352 73.3075 95.688 73.9475 95.688H76.3475V97H73.9475ZM82.5813 97.16C81.8879 97.16 81.2799 97.0213 80.7573 96.744C80.2453 96.4667 79.8453 96.0773 79.5573 95.576C79.2799 95.064 79.1413 94.472 79.1413 93.8V91.4C79.1413 90.7173 79.2799 90.1253 79.5573 89.624C79.8453 89.1227 80.2453 88.7333 80.7573 88.456C81.2799 88.1787 81.8879 88.04 82.5813 88.04C83.2746 88.04 83.8773 88.1787 84.3893 88.456C84.9119 88.7333 85.3119 89.1227 85.5893 89.624C85.8773 90.1253 86.0213 90.7173 86.0213 91.4V92.952H80.5493V93.8C80.5493 94.4933 80.7253 95.0267 81.0773 95.4C81.4293 95.7627 81.9306 95.944 82.5813 95.944C83.1359 95.944 83.5839 95.848 83.9253 95.656C84.2666 95.4533 84.4746 95.1547 84.5493 94.76H85.9893C85.8933 95.496 85.5306 96.0827 84.9013 96.52C84.2826 96.9467 83.5093 97.16 82.5813 97.16ZM84.6133 91.992V91.4C84.6133 90.7067 84.4373 90.1733 84.0853 89.8C83.7439 89.4267 83.2426 89.24 82.5813 89.24C81.9306 89.24 81.4293 89.4267 81.0773 89.8C80.7253 90.1733 80.5493 90.7067 80.5493 91.4V91.864H84.7253L84.6133 91.992ZM88.431 97V88.2H89.695V89.256H89.983L89.759 89.64C89.759 89.1493 89.887 88.76 90.143 88.472C90.4097 88.184 90.767 88.04 91.215 88.04C91.7057 88.04 92.0843 88.2213 92.351 88.584C92.6177 88.9467 92.751 89.4587 92.751 90.12L92.319 89.256H92.991L92.687 89.64C92.687 89.1493 92.8203 88.76 93.087 88.472C93.3643 88.184 93.727 88.04 94.175 88.04C94.7297 88.04 95.1563 88.248 95.455 88.664C95.7643 89.08 95.919 89.6293 95.919 90.312V97H94.591V90.296C94.591 89.9333 94.511 89.6507 94.351 89.448C94.2017 89.2453 93.9777 89.144 93.679 89.144C93.391 89.144 93.1617 89.2453 92.991 89.448C92.831 89.64 92.751 89.9173 92.751 90.28V97H91.599V90.296C91.599 89.9227 91.5137 89.64 91.343 89.448C91.183 89.2453 90.9537 89.144 90.655 89.144C90.3563 89.144 90.1323 89.2453 89.983 89.448C89.8337 89.64 89.759 89.9173 89.759 90.28V97H88.431Z" fill="#CBD5E1"/>
<path d="M38.5 38.5V34.5H42.5V32.5H56.5V34.5H60.5V38.5H62.5V52.5H60.5V56.5H56.5V58.5H42.5V56.5H38.5V52.5H36.5V38.5H38.5Z" fill="white"/>
<path d="M42.5 30.5V32.5H46.5V34.5H48.5V32.5H50.5V34.5H52.5V32.5H56.5V30.5H42.5Z" fill="black"/>
<path d="M40.5 32.5H38.5V34.5H42.5V32.5H40.5Z" fill="black"/>
<path d="M36.5 38.5H38.5V34.5H36.5L36.5 36.5V38.5Z" fill="black"/>
<path d="M42.5 52.5H44.5V46.5H54.5V52.5H56.5V46.5H62.5V52.5H64.5V38.5H62.5V44.5H56.5V38.5H54.5V44.5H44.5V38.5H42.5V44.5H36.5V38.5H34.5V52.5H36.5L36.5 46.5H42.5V52.5Z" fill="black"/>
<path d="M44.5 38.5H46.5V34.5H44.5V38.5Z" fill="black"/>
<path d="M52.5 38.5H54.5V34.5H52.5V38.5Z" fill="black"/>
<path d="M60.5 34.5V32.5H56.5V34.5H60.5Z" fill="black"/>
<path d="M60.5 38.5H62.5V34.5H60.5V38.5Z" fill="black"/>
<path d="M62.5 52.5H60.5V56.5H62.5V52.5Z" fill="black"/>
<path d="M60.5 58.5V56.5H56.5V58.5H60.5Z" fill="black"/>
<path d="M54.5 52.5H52.5V56.5H54.5V52.5Z" fill="black"/>
<path d="M42.5 58.5V60.5H56.5V58.5H52.5V56.5H50.5V58.5H48.5V56.5H46.5V58.5H42.5Z" fill="black"/>
<path d="M46.5 52.5H44.5V56.5H46.5V52.5Z" fill="black"/>
<path d="M38.5 56.5V58.5H42.5V56.5H38.5Z" fill="black"/>
<path d="M38.5 52.5H36.5V56.5H38.5V52.5Z" fill="black"/>
</svg>
