<svg width="337" height="134" viewBox="0 0 337 134" fill="none" xmlns="http://www.w3.org/2000/svg">
<g opacity="0.1" filter="url(#filter0_d_1827_56)">
<line x1="32.668" y1="68.8677" x2="342.298" y2="68.8677" stroke="#fff" fill="#d7df23"/>
<line x1="32.668" y1="112.285" x2="342.298" y2="112.285" stroke="#fff" fill="#d7df23"/>
<line x1="13.0508" y1="26.46" x2="342.3" y2="26.46" stroke="#fff" fill="#d7df23"/>
<line y1="-0.5" x2="195.197" y2="-0.5" transform="matrix(0.713252 0.700907 -0.713252 0.700907 4.83984 0.959961)" stroke="#fff" fill="#d7df23"/>
<line y1="-0.5" x2="195.197" y2="-0.5" transform="matrix(0.713252 0.700907 -0.713252 0.700907 69.5742 0.959961)" stroke="#fff" fill="#d7df23"/>
<line y1="-0.5" x2="195.197" y2="-0.5" transform="matrix(0.713252 0.700907 -0.713252 0.700907 134.309 0.959961)" stroke="#fff" fill="#d7df23"/>
<line y1="-0.5" x2="195.197" y2="-0.5" transform="matrix(0.713252 0.700907 -0.713252 0.700907 199.043 0.959961)" stroke="#fff" fill="#d7df23"/>
<line y1="-0.5" x2="195.197" y2="-0.5" transform="matrix(0.713252 0.700907 -0.713252 0.700907 263.773 0.959961)" stroke="#fff" fill="#d7df23"/>
</g>
<defs>
<filter id="filter0_d_1827_56" x="0.839844" y="0.259033" width="406.871" height="145.516" filterUnits="userSpaceOnUse" color-interpolation-filters="sRGB">
<feFlood flood-opacity="0" result="BackgroundImageFix"/>
<feColorMatrix in="SourceAlpha" type="matrix" values="0 0 0 0 0 0 0 0 0 0 0 0 0 0 0 0 0 0 127 0" result="hardAlpha"/>
<feOffset dy="4"/>
<feGaussianBlur stdDeviation="2"/>
<feComposite in2="hardAlpha" operator="out"/>
<feColorMatrix type="matrix" values="0 0 0 0 0 0 0 0 0 0 0 0 0 0 0 0 0 0 0.25 0"/>
<feBlend mode="normal" in2="BackgroundImageFix" result="effect1_dropShadow_1827_56"/>
<feBlend mode="normal" in="SourceGraphic" in2="effect1_dropShadow_1827_56" result="shape"/>
</filter>
</defs>
</svg>
