<svg width="239" height="635" viewBox="0 0 239 635" fill="none" xmlns="http://www.w3.org/2000/svg">
<rect width="239" height="635" fill="#EFEFEF"/>
<g clip-path="url(#clip0_3_4)">
<rect width="1823" height="4036" transform="translate(0 -226)" fill="#181A20"/>
<rect y="-226" width="1823" height="1044" fill="black"/>
<g clip-path="url(#clip1_3_4)">
<g opacity="0.2">
<path d="M177.72 628.399C176.495 628.399 175.502 629.391 175.502 630.615C175.502 631.839 176.495 632.831 177.72 632.831C178.945 632.831 179.938 631.839 179.938 630.615C179.938 629.391 178.945 628.399 177.72 628.399Z" fill="#F7F7F7"/>
<path d="M171.067 609.087C169.668 609.087 168.533 610.221 168.533 611.619C168.533 613.018 169.668 614.152 171.067 614.152C172.467 614.152 173.602 613.018 173.602 611.619C173.602 610.221 172.467 609.087 171.067 609.087Z" fill="#F7F7F7"/>
<path d="M164.404 590.727C163.354 590.727 162.503 591.577 162.503 592.626C162.503 593.675 163.354 594.526 164.404 594.526C165.454 594.526 166.305 593.675 166.305 592.626C166.305 591.577 165.454 590.727 164.404 590.727Z" fill="#F7F7F7"/>
<path d="M158.711 627.766C157.137 627.766 155.86 629.042 155.86 630.615C155.86 632.189 157.137 633.464 158.711 633.464C160.286 633.464 161.562 632.189 161.562 630.615C161.562 629.042 160.286 627.766 158.711 627.766Z" fill="#F7F7F7"/>
<path d="M152.06 609.72C151.01 609.72 150.16 610.57 150.16 611.619C150.16 612.668 151.01 613.519 152.06 613.519C153.11 613.519 153.961 612.668 153.961 611.619C153.961 610.57 153.11 609.72 152.06 609.72Z" fill="#F7F7F7"/>
<path d="M145.4 591.044C144.526 591.044 143.817 591.752 143.817 592.627C143.817 593.501 144.526 594.209 145.4 594.209C146.275 594.209 146.984 593.501 146.984 592.627C146.984 591.752 146.275 591.044 145.4 591.044Z" fill="#F7F7F7"/>
<path d="M139.704 628.399C138.48 628.399 137.487 629.391 137.487 630.615C137.487 631.839 138.48 632.831 139.704 632.831C140.929 632.831 141.922 631.839 141.922 630.615C141.922 629.391 140.929 628.399 139.704 628.399Z" fill="#F7F7F7"/>
<path d="M133.048 609.403C131.823 609.403 130.831 610.396 130.831 611.619C130.831 612.843 131.823 613.835 133.048 613.835C134.273 613.835 135.266 612.843 135.266 611.619C135.266 610.396 134.273 609.403 133.048 609.403Z" fill="#F7F7F7"/>
<path d="M126.395 590.094C124.996 590.094 123.861 591.228 123.861 592.627C123.861 594.025 124.996 595.159 126.395 595.159C127.795 595.159 128.93 594.025 128.93 592.627C128.93 591.228 127.795 590.094 126.395 590.094Z" fill="#F7F7F7"/>
<path d="M120.696 627.766C119.121 627.766 117.845 629.042 117.845 630.615C117.845 632.189 119.121 633.464 120.696 633.464C122.27 633.464 123.547 632.189 123.547 630.615C123.547 629.042 122.27 627.766 120.696 627.766Z" fill="#F7F7F7"/>
<path d="M114.041 610.038C113.166 610.038 112.457 610.747 112.457 611.621C112.457 612.495 113.166 613.204 114.041 613.204C114.916 613.204 115.625 612.495 115.625 611.621C115.625 610.747 114.916 610.038 114.041 610.038Z" fill="#F7F7F7"/>
<path d="M107.388 590.094C105.988 590.094 104.853 591.228 104.853 592.627C104.853 594.025 105.988 595.159 107.388 595.159C108.787 595.159 109.922 594.025 109.922 592.627C109.922 591.228 108.787 590.094 107.388 590.094Z" fill="#F7F7F7"/>
<path d="M120.696 570.782C119.121 570.782 117.845 572.057 117.845 573.631C117.845 575.204 119.121 576.48 120.696 576.48C122.27 576.48 123.547 575.204 123.547 573.631C123.547 572.057 122.27 570.782 120.696 570.782Z" fill="#F7F7F7"/>
<path d="M114.045 552.737C112.995 552.737 112.144 553.588 112.144 554.637C112.144 555.686 112.995 556.536 114.045 556.536C115.094 556.536 115.945 555.686 115.945 554.637C115.945 553.588 115.094 552.737 114.045 552.737Z" fill="#F7F7F7"/>
<path d="M101.692 627.449C99.942 627.449 98.5237 628.867 98.5237 630.615C98.5237 632.363 99.942 633.781 101.692 633.781C103.441 633.781 104.859 632.363 104.859 630.615C104.859 628.867 103.441 627.449 101.692 627.449Z" fill="#F7F7F7"/>
<path d="M95.0325 609.403C93.8078 609.403 92.815 610.396 92.815 611.619C92.815 612.843 93.8078 613.835 95.0325 613.835C96.2572 613.835 97.25 612.843 97.25 611.619C97.25 610.396 96.2572 609.403 95.0325 609.403Z" fill="#F7F7F7"/>
<path d="M88.3755 589.776C86.8009 589.776 85.5244 591.052 85.5244 592.625C85.5244 594.199 86.8009 595.475 88.3755 595.475C89.9501 595.475 91.2266 594.199 91.2266 592.625C91.2266 591.052 89.9501 589.776 88.3755 589.776Z" fill="#F7F7F7"/>
<path d="M101.689 571.415C100.464 571.415 99.4712 572.407 99.4712 573.631C99.4712 574.855 100.464 575.847 101.689 575.847C102.913 575.847 103.906 574.855 103.906 573.631C103.906 572.407 102.913 571.415 101.689 571.415Z" fill="#F7F7F7"/>
<path d="M95.036 552.104C93.6364 552.104 92.5017 553.238 92.5017 554.637C92.5017 556.036 93.6364 557.169 95.036 557.169C96.4357 557.169 97.5703 556.036 97.5703 554.637C97.5703 553.238 96.4357 552.104 95.036 552.104Z" fill="#F7F7F7"/>
<path d="M82.6809 628.399C81.4562 628.399 80.4634 629.391 80.4634 630.615C80.4634 631.839 81.4562 632.831 82.6809 632.831C83.9056 632.831 84.8984 631.839 84.8984 630.615C84.8984 629.391 83.9056 628.399 82.6809 628.399Z" fill="#F7F7F7"/>
<path d="M76.0267 607.822C73.9272 607.822 72.2253 609.523 72.2253 611.621C72.2253 613.719 73.9272 615.42 76.0267 615.42C78.1262 615.42 79.8281 613.719 79.8281 611.621C79.8281 609.523 78.1262 607.822 76.0267 607.822Z" fill="#F7F7F7"/>
<path d="M69.3727 590.727C68.323 590.727 67.472 591.577 67.472 592.626C67.472 593.675 68.323 594.526 69.3727 594.526C70.4225 594.526 71.2734 593.675 71.2734 592.626C71.2734 591.577 70.4225 590.727 69.3727 590.727Z" fill="#F7F7F7"/>
<path d="M82.6817 572.048C81.8069 572.048 81.0978 572.757 81.0978 573.631C81.0978 574.505 81.8069 575.214 82.6817 575.214C83.5565 575.214 84.2656 574.505 84.2656 573.631C84.2656 572.757 83.5565 572.048 82.6817 572.048Z" fill="#F7F7F7"/>
<path d="M76.031 551.155C74.1065 551.155 72.5464 552.714 72.5464 554.637C72.5464 556.56 74.1065 558.119 76.031 558.119C77.9555 558.119 79.5156 556.56 79.5156 554.637C79.5156 552.714 77.9555 551.155 76.031 551.155Z" fill="#F7F7F7"/>
<path d="M63.6739 629.032C62.7991 629.032 62.09 629.741 62.09 630.615C62.09 631.489 62.7991 632.198 63.6739 632.198C64.5487 632.198 65.2578 631.489 65.2578 630.615C65.2578 629.741 64.5487 629.032 63.6739 629.032Z" fill="#F7F7F7"/>
<path d="M57.0247 609.403C55.8 609.403 54.8072 610.396 54.8072 611.619C54.8072 612.843 55.8 613.835 57.0247 613.835C58.2494 613.835 59.2422 612.843 59.2422 611.619C59.2422 610.396 58.2494 609.403 57.0247 609.403Z" fill="#F7F7F7"/>
<path d="M50.3614 591.044C49.4866 591.044 48.7775 591.752 48.7775 592.627C48.7775 593.501 49.4866 594.209 50.3614 594.209C51.2362 594.209 51.9453 593.501 51.9453 592.627C51.9453 591.752 51.2362 591.044 50.3614 591.044Z" fill="#F7F7F7"/>
<path d="M63.6774 571.731C62.6277 571.731 61.7767 572.582 61.7767 573.631C61.7767 574.68 62.6277 575.53 63.6774 575.53C64.7271 575.53 65.5781 574.68 65.5781 573.631C65.5781 572.582 64.7271 571.731 63.6774 571.731Z" fill="#F7F7F7"/>
<path d="M57.0239 551.788C55.4493 551.788 54.1729 553.063 54.1729 554.637C54.1729 556.21 55.4493 557.486 57.0239 557.486C58.5985 557.486 59.875 556.21 59.875 554.637C59.875 553.063 58.5985 551.788 57.0239 551.788Z" fill="#F7F7F7"/>
<path d="M-0.00124526 556.853C1.22345 556.853 2.21626 555.861 2.21626 554.637C2.21626 553.413 1.22345 552.421 -0.00124526 552.421C-1.22594 552.421 -2.21875 553.413 -2.21875 554.637C-2.21875 555.861 -1.22594 556.853 -0.00124526 556.853Z" fill="#F7F7F7"/>
<path d="M6.66004 576.797C8.4096 576.797 9.82789 575.379 9.82789 573.631C9.82789 571.883 8.4096 570.465 6.66004 570.465C4.91048 570.465 3.49219 571.883 3.49219 573.631C3.49219 575.379 4.91048 576.797 6.66004 576.797Z" fill="#F7F7F7"/>
<path d="M-0.000492811 614.47C1.57411 614.47 2.85058 613.194 2.85058 611.621C2.85058 610.047 1.57411 608.771 -0.000492811 608.771C-1.5751 608.771 -2.85156 610.047 -2.85156 611.621C-2.85156 613.194 -1.5751 614.47 -0.000492811 614.47Z" fill="#F7F7F7"/>
<path d="M6.65501 632.831C7.8797 632.831 8.87251 631.839 8.87251 630.615C8.87251 629.391 7.8797 628.399 6.65501 628.399C5.43031 628.399 4.4375 629.391 4.4375 630.615C4.4375 631.839 5.43031 632.831 6.65501 632.831Z" fill="#F7F7F7"/>
<path d="M12.3503 537.858C13.575 537.858 14.5678 536.866 14.5678 535.642C14.5678 534.418 13.575 533.426 12.3503 533.426C11.1256 533.426 10.1328 534.418 10.1328 535.642C10.1328 536.866 11.1256 537.858 12.3503 537.858Z" fill="#F7F7F7"/>
<path d="M19.0038 557.803C20.7533 557.803 22.1716 556.385 22.1716 554.637C22.1716 552.889 20.7533 551.471 19.0038 551.471C17.2542 551.471 15.8359 552.889 15.8359 554.637C15.8359 556.385 17.2542 557.803 19.0038 557.803Z" fill="#F7F7F7"/>
<path d="M25.6628 575.849C26.8875 575.849 27.8803 574.856 27.8803 573.633C27.8803 572.409 26.8875 571.417 25.6628 571.417C24.4381 571.417 23.4453 572.409 23.4453 573.633C23.4453 574.856 24.4381 575.849 25.6628 575.849Z" fill="#F7F7F7"/>
<path d="M12.3483 596.424C14.4478 596.424 16.1497 594.723 16.1497 592.625C16.1497 590.527 14.4478 588.826 12.3483 588.826C10.2488 588.826 8.54688 590.527 8.54688 592.625C8.54688 594.723 10.2488 596.424 12.3483 596.424Z" fill="#F7F7F7"/>
<path d="M19.0101 613.52C20.0598 613.52 20.9108 612.67 20.9108 611.621C20.9108 610.572 20.0598 609.721 19.0101 609.721C17.9604 609.721 17.1094 610.572 17.1094 611.621C17.1094 612.67 17.9604 613.52 19.0101 613.52Z" fill="#F7F7F7"/>
<path d="M25.6621 632.198C26.5368 632.198 27.246 631.489 27.246 630.615C27.246 629.741 26.5368 629.032 25.6621 629.032C24.7873 629.032 24.0781 629.741 24.0781 630.615C24.0781 631.489 24.7873 632.198 25.6621 632.198Z" fill="#F7F7F7"/>
<path d="M31.3538 537.542C32.4036 537.542 33.2545 536.692 33.2545 535.643C33.2545 534.594 32.4036 533.743 31.3538 533.743C30.3041 533.743 29.4531 534.594 29.4531 535.643C29.4531 536.692 30.3041 537.542 31.3538 537.542Z" fill="#F7F7F7"/>
<path d="M38.0109 557.169C39.4105 557.169 40.5451 556.035 40.5451 554.637C40.5451 553.238 39.4105 552.104 38.0109 552.104C36.6112 552.104 35.4766 553.238 35.4766 554.637C35.4766 556.035 36.6112 557.169 38.0109 557.169Z" fill="#F7F7F7"/>
<path d="M44.6699 575.214C45.5446 575.214 46.2538 574.505 46.2538 573.631C46.2538 572.757 45.5446 572.048 44.6699 572.048C43.7951 572.048 43.0859 572.757 43.0859 573.631C43.0859 574.505 43.7951 575.214 44.6699 575.214Z" fill="#F7F7F7"/>
<path d="M31.3581 594.841C32.5828 594.841 33.5756 593.849 33.5756 592.625C33.5756 591.401 32.5828 590.409 31.3581 590.409C30.1334 590.409 29.1406 591.401 29.1406 592.625C29.1406 593.849 30.1334 594.841 31.3581 594.841Z" fill="#F7F7F7"/>
<path d="M38.0136 613.202C38.8884 613.202 39.5975 612.494 39.5975 611.62C39.5975 610.745 38.8884 610.037 38.0136 610.037C37.1388 610.037 36.4297 610.745 36.4297 611.62C36.4297 612.494 37.1388 613.202 38.0136 613.202Z" fill="#F7F7F7"/>
<path d="M44.6663 632.513C45.7161 632.513 46.567 631.663 46.567 630.614C46.567 629.565 45.7161 628.714 44.6663 628.714C43.6166 628.714 42.7656 629.565 42.7656 630.614C42.7656 631.663 43.6166 632.513 44.6663 632.513Z" fill="#F7F7F7"/>
<path d="M-0.000492811 44.6373C1.57411 44.6373 2.85058 43.3617 2.85058 41.7881C2.85058 40.2146 1.57411 38.939 -0.000492811 38.939C-1.5751 38.939 -2.85156 40.2146 -2.85156 41.7881C-2.85156 43.3617 -1.5751 44.6373 -0.000492811 44.6373Z" fill="#F7F7F7"/>
<path d="M6.65501 62.9985C7.8797 62.9985 8.87251 62.0063 8.87251 60.7824C8.87251 59.5586 7.8797 58.5664 6.65501 58.5664C5.43031 58.5664 4.4375 59.5586 4.4375 60.7824C4.4375 62.0063 5.43031 62.9985 6.65501 62.9985Z" fill="#F7F7F7"/>
<path d="M0.00303745 101.304C1.40269 101.304 2.53732 100.17 2.53732 98.7714C2.53732 97.3727 1.40269 96.2388 0.00303745 96.2388C-1.39661 96.2388 -2.53125 97.3727 -2.53125 98.7714C-2.53125 100.17 -1.39661 101.304 0.00303745 101.304Z" fill="#F7F7F7"/>
<path d="M6.65852 119.666C7.70825 119.666 8.55923 118.815 8.55923 117.766C8.55923 116.717 7.70825 115.867 6.65852 115.867C5.60879 115.867 4.75781 116.717 4.75781 117.766C4.75781 118.815 5.60879 119.666 6.65852 119.666Z" fill="#F7F7F7"/>
<path d="M19.0101 43.6871C20.0598 43.6871 20.9108 42.8366 20.9108 41.7876C20.9108 40.7386 20.0598 39.8882 19.0101 39.8882C17.9604 39.8882 17.1094 40.7386 17.1094 41.7876C17.1094 42.8366 17.9604 43.6871 19.0101 43.6871Z" fill="#F7F7F7"/>
<path d="M25.6621 62.3654C26.5368 62.3654 27.246 61.6568 27.246 60.7826C27.246 59.9084 26.5368 59.1997 25.6621 59.1997C24.7873 59.1997 24.0781 59.9084 24.0781 60.7826C24.0781 61.6568 24.7873 62.3654 25.6621 62.3654Z" fill="#F7F7F7"/>
<path d="M12.3518 83.2595C14.2763 83.2595 15.8365 81.7004 15.8365 79.7772C15.8365 77.854 14.2763 76.2949 12.3518 76.2949C10.4273 76.2949 8.86719 77.854 8.86719 79.7772C8.86719 81.7004 10.4273 83.2595 12.3518 83.2595Z" fill="#F7F7F7"/>
<path d="M19.0073 101.62C20.5819 101.62 21.8584 100.345 21.8584 98.771C21.8584 97.1975 20.5819 95.9219 19.0073 95.9219C17.4327 95.9219 16.1562 97.1975 16.1562 98.771C16.1562 100.345 17.4327 101.62 19.0073 101.62Z" fill="#F7F7F7"/>
<path d="M25.6636 120.614C27.2382 120.614 28.5146 119.339 28.5146 117.765C28.5146 116.192 27.2382 114.916 25.6636 114.916C24.089 114.916 22.8125 116.192 22.8125 117.765C22.8125 119.339 24.089 120.614 25.6636 120.614Z" fill="#F7F7F7"/>
<path d="M38.0136 43.3708C38.8884 43.3708 39.5975 42.6621 39.5975 41.7879C39.5975 40.9138 38.8884 40.2051 38.0136 40.2051C37.1388 40.2051 36.4297 40.9138 36.4297 41.7879C36.4297 42.6621 37.1388 43.3708 38.0136 43.3708Z" fill="#F7F7F7"/>
<path d="M44.6663 62.6812C45.7161 62.6812 46.567 61.8308 46.567 60.7818C46.567 59.7327 45.7161 58.8823 44.6663 58.8823C43.6166 58.8823 42.7656 59.7327 42.7656 60.7818C42.7656 61.8308 43.6166 62.6812 44.6663 62.6812Z" fill="#F7F7F7"/>
<path d="M31.3589 82.6265C32.9335 82.6265 34.2099 81.3509 34.2099 79.7774C34.2099 78.2038 32.9335 76.9282 31.3589 76.9282C29.7843 76.9282 28.5078 78.2038 28.5078 79.7774C28.5078 81.3509 29.7843 82.6265 31.3589 82.6265Z" fill="#F7F7F7"/>
<path d="M38.0144 100.987C39.2391 100.987 40.2319 99.9951 40.2319 98.7712C40.2319 97.5473 39.2391 96.5552 38.0144 96.5552C36.7897 96.5552 35.7969 97.5473 35.7969 98.7712C35.7969 99.9951 36.7897 100.987 38.0144 100.987Z" fill="#F7F7F7"/>
<path d="M44.6686 121.565C46.7681 121.565 48.47 119.864 48.47 117.766C48.47 115.668 46.7681 113.967 44.6686 113.967C42.5691 113.967 40.8672 115.668 40.8672 117.766C40.8672 119.864 42.5691 121.565 44.6686 121.565Z" fill="#F7F7F7"/>
<path d="M221.427 77.2444C220.027 77.2444 218.892 78.3783 218.892 79.777C218.892 81.1757 220.027 82.3096 221.427 82.3096C222.826 82.3096 223.961 81.1757 223.961 79.777C223.961 78.3783 222.826 77.2444 221.427 77.2444Z" fill="#F7F7F7"/>
<path d="M234.743 57.9325C233.168 57.9325 231.892 59.2082 231.892 60.7817C231.892 62.3552 233.168 63.6309 234.743 63.6309C236.317 63.6309 237.594 62.3552 237.594 60.7817C237.594 59.2082 236.317 57.9325 234.743 57.9325Z" fill="#F7F7F7"/>
<path d="M209.08 97.1883C208.205 97.1883 207.496 97.8969 207.496 98.7711C207.496 99.6453 208.205 100.354 209.08 100.354C209.955 100.354 210.664 99.6453 210.664 98.7711C210.664 97.8969 209.955 97.1883 209.08 97.1883Z" fill="#F7F7F7"/>
<path d="M202.419 77.2444C201.019 77.2444 199.885 78.3783 199.885 79.777C199.885 81.1757 201.019 82.3096 202.419 82.3096C203.818 82.3096 204.953 81.1757 204.953 79.777C204.953 78.3783 203.818 77.2444 202.419 77.2444Z" fill="#F7F7F7"/>
<path d="M215.736 59.2C214.862 59.2 214.152 59.9087 214.152 60.7829C214.152 61.6571 214.862 62.3657 215.736 62.3657C216.611 62.3657 217.32 61.6571 217.32 60.7829C217.32 59.9087 216.611 59.2 215.736 59.2Z" fill="#F7F7F7"/>
<path d="M190.071 95.9223C188.496 95.9223 187.22 97.1979 187.22 98.7714C187.22 100.345 188.496 101.621 190.071 101.621C191.645 101.621 192.922 100.345 192.922 98.7714C192.922 97.1979 191.645 95.9223 190.071 95.9223Z" fill="#F7F7F7"/>
<path d="M183.416 78.1932C182.541 78.1932 181.832 78.9018 181.832 79.776C181.832 80.6502 182.541 81.3589 183.416 81.3589C184.291 81.3589 185 80.6502 185 79.776C185 78.9018 184.291 78.1932 183.416 78.1932Z" fill="#F7F7F7"/>
<path d="M196.728 58.566C195.503 58.566 194.51 59.5581 194.51 60.782C194.51 62.0059 195.503 62.998 196.728 62.998C197.952 62.998 198.945 62.0059 198.945 60.782C198.945 59.5581 197.952 58.566 196.728 58.566Z" fill="#F7F7F7"/>
<path d="M177.72 115.55C176.495 115.55 175.502 116.542 175.502 117.766C175.502 118.99 176.495 119.982 177.72 119.982C178.945 119.982 179.938 118.99 179.938 117.766C179.938 116.542 178.945 115.55 177.72 115.55Z" fill="#F7F7F7"/>
<path d="M171.064 96.5553C169.839 96.5553 168.846 97.5474 168.846 98.7713C168.846 99.9951 169.839 100.987 171.064 100.987C172.288 100.987 173.281 99.9951 173.281 98.7713C173.281 97.5474 172.288 96.5553 171.064 96.5553Z" fill="#F7F7F7"/>
<path d="M164.41 75.9779C162.31 75.9779 160.608 77.6787 160.608 79.7768C160.608 81.8749 162.31 83.5757 164.41 83.5757C166.509 83.5757 168.211 81.8749 168.211 79.7768C168.211 77.6787 166.509 75.9779 164.41 75.9779Z" fill="#F7F7F7"/>
<path d="M177.72 58.566C176.495 58.566 175.502 59.5581 175.502 60.782C175.502 62.0059 176.495 62.998 177.72 62.998C178.945 62.998 179.938 62.0059 179.938 60.782C179.938 59.5581 178.945 58.566 177.72 58.566Z" fill="#F7F7F7"/>
<path d="M158.713 116.183C157.838 116.183 157.129 116.892 157.129 117.766C157.129 118.64 157.838 119.349 158.713 119.349C159.588 119.349 160.297 118.64 160.297 117.766C160.297 116.892 159.588 116.183 158.713 116.183Z" fill="#F7F7F7"/>
<path d="M152.055 95.9223C150.481 95.9223 149.204 97.1979 149.204 98.7714C149.204 100.345 150.481 101.621 152.055 101.621C153.63 101.621 154.906 100.345 154.906 98.7714C154.906 97.1979 153.63 95.9223 152.055 95.9223Z" fill="#F7F7F7"/>
<path d="M145.403 77.2444C144.004 77.2444 142.869 78.3783 142.869 79.777C142.869 81.1757 144.004 82.3096 145.403 82.3096C146.803 82.3096 147.938 81.1757 147.938 79.777C147.938 78.3783 146.803 77.2444 145.403 77.2444Z" fill="#F7F7F7"/>
<path d="M158.711 57.9325C157.137 57.9325 155.86 59.2082 155.86 60.7817C155.86 62.3552 157.137 63.6309 158.711 63.6309C160.286 63.6309 161.562 62.3552 161.562 60.7817C161.562 59.2082 160.286 57.9325 158.711 57.9325Z" fill="#F7F7F7"/>
<path d="M139.704 115.55C138.48 115.55 137.487 116.542 137.487 117.766C137.487 118.99 138.48 119.982 139.704 119.982C140.929 119.982 141.922 118.99 141.922 117.766C141.922 116.542 140.929 115.55 139.704 115.55Z" fill="#F7F7F7"/>
<path d="M133.047 95.9223C131.473 95.9223 130.196 97.1979 130.196 98.7714C130.196 100.345 131.473 101.621 133.047 101.621C134.622 101.621 135.898 100.345 135.898 98.7714C135.898 97.1979 134.622 95.9223 133.047 95.9223Z" fill="#F7F7F7"/>
<path d="M126.395 76.6114C124.645 76.6114 123.227 78.0288 123.227 79.7771C123.227 81.5255 124.645 82.9429 126.395 82.9429C128.144 82.9429 129.562 81.5255 129.562 79.7771C129.562 78.0288 128.144 76.6114 126.395 76.6114Z" fill="#F7F7F7"/>
<path d="M139.704 58.566C138.48 58.566 137.487 59.5581 137.487 60.782C137.487 62.0059 138.48 62.998 139.704 62.998C140.929 62.998 141.922 62.0059 141.922 60.782C141.922 59.5581 140.929 58.566 139.704 58.566Z" fill="#F7F7F7"/>
<path d="M120.697 115.55C119.472 115.55 118.479 116.542 118.479 117.766C118.479 118.99 119.472 119.982 120.697 119.982C121.921 119.982 122.914 118.99 122.914 117.766C122.914 116.542 121.921 115.55 120.697 115.55Z" fill="#F7F7F7"/>
<path d="M114.045 96.872C112.995 96.872 112.144 97.7224 112.144 98.7715C112.144 99.8205 112.995 100.671 114.045 100.671C115.094 100.671 115.945 99.8205 115.945 98.7715C115.945 97.7224 115.094 96.872 114.045 96.872Z" fill="#F7F7F7"/>
<path d="M107.388 77.8774C106.339 77.8774 105.488 78.7278 105.488 79.7768C105.488 80.8259 106.339 81.6763 107.388 81.6763C108.438 81.6763 109.289 80.8259 109.289 79.7768C109.289 78.7278 108.438 77.8774 107.388 77.8774Z" fill="#F7F7F7"/>
<path d="M120.696 57.9325C119.121 57.9325 117.845 59.2082 117.845 60.7817C117.845 62.3552 119.121 63.6309 120.696 63.6309C122.27 63.6309 123.547 62.3552 123.547 60.7817C123.547 59.2082 122.27 57.9325 120.696 57.9325Z" fill="#F7F7F7"/>
<path d="M101.691 113.967C99.5913 113.967 97.8893 115.667 97.8893 117.766C97.8893 119.864 99.5913 121.564 101.691 121.564C103.79 121.564 105.492 119.864 105.492 117.766C105.492 115.667 103.79 113.967 101.691 113.967Z" fill="#F7F7F7"/>
<path d="M95.0325 96.5553C93.8078 96.5553 92.815 97.5474 92.815 98.7713C92.815 99.9951 93.8078 100.987 95.0325 100.987C96.2572 100.987 97.25 99.9951 97.25 98.7713C97.25 97.5474 96.2572 96.5553 95.0325 96.5553Z" fill="#F7F7F7"/>
<path d="M88.3762 77.5601C87.1516 77.5601 86.1587 78.5523 86.1587 79.7762C86.1587 81 87.1516 81.9922 88.3762 81.9922C89.6009 81.9922 90.5938 81 90.5938 79.7762C90.5938 78.5523 89.6009 77.5601 88.3762 77.5601Z" fill="#F7F7F7"/>
<path d="M101.692 57.6168C99.942 57.6168 98.5237 59.0341 98.5237 60.7825C98.5237 62.5309 99.942 63.9482 101.692 63.9482C103.441 63.9482 104.859 62.5309 104.859 60.7825C104.859 59.0341 103.441 57.6168 101.692 57.6168Z" fill="#F7F7F7"/>
<path d="M95.0325 39.5719C93.8078 39.5719 92.815 40.564 92.815 41.7879C92.815 43.0118 93.8078 44.0039 95.0325 44.0039C96.2572 44.0039 97.25 43.0118 97.25 41.7879C97.25 40.564 96.2572 39.5719 95.0325 39.5719Z" fill="#F7F7F7"/>
<path d="M82.688 114.917C81.1134 114.917 79.8369 116.193 79.8369 117.766C79.8369 119.34 81.1134 120.615 82.688 120.615C84.2626 120.615 85.5391 119.34 85.5391 117.766C85.5391 116.193 84.2626 114.917 82.688 114.917Z" fill="#F7F7F7"/>
<path d="M76.0247 96.5553C74.8 96.5553 73.8072 97.5474 73.8072 98.7713C73.8072 99.9951 74.8 100.987 76.0247 100.987C77.2494 100.987 78.2422 99.9951 78.2422 98.7713C78.2422 97.5474 77.2494 96.5553 76.0247 96.5553Z" fill="#F7F7F7"/>
<path d="M69.3712 76.6114C67.6217 76.6114 66.2034 78.0288 66.2034 79.7771C66.2034 81.5255 67.6217 82.9429 69.3712 82.9429C71.1208 82.9429 72.5391 81.5255 72.5391 79.7771C72.5391 78.0288 71.1208 76.6114 69.3712 76.6114Z" fill="#F7F7F7"/>
<path d="M82.6809 58.566C81.4562 58.566 80.4634 59.5581 80.4634 60.782C80.4634 62.0059 81.4562 62.998 82.6809 62.998C83.9056 62.998 84.8984 62.0059 84.8984 60.782C84.8984 59.5581 83.9056 58.566 82.6809 58.566Z" fill="#F7F7F7"/>
<path d="M76.0267 37.9891C73.9272 37.9891 72.2253 39.69 72.2253 41.788C72.2253 43.8861 73.9272 45.5869 76.0267 45.5869C78.1262 45.5869 79.8281 43.8861 79.8281 41.788C79.8281 39.69 78.1262 37.9891 76.0267 37.9891Z" fill="#F7F7F7"/>
<path d="M63.6739 116.183C62.7991 116.183 62.09 116.892 62.09 117.766C62.09 118.64 62.7991 119.349 63.6739 119.349C64.5487 119.349 65.2578 118.64 65.2578 117.766C65.2578 116.892 64.5487 116.183 63.6739 116.183Z" fill="#F7F7F7"/>
<path d="M57.0212 96.872C55.9714 96.872 55.1205 97.7224 55.1205 98.7715C55.1205 99.8205 55.9714 100.671 57.0212 100.671C58.0709 100.671 58.9219 99.8205 58.9219 98.7715C58.9219 97.7224 58.0709 96.872 57.0212 96.872Z" fill="#F7F7F7"/>
<path d="M50.3642 77.2444C48.9645 77.2444 47.8299 78.3783 47.8299 79.777C47.8299 81.1757 48.9645 82.3096 50.3642 82.3096C51.7638 82.3096 52.8984 81.1757 52.8984 79.777C52.8984 78.3783 51.7638 77.2444 50.3642 77.2444Z" fill="#F7F7F7"/>
<path d="M63.6739 59.2C62.7991 59.2 62.09 59.9087 62.09 60.7829C62.09 61.6571 62.7991 62.3657 63.6739 62.3657C64.5487 62.3657 65.2578 61.6571 65.2578 60.7829C65.2578 59.9087 64.5487 59.2 63.6739 59.2Z" fill="#F7F7F7"/>
<path d="M57.0247 39.5719C55.8 39.5719 54.8072 40.564 54.8072 41.7879C54.8072 43.0118 55.8 44.0039 57.0247 44.0039C58.2494 44.0039 59.2422 43.0118 59.2422 41.7879C59.2422 40.564 58.2494 39.5719 57.0247 39.5719Z" fill="#F7F7F7"/>
<path d="M221.43 247.879C219.856 247.879 218.579 249.154 218.579 250.728C218.579 252.302 219.856 253.577 221.43 253.577C223.005 253.577 224.281 252.302 224.281 250.728C224.281 249.154 223.005 247.879 221.43 247.879Z" fill="#F7F7F7"/>
<path d="M234.738 228.566C232.989 228.566 231.571 229.984 231.571 231.732C231.571 233.481 232.989 234.898 234.738 234.898C236.488 234.898 237.906 233.481 237.906 231.732C237.906 229.984 236.488 228.566 234.738 228.566Z" fill="#F7F7F7"/>
<path d="M202.424 249.143C201.549 249.143 200.84 249.852 200.84 250.726C200.84 251.6 201.549 252.309 202.424 252.309C203.299 252.309 204.008 251.6 204.008 250.726C204.008 249.852 203.299 249.143 202.424 249.143Z" fill="#F7F7F7"/>
<path d="M215.732 229.832C214.682 229.832 213.831 230.683 213.831 231.732C213.831 232.781 214.682 233.631 215.732 233.631C216.782 233.631 217.633 232.781 217.633 231.732C217.633 230.683 216.782 229.832 215.732 229.832Z" fill="#F7F7F7"/>
<path d="M202.419 191.211C201.019 191.211 199.885 192.345 199.885 193.744C199.885 195.142 201.019 196.276 202.419 196.276C203.818 196.276 204.953 195.142 204.953 193.744C204.953 192.345 203.818 191.211 202.419 191.211Z" fill="#F7F7F7"/>
<path d="M183.415 248.51C182.191 248.51 181.198 249.502 181.198 250.726C181.198 251.95 182.191 252.942 183.415 252.942C184.64 252.942 185.633 251.95 185.633 250.726C185.633 249.502 184.64 248.51 183.415 248.51Z" fill="#F7F7F7"/>
<path d="M196.731 228.566C194.981 228.566 193.563 229.984 193.563 231.732C193.563 233.481 194.981 234.898 196.731 234.898C198.48 234.898 199.898 233.481 199.898 231.732C199.898 229.984 198.48 228.566 196.731 228.566Z" fill="#F7F7F7"/>
<path d="M190.072 210.522C188.847 210.522 187.854 211.514 187.854 212.738C187.854 213.962 188.847 214.954 190.072 214.954C191.296 214.954 192.289 213.962 192.289 212.738C192.289 211.514 191.296 210.522 190.072 210.522Z" fill="#F7F7F7"/>
<path d="M183.41 189.945C181.31 189.945 179.608 191.646 179.608 193.744C179.608 195.842 181.31 197.542 183.41 197.542C185.509 197.542 187.211 195.842 187.211 193.744C187.211 191.646 185.509 189.945 183.41 189.945Z" fill="#F7F7F7"/>
<path d="M196.724 172.217C195.324 172.217 194.189 173.351 194.189 174.75C194.189 176.148 195.324 177.282 196.724 177.282C198.123 177.282 199.258 176.148 199.258 174.75C199.258 173.351 198.123 172.217 196.724 172.217Z" fill="#F7F7F7"/>
<path d="M164.407 248.51C163.183 248.51 162.19 249.502 162.19 250.726C162.19 251.95 163.183 252.942 164.407 252.942C165.632 252.942 166.625 251.95 166.625 250.726C166.625 249.502 165.632 248.51 164.407 248.51Z" fill="#F7F7F7"/>
<path d="M177.724 229.199C176.324 229.199 175.189 230.333 175.189 231.732C175.189 233.131 176.324 234.265 177.724 234.265C179.123 234.265 180.258 233.131 180.258 231.732C180.258 230.333 179.123 229.199 177.724 229.199Z" fill="#F7F7F7"/>
<path d="M171.06 210.838C170.01 210.838 169.16 211.689 169.16 212.738C169.16 213.787 170.01 214.637 171.06 214.637C172.11 214.637 172.961 213.787 172.961 212.738C172.961 211.689 172.11 210.838 171.06 210.838Z" fill="#F7F7F7"/>
<path d="M164.407 190.894C162.832 190.894 161.556 192.17 161.556 193.744C161.556 195.317 162.832 196.593 164.407 196.593C165.981 196.593 167.258 195.317 167.258 193.744C167.258 192.17 165.981 190.894 164.407 190.894Z" fill="#F7F7F7"/>
<path d="M177.724 172.217C176.324 172.217 175.189 173.351 175.189 174.75C175.189 176.148 176.324 177.282 177.724 177.282C179.123 177.282 180.258 176.148 180.258 174.75C180.258 173.351 179.123 172.217 177.724 172.217Z" fill="#F7F7F7"/>
<path d="M164.403 134.227C163.004 134.227 161.869 135.361 161.869 136.76C161.869 138.159 163.004 139.292 164.403 139.292C165.803 139.292 166.938 138.159 166.938 136.76C166.938 135.361 165.803 134.227 164.403 134.227Z" fill="#F7F7F7"/>
<path d="M145.399 247.879C143.824 247.879 142.548 249.154 142.548 250.728C142.548 252.302 143.824 253.577 145.399 253.577C146.974 253.577 148.25 252.302 148.25 250.728C148.25 249.154 146.974 247.879 145.399 247.879Z" fill="#F7F7F7"/>
<path d="M158.716 229.832C157.667 229.832 156.816 230.683 156.816 231.732C156.816 232.781 157.667 233.631 158.716 233.631C159.766 233.631 160.617 232.781 160.617 231.732C160.617 230.683 159.766 229.832 158.716 229.832Z" fill="#F7F7F7"/>
<path d="M152.057 211.155C151.182 211.155 150.473 211.864 150.473 212.738C150.473 213.612 151.182 214.321 152.057 214.321C152.931 214.321 153.641 213.612 153.641 212.738C153.641 211.864 152.931 211.155 152.057 211.155Z" fill="#F7F7F7"/>
<path d="M145.4 191.526C144.175 191.526 143.182 192.518 143.182 193.742C143.182 194.966 144.175 195.958 145.4 195.958C146.624 195.958 147.617 194.966 147.617 193.742C147.617 192.518 146.624 191.526 145.4 191.526Z" fill="#F7F7F7"/>
<path d="M158.716 172.85C157.667 172.85 156.816 173.7 156.816 174.749C156.816 175.799 157.667 176.649 158.716 176.649C159.766 176.649 160.617 175.799 160.617 174.749C160.617 173.7 159.766 172.85 158.716 172.85Z" fill="#F7F7F7"/>
<path d="M152.055 152.905C150.481 152.905 149.204 154.18 149.204 155.754C149.204 157.327 150.481 158.603 152.055 158.603C153.63 158.603 154.906 157.327 154.906 155.754C154.906 154.18 153.63 152.905 152.055 152.905Z" fill="#F7F7F7"/>
<path d="M145.398 133.278C143.474 133.278 141.914 134.837 141.914 136.76C141.914 138.684 143.474 140.243 145.398 140.243C147.323 140.243 148.883 138.684 148.883 136.76C148.883 134.837 147.323 133.278 145.398 133.278Z" fill="#F7F7F7"/>
<path d="M126.392 248.51C125.167 248.51 124.174 249.502 124.174 250.726C124.174 251.95 125.167 252.942 126.392 252.942C127.617 252.942 128.609 251.95 128.609 250.726C128.609 249.502 127.617 248.51 126.392 248.51Z" fill="#F7F7F7"/>
<path d="M139.704 229.516C138.48 229.516 137.487 230.508 137.487 231.732C137.487 232.956 138.48 233.948 139.704 233.948C140.929 233.948 141.922 232.956 141.922 231.732C141.922 230.508 140.929 229.516 139.704 229.516Z" fill="#F7F7F7"/>
<path d="M133.052 210.205C131.652 210.205 130.517 211.339 130.517 212.738C130.517 214.137 131.652 215.271 133.052 215.271C134.451 215.271 135.586 214.137 135.586 212.738C135.586 211.339 134.451 210.205 133.052 210.205Z" fill="#F7F7F7"/>
<path d="M126.395 191.211C124.996 191.211 123.861 192.345 123.861 193.744C123.861 195.142 124.996 196.276 126.395 196.276C127.795 196.276 128.93 195.142 128.93 193.744C128.93 192.345 127.795 191.211 126.395 191.211Z" fill="#F7F7F7"/>
<path d="M139.708 172.217C138.308 172.217 137.174 173.351 137.174 174.75C137.174 176.148 138.308 177.282 139.708 177.282C141.108 177.282 142.242 176.148 142.242 174.75C142.242 173.351 141.108 172.217 139.708 172.217Z" fill="#F7F7F7"/>
<path d="M133.052 153.856C132.003 153.856 131.152 154.706 131.152 155.755C131.152 156.804 132.003 157.655 133.052 157.655C134.102 157.655 134.953 156.804 134.953 155.755C134.953 154.706 134.102 153.856 133.052 153.856Z" fill="#F7F7F7"/>
<path d="M126.396 134.86C125.346 134.86 124.495 135.711 124.495 136.76C124.495 137.809 125.346 138.659 126.396 138.659C127.446 138.659 128.297 137.809 128.297 136.76C128.297 135.711 127.446 134.86 126.396 134.86Z" fill="#F7F7F7"/>
<path d="M114.045 267.821C112.995 267.821 112.144 268.672 112.144 269.721C112.144 270.77 112.995 271.62 114.045 271.62C115.094 271.62 115.945 270.77 115.945 269.721C115.945 268.672 115.094 267.821 114.045 267.821Z" fill="#F7F7F7"/>
<path d="M107.383 247.879C105.809 247.879 104.532 249.154 104.532 250.728C104.532 252.302 105.809 253.577 107.383 253.577C108.958 253.577 110.234 252.302 110.234 250.728C110.234 249.154 108.958 247.879 107.383 247.879Z" fill="#F7F7F7"/>
<path d="M120.697 230.149C119.823 230.149 119.113 230.858 119.113 231.732C119.113 232.606 119.823 233.315 120.697 233.315C121.572 233.315 122.281 232.606 122.281 231.732C122.281 230.858 121.572 230.149 120.697 230.149Z" fill="#F7F7F7"/>
<path d="M114.044 210.205C112.644 210.205 111.51 211.339 111.51 212.738C111.51 214.137 112.644 215.271 114.044 215.271C115.443 215.271 116.578 214.137 116.578 212.738C116.578 211.339 115.443 210.205 114.044 210.205Z" fill="#F7F7F7"/>
<path d="M107.383 190.894C105.809 190.894 104.532 192.17 104.532 193.744C104.532 195.317 105.809 196.593 107.383 196.593C108.958 196.593 110.234 195.317 110.234 193.744C110.234 192.17 108.958 190.894 107.383 190.894Z" fill="#F7F7F7"/>
<path d="M120.701 172.85C119.651 172.85 118.8 173.7 118.8 174.749C118.8 175.799 119.651 176.649 120.701 176.649C121.751 176.649 122.602 175.799 122.602 174.749C122.602 173.7 121.751 172.85 120.701 172.85Z" fill="#F7F7F7"/>
<path d="M114.04 153.539C112.816 153.539 111.823 154.531 111.823 155.755C111.823 156.979 112.816 157.971 114.04 157.971C115.265 157.971 116.258 156.979 116.258 155.755C116.258 154.531 115.265 153.539 114.04 153.539Z" fill="#F7F7F7"/>
<path d="M107.384 134.545C106.159 134.545 105.167 135.537 105.167 136.761C105.167 137.984 106.159 138.977 107.384 138.977C108.609 138.977 109.602 137.984 109.602 136.761C109.602 135.537 108.609 134.545 107.384 134.545Z" fill="#F7F7F7"/>
<path d="M95.0325 267.504C93.8078 267.504 92.815 268.497 92.815 269.721C92.815 270.944 93.8078 271.937 95.0325 271.937C96.2572 271.937 97.25 270.944 97.25 269.721C97.25 268.497 96.2572 267.504 95.0325 267.504Z" fill="#F7F7F7"/>
<path d="M88.379 247.561C86.6295 247.561 85.2112 248.978 85.2112 250.726C85.2112 252.475 86.6295 253.892 88.379 253.892C90.1286 253.892 91.5469 252.475 91.5469 250.726C91.5469 248.978 90.1286 247.561 88.379 247.561Z" fill="#F7F7F7"/>
<path d="M101.689 229.516C100.464 229.516 99.4712 230.508 99.4712 231.732C99.4712 232.956 100.464 233.948 101.689 233.948C102.913 233.948 103.906 232.956 103.906 231.732C103.906 230.508 102.913 229.516 101.689 229.516Z" fill="#F7F7F7"/>
<path d="M95.0318 209.889C93.4571 209.889 92.1807 211.164 92.1807 212.738C92.1807 214.311 93.4571 215.587 95.0318 215.587C96.6064 215.587 97.8828 214.311 97.8828 212.738C97.8828 211.164 96.6064 209.889 95.0318 209.889Z" fill="#F7F7F7"/>
<path d="M88.3762 191.526C87.1516 191.526 86.1587 192.518 86.1587 193.742C86.1587 194.966 87.1516 195.958 88.3762 195.958C89.6009 195.958 90.5938 194.966 90.5938 193.742C90.5938 192.518 89.6009 191.526 88.3762 191.526Z" fill="#F7F7F7"/>
<path d="M101.692 172.217C100.293 172.217 99.158 173.351 99.158 174.75C99.158 176.148 100.293 177.282 101.692 177.282C103.092 177.282 104.227 176.148 104.227 174.75C104.227 173.351 103.092 172.217 101.692 172.217Z" fill="#F7F7F7"/>
<path d="M95.036 153.221C93.6364 153.221 92.5017 154.355 92.5017 155.754C92.5017 157.152 93.6364 158.286 95.036 158.286C96.4357 158.286 97.5703 157.152 97.5703 155.754C97.5703 154.355 96.4357 153.221 95.036 153.221Z" fill="#F7F7F7"/>
<path d="M88.3805 134.86C87.3308 134.86 86.4798 135.711 86.4798 136.76C86.4798 137.809 87.3308 138.659 88.3805 138.659C89.4303 138.659 90.2812 137.809 90.2812 136.76C90.2812 135.711 89.4303 134.86 88.3805 134.86Z" fill="#F7F7F7"/>
<path d="M69.3684 248.51C68.1437 248.51 67.1509 249.502 67.1509 250.726C67.1509 251.95 68.1437 252.942 69.3684 252.942C70.5931 252.942 71.5859 251.95 71.5859 250.726C71.5859 249.502 70.5931 248.51 69.3684 248.51Z" fill="#F7F7F7"/>
<path d="M82.6829 227.933C80.5835 227.933 78.8815 229.634 78.8815 231.732C78.8815 233.83 80.5835 235.531 82.6829 235.531C84.7824 235.531 86.4844 233.83 86.4844 231.732C86.4844 229.634 84.7824 227.933 82.6829 227.933Z" fill="#F7F7F7"/>
<path d="M76.029 210.838C74.9792 210.838 74.1283 211.689 74.1283 212.738C74.1283 213.787 74.9792 214.637 76.029 214.637C77.0787 214.637 77.9297 213.787 77.9297 212.738C77.9297 211.689 77.0787 210.838 76.029 210.838Z" fill="#F7F7F7"/>
<path d="M69.3692 192.161C68.4944 192.161 67.7853 192.87 67.7853 193.744C67.7853 194.618 68.4944 195.327 69.3692 195.327C70.244 195.327 70.9531 194.618 70.9531 193.744C70.9531 192.87 70.244 192.161 69.3692 192.161Z" fill="#F7F7F7"/>
<path d="M82.6872 171.267C80.7627 171.267 79.2026 172.826 79.2026 174.75C79.2026 176.673 80.7627 178.232 82.6872 178.232C84.6117 178.232 86.1719 176.673 86.1719 174.75C86.1719 172.826 84.6117 171.267 82.6872 171.267Z" fill="#F7F7F7"/>
<path d="M76.0317 152.905C74.4571 152.905 73.1807 154.18 73.1807 155.754C73.1807 157.327 74.4571 158.603 76.0317 158.603C77.6063 158.603 78.8828 157.327 78.8828 155.754C78.8828 154.18 77.6063 152.905 76.0317 152.905Z" fill="#F7F7F7"/>
<path d="M69.3677 133.911C67.7931 133.911 66.5166 135.187 66.5166 136.76C66.5166 138.334 67.7931 139.609 69.3677 139.609C70.9423 139.609 72.2188 138.334 72.2188 136.76C72.2188 135.187 70.9423 133.911 69.3677 133.911Z" fill="#F7F7F7"/>
<path d="M57.0204 267.188C55.6208 267.188 54.4861 268.322 54.4861 269.72C54.4861 271.119 55.6208 272.253 57.0204 272.253C58.42 272.253 59.5547 271.119 59.5547 269.72C59.5547 268.322 58.42 267.188 57.0204 267.188Z" fill="#F7F7F7"/>
<path d="M50.3614 249.143C49.4866 249.143 48.7775 249.852 48.7775 250.726C48.7775 251.6 49.4866 252.309 50.3614 252.309C51.2362 252.309 51.9453 251.6 51.9453 250.726C51.9453 249.852 51.2362 249.143 50.3614 249.143Z" fill="#F7F7F7"/>
<path d="M63.6809 229.516C62.4562 229.516 61.4634 230.508 61.4634 231.732C61.4634 232.956 62.4562 233.948 63.6809 233.948C64.9056 233.948 65.8984 232.956 65.8984 231.732C65.8984 230.508 64.9056 229.516 63.6809 229.516Z" fill="#F7F7F7"/>
<path d="M57.0176 211.155C56.1429 211.155 55.4337 211.864 55.4337 212.738C55.4337 213.612 56.1429 214.321 57.0176 214.321C57.8924 214.321 58.6016 213.612 58.6016 212.738C58.6016 211.864 57.8924 211.155 57.0176 211.155Z" fill="#F7F7F7"/>
<path d="M50.3649 191.844C49.3152 191.844 48.4642 192.695 48.4642 193.744C48.4642 194.793 49.3152 195.643 50.3649 195.643C51.4146 195.643 52.2656 194.793 52.2656 193.744C52.2656 192.695 51.4146 191.844 50.3649 191.844Z" fill="#F7F7F7"/>
<path d="M63.6802 171.899C62.1056 171.899 60.8291 173.174 60.8291 174.748C60.8291 176.322 62.1056 177.597 63.6802 177.597C65.2548 177.597 66.5312 176.322 66.5312 174.748C66.5312 173.174 65.2548 171.899 63.6802 171.899Z" fill="#F7F7F7"/>
<path d="M57.0247 153.539C55.8 153.539 54.8072 154.531 54.8072 155.755C54.8072 156.979 55.8 157.971 57.0247 157.971C58.2494 157.971 59.2422 156.979 59.2422 155.755C59.2422 154.531 58.2494 153.539 57.0247 153.539Z" fill="#F7F7F7"/>
<path d="M50.3626 132.961C48.2632 132.961 46.5612 134.662 46.5612 136.76C46.5612 138.858 48.2632 140.559 50.3626 140.559C52.4621 140.559 54.1641 138.858 54.1641 136.76C54.1641 134.662 52.4621 132.961 50.3626 132.961Z" fill="#F7F7F7"/>
<path d="M-0.00124526 157.971C1.22345 157.971 2.21626 156.979 2.21626 155.755C2.21626 154.531 1.22345 153.539 -0.00124526 153.539C-1.22594 153.539 -2.21875 154.531 -2.21875 155.755C-2.21875 156.979 -1.22594 157.971 -0.00124526 157.971Z" fill="#F7F7F7"/>
<path d="M6.65501 176.965C7.8797 176.965 8.87251 175.973 8.87251 174.749C8.87251 173.525 7.8797 172.533 6.65501 172.533C5.43031 172.533 4.4375 173.525 4.4375 174.749C4.4375 175.973 5.43031 176.965 6.65501 176.965Z" fill="#F7F7F7"/>
<path d="M-0.00124526 214.954C1.22345 214.954 2.21626 213.962 2.21626 212.738C2.21626 211.514 1.22345 210.522 -0.00124526 210.522C-1.22594 210.522 -2.21875 211.514 -2.21875 212.738C-2.21875 213.962 -1.22594 214.954 -0.00124526 214.954Z" fill="#F7F7F7"/>
<path d="M6.65576 234.581C8.23036 234.581 9.50683 233.306 9.50683 231.732C9.50683 230.158 8.23036 228.883 6.65576 228.883C5.08116 228.883 3.80469 230.158 3.80469 231.732C3.80469 233.306 5.08116 234.581 6.65576 234.581Z" fill="#F7F7F7"/>
<path d="M0.00303745 272.253C1.40269 272.253 2.53732 271.119 2.53732 269.721C2.53732 268.322 1.40269 267.188 0.00303745 267.188C-1.39661 267.188 -2.53125 268.322 -2.53125 269.721C-2.53125 271.119 -1.39661 272.253 0.00303745 272.253Z" fill="#F7F7F7"/>
<path d="M6.65929 291.247C8.05894 291.247 9.19357 290.113 9.19357 288.715C9.19357 287.316 8.05894 286.182 6.65929 286.182C5.25964 286.182 4.125 287.316 4.125 288.715C4.125 290.113 5.25964 291.247 6.65929 291.247Z" fill="#F7F7F7"/>
<path d="M12.3511 139.609C13.9257 139.609 15.2021 138.333 15.2021 136.76C15.2021 135.186 13.9257 133.911 12.3511 133.911C10.7765 133.911 9.5 135.186 9.5 136.76C9.5 138.333 10.7765 139.609 12.3511 139.609Z" fill="#F7F7F7"/>
<path d="M19.0066 157.971C20.2313 157.971 21.2241 156.979 21.2241 155.755C21.2241 154.531 20.2313 153.539 19.0066 153.539C17.7819 153.539 16.7891 154.531 16.7891 155.755C16.7891 156.979 17.7819 157.971 19.0066 157.971Z" fill="#F7F7F7"/>
<path d="M25.66 177.915C27.4096 177.915 28.8279 176.498 28.8279 174.749C28.8279 173.001 27.4096 171.583 25.66 171.583C23.9105 171.583 22.4922 173.001 22.4922 174.749C22.4922 176.498 23.9105 177.915 25.66 177.915Z" fill="#F7F7F7"/>
<path d="M12.3503 195.958C13.575 195.958 14.5678 194.966 14.5678 193.742C14.5678 192.519 13.575 191.526 12.3503 191.526C11.1256 191.526 10.1328 192.519 10.1328 193.742C10.1328 194.966 11.1256 195.958 12.3503 195.958Z" fill="#F7F7F7"/>
<path d="M19.0046 216.537C21.104 216.537 22.806 214.836 22.806 212.738C22.806 210.64 21.104 208.939 19.0046 208.939C16.9051 208.939 15.2031 210.64 15.2031 212.738C15.2031 214.836 16.9051 216.537 19.0046 216.537Z" fill="#F7F7F7"/>
<path d="M25.6663 233.631C26.7161 233.631 27.567 232.781 27.567 231.732C27.567 230.683 26.7161 229.833 25.6663 229.833C24.6166 229.833 23.7656 230.683 23.7656 231.732C23.7656 232.781 24.6166 233.631 25.6663 233.631Z" fill="#F7F7F7"/>
<path d="M12.3496 252.309C13.2243 252.309 13.9335 251.601 13.9335 250.726C13.9335 249.852 13.2243 249.144 12.3496 249.144C11.4748 249.144 10.7656 249.852 10.7656 250.726C10.7656 251.601 11.4748 252.309 12.3496 252.309Z" fill="#F7F7F7"/>
<path d="M19.0081 273.204C20.9326 273.204 22.4927 271.645 22.4927 269.722C22.4927 267.799 20.9326 266.24 19.0081 266.24C17.0836 266.24 15.5234 267.799 15.5234 269.722C15.5234 271.645 17.0836 273.204 19.0081 273.204Z" fill="#F7F7F7"/>
<path d="M25.6636 291.564C27.2382 291.564 28.5146 290.288 28.5146 288.715C28.5146 287.141 27.2382 285.866 25.6636 285.866C24.089 285.866 22.8125 287.141 22.8125 288.715C22.8125 290.288 24.089 291.564 25.6636 291.564Z" fill="#F7F7F7"/>
<path d="M12.3511 310.558C13.9257 310.558 15.2021 309.283 15.2021 307.709C15.2021 306.135 13.9257 304.86 12.3511 304.86C10.7765 304.86 9.5 306.135 9.5 307.709C9.5 309.283 10.7765 310.558 12.3511 310.558Z" fill="#F7F7F7"/>
<path d="M31.3574 138.343C32.2321 138.343 32.9413 137.635 32.9413 136.761C32.9413 135.886 32.2321 135.178 31.3574 135.178C30.4826 135.178 29.7734 135.886 29.7734 136.761C29.7734 137.635 30.4826 138.343 31.3574 138.343Z" fill="#F7F7F7"/>
<path d="M38.0101 157.655C39.0598 157.655 39.9108 156.804 39.9108 155.755C39.9108 154.706 39.0598 153.856 38.0101 153.856C36.9604 153.856 36.1094 154.706 36.1094 155.755C36.1094 156.804 36.9604 157.655 38.0101 157.655Z" fill="#F7F7F7"/>
<path d="M44.6671 177.282C46.0667 177.282 47.2014 176.148 47.2014 174.749C47.2014 173.351 46.0667 172.217 44.6671 172.217C43.2675 172.217 42.1328 173.351 42.1328 174.749C42.1328 176.148 43.2675 177.282 44.6671 177.282Z" fill="#F7F7F7"/>
<path d="M31.3574 195.325C32.2321 195.325 32.9413 194.616 32.9413 193.742C32.9413 192.868 32.2321 192.159 31.3574 192.159C30.4826 192.159 29.7734 192.868 29.7734 193.742C29.7734 194.616 30.4826 195.325 31.3574 195.325Z" fill="#F7F7F7"/>
<path d="M38.0144 214.954C39.2391 214.954 40.2319 213.962 40.2319 212.738C40.2319 211.514 39.2391 210.522 38.0144 210.522C36.7897 210.522 35.7969 211.514 35.7969 212.738C35.7969 213.962 36.7897 214.954 38.0144 214.954Z" fill="#F7F7F7"/>
<path d="M44.6699 233.315C45.5446 233.315 46.2538 232.606 46.2538 231.732C46.2538 230.858 45.5446 230.149 44.6699 230.149C43.7951 230.149 43.0859 230.858 43.0859 231.732C43.0859 232.606 43.7951 233.315 44.6699 233.315Z" fill="#F7F7F7"/>
<path d="M31.3538 252.626C32.4036 252.626 33.2545 251.775 33.2545 250.726C33.2545 249.677 32.4036 248.827 31.3538 248.827C30.3041 248.827 29.4531 249.677 29.4531 250.726C29.4531 251.775 30.3041 252.626 31.3538 252.626Z" fill="#F7F7F7"/>
<path d="M38.0151 272.57C39.5897 272.57 40.8662 271.294 40.8662 269.721C40.8662 268.147 39.5897 266.872 38.0151 266.872C36.4405 266.872 35.1641 268.147 35.1641 269.721C35.1641 271.294 36.4405 272.57 38.0151 272.57Z" fill="#F7F7F7"/>
</g>
</g>
</g>
<defs>
<clipPath id="clip0_3_4">
<rect width="1823" height="4036" fill="white" transform="translate(0 -226)"/>
</clipPath>
<clipPath id="clip1_3_4">
<rect width="239" height="635" fill="white"/>
</clipPath>
</defs>
</svg>
