<svg width="1296" height="1296" viewBox="0 0 1296 1296" fill="none" xmlns="http://www.w3.org/2000/svg">
<path d="M1296 0H0V1296H1296V0Z" fill="#1A1A1A"/>
<g filter="url(#filter0_d_625_4)">
<path d="M720 864V792V720V648H576V720V792V864V936V1008H720V936V864Z" fill="white"/>
<path d="M792 1152H864H936H1008V1008H936H864H792H720V1152H792Z" fill="white"/>
<path d="M864 648H936H1008V504H936H864H792H720V648H792H864Z" fill="white"/>
</g>
<g filter="url(#filter1_d_625_4)">
<path d="M576 288V360V432V504V576V648H720V576V504V432V360V288H576Z" fill="#D7DF23"/>
<path d="M432 648H360H288V792H360H432H504H576V648H504H432Z" fill="#D7DF23"/>
<path d="M504 144H432H360H288V288H360H432H504H576V144H504Z" fill="#D7DF23"/>
</g>
<defs>
<filter id="filter0_d_625_4" x="546" y="504" width="462" height="648" filterUnits="userSpaceOnUse" color-interpolation-filters="sRGB">
<feFlood flood-opacity="0" result="BackgroundImageFix"/>
<feColorMatrix in="SourceAlpha" type="matrix" values="0 0 0 0 0 0 0 0 0 0 0 0 0 0 0 0 0 0 127 0" result="hardAlpha"/>
<feOffset dx="-30"/>
<feComposite in2="hardAlpha" operator="out"/>
<feColorMatrix type="matrix" values="0 0 0 0 0 0 0 0 0 0 0 0 0 0 0 0 0 0 0.25 0"/>
<feBlend mode="normal" in2="BackgroundImageFix" result="effect1_dropShadow_625_4"/>
<feBlend mode="normal" in="SourceGraphic" in2="effect1_dropShadow_625_4" result="shape"/>
</filter>
<filter id="filter1_d_625_4" x="258" y="144" width="462" height="648" filterUnits="userSpaceOnUse" color-interpolation-filters="sRGB">
<feFlood flood-opacity="0" result="BackgroundImageFix"/>
<feColorMatrix in="SourceAlpha" type="matrix" values="0 0 0 0 0 0 0 0 0 0 0 0 0 0 0 0 0 0 127 0" result="hardAlpha"/>
<feOffset dx="-30"/>
<feComposite in2="hardAlpha" operator="out"/>
<feColorMatrix type="matrix" values="0 0 0 0 0 0 0 0 0 0 0 0 0 0 0 0 0 0 0.25 0"/>
<feBlend mode="normal" in2="BackgroundImageFix" result="effect1_dropShadow_625_4"/>
<feBlend mode="normal" in="SourceGraphic" in2="effect1_dropShadow_625_4" result="shape"/>
</filter>
</defs>
</svg>
