<svg width="32" height="32" viewBox="0 0 32 32" fill="none" xmlns="http://www.w3.org/2000/svg">
<path d="M0 0H31V31H0V0Z" fill="#D7DF23"/>
<path d="M31 31V31.8596H31.8596V31H31ZM30.1404 0V31H31.8596V0H30.1404ZM31 30.1404H0V31.8596H31V30.1404Z" fill="white"/>
<path d="M7.62433 7.88238H6.10083V23.1174H7.62433V7.88238Z" fill="black"/>
<path d="M7.62437 6.35889L7.62433 7.88238L10.6714 7.88239V6.35889H7.62437Z" fill="black"/>
<path d="M10.6714 7.88239L10.6713 9.4059L13.7184 9.40589L13.7184 7.8824L10.6714 7.88239Z" fill="black"/>
<path d="M13.7184 9.40589V10.9294L16.7654 10.9294L16.7654 9.40589H13.7184Z" fill="black"/>
<path d="M16.7654 10.9294V12.4529L19.8124 12.4529L19.8124 10.9294H16.7654Z" fill="black"/>
<path d="M19.8124 12.4529V13.9764L22.8594 13.9764L22.8594 12.4529H19.8124Z" fill="black"/>
<path d="M22.8594 17.0234H24.3829V13.9764H22.8594V17.0234Z" fill="black"/>
<path d="M19.8124 17.0234V18.5469H22.8594L22.8594 17.0234L19.8124 17.0234Z" fill="black"/>
<path d="M16.7654 18.5469V20.0704H19.8124L19.8124 18.5469L16.7654 18.5469Z" fill="black"/>
<path d="M13.7184 20.0704V21.5939H16.7654L16.7654 20.0704L13.7184 20.0704Z" fill="black"/>
<path d="M10.6713 21.5939L10.6714 23.1174L13.7184 23.1174L13.7184 21.5939L10.6713 21.5939Z" fill="black"/>
<path d="M7.62433 23.1174L7.62437 24.6409H10.6714V23.1174L7.62433 23.1174Z" fill="black"/>
<path d="M10.6713 7.88232H7.62427V23.1174H10.6713V21.5939H13.7183V20.0704H16.7653V18.5469H19.8123V17.0233H22.8593V13.9763H19.8123V12.4528H16.7653V10.9293H13.7183V9.40583H10.6713V7.88232Z" fill="white"/>
</svg>
