<svg width="85" height="67" viewBox="0 0 85 67" fill="none" xmlns="http://www.w3.org/2000/svg">
<path d="M52.6123 10.4561L52.6123 18.2063L11.6689 18.2063L11.6689 10.4561L16.2182 10.4561L16.2182 7.10389L20.7675 7.10389L20.7675 3.7517L43.5138 3.7517L43.5138 7.10388L48.0631 7.10388L48.0631 10.4561L52.6123 10.4561Z" fill="#D7DF23"/>
<path d="M52.6127 10.4566L52.6128 7.10445L48.0635 7.10445L48.0635 10.4566L52.6127 10.4566Z" fill="black"/>
<path d="M11.6694 10.4566L11.6694 7.10445L16.2187 7.10445L16.2187 10.4566L11.6694 10.4566Z" fill="black"/>
<path d="M48.0635 7.10445L48.0635 3.75225L43.5142 3.75225L43.5142 7.10443L48.0635 7.10445Z" fill="black"/>
<path d="M16.2187 7.10445L16.2186 3.75225L20.7679 3.75225L20.7679 7.10443L16.2187 7.10445Z" fill="black"/>
<path d="M7.12012 17.8582L11.6694 17.8582L11.6694 10.4566L7.12012 10.4566L7.12012 17.8582Z" fill="black"/>
<path d="M52.6128 21.2104L52.6127 17.8582L11.6694 17.8582L11.6694 21.2104L52.6128 21.2104Z" fill="black"/>
<path d="M57.162 10.4566L52.6127 10.4566L52.6127 17.8582L57.162 17.8582L57.162 10.4566Z" fill="black"/>
<path d="M20.7679 0.400039L20.7679 3.75225L43.5142 3.75225L43.5143 0.400038L20.7679 0.400039Z" fill="black"/>
<path d="M7 62.4697V15.7993H78.7049V62.4697H7Z" fill="#D7DF23"/>
<path d="M45.9998 32.2999H48.0998V30.2H45.9998V32.2999Z" fill="black"/>
<path d="M48.0998 34.3999H50.1998V32.2999H48.0998V34.3999Z" fill="black"/>
<path d="M48.0998 44.8999H50.1998V42.7999H48.0998V44.8999Z" fill="black"/>
<path d="M45.9998 46.9999H48.0998V44.8999H45.9998V46.9999Z" fill="black"/>
<path d="M41.7998 36.4999H43.8998V34.3999H41.7998V36.4999Z" fill="black"/>
<path d="M41.7998 42.7999H43.8998V40.6999H41.7998V42.7999Z" fill="black"/>
<path d="M52.2998 34.3999H50.1998V42.7999H52.2998V34.3999Z" fill="black"/>
<path d="M45.9998 36.4999H43.8998V40.6999H45.9998V36.4999Z" fill="black"/>
<path d="M53.7002 30.2001H55.8002V28.1001H53.7002V30.2001Z" fill="black"/>
<path d="M53.7002 49.1H55.8002V47H53.7002V49.1Z" fill="black"/>
<path d="M55.8002 47H57.9002V42.8H55.8002V47Z" fill="black"/>
<path d="M60.0002 34.4001H57.9002V42.8H60.0002V34.4001Z" fill="black"/>
<path d="M57.9002 30.2001H55.8002V34.4001H57.9002V30.2001Z" fill="black"/>
<path d="M35.2668 32.0667H39.4668V44.6666H35.2668V46.7666H31.0668V48.8666H26.8669V27.8667H31.0668V29.9667H35.2668V32.0667Z" fill="white"/>
<path d="M31.2999 49.0999V51.1999H27.0999V49.0999H31.2999Z" fill="black"/>
<path d="M35.4998 46.9999V49.0999H31.2999V46.9999H35.4998Z" fill="black"/>
<path d="M39.6998 44.8999V46.9999H35.4998V44.8999H39.6998Z" fill="black"/>
<path d="M39.6998 32.3H41.7998V44.8999H39.6998V32.3Z" fill="black"/>
<path d="M35.4998 32.3V30.2H39.6998V32.3H35.4998Z" fill="black"/>
<path d="M31.2999 30.2V28.1H35.4998V30.2H31.2999Z" fill="black"/>
<path d="M27.0999 28.1V26H31.2999V28.1H27.0999Z" fill="black"/>
<path d="M27.0999 49.0999H24.9999V28.1H27.0999V49.0999Z" fill="black"/>
<rect x="38.5332" y="36.7334" width="5.13331" height="3.73332" fill="white"/>
<path d="M84.9994 15.4109H78.6725V62.0813H84.9994V15.4109Z" fill="black"/>
<path d="M6.96753 11.293V15.4109H78.6725V11.293H6.96753Z" fill="black"/>
<path d="M0.640625 62.0813H6.96753V15.4109H0.640625V62.0813Z" fill="black"/>
<path d="M6.96753 62.0813V66.1993H78.6725V62.0813H6.96753Z" fill="black"/>
</svg>
