<svg width="30" height="24" viewBox="0 0 30 24" fill="none" xmlns="http://www.w3.org/2000/svg">
<path d="M3.33333 21.6667L3.33333 20H1.66667L1.66667 21.6667H3.33333Z" fill="white"/>
<path d="M3.33333 3.33333V1.66667L1.66667 1.66667L1.66666 3.33333L3.33333 3.33333Z" fill="white"/>
<path d="M23.3333 6.66667V5H21.6667V6.66667H23.3333Z" fill="white"/>
<path d="M21.6667 8.33333V6.66667H20V8.33333H21.6667Z" fill="white"/>
<path d="M25 5V3.33333H23.3333V5H25Z" fill="white"/>
<path d="M25 20V18.3333H23.3333V20H25Z" fill="white"/>
<path d="M23.3333 18.3333V16.6667H21.6667V18.3333H23.3333Z" fill="white"/>
<path d="M21.6667 16.6667V15H20V16.6667H21.6667Z" fill="white"/>
<path d="M3.33333 1.66667V0L26.6667 1.01993e-06V1.66667H28.3333V3.33333L25 3.33333L25 1.66667L3.33333 1.66667Z" fill="white"/>
<path d="M18.3333 8.33333L20 8.33333V15L18.3333 15L18.3333 8.33333Z" fill="white"/>
<path d="M26.6667 21.6667V23.3333L3.33333 23.3333V21.6667L25 21.6667V20L28.3333 20V21.6667H26.6667Z" fill="white"/>
<path d="M30 20H28.3333L28.3333 3.33333H30V20Z" fill="white"/>
<path d="M1.66667 20H0L7.28523e-07 3.33333L1.66666 3.33333L1.66667 20Z" fill="white"/>
</svg>
