<svg width="33" height="33" viewBox="0 0 33 33" fill="none" xmlns="http://www.w3.org/2000/svg">
<path d="M0 0H31V31H0V0Z" fill="#D7DF23"/>
<path d="M31 31V32.0814H32.0814V31H31ZM29.9186 0V31H32.0814V0H29.9186ZM31 29.9186H0V32.0814H31V29.9186Z" fill="white"/>
<path d="M23.7352 7.26465H7.26477V23.7351H23.7352V7.26465Z" fill="white"/>
<path d="M14.7514 11.7566H16.2487V14.7512H19.2433V16.2485H16.2487V19.2432H14.7514V16.2485H11.7567V14.7512H14.7514V11.7566Z" fill="black"/>
<path d="M7.26477 5.76733V7.26465H23.7353V5.76733H7.26477Z" fill="black"/>
<path d="M25.2326 7.26465H23.7353V23.7351H25.2326V7.26465Z" fill="black"/>
<path d="M7.26477 23.7351V25.2324H23.7353V23.7351H7.26477Z" fill="black"/>
<path d="M5.76746 23.7351H7.26477V7.26465H5.76746V23.7351Z" fill="black"/>
</svg>
