<svg width="85" height="67" viewBox="0 0 85 67" fill="none" xmlns="http://www.w3.org/2000/svg">
<path d="M52.6127 10.4561L52.6127 18.2063L11.6693 18.2063L11.6693 10.4561L16.2186 10.4561L16.2186 7.10389L20.7679 7.10389L20.7679 3.7517L43.5142 3.7517L43.5142 7.10388L48.0634 7.10388L48.0634 10.4561L52.6127 10.4561Z" fill="#D7DF23"/>
<path d="M52.613 10.4566L52.613 7.10445L48.0638 7.10445L48.0638 10.4566L52.613 10.4566Z" fill="black"/>
<path d="M11.6696 10.4566L11.6697 7.10445L16.2189 7.10445L16.2189 10.4566L11.6696 10.4566Z" fill="black"/>
<path d="M48.0638 7.10445L48.0637 3.75225L43.5145 3.75225L43.5145 7.10443L48.0638 7.10445Z" fill="black"/>
<path d="M16.2189 7.10445L16.2189 3.75225L20.7681 3.75225L20.7681 7.10443L16.2189 7.10445Z" fill="black"/>
<path d="M7.12037 17.8582L11.6696 17.8582L11.6696 10.4566L7.12037 10.4566L7.12037 17.8582Z" fill="black"/>
<path d="M52.613 21.2104L52.613 17.8582L11.6696 17.8582L11.6697 21.2104L52.613 21.2104Z" fill="black"/>
<path d="M57.1622 10.4566L52.613 10.4566L52.613 17.8582L57.1622 17.8582L57.1622 10.4566Z" fill="black"/>
<path d="M20.7682 0.400039L20.7681 3.75225L43.5145 3.75225L43.5145 0.400038L20.7682 0.400039Z" fill="black"/>
<path d="M7.00027 62.4697V15.7993H78.7052V62.4697H7.00027Z" fill="#D7DF23"/>
<path d="M46.0002 32.2999H48.1001V30.2H46.0002V32.2999Z" fill="black"/>
<path d="M48.1001 34.3999H50.2001V32.2999H48.1001V34.3999Z" fill="black"/>
<path d="M48.1001 44.8999H50.2001V42.7999H48.1001V44.8999Z" fill="black"/>
<path d="M46.0002 46.9999H48.1001V44.8999H46.0002V46.9999Z" fill="black"/>
<path d="M41.8002 36.4999H43.9002V34.3999H41.8002V36.4999Z" fill="black"/>
<path d="M41.8002 42.7999H43.9002V40.6999H41.8002V42.7999Z" fill="black"/>
<path d="M52.3001 34.3999H50.2001V42.7999H52.3001V34.3999Z" fill="black"/>
<path d="M46.0002 36.4999H43.9002V40.6999H46.0002V36.4999Z" fill="black"/>
<path d="M53.7004 30.2001H55.8004V28.1001H53.7004V30.2001Z" fill="black"/>
<path d="M53.7004 49.1H55.8004V47H53.7004V49.1Z" fill="black"/>
<path d="M55.8004 47H57.9004V42.8H55.8004V47Z" fill="black"/>
<path d="M60.0004 34.4001H57.9004V42.8H60.0004V34.4001Z" fill="black"/>
<path d="M57.9004 30.2001H55.8004V34.4001H57.9004V30.2001Z" fill="black"/>
<path d="M35.2667 32.0667H39.4667V44.6666H35.2667V46.7666H31.0667V48.8666H26.8668V27.8667H31.0667V29.9667H35.2667V32.0667Z" fill="white"/>
<path d="M31.3001 49.0999V51.1999H27.1001V49.0999H31.3001Z" fill="black"/>
<path d="M35.5001 46.9999V49.0999H31.3001V46.9999H35.5001Z" fill="black"/>
<path d="M39.7001 44.8999V46.9999H35.5001V44.8999H39.7001Z" fill="black"/>
<path d="M39.7001 32.3H41.8001V44.8999H39.7001V32.3Z" fill="black"/>
<path d="M35.5001 32.3V30.2H39.7001V32.3H35.5001Z" fill="black"/>
<path d="M31.3001 30.2V28.1H35.5001V30.2H31.3001Z" fill="black"/>
<path d="M27.1001 28.1V26H31.3001V28.1H27.1001Z" fill="black"/>
<path d="M27.1001 49.0999H25.0001V28.1H27.1001V49.0999Z" fill="black"/>
<rect x="38.5336" y="36.7334" width="5.13331" height="3.73332" fill="white"/>
<path d="M85 15.4109H78.6731V62.0813H85V15.4109Z" fill="black"/>
<path d="M6.96816 11.293V15.4109H78.6731V11.293H6.96816Z" fill="black"/>
<path d="M0.641258 62.0813H6.96816V15.4109H0.641258V62.0813Z" fill="black"/>
<path d="M6.96816 62.0813V66.1993H78.6731V62.0813H6.96816Z" fill="black"/>
</svg>
