<svg width="80" height="80" viewBox="0 0 80 80" fill="none" xmlns="http://www.w3.org/2000/svg">
<rect x="0.666667" y="0.666667" width="78.6667" height="78.6667" class='color_2' fill="black" stroke="white" stroke-width="1.33333"/>
<path d="M24.0533 68.4663C23.4044 68.4663 22.8356 68.3463 22.3467 68.1063C21.8578 67.8575 21.4756 67.5152 21.2 67.0797C20.9333 66.6352 20.8 66.1197 20.8 65.533V61.3997C20.8 60.8041 20.9333 60.2886 21.2 59.853C21.4756 59.4175 21.8578 59.0797 22.3467 58.8397C22.8356 58.5908 23.4044 58.4663 24.0533 58.4663C24.7111 58.4663 25.28 58.5908 25.76 58.8397C26.2489 59.0797 26.6267 59.4175 26.8933 59.853C27.1689 60.2886 27.3067 60.8041 27.3067 61.3997H25.3067C25.3067 61.0086 25.1956 60.7108 24.9733 60.5063C24.76 60.3019 24.4533 60.1997 24.0533 60.1997C23.6533 60.1997 23.3422 60.3019 23.12 60.5063C22.9067 60.7108 22.8 61.0086 22.8 61.3997V65.533C22.8 65.9152 22.9067 66.213 23.12 66.4263C23.3422 66.6308 23.6533 66.733 24.0533 66.733C24.4533 66.733 24.76 66.6308 24.9733 66.4263C25.1956 66.213 25.3067 65.9152 25.3067 65.533H27.3067C27.3067 66.1197 27.1689 66.6352 26.8933 67.0797C26.6267 67.5152 26.2489 67.8575 25.76 68.1063C25.28 68.3463 24.7111 68.4663 24.0533 68.4663ZM28.3281 68.333L30.7148 58.5997H33.2481L35.6615 68.333H33.6215L33.1548 66.133H30.8348L30.3681 68.333H28.3281ZM31.1681 64.533H32.8081L32.3415 62.1863C32.2792 61.8486 32.2126 61.5152 32.1415 61.1863C32.0792 60.8486 32.0303 60.5863 31.9948 60.3997C31.9592 60.5863 31.9103 60.8441 31.8481 61.173C31.7948 61.5019 31.7326 61.8352 31.6615 62.173L31.1681 64.533ZM39.9896 68.4663C39.3051 68.4663 38.7096 68.3508 38.2029 68.1197C37.6963 67.8886 37.3051 67.5641 37.0296 67.1463C36.754 66.7286 36.6163 66.2352 36.6163 65.6663H38.6163C38.6163 65.9952 38.7407 66.2575 38.9896 66.453C39.2474 66.6397 39.594 66.733 40.0296 66.733C40.4474 66.733 40.7718 66.6397 41.0029 66.453C41.2429 66.2663 41.3629 66.0086 41.3629 65.6797C41.3629 65.3952 41.274 65.1508 41.0963 64.9463C40.9185 64.7419 40.6696 64.6041 40.3496 64.533L39.3629 64.3063C38.5363 64.1108 37.8918 63.7508 37.4296 63.2263C36.9763 62.693 36.7496 62.0441 36.7496 61.2797C36.7496 60.7108 36.8785 60.2175 37.1363 59.7997C37.4029 59.373 37.7763 59.0441 38.2563 58.813C38.7363 58.5819 39.3051 58.4663 39.9629 58.4663C40.9585 58.4663 41.7451 58.7152 42.3229 59.213C42.9096 59.7019 43.2029 60.3641 43.2029 61.1997H41.2029C41.2029 60.8886 41.0918 60.6441 40.8696 60.4663C40.6563 60.2886 40.3451 60.1997 39.9363 60.1997C39.554 60.1997 39.2607 60.2886 39.0563 60.4663C38.8518 60.6352 38.7496 60.8797 38.7496 61.1997C38.7496 61.4841 38.8296 61.7286 38.9896 61.933C39.1585 62.1286 39.394 62.2619 39.6963 62.333L40.7363 62.573C41.5985 62.7686 42.2518 63.1241 42.6963 63.6397C43.1407 64.1463 43.3629 64.7952 43.3629 65.5863C43.3629 66.1552 43.2207 66.6575 42.9363 67.093C42.6607 67.5286 42.2696 67.8663 41.7629 68.1063C41.2651 68.3463 40.674 68.4663 39.9896 68.4663ZM46.9844 68.333V60.4663H44.5177V58.5997H51.451V60.4663H48.9844V68.333H46.9844ZM55.9792 68.4663C55.2947 68.4663 54.6992 68.3508 54.1925 68.1197C53.6858 67.8886 53.2947 67.5641 53.0192 67.1463C52.7436 66.7286 52.6058 66.2352 52.6058 65.6663H54.6058C54.6058 65.9952 54.7303 66.2575 54.9792 66.453C55.2369 66.6397 55.5836 66.733 56.0192 66.733C56.4369 66.733 56.7614 66.6397 56.9925 66.453C57.2325 66.2663 57.3525 66.0086 57.3525 65.6797C57.3525 65.3952 57.2636 65.1508 57.0858 64.9463C56.9081 64.7419 56.6592 64.6041 56.3392 64.533L55.3525 64.3063C54.5258 64.1108 53.8814 63.7508 53.4192 63.2263C52.9658 62.693 52.7392 62.0441 52.7392 61.2797C52.7392 60.7108 52.8681 60.2175 53.1258 59.7997C53.3925 59.373 53.7658 59.0441 54.2458 58.813C54.7258 58.5819 55.2947 58.4663 55.9525 58.4663C56.9481 58.4663 57.7347 58.7152 58.3125 59.213C58.8992 59.7019 59.1925 60.3641 59.1925 61.1997H57.1925C57.1925 60.8886 57.0814 60.6441 56.8592 60.4663C56.6458 60.2886 56.3347 60.1997 55.9258 60.1997C55.5436 60.1997 55.2503 60.2886 55.0458 60.4663C54.8414 60.6352 54.7392 60.8797 54.7392 61.1997C54.7392 61.4841 54.8192 61.7286 54.9792 61.933C55.1481 62.1286 55.3836 62.2619 55.6858 62.333L56.7258 62.573C57.5881 62.7686 58.2414 63.1241 58.6858 63.6397C59.1303 64.1463 59.3525 64.7952 59.3525 65.5863C59.3525 66.1552 59.2103 66.6575 58.9258 67.093C58.6503 67.5286 58.2592 67.8663 57.7525 68.1063C57.2547 68.3463 56.6636 68.4663 55.9792 68.4663Z" class='color_1' fill="white"/>
<path d="M43.7034 21.9996H45.9257V19.7773H43.7034V21.9996Z" class='color_1' fill="white"/>
<path d="M45.9257 24.2218H48.148V21.9996H45.9257V24.2218Z" class='color_1' fill="white"/>
<path d="M45.9257 35.3329H48.148V33.1107H45.9257V35.3329Z" class='color_1' fill="white"/>
<path d="M43.7034 37.5551H45.9257V35.3329H43.7034V37.5551Z" class='color_1' fill="white"/>
<path d="M39.2588 26.444H41.4811V24.2218H39.2588V26.444Z" class='color_1' fill="white"/>
<path d="M39.2588 33.1107H41.4811V30.8885H39.2588V33.1107Z" class='color_1' fill="white"/>
<path d="M50.3703 24.2218H48.148V33.1107H50.3703V24.2218Z" class='color_1' fill="white"/>
<path d="M43.7034 26.444H41.4811V30.8885H43.7034V26.444Z" class='color_1' fill="white"/>
<path d="M51.8525 19.7769H54.0748V17.5547H51.8525V19.7769Z" class='color_1' fill="white"/>
<path d="M51.8525 39.7769H54.0748V37.5547H51.8525V39.7769Z" class='color_1' fill="white"/>
<path d="M54.0748 37.5547H56.2971V33.1102H54.0748V37.5547Z" class='color_1' fill="white"/>
<path d="M58.5194 24.2214H56.2971V33.1102H58.5194V24.2214Z" class='color_1' fill="white"/>
<path d="M56.2971 19.7769H54.0748V24.2214H56.2971V19.7769Z" class='color_1' fill="white"/>
<path d="M32.3459 21.753H36.7905V35.0864H32.3459V37.3086H27.9013V39.5308H23.4567V17.3086H27.9013V19.5308H32.3459V21.753Z" class='color_2' fill="black"/>
<path d="M28.1473 39.7775V41.9997H23.7027V39.7775H28.1473Z" class='color_1' fill="white"/>
<path d="M32.5919 37.5552V39.7775H28.1473V37.5552H32.5919Z" class='color_1' fill="white"/>
<path d="M37.0365 35.333V37.5552H32.5919V35.333H37.0365Z" class='color_1' fill="white"/>
<path d="M37.0365 21.9997H39.2588V35.333H37.0365V21.9997Z" class='color_1' fill="white"/>
<path d="M32.5919 21.9997V19.7775H37.0365V21.9997H32.5919Z" class='color_1' fill="white"/>
<path d="M28.1473 19.7775V17.5552H32.5919V19.7775H28.1473Z" class='color_1' fill="white"/>
<path d="M23.7027 17.5552V15.333H28.1473V17.5552H23.7027Z" class='color_1' fill="white"/>
<path d="M23.7027 39.7775H21.4804V17.5552H23.7027V39.7775Z" class='color_1' fill="white"/>
<rect x="35.8022" y="26.6914" width="5.43228" height="3.95062" class='color_2' fill="black"/>
</svg>
