<svg width="85" height="66" viewBox="0 0 85 66" fill="none" xmlns="http://www.w3.org/2000/svg">
<path d="M52.6127 10.2554L52.6127 18.0056L11.6693 18.0056L11.6693 10.2554L16.2186 10.2554L16.2186 6.9032L20.7679 6.9032L20.7679 3.55102L43.5142 3.55102L43.5142 6.9032L48.0634 6.9032L48.0634 10.2554L52.6127 10.2554Z" fill="#D7DF23"/>
<path d="M52.613 10.2559L52.613 6.90376L48.0638 6.90376L48.0638 10.256L52.613 10.2559Z" fill="black"/>
<path d="M11.6696 10.2559L11.6697 6.90377L16.2189 6.90377L16.2189 10.256L11.6696 10.2559Z" fill="black"/>
<path d="M48.0638 6.90376L48.0637 3.55156L43.5145 3.55156L43.5145 6.90375L48.0638 6.90376Z" fill="black"/>
<path d="M16.2189 6.90377L16.2189 3.55156L20.7681 3.55156L20.7681 6.90375L16.2189 6.90377Z" fill="black"/>
<path d="M7.12037 17.6576L11.6696 17.6576L11.6696 10.2559L7.12037 10.2559L7.12037 17.6576Z" fill="black"/>
<path d="M52.613 21.0098L52.613 17.6576L11.6696 17.6576L11.6697 21.0098L52.613 21.0098Z" fill="black"/>
<path d="M57.1622 10.2559L52.613 10.2559L52.613 17.6576L57.1622 17.6576L57.1622 10.2559Z" fill="black"/>
<path d="M20.7682 0.199355L20.7681 3.55156L43.5145 3.55156L43.5145 0.199354L20.7682 0.199355Z" fill="black"/>
<path d="M7.00027 62.269V15.5986H78.7052V62.269H7.00027Z" fill="#D7DF23"/>
<path d="M49.4287 26.1428H36.5716V28.2857H32.2859V32.5714H30.143V45.4285H32.2859V49.7142H36.5716V51.8571H49.4287V49.7142H53.7144V45.4285H55.8573V32.5714H53.7144V28.2857H49.4287V26.1428Z" fill="white"/>
<path d="M36.5716 43.2857H38.7144V45.4286H36.5716V43.2857Z" fill="black"/>
<path d="M49.4287 43.2857H47.2859V45.4286H49.4287V43.2857Z" fill="black"/>
<path d="M36.5716 32.5714H38.7144V34.7143H36.5716V32.5714Z" fill="black"/>
<path d="M49.4287 32.5714H47.2859V34.7143H49.4287V32.5714Z" fill="black"/>
<path d="M38.7144 34.7143H40.8573V36.8571H38.7144V34.7143Z" fill="black"/>
<path d="M47.2859 34.7143H45.143V36.8571H47.2859V34.7143Z" fill="black"/>
<path d="M34.4287 34.7143H36.5716V36.8571H34.4287V34.7143Z" fill="black"/>
<path d="M51.5716 34.7143H49.4287V36.8571H51.5716V34.7143Z" fill="black"/>
<path d="M36.5716 51.8571V54H49.4287V51.8571H36.5716Z" fill="black"/>
<path d="M47.2859 47.5714V45.4286H38.7144V47.5714H47.2859Z" fill="black"/>
<path d="M32.2859 49.7143V51.8571H36.5716V49.7143H32.2859Z" fill="black"/>
<path d="M32.2859 45.4286H30.143V49.7143H32.2859V45.4286Z" fill="black"/>
<path d="M28.0001 45.4286H30.143V32.5714H28.0001V45.4286Z" fill="black"/>
<path d="M30.143 32.5714H32.2859V28.2857H30.143V32.5714Z" fill="black"/>
<path d="M32.2859 26.1429V28.2857H36.5716V26.1429H32.2859Z" fill="black"/>
<path d="M36.5716 24V26.1429H49.4287V24H36.5716Z" fill="black"/>
<path d="M53.7144 28.2857V26.1429H49.4287V28.2857H53.7144Z" fill="black"/>
<path d="M53.7144 32.5714H55.8573V28.2857H53.7144V32.5714Z" fill="black"/>
<path d="M55.8573 45.4286H58.0001V32.5714H55.8573V45.4286Z" fill="black"/>
<path d="M55.8573 45.4286H53.7144V49.7143H55.8573V45.4286Z" fill="black"/>
<path d="M53.7144 51.8571V49.7143H49.4287V51.8571H53.7144Z" fill="black"/>
<path d="M85 15.2103H78.6731V61.8806H85V15.2103Z" fill="black"/>
<path d="M6.96816 11.0923V15.2103H78.6731V11.0923H6.96816Z" fill="black"/>
<path d="M0.641258 61.8806H6.96816V15.2103H0.641258V61.8806Z" fill="black"/>
<path d="M6.96816 61.8806V65.9986H78.6731V61.8806H6.96816Z" fill="black"/>
</svg>
