<svg width="85" height="67" viewBox="0 0 85 67" fill="none" xmlns="http://www.w3.org/2000/svg">
<rect width="85" height="67" fill="#1E1E1E"/>
<rect width="1440" height="1024" transform="translate(-45 -136)" fill="#0A0B0F"/>
<path d="M52.6127 10.6568L52.6127 18.407L11.6693 18.407L11.6693 10.6568L16.2186 10.6568L16.2186 7.30457L20.7679 7.30457L20.7679 3.95238L43.5142 3.95238L43.5142 7.30457L48.0634 7.30457L48.0634 10.6568L52.6127 10.6568Z" fill="#D7DF23"/>
<path d="M52.613 10.6573L52.613 7.30513L48.0638 7.30513L48.0638 10.6573L52.613 10.6573Z" fill="black"/>
<path d="M11.6696 10.6573L11.6697 7.30513L16.2189 7.30513L16.2189 10.6573L11.6696 10.6573Z" fill="black"/>
<path d="M48.0638 7.30513L48.0637 3.95293L43.5145 3.95293L43.5145 7.30511L48.0638 7.30513Z" fill="black"/>
<path d="M16.2189 7.30513L16.2189 3.95293L20.7681 3.95293L20.7681 7.30511L16.2189 7.30513Z" fill="black"/>
<path d="M7.12037 18.0589L11.6696 18.0589L11.6696 10.6573L7.12037 10.6573L7.12037 18.0589Z" fill="black"/>
<path d="M52.613 21.4111L52.613 18.0589L11.6696 18.0589L11.6697 21.4111L52.613 21.4111Z" fill="black"/>
<path d="M57.1622 10.6573L52.613 10.6573L52.613 18.0589L57.1622 18.0589L57.1622 10.6573Z" fill="black"/>
<path d="M20.7682 0.600723L20.7681 3.95293L43.5145 3.95293L43.5145 0.600722L20.7682 0.600723Z" fill="black"/>
<path d="M7.00027 62.6703V16H78.7052V62.6703H7.00027Z" fill="#D7DF23"/>
<path d="M85 15.6116H78.6731V62.282H85V15.6116Z" fill="black"/>
<path d="M6.96816 11.4937V15.6116H78.6731V11.4937H6.96816Z" fill="black"/>
<path d="M0.641258 62.282H6.96816V15.6116H0.641258V62.282Z" fill="black"/>
<path d="M6.96816 62.282V66.3999H78.6731V62.282H6.96816Z" fill="black"/>
<path d="M46.75 24V25.875H39.25V24H46.75Z" fill="black"/>
<path d="M50.5 27.75H46.75V25.875H50.5V27.75Z" fill="black"/>
<path d="M52.375 29.625H50.5V27.75H52.375V29.625Z" fill="black"/>
<path d="M54.25 31.5H52.375V29.625H54.25V31.5Z" fill="black"/>
<path fill-rule="evenodd" clip-rule="evenodd" d="M56.125 35.25H54.25V31.5H56.125V35.25ZM56.125 35.25H58V44.625H56.125V35.25Z" fill="black"/>
<path d="M37.375 27.75V29.625H29.875V27.75H37.375Z" fill="black"/>
<path d="M29.875 40.875H28V29.625H29.875V40.875Z" fill="black"/>
<path d="M31.75 44.625H29.875V40.875H31.75V44.625Z" fill="black"/>
<path d="M33.625 46.5H31.75V44.625H33.625V46.5Z" fill="black"/>
<path d="M35.5 48.375H33.625V46.5H35.5V48.375Z" fill="black"/>
<path d="M37.375 50.25H35.5V48.375H37.375V50.25Z" fill="black"/>
<path d="M41.125 52.125H37.375V50.25H41.125V52.125Z" fill="black"/>
<path d="M52.375 52.125V54H41.125V52.125H52.375Z" fill="black"/>
<path fill-rule="evenodd" clip-rule="evenodd" d="M46.75 44.625V42.75H52.375V44.625H46.75ZM52.375 44.625H54.25V52.125H52.375V44.625Z" fill="black"/>
<path d="M44.875 46.5V44.625H46.75V46.5H44.875Z" fill="black"/>
<path d="M41.125 46.5H44.875V48.375H41.125V46.5Z" fill="black"/>
<path fill-rule="evenodd" clip-rule="evenodd" d="M37.375 42.75H39.25V44.625H37.375V42.75ZM39.25 44.625H41.125V46.5H39.25V44.625Z" fill="black"/>
<path fill-rule="evenodd" clip-rule="evenodd" d="M35.5 37.125V40.875H33.625V37.125H35.5ZM35.5 40.875H37.375V42.75H35.5V40.875Z" fill="black"/>
<path d="M37.375 35.25V37.125H35.5V35.25H37.375Z" fill="black"/>
<path d="M37.375 35.25H39.25V29.625H37.375V35.25Z" fill="black"/>
<path d="M41.125 29.625V31.5H46.75V33.375H48.625V35.25H50.5V40.875H52.375V35.25H50.5V33.375H48.625V31.5H46.75V29.625H41.125Z" fill="black"/>
<path d="M29.875 29.625H37.375V35.25H35.5V37.125H33.625V40.875H35.5V42.75H37.375V44.625H39.25V46.5H41.125V48.375H44.875V46.5H46.75V44.625H52.375V52.125H41.125V50.25H37.375V48.375H35.5V46.5H33.625V44.625H31.75V40.875H29.875V29.625Z" fill="white"/>
</svg>
