<svg width="30" height="24" viewBox="0 0 30 24" fill="none" xmlns="http://www.w3.org/2000/svg">
<path d="M2.14286 19.2857H4.28571V21.4286H2.14286V19.2857Z" fill="white"/>
<path d="M25.7143 19.2857H27.8571V21.4286H25.7143V19.2857Z" fill="white"/>
<path d="M21.4286 8.57143H23.5714V10.7143H21.4286V8.57143Z" fill="white"/>
<path d="M19.2857 10.7143H21.4286V12.8571H19.2857V10.7143Z" fill="white"/>
<path d="M23.5714 6.42857H25.7143V8.57143H23.5714V6.42857Z" fill="white"/>
<path d="M4.28571 6.42857H6.42857V8.57143H4.28571V6.42857Z" fill="white"/>
<path d="M6.42857 8.57143H8.57143V10.7143H6.42857V8.57143Z" fill="white"/>
<path d="M8.57143 10.7143H10.7143V12.8571H8.57143V10.7143Z" fill="white"/>
<path d="M27.8571 19.2857H30V4.28571H27.8571V2.14286H25.7143V6.42857H27.8571V19.2857Z" fill="white"/>
<path d="M19.2857 15V12.8571H10.7143V15H19.2857Z" fill="white"/>
<path d="M2.14286 4.28571H0V19.2857H2.14286V6.42857H4.28571V2.14286H2.14286V4.28571Z" fill="white"/>
<path d="M4.28571 0V2.14286H25.7143V0H4.28571Z" fill="white"/>
<path d="M4.28571 21.4286V23.5714H25.7143V21.4286H4.28571Z" fill="white"/>
</svg>
