<svg width="80" height="80" viewBox="0 0 80 80" fill="none" xmlns="http://www.w3.org/2000/svg">
<rect x="0.666667" y="0.666667" width="78.6667" height="78.6667" fill="black" stroke="white" stroke-width="1.33333"/>
<path d="M8.90083 68.333V58.5997H12.0342C13.0208 58.5997 13.8075 58.8263 14.3942 59.2797C14.9808 59.7241 15.2742 60.3286 15.2742 61.093C15.2742 61.5197 15.1719 61.893 14.9675 62.213C14.7719 62.533 14.5053 62.7819 14.1675 62.9597C13.8386 63.1375 13.4786 63.2263 13.0875 63.2263V63.2663C13.5231 63.2575 13.9186 63.3375 14.2742 63.5063C14.6386 63.6752 14.9319 63.9286 15.1542 64.2663C15.3764 64.6041 15.4875 65.0219 15.4875 65.5197C15.4875 66.0886 15.3497 66.5863 15.0742 67.013C14.8075 67.4308 14.4253 67.7552 13.9275 67.9863C13.4297 68.2175 12.8386 68.333 12.1542 68.333H8.90083ZM10.8342 66.7197H12.0742C12.5097 66.7197 12.8519 66.6041 13.1008 66.373C13.3497 66.1419 13.4742 65.8219 13.4742 65.413C13.4742 65.0041 13.3497 64.6841 13.1008 64.453C12.8519 64.213 12.5097 64.093 12.0742 64.093H10.8342V66.7197ZM10.8342 62.5197H12.0075C12.3986 62.5197 12.7053 62.4175 12.9275 62.213C13.1497 61.9997 13.2608 61.7152 13.2608 61.3597C13.2608 60.9952 13.1497 60.7152 12.9275 60.5197C12.7053 60.3152 12.3986 60.213 12.0075 60.213H10.8342V62.5197ZM20.0156 68.4663C19.029 68.4663 18.2467 68.1997 17.669 67.6663C17.1001 67.133 16.8156 66.4041 16.8156 65.4797V58.5997H18.8156V65.4663C18.8156 65.8752 18.9178 66.1908 19.1223 66.413C19.3356 66.6263 19.6334 66.733 20.0156 66.733C20.389 66.733 20.6823 66.6263 20.8956 66.413C21.109 66.1908 21.2156 65.8752 21.2156 65.4663V58.5997H23.2156V65.4797C23.2156 66.3952 22.9267 67.1241 22.349 67.6663C21.7801 68.1997 21.0023 68.4663 20.0156 68.4663ZM27.0104 68.333V64.8663L24.2104 58.5997H26.3037L27.5304 61.533C27.6549 61.8263 27.7615 62.1375 27.8504 62.4663C27.9482 62.7952 28.0149 63.0619 28.0504 63.2663C28.0949 63.0619 28.1571 62.7952 28.2371 62.4663C28.326 62.1375 28.4282 61.8263 28.5437 61.533L29.7304 58.5997H31.8104L29.0104 64.8663V68.333H27.0104ZM40.56 68.333V58.5997H42.8133L43.7067 61.6663C43.8044 61.9863 43.8756 62.2663 43.92 62.5063C43.9733 62.7463 44.0044 62.9152 44.0133 63.013C44.0222 62.9152 44.0489 62.7463 44.0933 62.5063C44.1467 62.2663 44.2178 61.9863 44.3067 61.6663L45.1867 58.5997H47.44V68.333H45.6133V65.6663C45.6133 65.1775 45.6222 64.6663 45.64 64.133C45.6667 63.5908 45.6978 63.053 45.7333 62.5197C45.7689 61.9863 45.8089 61.4886 45.8533 61.0263C45.8978 60.5552 45.9378 60.1463 45.9733 59.7997L44.8533 64.1997H43.16L41.9867 59.7997C42.0311 60.1286 42.0756 60.5241 42.12 60.9863C42.1644 61.4397 42.2044 61.933 42.24 62.4663C42.2844 62.9908 42.32 63.5286 42.3467 64.0797C42.3733 64.6308 42.3867 65.1597 42.3867 65.6663V68.333H40.56ZM49.0615 68.333V66.5997H50.9948V60.333H49.0615V58.5997H54.9281V60.333H52.9948V66.5997H54.9281V68.333H49.0615ZM56.7896 68.333V58.5997H59.1229L61.6429 66.133C61.6162 65.8041 61.5851 65.4263 61.5496 64.9997C61.514 64.5641 61.4829 64.133 61.4562 63.7063C61.4385 63.2708 61.4296 62.9019 61.4296 62.5997V58.5997H63.1896V68.333H60.8562L58.3629 60.7997C58.3896 61.0841 58.4162 61.4219 58.4429 61.813C58.4696 62.2041 58.4918 62.5997 58.5096 62.9997C58.5362 63.3997 58.5496 63.7552 58.5496 64.0663V68.333H56.7896ZM67.9844 68.4663C67.2999 68.4663 66.7044 68.3508 66.1977 68.1197C65.691 67.8886 65.2999 67.5641 65.0244 67.1463C64.7488 66.7286 64.611 66.2352 64.611 65.6663H66.611C66.611 65.9952 66.7355 66.2575 66.9844 66.453C67.2422 66.6397 67.5888 66.733 68.0244 66.733C68.4422 66.733 68.7666 66.6397 68.9977 66.453C69.2377 66.2663 69.3577 66.0086 69.3577 65.6797C69.3577 65.3952 69.2688 65.1508 69.091 64.9463C68.9133 64.7419 68.6644 64.6041 68.3444 64.533L67.3577 64.3063C66.531 64.1108 65.8866 63.7508 65.4244 63.2263C64.971 62.693 64.7444 62.0441 64.7444 61.2797C64.7444 60.7108 64.8733 60.2175 65.131 59.7997C65.3977 59.373 65.771 59.0441 66.251 58.813C66.731 58.5819 67.2999 58.4663 67.9577 58.4663C68.9533 58.4663 69.7399 58.7152 70.3177 59.213C70.9044 59.7019 71.1977 60.3641 71.1977 61.1997H69.1977C69.1977 60.8886 69.0866 60.6441 68.8644 60.4663C68.651 60.2886 68.3399 60.1997 67.931 60.1997C67.5488 60.1997 67.2555 60.2886 67.051 60.4663C66.8466 60.6352 66.7444 60.8797 66.7444 61.1997C66.7444 61.4841 66.8244 61.7286 66.9844 61.933C67.1533 62.1286 67.3888 62.2619 67.691 62.333L68.731 62.573C69.5933 62.7686 70.2466 63.1241 70.691 63.6397C71.1355 64.1463 71.3577 64.7952 71.3577 65.5863C71.3577 66.1552 71.2155 66.6575 70.931 67.093C70.6555 67.5286 70.2644 67.8663 69.7577 68.1063C69.2599 68.3463 68.6688 68.4663 67.9844 68.4663Z" fill="white"/>
<path d="M33.689 14.6465H46.064V16.709H50.189V18.7715H52.2515V22.8965H54.314V35.2715H52.2515V39.3965H50.189V41.459H46.064V43.5215H33.689V41.459H29.564V39.3965H27.5015V35.2715H25.439V22.8965H27.5015V18.7715H29.564V16.709H33.689V14.6465Z" fill="black"/>
<path d="M46.0645 12.583V14.6455H33.6895V12.583H46.0645Z" fill="white"/>
<path d="M29.5645 16.708V14.6455H33.6895V16.708H29.5645Z" fill="white"/>
<path d="M27.502 18.7705V16.708H29.5645V18.7705H27.502Z" fill="white"/>
<path d="M25.4395 22.8955V18.7705H27.502V22.8955H25.4395Z" fill="white"/>
<path d="M25.4395 35.2705H23.377V22.8955H25.4395V35.2705Z" fill="white"/>
<path d="M27.502 39.3955H25.4395V35.2705H27.502V39.3955Z" fill="white"/>
<path d="M29.5645 41.458H27.502V39.3955H29.5645V41.458Z" fill="white"/>
<path d="M33.6895 43.5205H29.5645V41.458H33.6895V43.5205Z" fill="white"/>
<path d="M46.0645 43.5205V45.583H33.6895V43.5205H46.0645Z" fill="white"/>
<path d="M50.1895 41.458V43.5205H46.0645V41.458H50.1895Z" fill="white"/>
<path d="M52.252 39.3955V41.458H50.1895V39.3955H52.252Z" fill="white"/>
<path d="M54.3145 35.2705V39.3955H52.252V35.2705H54.3145Z" fill="white"/>
<path d="M54.3145 22.8955H56.377V35.2705H54.3145V22.8955Z" fill="white"/>
<path d="M52.252 18.7705H54.3145V22.8955H52.252V18.7705Z" fill="white"/>
<path d="M50.1895 16.708H52.252V18.7705H50.1895V16.708Z" fill="white"/>
<path d="M50.1895 16.708V14.6455H46.0645V16.708H50.1895Z" fill="white"/>
<path d="M33.6895 35.2705H35.752V37.333H37.8145V39.3955H39.877V37.333H44.002V35.2705H46.0645V31.1455H44.002V29.083H39.877V27.0205H35.752V22.8955H44.002V24.958H46.0645V22.8955H44.002V20.833H41.9395V18.7705H39.877V20.833H35.752V22.8955H33.6895V27.0205H35.752V29.083H39.877V31.1455H44.002V35.2705H35.752V33.208H33.6895V35.2705Z" fill="white"/>
</svg>
