<svg width="40" height="40" viewBox="0 0 40 40" fill="none" xmlns="http://www.w3.org/2000/svg">
<rect width="40" height="40" fill="#D7DF23"/>
<path d="M26.978 7.19751H13.7912V9.39532H9.39556V13.7909H7.19775V26.9778H9.39556V31.3734H13.7912V33.5712H26.978V31.3734H31.3737V26.9778H33.5715V13.7909H31.3737V9.39532H26.978V7.19751Z" fill="white"/>
<path d="M13.7912 24.7803H15.9891V26.9781H13.7912V24.7803Z" fill="black"/>
<path d="M26.9781 24.7803H24.7803V26.9781H26.9781V24.7803Z" fill="black"/>
<path d="M13.7912 13.7912H15.9891V15.9891H13.7912V13.7912Z" fill="black"/>
<path d="M26.9781 13.7912H24.7803V15.9891H26.9781V13.7912Z" fill="black"/>
<path d="M15.9891 15.9891H18.1869V18.1869H15.9891V15.9891Z" fill="black"/>
<path d="M24.7803 15.9891H22.5825V18.1869H24.7803V15.9891Z" fill="black"/>
<path d="M11.5934 15.9891H13.7912V18.1869H11.5934V15.9891Z" fill="black"/>
<path d="M29.1759 15.9891H26.9781V18.1869H29.1759V15.9891Z" fill="black"/>
<path d="M13.7912 33.5715V35.7693H26.9781V33.5715H13.7912Z" fill="black"/>
<path d="M24.7803 29.1759V26.9781H15.9891V29.1759H24.7803Z" fill="black"/>
<path d="M9.39562 31.3737V33.5715H13.7912V31.3737H9.39562Z" fill="black"/>
<path d="M9.39562 26.9781H7.19781V31.3737H9.39562V26.9781Z" fill="black"/>
<path d="M5 26.9781H7.19781V13.7912H5V26.9781Z" fill="black"/>
<path d="M7.19781 13.7912H9.39562V9.39562H7.19781V13.7912Z" fill="black"/>
<path d="M9.39562 7.19781V9.39562H13.7912V7.19781H9.39562Z" fill="black"/>
<path d="M13.7912 5V7.19781H26.9781V5H13.7912Z" fill="black"/>
<path d="M31.3737 9.39562V7.19781H26.9781V9.39562H31.3737Z" fill="black"/>
<path d="M31.3737 13.7912H33.5715V9.39562H31.3737V13.7912Z" fill="black"/>
<path d="M33.5715 26.9781H35.7693V13.7912H33.5715V26.9781Z" fill="black"/>
<path d="M33.5715 26.9781H31.3737V31.3737H33.5715V26.9781Z" fill="black"/>
<path d="M31.3737 33.5715V31.3737H26.9781V33.5715H31.3737Z" fill="black"/>
</svg>
