<svg width="218" height="680" viewBox="0 0 218 680" fill="none" xmlns="http://www.w3.org/2000/svg">
<rect width="218" height="680" fill="#EFEFEF"/>
<g clip-path="url(#clip0_3_4)">
<rect width="1823" height="4036" transform="translate(-1605 -167)" fill="#181A20"/>
<rect x="-1605" y="-167" width="1823" height="1044" fill="black"/>
<g clip-path="url(#clip1_3_4)">
<g opacity="0.2">
<path d="M64.5663 672.932C65.88 672.932 66.945 673.994 66.945 675.305C66.945 676.615 65.88 677.678 64.5663 677.678C63.2525 677.678 62.1875 676.615 62.1875 675.305C62.1875 673.994 63.2525 672.932 64.5663 672.932Z" fill="#F7F7F7"/>
<path d="M71.7108 652.251C73.2122 652.251 74.4294 653.465 74.4294 654.963C74.4294 656.461 73.2122 657.675 71.7108 657.675C70.2093 657.675 68.9922 656.461 68.9922 654.963C68.9922 653.465 70.2093 652.251 71.7108 652.251Z" fill="#F7F7F7"/>
<path d="M78.8514 632.59C79.9775 632.59 80.8904 633.501 80.8904 634.624C80.8904 635.748 79.9775 636.658 78.8514 636.658C77.7254 636.658 76.8125 635.748 76.8125 634.624C76.8125 633.501 77.7254 632.59 78.8514 632.59Z" fill="#F7F7F7"/>
<path d="M84.9568 672.253C86.6459 672.253 88.0152 673.619 88.0152 675.304C88.0152 676.989 86.6459 678.355 84.9568 678.355C83.2677 678.355 81.8984 676.989 81.8984 675.304C81.8984 673.619 83.2677 672.253 84.9568 672.253Z" fill="#F7F7F7"/>
<path d="M92.0936 652.929C93.2197 652.929 94.1325 653.84 94.1325 654.963C94.1325 656.086 93.2197 656.997 92.0936 656.997C90.9675 656.997 90.0547 656.086 90.0547 654.963C90.0547 653.84 90.9675 652.929 92.0936 652.929Z" fill="#F7F7F7"/>
<path d="M99.2382 632.929C100.177 632.929 100.937 633.688 100.937 634.624C100.937 635.56 100.177 636.319 99.2382 636.319C98.2998 636.319 97.5391 635.56 97.5391 634.624C97.5391 633.688 98.2998 632.929 99.2382 632.929Z" fill="#F7F7F7"/>
<path d="M105.348 672.932C106.661 672.932 107.726 673.994 107.726 675.305C107.726 676.615 106.661 677.678 105.348 677.678C104.034 677.678 102.969 676.615 102.969 675.305C102.969 673.994 104.034 672.932 105.348 672.932Z" fill="#F7F7F7"/>
<path d="M112.488 652.59C113.802 652.59 114.867 653.652 114.867 654.963C114.867 656.273 113.802 657.336 112.488 657.336C111.174 657.336 110.109 656.273 110.109 654.963C110.109 653.652 111.174 652.59 112.488 652.59Z" fill="#F7F7F7"/>
<path d="M119.625 631.912C121.126 631.912 122.343 633.126 122.343 634.624C122.343 636.122 121.126 637.336 119.625 637.336C118.123 637.336 116.906 636.122 116.906 634.624C116.906 633.126 118.123 631.912 119.625 631.912Z" fill="#F7F7F7"/>
<path d="M125.738 672.253C127.427 672.253 128.796 673.619 128.796 675.304C128.796 676.989 127.427 678.355 125.738 678.355C124.049 678.355 122.68 676.989 122.68 675.304C122.68 673.619 124.049 672.253 125.738 672.253Z" fill="#F7F7F7"/>
<path d="M132.879 653.269C133.817 653.269 134.578 654.028 134.578 654.964C134.578 655.9 133.817 656.659 132.879 656.659C131.94 656.659 131.18 655.9 131.18 654.964C131.18 654.028 131.94 653.269 132.879 653.269Z" fill="#F7F7F7"/>
<path d="M140.015 631.912C141.517 631.912 142.734 633.126 142.734 634.624C142.734 636.122 141.517 637.336 140.015 637.336C138.514 637.336 137.297 636.122 137.297 634.624C137.297 633.126 138.514 631.912 140.015 631.912Z" fill="#F7F7F7"/>
<path d="M125.738 611.231C127.427 611.231 128.796 612.597 128.796 614.282C128.796 615.967 127.427 617.333 125.738 617.333C124.049 617.333 122.68 615.967 122.68 614.282C122.68 612.597 124.049 611.231 125.738 611.231Z" fill="#F7F7F7"/>
<path d="M132.875 591.908C134.001 591.908 134.914 592.819 134.914 593.942C134.914 595.065 134.001 595.976 132.875 595.976C131.749 595.976 130.836 595.065 130.836 593.942C130.836 592.819 131.749 591.908 132.875 591.908Z" fill="#F7F7F7"/>
<path d="M146.125 671.915C148.002 671.915 149.523 673.432 149.523 675.305C149.523 677.177 148.002 678.695 146.125 678.695C144.248 678.695 142.727 677.177 142.727 675.305C142.727 673.432 144.248 671.915 146.125 671.915Z" fill="#F7F7F7"/>
<path d="M153.262 652.59C154.575 652.59 155.64 653.652 155.64 654.963C155.64 656.273 154.575 657.336 153.262 657.336C151.948 657.336 150.883 656.273 150.883 654.963C150.883 653.652 151.948 652.59 153.262 652.59Z" fill="#F7F7F7"/>
<path d="M160.402 631.571C162.091 631.571 163.461 632.937 163.461 634.622C163.461 636.307 162.091 637.673 160.402 637.673C158.713 637.673 157.344 636.307 157.344 634.622C157.344 632.937 158.713 631.571 160.402 631.571Z" fill="#F7F7F7"/>
<path d="M146.121 611.909C147.435 611.909 148.5 612.972 148.5 614.282C148.5 615.593 147.435 616.655 146.121 616.655C144.807 616.655 143.742 615.593 143.742 614.282C143.742 612.972 144.807 611.909 146.121 611.909Z" fill="#F7F7F7"/>
<path d="M153.265 591.23C154.767 591.23 155.984 592.444 155.984 593.942C155.984 595.44 154.767 596.654 153.265 596.654C151.764 596.654 150.547 595.44 150.547 593.942C150.547 592.444 151.764 591.23 153.265 591.23Z" fill="#F7F7F7"/>
<path d="M166.512 672.932C167.825 672.932 168.89 673.994 168.89 675.305C168.89 676.615 167.825 677.678 166.512 677.678C165.198 677.678 164.133 676.615 164.133 675.305C164.133 673.994 165.198 672.932 166.512 672.932Z" fill="#F7F7F7"/>
<path d="M173.656 650.896C175.908 650.896 177.734 652.717 177.734 654.964C177.734 657.211 175.908 659.032 173.656 659.032C171.404 659.032 169.578 657.211 169.578 654.964C169.578 652.717 171.404 650.896 173.656 650.896Z" fill="#F7F7F7"/>
<path d="M180.797 632.59C181.923 632.59 182.836 633.501 182.836 634.624C182.836 635.748 181.923 636.658 180.797 636.658C179.671 636.658 178.758 635.748 178.758 634.624C178.758 633.501 179.671 632.59 180.797 632.59Z" fill="#F7F7F7"/>
<path d="M166.512 612.587C167.45 612.587 168.211 613.346 168.211 614.282C168.211 615.218 167.45 615.977 166.512 615.977C165.573 615.977 164.812 615.218 164.812 614.282C164.812 613.346 165.573 612.587 166.512 612.587Z" fill="#F7F7F7"/>
<path d="M173.652 590.213C175.717 590.213 177.39 591.882 177.39 593.942C177.39 596.001 175.717 597.671 173.652 597.671C171.588 597.671 169.914 596.001 169.914 593.942C169.914 591.882 171.588 590.213 173.652 590.213Z" fill="#F7F7F7"/>
<path d="M186.902 673.609C187.841 673.609 188.601 674.368 188.601 675.304C188.601 676.241 187.841 677 186.902 677C185.964 677 185.203 676.241 185.203 675.304C185.203 674.368 185.964 673.609 186.902 673.609Z" fill="#F7F7F7"/>
<path d="M194.043 652.59C195.357 652.59 196.422 653.652 196.422 654.963C196.422 656.273 195.357 657.336 194.043 657.336C192.729 657.336 191.664 656.273 191.664 654.963C191.664 653.652 192.729 652.59 194.043 652.59Z" fill="#F7F7F7"/>
<path d="M201.183 632.929C202.122 632.929 202.883 633.688 202.883 634.624C202.883 635.56 202.122 636.319 201.183 636.319C200.245 636.319 199.484 635.56 199.484 634.624C199.484 633.688 200.245 632.929 201.183 632.929Z" fill="#F7F7F7"/>
<path d="M186.898 612.248C188.024 612.248 188.937 613.159 188.937 614.282C188.937 615.406 188.024 616.316 186.898 616.316C185.772 616.316 184.859 615.406 184.859 614.282C184.859 613.159 185.772 612.248 186.898 612.248Z" fill="#F7F7F7"/>
<path d="M194.043 590.891C195.732 590.891 197.101 592.257 197.101 593.942C197.101 595.627 195.732 596.993 194.043 596.993C192.354 596.993 190.984 595.627 190.984 593.942C190.984 592.257 192.354 590.891 194.043 590.891Z" fill="#F7F7F7"/>
<path d="M214.43 596.654C212.928 596.654 211.711 595.44 211.711 593.942C211.711 592.444 212.928 591.23 214.43 591.23C215.931 591.23 217.148 592.444 217.148 593.942C217.148 595.44 215.931 596.654 214.43 596.654Z" fill="#F7F7F7"/>
<path d="M207.293 615.977C206.355 615.977 205.594 615.218 205.594 614.282C205.594 613.346 206.355 612.587 207.293 612.587C208.231 612.587 208.992 613.346 208.992 614.282C208.992 615.218 208.231 615.977 207.293 615.977Z" fill="#F7F7F7"/>
<path d="M214.434 656.658C213.495 656.658 212.735 655.899 212.735 654.963C212.735 654.026 213.495 653.268 214.434 653.268C215.372 653.268 216.133 654.026 216.133 654.963C216.133 655.899 215.372 656.658 214.434 656.658Z" fill="#F7F7F7"/>
<path d="M207.289 677.337C206.163 677.337 205.25 676.426 205.25 675.303C205.25 674.18 206.163 673.269 207.289 673.269C208.415 673.269 209.328 674.18 209.328 675.303C209.328 676.426 208.415 677.337 207.289 677.337Z" fill="#F7F7F7"/>
<path d="M214.434 46.4443C213.495 46.4443 212.735 45.6854 212.735 44.7492C212.735 43.8131 213.495 43.0542 214.434 43.0542C215.372 43.0542 216.133 43.8131 216.133 44.7492C216.133 45.6854 215.372 46.4443 214.434 46.4443Z" fill="#F7F7F7"/>
<path d="M207.289 67.1237C206.163 67.1237 205.25 66.2131 205.25 65.0897C205.25 63.9663 206.163 63.0557 207.289 63.0557C208.415 63.0557 209.328 63.9663 209.328 65.0897C209.328 66.2131 208.415 67.1237 207.289 67.1237Z" fill="#F7F7F7"/>
<path d="M214.434 108.144C213.12 108.144 212.055 107.081 212.055 105.771C212.055 104.46 213.12 103.397 214.434 103.397C215.747 103.397 216.812 104.46 216.812 105.771C216.812 107.081 215.747 108.144 214.434 108.144Z" fill="#F7F7F7"/>
<path d="M207.289 130.18C205.037 130.18 203.211 128.359 203.211 126.112C203.211 123.865 205.037 122.044 207.289 122.044C209.541 122.044 211.367 123.865 211.367 126.112C211.367 128.359 209.541 130.18 207.289 130.18Z" fill="#F7F7F7"/>
<path d="M17.6795 82.7184C19.181 82.7184 20.3981 83.9327 20.3981 85.4305C20.3981 86.9283 19.181 88.1426 17.6795 88.1426C16.1781 88.1426 14.9609 86.9283 14.9609 85.4305C14.9609 83.9327 16.1781 82.7184 17.6795 82.7184Z" fill="#F7F7F7"/>
<path d="M3.40215 62.0385C5.09126 62.0385 6.46055 63.4045 6.46055 65.0896C6.46055 66.7746 5.09126 68.1406 3.40215 68.1406C1.71304 68.1406 0.34375 66.7746 0.34375 65.0896C0.34375 63.4045 1.71304 62.0385 3.40215 62.0385Z" fill="#F7F7F7"/>
<path d="M30.9257 104.076C31.8641 104.076 32.6248 104.835 32.6248 105.771C32.6248 106.707 31.8641 107.466 30.9257 107.466C29.9873 107.466 29.2266 106.707 29.2266 105.771C29.2266 104.835 29.9873 104.076 30.9257 104.076Z" fill="#F7F7F7"/>
<path d="M38.0701 82.7184C39.5716 82.7184 40.7887 83.9327 40.7887 85.4305C40.7887 86.9283 39.5716 88.1426 38.0701 88.1426C36.5687 88.1426 35.3516 86.9283 35.3516 85.4305C35.3516 83.9327 36.5687 82.7184 38.0701 82.7184Z" fill="#F7F7F7"/>
<path d="M23.785 63.3956C24.7234 63.3956 25.4842 64.1545 25.4842 65.0906C25.4842 66.0268 24.7234 66.7856 23.785 66.7856C22.8467 66.7856 22.0859 66.0268 22.0859 65.0906C22.0859 64.1545 22.8467 63.3956 23.785 63.3956Z" fill="#F7F7F7"/>
<path d="M51.3162 102.72C53.0053 102.72 54.3746 104.086 54.3746 105.771C54.3746 107.456 53.0053 108.822 51.3162 108.822C49.6271 108.822 48.2578 107.456 48.2578 105.771C48.2578 104.086 49.6271 102.72 51.3162 102.72Z" fill="#F7F7F7"/>
<path d="M58.4569 83.7344C59.3953 83.7344 60.156 84.4933 60.156 85.4295C60.156 86.3656 59.3953 87.1245 58.4569 87.1245C57.5185 87.1245 56.7578 86.3656 56.7578 85.4295C56.7578 84.4933 57.5185 83.7344 58.4569 83.7344Z" fill="#F7F7F7"/>
<path d="M44.1756 62.7163C45.4894 62.7163 46.5544 63.7787 46.5544 65.0893C46.5544 66.3999 45.4894 67.4624 44.1756 67.4624C42.8619 67.4624 41.7969 66.3999 41.7969 65.0893C41.7969 63.7787 42.8619 62.7163 44.1756 62.7163Z" fill="#F7F7F7"/>
<path d="M64.5663 123.739C65.88 123.739 66.945 124.801 66.945 126.112C66.945 127.422 65.88 128.485 64.5663 128.485C63.2525 128.485 62.1875 127.422 62.1875 126.112C62.1875 124.801 63.2525 123.739 64.5663 123.739Z" fill="#F7F7F7"/>
<path d="M71.7069 103.398C73.0206 103.398 74.0857 104.46 74.0857 105.771C74.0857 107.082 73.0206 108.144 71.7069 108.144C70.3931 108.144 69.3281 107.082 69.3281 105.771C69.3281 104.46 70.3931 103.398 71.7069 103.398Z" fill="#F7F7F7"/>
<path d="M78.8513 81.3623C81.1035 81.3623 82.9292 83.1837 82.9292 85.4304C82.9292 87.6772 81.1035 89.4985 78.8513 89.4985C76.5992 89.4985 74.7734 87.6772 74.7734 85.4304C74.7734 83.1837 76.5992 81.3623 78.8513 81.3623Z" fill="#F7F7F7"/>
<path d="M64.5663 62.7163C65.88 62.7163 66.945 63.7787 66.945 65.0893C66.945 66.3999 65.88 67.4624 64.5663 67.4624C63.2525 67.4624 62.1875 66.3999 62.1875 65.0893C62.1875 63.7787 63.2525 62.7163 64.5663 62.7163Z" fill="#F7F7F7"/>
<path d="M84.9569 124.417C85.8953 124.417 86.656 125.175 86.656 126.112C86.656 127.048 85.8953 127.807 84.9569 127.807C84.0185 127.807 83.2578 127.048 83.2578 126.112C83.2578 125.175 84.0185 124.417 84.9569 124.417Z" fill="#F7F7F7"/>
<path d="M92.0975 102.72C93.7866 102.72 95.1559 104.086 95.1559 105.771C95.1559 107.456 93.7866 108.822 92.0975 108.822C90.4084 108.822 89.0391 107.456 89.0391 105.771C89.0391 104.086 90.4084 102.72 92.0975 102.72Z" fill="#F7F7F7"/>
<path d="M99.2342 82.7184C100.736 82.7184 101.953 83.9327 101.953 85.4305C101.953 86.9283 100.736 88.1426 99.2342 88.1426C97.7328 88.1426 96.5156 86.9283 96.5156 85.4305C96.5156 83.9327 97.7328 82.7184 99.2342 82.7184Z" fill="#F7F7F7"/>
<path d="M84.9568 62.0385C86.6459 62.0385 88.0152 63.4045 88.0152 65.0896C88.0152 66.7746 86.6459 68.1406 84.9568 68.1406C83.2677 68.1406 81.8984 66.7746 81.8984 65.0896C81.8984 63.4045 83.2677 62.0385 84.9568 62.0385Z" fill="#F7F7F7"/>
<path d="M105.348 123.739C106.661 123.739 107.726 124.801 107.726 126.112C107.726 127.422 106.661 128.485 105.348 128.485C104.034 128.485 102.969 127.422 102.969 126.112C102.969 124.801 104.034 123.739 105.348 123.739Z" fill="#F7F7F7"/>
<path d="M112.488 102.72C114.177 102.72 115.546 104.086 115.546 105.771C115.546 107.456 114.177 108.822 112.488 108.822C110.799 108.822 109.43 107.456 109.43 105.771C109.43 104.086 110.799 102.72 112.488 102.72Z" fill="#F7F7F7"/>
<path d="M119.625 82.0406C121.502 82.0406 123.023 83.5584 123.023 85.4307C123.023 87.303 121.502 88.8208 119.625 88.8208C117.748 88.8208 116.227 87.303 116.227 85.4307C116.227 83.5584 117.748 82.0406 119.625 82.0406Z" fill="#F7F7F7"/>
<path d="M105.348 62.7163C106.661 62.7163 107.726 63.7787 107.726 65.0893C107.726 66.3999 106.661 67.4624 105.348 67.4624C104.034 67.4624 102.969 66.3999 102.969 65.0893C102.969 63.7787 104.034 62.7163 105.348 62.7163Z" fill="#F7F7F7"/>
<path d="M125.73 123.739C127.044 123.739 128.109 124.801 128.109 126.112C128.109 127.422 127.044 128.485 125.73 128.485C124.417 128.485 123.352 127.422 123.352 126.112C123.352 124.801 124.417 123.739 125.73 123.739Z" fill="#F7F7F7"/>
<path d="M132.875 103.737C134.001 103.737 134.914 104.648 134.914 105.771C134.914 106.895 134.001 107.805 132.875 107.805C131.749 107.805 130.836 106.895 130.836 105.771C130.836 104.648 131.749 103.737 132.875 103.737Z" fill="#F7F7F7"/>
<path d="M140.015 83.3963C141.142 83.3963 142.054 84.3069 142.054 85.4303C142.054 86.5537 141.142 87.4644 140.015 87.4644C138.889 87.4644 137.977 86.5537 137.977 85.4303C137.977 84.3069 138.889 83.3963 140.015 83.3963Z" fill="#F7F7F7"/>
<path d="M125.738 62.0385C127.427 62.0385 128.796 63.4045 128.796 65.0896C128.796 66.7746 127.427 68.1406 125.738 68.1406C124.049 68.1406 122.68 66.7746 122.68 65.0896C122.68 63.4045 124.049 62.0385 125.738 62.0385Z" fill="#F7F7F7"/>
<path d="M146.125 122.043C148.377 122.043 150.203 123.864 150.203 126.111C150.203 128.358 148.377 130.179 146.125 130.179C143.873 130.179 142.047 128.358 142.047 126.111C142.047 123.864 143.873 122.043 146.125 122.043Z" fill="#F7F7F7"/>
<path d="M153.262 103.398C154.575 103.398 155.64 104.46 155.64 105.771C155.64 107.082 154.575 108.144 153.262 108.144C151.948 108.144 150.883 107.082 150.883 105.771C150.883 104.46 151.948 103.398 153.262 103.398Z" fill="#F7F7F7"/>
<path d="M160.402 83.0571C161.716 83.0571 162.781 84.1196 162.781 85.4302C162.781 86.7408 161.716 87.8032 160.402 87.8032C159.088 87.8032 158.023 86.7408 158.023 85.4302C158.023 84.1196 159.088 83.0571 160.402 83.0571Z" fill="#F7F7F7"/>
<path d="M146.125 61.7003C148.002 61.7003 149.523 63.2181 149.523 65.0904C149.523 66.9627 148.002 68.4805 146.125 68.4805C144.248 68.4805 142.727 66.9627 142.727 65.0904C142.727 63.2181 144.248 61.7003 146.125 61.7003Z" fill="#F7F7F7"/>
<path d="M153.262 42.3764C154.575 42.3764 155.64 43.4389 155.64 44.7495C155.64 46.0601 154.575 47.1226 153.262 47.1226C151.948 47.1226 150.883 46.0601 150.883 44.7495C150.883 43.4389 151.948 42.3764 153.262 42.3764Z" fill="#F7F7F7"/>
<path d="M166.512 123.061C168.201 123.061 169.57 124.427 169.57 126.112C169.57 127.797 168.201 129.163 166.512 129.163C164.822 129.163 163.453 127.797 163.453 126.112C163.453 124.427 164.822 123.061 166.512 123.061Z" fill="#F7F7F7"/>
<path d="M173.652 103.398C174.966 103.398 176.031 104.46 176.031 105.771C176.031 107.082 174.966 108.144 173.652 108.144C172.338 108.144 171.273 107.082 171.273 105.771C171.273 104.46 172.338 103.398 173.652 103.398Z" fill="#F7F7F7"/>
<path d="M180.797 82.0406C182.673 82.0406 184.195 83.5584 184.195 85.4307C184.195 87.303 182.673 88.8208 180.797 88.8208C178.92 88.8208 177.398 87.303 177.398 85.4307C177.398 83.5584 178.92 82.0406 180.797 82.0406Z" fill="#F7F7F7"/>
<path d="M166.512 62.7163C167.825 62.7163 168.89 63.7787 168.89 65.0893C168.89 66.3999 167.825 67.4624 166.512 67.4624C165.198 67.4624 164.133 66.3999 164.133 65.0893C164.133 63.7787 165.198 62.7163 166.512 62.7163Z" fill="#F7F7F7"/>
<path d="M173.656 40.6817C175.908 40.6817 177.734 42.503 177.734 44.7498C177.734 46.9965 175.908 48.8179 173.656 48.8179C171.404 48.8179 169.578 46.9965 169.578 44.7498C169.578 42.503 171.404 40.6817 173.656 40.6817Z" fill="#F7F7F7"/>
<path d="M186.902 124.417C187.841 124.417 188.601 125.175 188.601 126.112C188.601 127.048 187.841 127.807 186.902 127.807C185.964 127.807 185.203 127.048 185.203 126.112C185.203 125.175 185.964 124.417 186.902 124.417Z" fill="#F7F7F7"/>
<path d="M194.047 103.737C195.173 103.737 196.086 104.648 196.086 105.771C196.086 106.895 195.173 107.805 194.047 107.805C192.921 107.805 192.008 106.895 192.008 105.771C192.008 104.648 192.921 103.737 194.047 103.737Z" fill="#F7F7F7"/>
<path d="M201.18 82.7184C202.681 82.7184 203.898 83.9327 203.898 85.4305C203.898 86.9283 202.681 88.1426 201.18 88.1426C199.678 88.1426 198.461 86.9283 198.461 85.4305C198.461 83.9327 199.678 82.7184 201.18 82.7184Z" fill="#F7F7F7"/>
<path d="M186.902 63.3956C187.841 63.3956 188.601 64.1545 188.601 65.0906C188.601 66.0268 187.841 66.7856 186.902 66.7856C185.964 66.7856 185.203 66.0268 185.203 65.0906C185.203 64.1545 185.964 63.3956 186.902 63.3956Z" fill="#F7F7F7"/>
<path d="M194.043 42.3764C195.357 42.3764 196.422 43.4389 196.422 44.7495C196.422 46.0601 195.357 47.1226 194.043 47.1226C192.729 47.1226 191.664 46.0601 191.664 44.7495C191.664 43.4389 192.729 42.3764 194.043 42.3764Z" fill="#F7F7F7"/>
<path d="M17.6834 265.445C19.3725 265.445 20.7418 266.811 20.7418 268.496C20.7418 270.181 19.3725 271.547 17.6834 271.547C15.9943 271.547 14.625 270.181 14.625 268.496C14.625 266.811 15.9943 265.445 17.6834 265.445Z" fill="#F7F7F7"/>
<path d="M3.39822 244.764C5.27501 244.764 6.79644 246.282 6.79644 248.154C6.79644 250.027 5.27501 251.544 3.39822 251.544C1.52144 251.544 0 250.027 0 248.154C0 246.282 1.52144 244.764 3.39822 244.764Z" fill="#F7F7F7"/>
<path d="M38.0663 266.799C39.0047 266.799 39.7654 267.558 39.7654 268.494C39.7654 269.431 39.0047 270.189 38.0663 270.189C37.1279 270.189 36.3672 269.431 36.3672 268.494C36.3672 267.558 37.1279 266.799 38.0663 266.799Z" fill="#F7F7F7"/>
<path d="M23.7889 246.12C24.915 246.12 25.8279 247.031 25.8279 248.154C25.8279 249.278 24.915 250.188 23.7889 250.188C22.6629 250.188 21.75 249.278 21.75 248.154C21.75 247.031 22.6629 246.12 23.7889 246.12Z" fill="#F7F7F7"/>
<path d="M38.0701 204.761C39.5716 204.761 40.7887 205.976 40.7887 207.473C40.7887 208.971 39.5716 210.186 38.0701 210.186C36.5687 210.186 35.3516 208.971 35.3516 207.473C35.3516 205.976 36.5687 204.761 38.0701 204.761Z" fill="#F7F7F7"/>
<path d="M58.4569 266.122C59.7706 266.122 60.8357 267.184 60.8357 268.495C60.8357 269.805 59.7706 270.868 58.4569 270.868C57.1431 270.868 56.0781 269.805 56.0781 268.495C56.0781 267.184 57.1431 266.122 58.4569 266.122Z" fill="#F7F7F7"/>
<path d="M44.1795 244.764C46.0563 244.764 47.5777 246.282 47.5777 248.154C47.5777 250.027 46.0563 251.544 44.1795 251.544C42.3027 251.544 40.7812 250.027 40.7812 248.154C40.7812 246.282 42.3027 244.764 44.1795 244.764Z" fill="#F7F7F7"/>
<path d="M51.3163 225.441C52.63 225.441 53.695 226.503 53.695 227.814C53.695 229.125 52.63 230.187 51.3163 230.187C50.0025 230.187 48.9375 229.125 48.9375 227.814C48.9375 226.503 50.0025 225.441 51.3163 225.441Z" fill="#F7F7F7"/>
<path d="M58.4607 203.406C60.7128 203.406 62.5386 205.227 62.5386 207.474C62.5386 209.721 60.7128 211.542 58.4607 211.542C56.2085 211.542 54.3828 209.721 54.3828 207.474C54.3828 205.227 56.2085 203.406 58.4607 203.406Z" fill="#F7F7F7"/>
<path d="M44.1795 184.422C45.681 184.422 46.8981 185.636 46.8981 187.134C46.8981 188.631 45.681 189.846 44.1795 189.846C42.6781 189.846 41.4609 188.631 41.4609 187.134C41.4609 185.636 42.6781 184.422 44.1795 184.422Z" fill="#F7F7F7"/>
<path d="M78.8475 266.122C80.1613 266.122 81.2263 267.184 81.2263 268.495C81.2263 269.805 80.1613 270.868 78.8475 270.868C77.5338 270.868 76.4688 269.805 76.4688 268.495C76.4688 267.184 77.5338 266.122 78.8475 266.122Z" fill="#F7F7F7"/>
<path d="M64.5623 245.442C66.0638 245.442 67.2809 246.656 67.2809 248.154C67.2809 249.652 66.0638 250.866 64.5623 250.866C63.0609 250.866 61.8438 249.652 61.8438 248.154C61.8438 246.656 63.0609 245.442 64.5623 245.442Z" fill="#F7F7F7"/>
<path d="M71.703 225.78C72.8291 225.78 73.7419 226.691 73.7419 227.814C73.7419 228.937 72.8291 229.848 71.703 229.848C70.5769 229.848 69.6641 228.937 69.6641 227.814C69.6641 226.691 70.5769 225.78 71.703 225.78Z" fill="#F7F7F7"/>
<path d="M78.8475 204.423C80.5366 204.423 81.9059 205.789 81.9059 207.474C81.9059 209.159 80.5366 210.525 78.8475 210.525C77.1584 210.525 75.7891 209.159 75.7891 207.474C75.7891 205.789 77.1584 204.423 78.8475 204.423Z" fill="#F7F7F7"/>
<path d="M64.5623 184.422C66.0638 184.422 67.2809 185.636 67.2809 187.134C67.2809 188.631 66.0638 189.846 64.5623 189.846C63.0609 189.846 61.8438 188.631 61.8438 187.134C61.8438 185.636 63.0609 184.422 64.5623 184.422Z" fill="#F7F7F7"/>
<path d="M78.8514 143.74C80.3528 143.74 81.57 144.954 81.57 146.452C81.57 147.95 80.3528 149.164 78.8514 149.164C77.35 149.164 76.1328 147.95 76.1328 146.452C76.1328 144.954 77.35 143.74 78.8514 143.74Z" fill="#F7F7F7"/>
<path d="M99.2381 265.445C100.927 265.445 102.296 266.811 102.296 268.496C102.296 270.181 100.927 271.547 99.2381 271.547C97.549 271.547 96.1797 270.181 96.1797 268.496C96.1797 266.811 97.549 265.445 99.2381 265.445Z" fill="#F7F7F7"/>
<path d="M84.953 246.12C86.0791 246.12 86.9919 247.031 86.9919 248.154C86.9919 249.278 86.0791 250.188 84.953 250.188C83.8269 250.188 82.9141 249.278 82.9141 248.154C82.9141 247.031 83.8269 246.12 84.953 246.12Z" fill="#F7F7F7"/>
<path d="M92.0975 226.119C93.0359 226.119 93.7967 226.878 93.7967 227.814C93.7967 228.75 93.0359 229.509 92.0975 229.509C91.1592 229.509 90.3984 228.75 90.3984 227.814C90.3984 226.878 91.1592 226.119 92.0975 226.119Z" fill="#F7F7F7"/>
<path d="M99.2381 205.101C100.552 205.101 101.617 206.163 101.617 207.474C101.617 208.784 100.552 209.847 99.2381 209.847C97.9244 209.847 96.8594 208.784 96.8594 207.474C96.8594 206.163 97.9244 205.101 99.2381 205.101Z" fill="#F7F7F7"/>
<path d="M84.953 185.099C86.0791 185.099 86.9919 186.01 86.9919 187.133C86.9919 188.257 86.0791 189.167 84.953 189.167C83.8269 189.167 82.9141 188.257 82.9141 187.133C82.9141 186.01 83.8269 185.099 84.953 185.099Z" fill="#F7F7F7"/>
<path d="M92.0975 163.741C93.7866 163.741 95.1559 165.107 95.1559 166.792C95.1559 168.477 93.7866 169.843 92.0975 169.843C90.4084 169.843 89.0391 168.477 89.0391 166.792C89.0391 165.107 90.4084 163.741 92.0975 163.741Z" fill="#F7F7F7"/>
<path d="M99.238 142.723C101.303 142.723 102.976 144.393 102.976 146.452C102.976 148.512 101.303 150.181 99.238 150.181C97.1736 150.181 95.5 148.512 95.5 146.452C95.5 144.393 97.1736 142.723 99.238 142.723Z" fill="#F7F7F7"/>
<path d="M119.629 266.122C120.943 266.122 122.008 267.184 122.008 268.495C122.008 269.805 120.943 270.868 119.629 270.868C118.315 270.868 117.25 269.805 117.25 268.495C117.25 267.184 118.315 266.122 119.629 266.122Z" fill="#F7F7F7"/>
<path d="M105.348 245.781C106.661 245.781 107.726 246.844 107.726 248.154C107.726 249.465 106.661 250.527 105.348 250.527C104.034 250.527 102.969 249.465 102.969 248.154C102.969 246.844 104.034 245.781 105.348 245.781Z" fill="#F7F7F7"/>
<path d="M112.484 225.102C113.986 225.102 115.203 226.316 115.203 227.814C115.203 229.312 113.986 230.526 112.484 230.526C110.983 230.526 109.766 229.312 109.766 227.814C109.766 226.316 110.983 225.102 112.484 225.102Z" fill="#F7F7F7"/>
<path d="M119.625 204.761C121.126 204.761 122.343 205.976 122.343 207.473C122.343 208.971 121.126 210.186 119.625 210.186C118.123 210.186 116.906 208.971 116.906 207.473C116.906 205.976 118.123 204.761 119.625 204.761Z" fill="#F7F7F7"/>
<path d="M105.344 184.422C106.845 184.422 108.062 185.636 108.062 187.134C108.062 188.631 106.845 189.846 105.344 189.846C103.842 189.846 102.625 188.631 102.625 187.134C102.625 185.636 103.842 184.422 105.344 184.422Z" fill="#F7F7F7"/>
<path d="M112.484 164.759C113.61 164.759 114.523 165.67 114.523 166.793C114.523 167.916 113.61 168.827 112.484 168.827C111.358 168.827 110.445 167.916 110.445 166.793C110.445 165.67 111.358 164.759 112.484 164.759Z" fill="#F7F7F7"/>
<path d="M119.625 144.418C120.751 144.418 121.664 145.328 121.664 146.452C121.664 147.575 120.751 148.486 119.625 148.486C118.499 148.486 117.586 147.575 117.586 146.452C117.586 145.328 118.499 144.418 119.625 144.418Z" fill="#F7F7F7"/>
<path d="M132.875 286.801C134.001 286.801 134.914 287.711 134.914 288.835C134.914 289.958 134.001 290.869 132.875 290.869C131.749 290.869 130.836 289.958 130.836 288.835C130.836 287.711 131.749 286.801 132.875 286.801Z" fill="#F7F7F7"/>
<path d="M140.019 265.445C141.708 265.445 143.078 266.811 143.078 268.496C143.078 270.181 141.708 271.547 140.019 271.547C138.33 271.547 136.961 270.181 136.961 268.496C136.961 266.811 138.33 265.445 140.019 265.445Z" fill="#F7F7F7"/>
<path d="M125.738 246.459C126.677 246.459 127.437 247.218 127.437 248.154C127.437 249.09 126.677 249.849 125.738 249.849C124.8 249.849 124.039 249.09 124.039 248.154C124.039 247.218 124.8 246.459 125.738 246.459Z" fill="#F7F7F7"/>
<path d="M132.875 225.102C134.376 225.102 135.593 226.316 135.593 227.814C135.593 229.312 134.376 230.526 132.875 230.526C131.373 230.526 130.156 229.312 130.156 227.814C130.156 226.316 131.373 225.102 132.875 225.102Z" fill="#F7F7F7"/>
<path d="M140.019 204.423C141.708 204.423 143.078 205.789 143.078 207.474C143.078 209.159 141.708 210.525 140.019 210.525C138.33 210.525 136.961 209.159 136.961 207.474C136.961 205.789 138.33 204.423 140.019 204.423Z" fill="#F7F7F7"/>
<path d="M125.734 185.099C126.86 185.099 127.773 186.01 127.773 187.133C127.773 188.257 126.86 189.167 125.734 189.167C124.608 189.167 123.695 188.257 123.695 187.133C123.695 186.01 124.608 185.099 125.734 185.099Z" fill="#F7F7F7"/>
<path d="M132.871 164.42C134.185 164.42 135.25 165.482 135.25 166.793C135.25 168.104 134.185 169.166 132.871 169.166C131.557 169.166 130.492 168.104 130.492 166.793C130.492 165.482 131.557 164.42 132.871 164.42Z" fill="#F7F7F7"/>
<path d="M140.019 144.079C141.333 144.079 142.398 145.142 142.398 146.452C142.398 147.763 141.333 148.825 140.019 148.825C138.706 148.825 137.641 147.763 137.641 146.452C137.641 145.142 138.706 144.079 140.019 144.079Z" fill="#F7F7F7"/>
<path d="M153.262 286.462C154.575 286.462 155.64 287.524 155.64 288.835C155.64 290.146 154.575 291.208 153.262 291.208C151.948 291.208 150.883 290.146 150.883 288.835C150.883 287.524 151.948 286.462 153.262 286.462Z" fill="#F7F7F7"/>
<path d="M160.406 265.105C162.283 265.105 163.804 266.622 163.804 268.495C163.804 270.367 162.283 271.885 160.406 271.885C158.529 271.885 157.008 270.367 157.008 268.495C157.008 266.622 158.529 265.105 160.406 265.105Z" fill="#F7F7F7"/>
<path d="M146.121 245.781C147.435 245.781 148.5 246.844 148.5 248.154C148.5 249.465 147.435 250.527 146.121 250.527C144.807 250.527 143.742 249.465 143.742 248.154C143.742 246.844 144.807 245.781 146.121 245.781Z" fill="#F7F7F7"/>
<path d="M153.262 224.763C154.951 224.763 156.32 226.129 156.32 227.814C156.32 229.499 154.951 230.865 153.262 230.865C151.572 230.865 150.203 229.499 150.203 227.814C150.203 226.129 151.572 224.763 153.262 224.763Z" fill="#F7F7F7"/>
<path d="M160.402 205.101C161.716 205.101 162.781 206.163 162.781 207.474C162.781 208.784 161.716 209.847 160.402 209.847C159.088 209.847 158.023 208.784 158.023 207.474C158.023 206.163 159.088 205.101 160.402 205.101Z" fill="#F7F7F7"/>
<path d="M146.125 184.422C147.626 184.422 148.843 185.636 148.843 187.134C148.843 188.631 147.626 189.846 146.125 189.846C144.623 189.846 143.406 188.631 143.406 187.134C143.406 185.636 144.623 184.422 146.125 184.422Z" fill="#F7F7F7"/>
<path d="M153.265 164.08C154.767 164.08 155.984 165.294 155.984 166.792C155.984 168.29 154.767 169.504 153.265 169.504C151.764 169.504 150.547 168.29 150.547 166.792C150.547 165.294 151.764 164.08 153.265 164.08Z" fill="#F7F7F7"/>
<path d="M160.406 144.418C161.532 144.418 162.445 145.328 162.445 146.452C162.445 147.575 161.532 148.486 160.406 148.486C159.28 148.486 158.367 147.575 158.367 146.452C158.367 145.328 159.28 144.418 160.406 144.418Z" fill="#F7F7F7"/>
<path d="M180.793 266.122C182.107 266.122 183.172 267.184 183.172 268.495C183.172 269.805 182.107 270.868 180.793 270.868C179.479 270.868 178.414 269.805 178.414 268.495C178.414 267.184 179.479 266.122 180.793 266.122Z" fill="#F7F7F7"/>
<path d="M166.515 244.086C168.768 244.086 170.593 245.907 170.593 248.154C170.593 250.401 168.768 252.222 166.515 252.222C164.263 252.222 162.438 250.401 162.438 248.154C162.438 245.907 164.263 244.086 166.515 244.086Z" fill="#F7F7F7"/>
<path d="M173.656 225.78C174.782 225.78 175.695 226.691 175.695 227.814C175.695 228.937 174.782 229.848 173.656 229.848C172.53 229.848 171.617 228.937 171.617 227.814C171.617 226.691 172.53 225.78 173.656 225.78Z" fill="#F7F7F7"/>
<path d="M180.793 205.779C181.731 205.779 182.492 206.538 182.492 207.474C182.492 208.41 181.731 209.169 180.793 209.169C179.854 209.169 179.094 208.41 179.094 207.474C179.094 206.538 179.854 205.779 180.793 205.779Z" fill="#F7F7F7"/>
<path d="M166.511 183.404C168.576 183.404 170.25 185.074 170.25 187.133C170.25 189.193 168.576 190.862 166.511 190.862C164.447 190.862 162.773 189.193 162.773 187.133C162.773 185.074 164.447 183.404 166.511 183.404Z" fill="#F7F7F7"/>
<path d="M173.652 163.741C175.341 163.741 176.711 165.107 176.711 166.792C176.711 168.477 175.341 169.843 173.652 169.843C171.963 169.843 170.594 168.477 170.594 166.792C170.594 165.107 171.963 163.741 173.652 163.741Z" fill="#F7F7F7"/>
<path d="M180.793 143.401C182.482 143.401 183.851 144.767 183.851 146.452C183.851 148.137 182.482 149.503 180.793 149.503C179.104 149.503 177.734 148.137 177.734 146.452C177.734 144.767 179.104 143.401 180.793 143.401Z" fill="#F7F7F7"/>
<path d="M194.047 286.123C195.548 286.123 196.765 287.337 196.765 288.835C196.765 290.333 195.548 291.547 194.047 291.547C192.545 291.547 191.328 290.333 191.328 288.835C191.328 287.337 192.545 286.123 194.047 286.123Z" fill="#F7F7F7"/>
<path d="M201.183 266.799C202.122 266.799 202.883 267.558 202.883 268.494C202.883 269.431 202.122 270.189 201.183 270.189C200.245 270.189 199.484 269.431 199.484 268.494C199.484 267.558 200.245 266.799 201.183 266.799Z" fill="#F7F7F7"/>
<path d="M186.902 245.781C188.216 245.781 189.281 246.844 189.281 248.154C189.281 249.465 188.216 250.527 186.902 250.527C185.588 250.527 184.523 249.465 184.523 248.154C184.523 246.844 185.588 245.781 186.902 245.781Z" fill="#F7F7F7"/>
<path d="M194.043 226.119C194.981 226.119 195.742 226.878 195.742 227.814C195.742 228.75 194.981 229.509 194.043 229.509C193.104 229.509 192.344 228.75 192.344 227.814C192.344 226.878 193.104 226.119 194.043 226.119Z" fill="#F7F7F7"/>
<path d="M201.187 205.44C202.313 205.44 203.226 206.35 203.226 207.474C203.226 208.597 202.313 209.508 201.187 209.508C200.061 209.508 199.148 208.597 199.148 207.474C199.148 206.35 200.061 205.44 201.187 205.44Z" fill="#F7F7F7"/>
<path d="M186.902 184.081C188.591 184.081 189.961 185.447 189.961 187.132C189.961 188.817 188.591 190.183 186.902 190.183C185.213 190.183 183.844 188.817 183.844 187.132C183.844 185.447 185.213 184.081 186.902 184.081Z" fill="#F7F7F7"/>
<path d="M194.043 164.42C195.357 164.42 196.422 165.482 196.422 166.793C196.422 168.104 195.357 169.166 194.043 169.166C192.729 169.166 191.664 168.104 191.664 166.793C191.664 165.482 192.729 164.42 194.043 164.42Z" fill="#F7F7F7"/>
<path d="M201.187 142.384C203.439 142.384 205.265 144.205 205.265 146.452C205.265 148.699 203.439 150.52 201.187 150.52C198.935 150.52 197.109 148.699 197.109 146.452C197.109 144.205 198.935 142.384 201.187 142.384Z" fill="#F7F7F7"/>
<path d="M214.43 168.827C213.304 168.827 212.391 167.917 212.391 166.793C212.391 165.67 213.304 164.759 214.43 164.759C215.556 164.759 216.469 165.67 216.469 166.793C216.469 167.917 215.556 168.827 214.43 168.827Z" fill="#F7F7F7"/>
<path d="M207.289 189.846C205.788 189.846 204.571 188.631 204.571 187.133C204.571 185.636 205.788 184.421 207.289 184.421C208.791 184.421 210.008 185.636 210.008 187.133C210.008 188.631 208.791 189.846 207.289 189.846Z" fill="#F7F7F7"/>
<path d="M214.434 230.187C213.12 230.187 212.055 229.125 212.055 227.814C212.055 226.503 213.12 225.441 214.434 225.441C215.747 225.441 216.812 226.503 216.812 227.814C216.812 229.125 215.747 230.187 214.434 230.187Z" fill="#F7F7F7"/>
<path d="M207.293 249.849C206.355 249.849 205.594 249.09 205.594 248.154C205.594 247.218 206.355 246.459 207.293 246.459C208.231 246.459 208.992 247.218 208.992 248.154C208.992 249.09 208.231 249.849 207.293 249.849Z" fill="#F7F7F7"/>
<path d="M214.434 291.886C212.745 291.886 211.375 290.52 211.375 288.835C211.375 287.15 212.745 285.784 214.434 285.784C216.123 285.784 217.492 287.15 217.492 288.835C217.492 290.52 216.123 291.886 214.434 291.886Z" fill="#F7F7F7"/>
</g>
</g>
</g>
<defs>
<clipPath id="clip0_3_4">
<rect width="1823" height="4036" fill="white" transform="translate(-1605 -167)"/>
</clipPath>
<clipPath id="clip1_3_4">
<rect width="218" height="680" fill="white"/>
</clipPath>
</defs>
</svg>
