<svg width="100" height="105" viewBox="0 0 100 105" fill="none" xmlns="http://www.w3.org/2000/svg">
<path d="M61.6073 11.9212L61.6073 21.1084L13.0725 21.1084L13.0725 11.9212L18.4653 11.9212L18.4653 7.94744L23.858 7.94744L23.858 3.97372L50.8218 3.97372L50.8218 7.94744L56.2146 7.94744L56.2146 11.9212L61.6073 11.9212Z" fill="#D7DF23"/>
<path d="M61.6072 11.9212L61.6073 7.9475L56.2145 7.9475L56.2145 11.9212L61.6072 11.9212Z" fill="black"/>
<path d="M13.0724 11.9212L13.0725 7.9475L18.4652 7.9475L18.4652 11.9212L13.0724 11.9212Z" fill="black"/>
<path d="M56.2145 7.9475L56.2145 3.97375L50.8218 3.97375L50.8218 7.94748L56.2145 7.9475Z" fill="black"/>
<path d="M18.4652 7.9475L18.4652 3.97375L23.8579 3.97375L23.8579 7.94748L18.4652 7.9475Z" fill="black"/>
<path d="M7.67969 20.6952L13.0724 20.6952L13.0724 11.9212L7.67969 11.9212L7.67969 20.6952Z" fill="black"/>
<path d="M61.6073 24.6689L61.6072 20.6952L13.0724 20.6952L13.0725 24.6689L61.6073 24.6689Z" fill="black"/>
<path d="M67 11.9212L61.6072 11.9212L61.6072 20.6952L67 20.6952L67 11.9212Z" fill="black"/>
<path d="M23.858 1.2013e-06L23.8579 3.97375L50.8218 3.97375L50.8218 2.45597e-08L23.858 1.2013e-06Z" fill="black"/>
<path d="M7.5 73.1186V17.7949H92.5V73.1186H7.5Z" fill="#D7DF23"/>
<path d="M100 17.7948H92.5V73.1185H100V17.7948Z" fill="black"/>
<path d="M7.5 12.9133V17.7948H92.5V12.9133H7.5Z" fill="black"/>
<path d="M0 73.1185H7.5V17.7948H0V73.1185Z" fill="black"/>
<path d="M7.5 73.1185V78H92.5V73.1185H7.5Z" fill="black"/>
<path d="M7.52813 98.76L13.2081 83.72H14.7281L9.04813 98.76H7.52813ZM17.6979 97V88.2H19.1059V89.88H19.4419L18.9779 90.92C18.9779 89.9707 19.1805 89.256 19.5859 88.776C20.0019 88.2853 20.6152 88.04 21.4259 88.04C22.3539 88.04 23.0899 88.3333 23.6339 88.92C24.1885 89.496 24.4659 90.28 24.4659 91.272V91.8H23.0259V91.4C23.0259 90.7067 22.8552 90.1787 22.5139 89.816C22.1832 89.4427 21.7085 89.256 21.0899 89.256C20.4819 89.256 20.0019 89.4427 19.6499 89.816C19.3085 90.1893 19.1379 90.7173 19.1379 91.4V97H17.6979ZM30.3156 97.128C29.6116 97.128 29.0036 96.9947 28.4916 96.728C27.9796 96.4613 27.5796 96.0773 27.2916 95.576C27.0143 95.064 26.8756 94.4613 26.8756 93.768V91.432C26.8756 90.728 27.0143 90.1253 27.2916 89.624C27.5796 89.1227 27.9796 88.7387 28.4916 88.472C29.0036 88.2053 29.6116 88.072 30.3156 88.072C31.0196 88.072 31.6276 88.2053 32.1396 88.472C32.6516 88.7387 33.0463 89.1227 33.3236 89.624C33.6116 90.1253 33.7556 90.7227 33.7556 91.416V93.768C33.7556 94.4613 33.6116 95.064 33.3236 95.576C33.0463 96.0773 32.6516 96.4613 32.1396 96.728C31.6276 96.9947 31.0196 97.128 30.3156 97.128ZM30.3156 95.848C30.945 95.848 31.4356 95.672 31.7876 95.32C32.1396 94.968 32.3156 94.4507 32.3156 93.768V91.432C32.3156 90.7493 32.1396 90.232 31.7876 89.88C31.4356 89.528 30.945 89.352 30.3156 89.352C29.697 89.352 29.2063 89.528 28.8436 89.88C28.4916 90.232 28.3156 90.7493 28.3156 91.432V93.768C28.3156 94.4507 28.4916 94.968 28.8436 95.32C29.2063 95.672 29.697 95.848 30.3156 95.848ZM39.1414 97.16C38.2134 97.16 37.4827 96.9253 36.9494 96.456C36.416 95.976 36.1494 95.3307 36.1494 94.52C36.1494 93.6987 36.416 93.0533 36.9494 92.584C37.4827 92.1147 38.2027 91.88 39.1094 91.88H41.8294V91C41.8294 90.456 41.664 90.04 41.3334 89.752C41.0134 89.4533 40.5547 89.304 39.9574 89.304C39.4347 89.304 38.9974 89.416 38.6454 89.64C38.2934 89.8533 38.0907 90.1467 38.0374 90.52H36.5974C36.6934 89.7627 37.0507 89.16 37.6694 88.712C38.288 88.264 39.0614 88.04 39.9894 88.04C41.0027 88.04 41.8027 88.3013 42.3894 88.824C42.976 89.3467 43.2694 90.056 43.2694 90.952V97H41.8614V95.32H41.6214L41.8614 95.08C41.8614 95.72 41.6107 96.2267 41.1094 96.6C40.6187 96.9733 39.9627 97.16 39.1414 97.16ZM39.4934 96.024C40.176 96.024 40.736 95.8533 41.1734 95.512C41.6107 95.1707 41.8294 94.7333 41.8294 94.2V92.952H39.1414C38.6614 92.952 38.2827 93.0853 38.0054 93.352C37.728 93.6187 37.5894 93.9813 37.5894 94.44C37.5894 94.9307 37.7547 95.32 38.0854 95.608C38.4267 95.8853 38.896 96.024 39.4934 96.024ZM48.9911 97.16C48.1165 97.16 47.4071 96.8667 46.8631 96.28C46.3298 95.6933 46.0631 94.8987 46.0631 93.896V91.32C46.0631 90.3067 46.3298 89.5067 46.8631 88.92C47.3965 88.3333 48.1058 88.04 48.9911 88.04C49.7165 88.04 50.2978 88.2373 50.7351 88.632C51.1725 89.0267 51.3911 89.5547 51.3911 90.216L51.1031 89.88H51.4231L51.3911 87.88V85.32H52.8311V97H51.3911V95.32H51.1031L51.3911 94.984C51.3911 95.656 51.1725 96.1893 50.7351 96.584C50.2978 96.968 49.7165 97.16 48.9911 97.16ZM49.4711 95.912C50.0685 95.912 50.5378 95.7253 50.8791 95.352C51.2205 94.9787 51.3911 94.4613 51.3911 93.8V91.4C51.3911 90.7387 51.2205 90.2213 50.8791 89.848C50.5378 89.4747 50.0685 89.288 49.4711 89.288C48.8631 89.288 48.3831 89.4693 48.0311 89.832C47.6791 90.1947 47.5031 90.7173 47.5031 91.4V93.8C47.5031 94.4827 47.6791 95.0053 48.0311 95.368C48.3831 95.7307 48.8631 95.912 49.4711 95.912ZM59.0969 97.16C58.6915 97.16 58.3662 97.0427 58.1209 96.808C57.8862 96.5733 57.7689 96.2587 57.7689 95.864C57.7689 95.448 57.8862 95.1173 58.1209 94.872C58.3662 94.6267 58.6915 94.504 59.0969 94.504C59.5022 94.504 59.8222 94.6267 60.0569 94.872C60.3022 95.1173 60.4249 95.448 60.4249 95.864C60.4249 96.2587 60.3022 96.5733 60.0569 96.808C59.8222 97.0427 59.5022 97.16 59.0969 97.16ZM64.9466 97V88.2H66.2106V89.256H66.4986L66.2746 89.64C66.2746 89.1493 66.4026 88.76 66.6586 88.472C66.9253 88.184 67.2826 88.04 67.7306 88.04C68.2213 88.04 68.6 88.2213 68.8666 88.584C69.1333 88.9467 69.2666 89.4587 69.2666 90.12L68.8346 89.256H69.5066L69.2026 89.64C69.2026 89.1493 69.336 88.76 69.6026 88.472C69.88 88.184 70.2426 88.04 70.6906 88.04C71.2453 88.04 71.672 88.248 71.9706 88.664C72.28 89.08 72.4346 89.6293 72.4346 90.312V97H71.1066V90.296C71.1066 89.9333 71.0266 89.6507 70.8666 89.448C70.7173 89.2453 70.4933 89.144 70.1946 89.144C69.9066 89.144 69.6773 89.2453 69.5066 89.448C69.3466 89.64 69.2666 89.9173 69.2666 90.28V97H68.1146V90.296C68.1146 89.9227 68.0293 89.64 67.8586 89.448C67.6986 89.2453 67.4693 89.144 67.1706 89.144C66.872 89.144 66.648 89.2453 66.4986 89.448C66.3493 89.64 66.2746 89.9173 66.2746 90.28V97H64.9466ZM77.5164 97.16C76.5884 97.16 75.8577 96.9253 75.3244 96.456C74.791 95.976 74.5244 95.3307 74.5244 94.52C74.5244 93.6987 74.791 93.0533 75.3244 92.584C75.8577 92.1147 76.5777 91.88 77.4844 91.88H80.2044V91C80.2044 90.456 80.039 90.04 79.7084 89.752C79.3884 89.4533 78.9297 89.304 78.3324 89.304C77.8097 89.304 77.3724 89.416 77.0204 89.64C76.6684 89.8533 76.4657 90.1467 76.4124 90.52H74.9724C75.0684 89.7627 75.4257 89.16 76.0444 88.712C76.663 88.264 77.4364 88.04 78.3644 88.04C79.3777 88.04 80.1777 88.3013 80.7644 88.824C81.351 89.3467 81.6444 90.056 81.6444 90.952V97H80.2364V95.32H79.9964L80.2364 95.08C80.2364 95.72 79.9857 96.2267 79.4844 96.6C78.9937 96.9733 78.3377 97.16 77.5164 97.16ZM77.8684 96.024C78.551 96.024 79.111 95.8533 79.5484 95.512C79.9857 95.1707 80.2044 94.7333 80.2044 94.2V92.952H77.5164C77.0364 92.952 76.6577 93.0853 76.3804 93.352C76.103 93.6187 75.9644 93.9813 75.9644 94.44C75.9644 94.9307 76.1297 95.32 76.4604 95.608C76.8017 95.8853 77.271 96.024 77.8684 96.024ZM84.5501 99.88V88.2H85.9901V89.88H86.2781L85.9901 90.216C85.9901 89.544 86.2088 89.016 86.6461 88.632C87.0941 88.2373 87.6808 88.04 88.4061 88.04C89.2915 88.04 89.9955 88.3333 90.5181 88.92C91.0515 89.496 91.3181 90.2907 91.3181 91.304V93.88C91.3181 94.552 91.1955 95.1333 90.9501 95.624C90.7155 96.1147 90.3795 96.4933 89.9421 96.76C89.5155 97.0267 89.0035 97.16 88.4061 97.16C87.6915 97.16 87.1101 96.9627 86.6621 96.568C86.2141 96.1733 85.9901 95.6453 85.9901 94.984L86.2781 95.32H85.9581L85.9901 97.32V99.88H84.5501ZM87.9261 95.912C88.5341 95.912 89.0088 95.7307 89.3501 95.368C89.7021 95.0053 89.8781 94.4827 89.8781 93.8V91.4C89.8781 90.7173 89.7021 90.1947 89.3501 89.832C89.0088 89.4693 88.5341 89.288 87.9261 89.288C87.3395 89.288 86.8701 89.4747 86.5181 89.848C86.1661 90.2213 85.9901 90.7387 85.9901 91.4V93.8C85.9901 94.4613 86.1661 94.9787 86.5181 95.352C86.8701 95.7253 87.3395 95.912 87.9261 95.912Z" fill="#CBD5E1"/>
<path d="M36.875 39.375H38.75V41.25H36.875V39.375Z" fill="black"/>
<path d="M63.125 48.75H61.25V50.625H63.125V48.75Z" fill="black"/>
<path d="M36.875 58.125H38.75V60H36.875V58.125Z" fill="black"/>
<path d="M38.75 56.25H40.625V58.125H38.75V56.25Z" fill="black"/>
<path d="M63.125 31.875H61.25V30H63.125V31.875Z" fill="black"/>
<path d="M61.25 33.75H59.375V31.875H61.25V33.75Z" fill="black"/>
<path d="M38.75 37.5H40.625V39.375H38.75V37.5Z" fill="black"/>
<path d="M61.25 52.5H59.375V50.625H61.25V52.5Z" fill="black"/>
<path fill-rule="evenodd" clip-rule="evenodd" d="M40.625 35.625V37.5H44.375V54.375H59.375V52.5H55.625V35.625H40.625ZM46.25 52.5V37.5H53.75V52.5H46.25Z" fill="black"/>
<path d="M40.625 54.375V56.25H44.375V54.375H40.625Z" fill="black"/>
<path d="M36.875 41.25H35V58.125H36.875V41.25Z" fill="black"/>
<path d="M59.375 35.625V33.75H55.625V35.625H59.375Z" fill="black"/>
<path d="M63.125 48.75H65V31.875H63.125V48.75Z" fill="black"/>
<path d="M36.875 41.25V58.125H38.75V56.25H40.625V54.375H44.375V37.5H40.625V39.375H38.75V41.25H36.875Z" fill="white"/>
<path d="M46.25 52.5V37.5H53.75V52.5H46.25Z" fill="white"/>
<path d="M55.625 35.625V52.5H59.375V50.625H61.25V48.75H63.125V31.875H61.25V33.75H59.375V35.625H55.625Z" fill="white"/>
</svg>
