<svg width="25" height="26" viewBox="0 0 25 26" fill="none" xmlns="http://www.w3.org/2000/svg">
<path d="M14.0625 3.62502L15.625 3.62504L15.625 2.06252H14.0625V3.62502Z" fill="#0A0B0F"/>
<path d="M10.9375 3.62502L9.37499 3.62504L9.375 2.06252H10.9375V3.62502Z" fill="#0A0B0F"/>
<path d="M21.875 11.4375H23.4375V9.875L21.875 9.87504L21.875 11.4375Z" fill="#0A0B0F"/>
<path d="M3.125 11.4375H1.5625V9.875H3.125V11.4375Z" fill="#0A0B0F"/>
<path d="M21.875 16.125H23.4375L23.4375 14.5625L21.875 14.5625V16.125Z" fill="#0A0B0F"/>
<path d="M3.125 16.125H1.5625L1.5625 14.5625L3.125 14.5625V16.125Z" fill="#0A0B0F"/>
<path d="M14.0625 23.9375L15.625 23.9375L15.625 22.375L14.0625 22.375L14.0625 23.9375Z" fill="#0A0B0F"/>
<path d="M10.9375 23.9375L9.375 23.9375L9.37499 22.375L10.9375 22.375L10.9375 23.9375Z" fill="#0A0B0F"/>
<path d="M17.1875 9.875H15.625V16.125H17.1875V9.875Z" fill="#0A0B0F"/>
<path d="M15.625 9.875L15.625 8.31254H9.375L9.37499 9.875H15.625Z" fill="#0A0B0F"/>
<path d="M9.37499 9.875H7.81249V16.125H9.37499V9.875Z" fill="#0A0B0F"/>
<path d="M15.625 17.6875L15.625 16.125H9.37499L9.375 17.6875H15.625Z" fill="#0A0B0F"/>
<path d="M4.68749 20.8125L4.6875 22.375H9.37499V20.8125L4.68749 20.8125Z" fill="#0A0B0F"/>
<path d="M3.12499 20.8125H4.68749V16.125L3.125 16.125L3.12499 20.8125Z" fill="#0A0B0F"/>
<path d="M1.5625 11.4375L0 11.4375V14.5625H1.5625L1.5625 11.4375Z" fill="#0A0B0F"/>
<path d="M3.125 9.875L4.68749 9.87504L4.6875 5.18754L3.12499 5.1875L3.125 9.875Z" fill="#0A0B0F"/>
<path d="M9.37499 5.18754V3.62504H4.6875V5.18754H9.37499Z" fill="#0A0B0F"/>
<path d="M14.0625 2.06252L14.0625 0.5H10.9375L10.9375 2.06252H14.0625Z" fill="#0A0B0F"/>
<path d="M15.625 3.62504V5.18754H20.3125V3.62504H15.625Z" fill="#0A0B0F"/>
<path d="M20.3125 9.87504H21.875V5.1875L20.3125 5.18754L20.3125 9.87504Z" fill="#0A0B0F"/>
<path d="M25 11.4375L23.4375 11.4375L23.4375 14.5625H25V11.4375Z" fill="#0A0B0F"/>
<path d="M20.3125 20.8125H21.875L21.875 16.125L20.3125 16.125V20.8125Z" fill="#0A0B0F"/>
<path d="M20.3125 22.375L20.3125 20.8125L15.625 20.8125V22.375H20.3125Z" fill="#0A0B0F"/>
<path d="M14.0625 25.5V23.9375H10.9375V25.5H14.0625Z" fill="#0A0B0F"/>
</svg>
