<svg width="26" height="26" viewBox="0 0 26 26" fill="none" xmlns="http://www.w3.org/2000/svg">
<path d="M14.9707 3.53029L16.5332 3.53032L16.5332 1.96779H14.9707V3.53029Z" fill="white"/>
<path d="M11.8457 3.53029L10.2832 3.53032L10.2832 1.96779H11.8457V3.53029Z" fill="white"/>
<path d="M22.7832 11.3428H24.3457V9.78027L22.7832 9.78032L22.7832 11.3428Z" fill="white"/>
<path d="M4.0332 11.3428H2.4707V9.78027H4.0332V11.3428Z" fill="white"/>
<path d="M22.7832 16.0303H24.3457L24.3457 14.4678L22.7832 14.4678V16.0303Z" fill="white"/>
<path d="M4.0332 16.0303H2.4707L2.4707 14.4678L4.0332 14.4678V16.0303Z" fill="white"/>
<path d="M14.9707 23.8428L16.5332 23.8428L16.5332 22.2803L14.9707 22.2803L14.9707 23.8428Z" fill="white"/>
<path d="M11.8457 23.8428L10.2832 23.8428L10.2832 22.2803L11.8457 22.2803L11.8457 23.8428Z" fill="white"/>
<path d="M18.0957 9.78027H16.5332V16.0303H18.0957V9.78027Z" fill="white"/>
<path d="M16.5332 9.78027L16.5332 8.21782H10.2832L10.2832 9.78027H16.5332Z" fill="white"/>
<path d="M10.2832 9.78027H8.7207V16.0303H10.2832V9.78027Z" fill="white"/>
<path d="M16.5332 17.5928L16.5332 16.0303H10.2832L10.2832 17.5928H16.5332Z" fill="white"/>
<path d="M5.5957 20.7178L5.5957 22.2803H10.2832V20.7178L5.5957 20.7178Z" fill="white"/>
<path d="M4.0332 20.7178H5.5957V16.0303L4.0332 16.0303L4.0332 20.7178Z" fill="white"/>
<path d="M2.4707 11.3428L0.908203 11.3428V14.4678H2.4707L2.4707 11.3428Z" fill="white"/>
<path d="M4.0332 9.78027L5.5957 9.78032L5.5957 5.09282L4.0332 5.09277L4.0332 9.78027Z" fill="white"/>
<path d="M10.2832 5.09282V3.53032H5.5957V5.09282H10.2832Z" fill="white"/>
<path d="M14.9707 1.96779L14.9707 0.405273H11.8457L11.8457 1.96779H14.9707Z" fill="white"/>
<path d="M16.5332 3.53032V5.09282H21.2207V3.53032H16.5332Z" fill="white"/>
<path d="M21.2207 9.78032H22.7832V5.09277L21.2207 5.09282L21.2207 9.78032Z" fill="white"/>
<path d="M25.9082 11.3428L24.3457 11.3428L24.3457 14.4678H25.9082V11.3428Z" fill="white"/>
<path d="M21.2207 20.7178H22.7832L22.7832 16.0303L21.2207 16.0303V20.7178Z" fill="white"/>
<path d="M21.2207 22.2803L21.2207 20.7178L16.5332 20.7178V22.2803H21.2207Z" fill="white"/>
<path d="M14.9707 25.4053V23.8428H11.8457V25.4053H14.9707Z" fill="white"/>
<path fill-rule="evenodd" clip-rule="evenodd" d="M5.5957 5.09277H10.2832V3.53027H11.8457V1.96777H14.9707V3.53027H16.5332V5.09277H21.2207V9.78027H22.7832V11.3428H24.3457V14.4678H22.7832V16.0303H21.2207V20.7178H16.5332V22.2803H14.9707V23.8428H11.8457V22.2803H10.2832V20.7178H5.5957V16.0303H4.0332V14.4678H2.4707V11.3428H4.0332V9.78027H5.5957V5.09277ZM10.2832 8.21777V9.78027H8.7207V16.0303H10.2832V17.5928H16.5332V16.0303H18.0957V9.78027H16.5332V8.21777H10.2832Z" fill="white"/>
</svg>
