<svg width="32" height="32" viewBox="0 0 32 32" fill="none" xmlns="http://www.w3.org/2000/svg">
<path d="M0 0H31V31H0V0Z" fill="#D7DF23"/>
<path d="M31 31V31.8596H31.8596V31H31ZM30.1404 0V31H31.8596V0H30.1404ZM31 30.1404H0V31.8596H31V30.1404Z" fill="white"/>
<path d="M17.25 6V7.125H12.75V6H17.25Z" fill="black"/>
<path d="M19.5 8.25H17.25V7.125H19.5V8.25Z" fill="black"/>
<path d="M20.625 9.375H19.5V8.25H20.625V9.375Z" fill="black"/>
<path d="M21.75 10.5H20.625V9.375H21.75V10.5Z" fill="black"/>
<path fill-rule="evenodd" clip-rule="evenodd" d="M22.875 12.75H21.75V10.5H22.875V12.75ZM22.875 12.75H24V18.375H22.875V12.75Z" fill="black"/>
<path d="M11.625 8.25V9.375H7.125V8.25H11.625Z" fill="black"/>
<path d="M7.125 16.125H6V9.375H7.125V16.125Z" fill="black"/>
<path d="M8.25 18.375H7.125V16.125H8.25V18.375Z" fill="black"/>
<path d="M9.375 19.5H8.25V18.375H9.375V19.5Z" fill="black"/>
<path d="M10.5 20.625H9.375V19.5H10.5V20.625Z" fill="black"/>
<path d="M11.625 21.75H10.5V20.625H11.625V21.75Z" fill="black"/>
<path d="M13.875 22.875H11.625V21.75H13.875V22.875Z" fill="black"/>
<path d="M20.625 22.875V24H13.875V22.875H20.625Z" fill="black"/>
<path fill-rule="evenodd" clip-rule="evenodd" d="M17.25 18.375V17.25H20.625V18.375H17.25ZM20.625 18.375H21.75V22.875H20.625V18.375Z" fill="black"/>
<path d="M16.125 19.5V18.375H17.25V19.5H16.125Z" fill="black"/>
<path d="M13.875 19.5H16.125V20.625H13.875V19.5Z" fill="black"/>
<path fill-rule="evenodd" clip-rule="evenodd" d="M11.625 17.25H12.75V18.375H11.625V17.25ZM12.75 18.375H13.875V19.5H12.75V18.375Z" fill="black"/>
<path fill-rule="evenodd" clip-rule="evenodd" d="M10.5 13.875V16.125H9.375V13.875H10.5ZM10.5 16.125H11.625V17.25H10.5V16.125Z" fill="black"/>
<path d="M11.625 12.75V13.875H10.5V12.75H11.625Z" fill="black"/>
<path d="M11.625 12.75H12.75V9.375H11.625V12.75Z" fill="black"/>
<path d="M13.875 9.375V10.5H17.25V11.625H18.375V12.75H19.5V16.125H20.625V12.75H19.5V11.625H18.375V10.5H17.25V9.375H13.875Z" fill="black"/>
<path d="M7.125 9.375H11.625V12.75H10.5V13.875H9.375V16.125H10.5V17.25H11.625V18.375H12.75V19.5H13.875V20.625H16.125V19.5H17.25V18.375H20.625V22.875H13.875V21.75H11.625V20.625H10.5V19.5H9.375V18.375H8.25V16.125H7.125V9.375Z" fill="white"/>
</svg>
