<svg width="106" height="105" viewBox="0 0 106 105" fill="none" xmlns="http://www.w3.org/2000/svg">
<path d="M65.6073 11.9212L65.6073 21.1084L17.0725 21.1084L17.0725 11.9212L22.4653 11.9212L22.4653 7.94744L27.858 7.94744L27.858 3.97372L54.8218 3.97372L54.8218 7.94744L60.2146 7.94744L60.2146 11.9212L65.6073 11.9212Z" fill="#D7DF23"/>
<path d="M65.6072 11.9212L65.6073 7.9475L60.2145 7.9475L60.2145 11.9212L65.6072 11.9212Z" fill="black"/>
<path d="M17.0724 11.9212L17.0725 7.9475L22.4652 7.9475L22.4652 11.9212L17.0724 11.9212Z" fill="black"/>
<path d="M60.2145 7.9475L60.2145 3.97375L54.8218 3.97375L54.8218 7.94748L60.2145 7.9475Z" fill="black"/>
<path d="M22.4652 7.9475L22.4652 3.97375L27.8579 3.97375L27.8579 7.94748L22.4652 7.9475Z" fill="black"/>
<path d="M11.6797 20.6952L17.0724 20.6952L17.0724 11.9212L11.6797 11.9212L11.6797 20.6952Z" fill="black"/>
<path d="M65.6073 24.6689L65.6072 20.6952L17.0724 20.6952L17.0725 24.6689L65.6073 24.6689Z" fill="black"/>
<path d="M71 11.9212L65.6072 11.9212L65.6072 20.6952L71 20.6952L71 11.9212Z" fill="black"/>
<path d="M27.858 1.2013e-06L27.8579 3.97375L54.8218 3.97375L54.8218 2.45597e-08L27.858 1.2013e-06Z" fill="black"/>
<path d="M11.5 73.1186V17.7949H96.5V73.1186H11.5Z" fill="#D7DF23"/>
<path d="M104 17.7948H96.5V73.1185H104V17.7948Z" fill="black"/>
<path d="M11.5 12.9133V17.7948H96.5V12.9133H11.5Z" fill="black"/>
<path d="M4 73.1185H11.5V17.7948H4V73.1185Z" fill="black"/>
<path d="M11.5 73.1185V78H96.5V73.1185H11.5Z" fill="black"/>
<path d="M1.43438 98.76L7.11438 83.72H8.63438L2.95438 98.76H1.43438ZM15.5881 97C14.8308 97 14.2388 96.7973 13.8121 96.392C13.3961 95.9867 13.1881 95.416 13.1881 94.68V89.512H10.7081V88.2H13.1881V85.72H14.6281V88.2H18.1481V89.512H14.6281V94.68C14.6281 95.352 14.9481 95.688 15.5881 95.688H17.9881V97H15.5881ZM24.2219 97.128C23.5179 97.128 22.9099 96.9947 22.3979 96.728C21.8859 96.4613 21.4859 96.0773 21.1979 95.576C20.9205 95.064 20.7819 94.4613 20.7819 93.768V91.432C20.7819 90.728 20.9205 90.1253 21.1979 89.624C21.4859 89.1227 21.8859 88.7387 22.3979 88.472C22.9099 88.2053 23.5179 88.072 24.2219 88.072C24.9259 88.072 25.5339 88.2053 26.0459 88.472C26.5579 88.7387 26.9525 89.1227 27.2299 89.624C27.5179 90.1253 27.6619 90.7227 27.6619 91.416V93.768C27.6619 94.4613 27.5179 95.064 27.2299 95.576C26.9525 96.0773 26.5579 96.4613 26.0459 96.728C25.5339 96.9947 24.9259 97.128 24.2219 97.128ZM24.2219 95.848C24.8512 95.848 25.3419 95.672 25.6939 95.32C26.0459 94.968 26.2219 94.4507 26.2219 93.768V91.432C26.2219 90.7493 26.0459 90.232 25.6939 89.88C25.3419 89.528 24.8512 89.352 24.2219 89.352C23.6032 89.352 23.1125 89.528 22.7499 89.88C22.3979 90.232 22.2219 90.7493 22.2219 91.432V93.768C22.2219 94.4507 22.3979 94.968 22.7499 95.32C23.1125 95.672 23.6032 95.848 24.2219 95.848ZM30.5356 97V85.32H31.9756V91.832H33.6716L36.2316 88.2H37.8796L34.9196 92.392L37.9276 97H36.2476L33.6876 93.08H31.9756V97H30.5356ZM43.4094 97.16C42.716 97.16 42.108 97.0213 41.5854 96.744C41.0734 96.4667 40.6734 96.0773 40.3854 95.576C40.108 95.064 39.9694 94.472 39.9694 93.8V91.4C39.9694 90.7173 40.108 90.1253 40.3854 89.624C40.6734 89.1227 41.0734 88.7333 41.5854 88.456C42.108 88.1787 42.716 88.04 43.4094 88.04C44.1027 88.04 44.7054 88.1787 45.2174 88.456C45.74 88.7333 46.14 89.1227 46.4174 89.624C46.7054 90.1253 46.8494 90.7173 46.8494 91.4V92.952H41.3774V93.8C41.3774 94.4933 41.5534 95.0267 41.9054 95.4C42.2574 95.7627 42.7587 95.944 43.4094 95.944C43.964 95.944 44.412 95.848 44.7534 95.656C45.0947 95.4533 45.3027 95.1547 45.3774 94.76H46.8174C46.7214 95.496 46.3587 96.0827 45.7294 96.52C45.1107 96.9467 44.3374 97.16 43.4094 97.16ZM45.4414 91.992V91.4C45.4414 90.7067 45.2654 90.1733 44.9134 89.8C44.572 89.4267 44.0707 89.24 43.4094 89.24C42.7587 89.24 42.2574 89.4267 41.9054 89.8C41.5534 90.1733 41.3774 90.7067 41.3774 91.4V91.864H45.5534L45.4414 91.992ZM49.6751 97V88.2H51.1151V89.88H51.4191L51.1151 90.216C51.1151 89.5227 51.3231 88.9893 51.7391 88.616C52.1551 88.232 52.7311 88.04 53.4671 88.04C54.3525 88.04 55.0565 88.312 55.5791 88.856C56.1018 89.4 56.3631 90.1413 56.3631 91.08V97H54.9231V91.24C54.9231 90.6107 54.7525 90.1307 54.4111 89.8C54.0805 89.4587 53.6271 89.288 53.0511 89.288C52.4538 89.288 51.9791 89.4693 51.6271 89.832C51.2858 90.1947 51.1151 90.7173 51.1151 91.4V97H49.6751ZM62.5969 97.128C61.8929 97.128 61.2849 96.9947 60.7729 96.728C60.2609 96.4613 59.8609 96.0773 59.5729 95.576C59.2955 95.064 59.1569 94.4613 59.1569 93.768V91.432C59.1569 90.728 59.2955 90.1253 59.5729 89.624C59.8609 89.1227 60.2609 88.7387 60.7729 88.472C61.2849 88.2053 61.8929 88.072 62.5969 88.072C63.3009 88.072 63.9089 88.2053 64.4209 88.472C64.9329 88.7387 65.3275 89.1227 65.6049 89.624C65.8929 90.1253 66.0369 90.7227 66.0369 91.416V93.768C66.0369 94.4613 65.8929 95.064 65.6049 95.576C65.3275 96.0773 64.9329 96.4613 64.4209 96.728C63.9089 96.9947 63.3009 97.128 62.5969 97.128ZM62.5969 95.848C63.2262 95.848 63.7169 95.672 64.0689 95.32C64.4209 94.968 64.5969 94.4507 64.5969 93.768V91.432C64.5969 90.7493 64.4209 90.232 64.0689 89.88C63.7169 89.528 63.2262 89.352 62.5969 89.352C61.9782 89.352 61.4875 89.528 61.1249 89.88C60.7729 90.232 60.5969 90.7493 60.5969 91.432V93.768C60.5969 94.4507 60.7729 94.968 61.1249 95.32C61.4875 95.672 61.9782 95.848 62.5969 95.848ZM68.4466 97V88.2H69.7106V89.256H69.9986L69.7746 89.64C69.7746 89.1493 69.9026 88.76 70.1586 88.472C70.4253 88.184 70.7826 88.04 71.2306 88.04C71.7213 88.04 72.1 88.2213 72.3666 88.584C72.6333 88.9467 72.7666 89.4587 72.7666 90.12L72.3346 89.256H73.0066L72.7026 89.64C72.7026 89.1493 72.836 88.76 73.1026 88.472C73.38 88.184 73.7426 88.04 74.1906 88.04C74.7453 88.04 75.172 88.248 75.4706 88.664C75.78 89.08 75.9346 89.6293 75.9346 90.312V97H74.6066V90.296C74.6066 89.9333 74.5266 89.6507 74.3666 89.448C74.2173 89.2453 73.9933 89.144 73.6946 89.144C73.4066 89.144 73.1773 89.2453 73.0066 89.448C72.8466 89.64 72.7666 89.9173 72.7666 90.28V97H71.6146V90.296C71.6146 89.9227 71.5293 89.64 71.3586 89.448C71.1986 89.2453 70.9693 89.144 70.6706 89.144C70.372 89.144 70.148 89.2453 69.9986 89.448C69.8493 89.64 69.7746 89.9173 69.7746 90.28V97H68.4466ZM78.3444 97V95.688H81.4644V89.512H78.7444V88.2H82.9044V95.688H85.8644V97H78.3444ZM82.0244 86.616C81.6724 86.616 81.395 86.5253 81.1924 86.344C80.9897 86.1627 80.8884 85.9173 80.8884 85.608C80.8884 85.288 80.9897 85.0373 81.1924 84.856C81.395 84.664 81.6724 84.568 82.0244 84.568C82.3764 84.568 82.6537 84.664 82.8564 84.856C83.059 85.0373 83.1604 85.288 83.1604 85.608C83.1604 85.9173 83.059 86.1627 82.8564 86.344C82.6537 86.5253 82.3764 86.616 82.0244 86.616ZM91.4421 97.16C90.7381 97.16 90.1195 97.0267 89.5861 96.76C89.0635 96.4933 88.6581 96.1093 88.3701 95.608C88.0821 95.096 87.9381 94.4933 87.9381 93.8V91.4C87.9381 90.696 88.0821 90.0933 88.3701 89.592C88.6581 89.0907 89.0635 88.7067 89.5861 88.44C90.1195 88.1733 90.7381 88.04 91.4421 88.04C92.4555 88.04 93.2715 88.312 93.8901 88.856C94.5088 89.4 94.8341 90.1413 94.8661 91.08H93.4261C93.3941 90.5147 93.2021 90.0827 92.8501 89.784C92.5088 89.4747 92.0395 89.32 91.4421 89.32C90.8128 89.32 90.3115 89.5013 89.9381 89.864C89.5648 90.216 89.3781 90.7227 89.3781 91.384V93.8C89.3781 94.4613 89.5648 94.9733 89.9381 95.336C90.3115 95.6987 90.8128 95.88 91.4421 95.88C92.0395 95.88 92.5088 95.7253 92.8501 95.416C93.2021 95.1067 93.3941 94.6747 93.4261 94.12H94.8661C94.8341 95.0587 94.5088 95.8 93.8901 96.344C93.2715 96.888 92.4555 97.16 91.4421 97.16ZM100.7 97.128C100.103 97.128 99.5799 97.0373 99.1319 96.856C98.6945 96.664 98.3425 96.3973 98.0759 96.056C97.8199 95.7147 97.6652 95.3093 97.6119 94.84H99.0519C99.1159 95.1493 99.2865 95.3947 99.5639 95.576C99.8519 95.7573 100.231 95.848 100.7 95.848H101.372C101.937 95.848 102.359 95.736 102.636 95.512C102.913 95.2773 103.052 94.968 103.052 94.584C103.052 94.2107 102.924 93.9173 102.668 93.704C102.423 93.48 102.055 93.3307 101.564 93.256L100.38 93.064C99.5159 92.9147 98.8705 92.648 98.4439 92.264C98.0279 91.8693 97.8199 91.2987 97.8199 90.552C97.8199 89.7627 98.0705 89.1547 98.5719 88.728C99.0732 88.2907 99.8252 88.072 100.828 88.072H101.436C102.279 88.072 102.956 88.2693 103.468 88.664C103.98 89.0587 104.289 89.592 104.396 90.264H102.956C102.892 89.9867 102.732 89.768 102.476 89.608C102.22 89.4373 101.873 89.352 101.436 89.352H100.828C100.284 89.352 99.8839 89.4533 99.6279 89.656C99.3825 89.8587 99.2599 90.1627 99.2599 90.568C99.2599 90.9307 99.3665 91.1973 99.5799 91.368C99.7932 91.5387 100.129 91.6613 100.588 91.736L101.772 91.928C102.721 92.0773 103.409 92.3547 103.836 92.76C104.273 93.1653 104.492 93.752 104.492 94.52C104.492 95.3307 104.231 95.9707 103.708 96.44C103.196 96.8987 102.417 97.128 101.372 97.128H100.7Z" fill="#CBD5E1"/>
<path d="M48.375 31.875H59.625V33.75H63.375V35.625H65.25V39.375H67.125V50.625H65.25V54.375H63.375V56.25H59.625V58.125H48.375V56.25H44.625V54.375H42.75V50.625H40.875V39.375H42.75V35.625H44.625V33.75H48.375V31.875Z" fill="white"/>
<path d="M59.625 30V31.875H48.375V30H59.625Z" fill="black"/>
<path d="M44.625 33.75V31.875H48.375V33.75H44.625Z" fill="black"/>
<path d="M42.75 35.625V33.75H44.625V35.625H42.75Z" fill="black"/>
<path d="M40.875 39.375V35.625H42.75V39.375H40.875Z" fill="black"/>
<path d="M40.875 50.625H39V39.375H40.875V50.625Z" fill="black"/>
<path d="M42.75 54.375H40.875V50.625H42.75V54.375Z" fill="black"/>
<path d="M44.625 56.25H42.75V54.375H44.625V56.25Z" fill="black"/>
<path d="M48.375 58.125H44.625V56.25H48.375V58.125Z" fill="black"/>
<path d="M59.625 58.125V60H48.375V58.125H59.625Z" fill="black"/>
<path d="M63.375 56.25V58.125H59.625V56.25H63.375Z" fill="black"/>
<path d="M65.25 54.375V56.25H63.375V54.375H65.25Z" fill="black"/>
<path d="M67.125 50.625V54.375H65.25V50.625H67.125Z" fill="black"/>
<path d="M67.125 39.375H69V50.625H67.125V39.375Z" fill="black"/>
<path d="M65.25 35.625H67.125V39.375H65.25V35.625Z" fill="black"/>
<path d="M63.375 33.75H65.25V35.625H63.375V33.75Z" fill="black"/>
<path d="M63.375 33.75V31.875H59.625V33.75H63.375Z" fill="black"/>
<path d="M48.375 50.625H50.25V52.5H52.125V54.375H54V52.5H57.75V50.625H59.625V46.875H57.75V45H54V43.125H50.25V39.375H57.75V41.25H59.625V39.375H57.75V37.5H55.875V35.625H54V37.5H50.25V39.375H48.375V43.125H50.25V45H54V46.875H57.75V50.625H50.25V48.75H48.375V50.625Z" fill="black"/>
</svg>
