<svg width="1440" height="102" viewBox="0 0 1440 102" fill="none" xmlns="http://www.w3.org/2000/svg">
<rect x="-1.5" y="1.5" width="67.3889" height="24" transform="matrix(-1 0 0 1 980.478 48)" fill="white" stroke="#0A0B0F" stroke-width="3"/>
<rect x="-1.5" y="1.5" width="67.3889" height="24" transform="matrix(-1 0 0 1 455.578 48)" fill="white" stroke="#0A0B0F" stroke-width="3"/>
<rect x="-1.5" y="1.5" width="60.35" height="24" transform="matrix(-1 0 0 1 910.089 75)" fill="white" stroke="#0A0B0F" stroke-width="3"/>
<rect x="-1.5" y="1.5" width="60.35" height="24" transform="matrix(-1 0 0 1 385.189 75)" fill="white" stroke="#0A0B0F" stroke-width="3"/>
<rect x="-1.5" y="1.5" width="49.2889" height="24" transform="matrix(-1 0 0 1 846.739 48)" fill="white" stroke="#0A0B0F" stroke-width="3"/>
<rect x="-1.5" y="1.5" width="49.2889" height="24" transform="matrix(-1 0 0 1 321.839 48)" fill="white" stroke="#0A0B0F" stroke-width="3"/>
<rect x="-1.5" y="1.5" width="49.2889" height="24" transform="matrix(-1 0 0 1 794.45 75)" fill="white" stroke="#0A0B0F" stroke-width="3"/>
<rect x="-1.5" y="1.5" width="49.2889" height="24" transform="matrix(-1 0 0 1 269.55 75)" fill="white" stroke="#0A0B0F" stroke-width="3"/>
<rect x="-1.5" y="1.5" width="102.583" height="24" transform="matrix(-1 0 0 1 742.161 48)" fill="white" stroke="#0A0B0F" stroke-width="3"/>
<rect x="-1.5" y="1.5" width="102.583" height="24" transform="matrix(-1 0 0 1 217.261 48)" fill="white" stroke="#0A0B0F" stroke-width="3"/>
<rect x="-1.5" y="1.5" width="44.2611" height="24" transform="matrix(-1 0 0 1 636.578 75)" fill="white" stroke="#0A0B0F" stroke-width="3"/>
<rect x="-1.5" y="1.5" width="43.2556" height="24" transform="matrix(-1 0 0 1 110.672 75)" fill="white" stroke="#0A0B0F" stroke-width="3"/>
<rect x="-1.5" y="1.5" width="63.3667" height="24" transform="matrix(-1 0 0 1 589.317 48)" fill="white" stroke="#0A0B0F" stroke-width="3"/>
<rect x="-1.5" y="1.5" width="63.3667" height="24" transform="matrix(-1 0 0 1 64.4166 48)" fill="white" stroke="#0A0B0F" stroke-width="3"/>
<rect x="1438.5" y="73.5" width="67.3889" height="24" transform="rotate(180 1438.5 73.5)" fill="white" stroke="#0A0B0F" stroke-width="3"/>
<rect x="1368.11" y="73.5" width="59.3444" height="24" transform="rotate(180 1368.11 73.5)" fill="white" stroke="#0A0B0F" stroke-width="3"/>
<rect x="1305.77" y="100.5" width="50.2944" height="24" transform="rotate(180 1305.77 100.5)" fill="white" stroke="#0A0B0F" stroke-width="3"/>
<rect x="1252.47" y="73.5" width="49.2889" height="24" transform="rotate(180 1252.47 73.5)" fill="white" stroke="#0A0B0F" stroke-width="3"/>
<rect x="1200.18" y="100.5" width="102.583" height="24" transform="rotate(180 1200.18 100.5)" fill="white" stroke="#0A0B0F" stroke-width="3"/>
<rect x="1094.6" y="73.5" width="43.2556" height="24" transform="rotate(180 1094.6 73.5)" fill="white" stroke="#0A0B0F" stroke-width="3"/>
<rect x="1048.34" y="100.5" width="64.3722" height="24" transform="rotate(180 1048.34 100.5)" fill="white" stroke="#0A0B0F" stroke-width="3"/>
<rect x="524.45" y="100.5" width="64.3722" height="24" transform="rotate(180 524.45 100.5)" fill="white" stroke="#0A0B0F" stroke-width="3"/>
<rect x="981.978" y="73.5" width="67.3889" height="24" transform="rotate(180 981.978 73.5)" fill="white" stroke="#0A0B0F" stroke-width="3"/>
<rect x="457.078" y="73.5" width="67.3889" height="24" transform="rotate(180 457.078 73.5)" fill="white" stroke="#0A0B0F" stroke-width="3"/>
<rect x="911.589" y="46.5" width="60.35" height="24" transform="rotate(180 911.589 46.5)" fill="white" stroke="#0A0B0F" stroke-width="3"/>
<rect x="386.689" y="73.5" width="60.35" height="51" transform="rotate(180 386.689 73.5)" fill="white" stroke="#0A0B0F" stroke-width="3"/>
<rect x="848.239" y="73.5" width="49.2889" height="24" transform="rotate(180 848.239 73.5)" fill="white" stroke="#0A0B0F" stroke-width="3"/>
<rect x="323.339" y="73.5" width="49.2889" height="24" transform="rotate(180 323.339 73.5)" fill="white" stroke="#0A0B0F" stroke-width="3"/>
<rect x="795.95" y="46.5" width="49.2889" height="24" transform="rotate(180 795.95 46.5)" fill="white" stroke="#0A0B0F" stroke-width="3"/>
<rect x="271.05" y="46.5" width="49.2889" height="24" transform="rotate(180 271.05 46.5)" fill="white" stroke="#0A0B0F" stroke-width="3"/>
<rect x="743.661" y="73.5" width="102.583" height="24" transform="rotate(180 743.661 73.5)" fill="white" stroke="#0A0B0F" stroke-width="3"/>
<rect x="743.661" y="46.5" width="102.583" height="24" transform="rotate(180 743.661 46.5)" fill="white" stroke="#0A0B0F" stroke-width="3"/>
<rect x="218.761" y="73.5" width="102.583" height="24" transform="rotate(180 218.761 73.5)" fill="white" stroke="#0A0B0F" stroke-width="3"/>
<rect x="638.078" y="46.5" width="44.2611" height="24" transform="rotate(180 638.078 46.5)" fill="white" stroke="#0A0B0F" stroke-width="3"/>
<rect x="112.172" y="46.5" width="43.2556" height="24" transform="rotate(180 112.172 46.5)" fill="white" stroke="#0A0B0F" stroke-width="3"/>
<rect x="590.817" y="73.5" width="63.3667" height="24" transform="rotate(180 590.817 73.5)" fill="white" stroke="#0A0B0F" stroke-width="3"/>
<rect x="65.9166" y="73.5" width="72.4167" height="24" transform="rotate(180 65.9166 73.5)" fill="white" stroke="#0A0B0F" stroke-width="3"/>
<rect x="65.9166" y="46.5" width="72.4167" height="24" transform="rotate(180 65.9166 46.5)" fill="white" stroke="#0A0B0F" stroke-width="3"/>
<rect x="-1.5" y="1.5" width="67.3889" height="24" transform="matrix(-1 0 0 1 1437 21)" fill="white" stroke="#0A0B0F" stroke-width="3"/>
<rect x="-1.5" y="1.5" width="59.3444" height="24" transform="matrix(-1 0 0 1 1366.61 48)" fill="white" stroke="#0A0B0F" stroke-width="3"/>
<rect x="-1.5" y="1.5" width="50.2944" height="24" transform="matrix(-1 0 0 1 1304.27 21)" fill="white" stroke="#0A0B0F" stroke-width="3"/>
<rect x="-1.5" y="1.5" width="49.2889" height="24" transform="matrix(-1 0 0 1 1250.97 48)" fill="white" stroke="#0A0B0F" stroke-width="3"/>
<rect x="-1.5" y="1.5" width="49.2889" height="24" transform="matrix(-1 0 0 1 1250.97 75)" fill="white" stroke="#0A0B0F" stroke-width="3"/>
<rect x="-1.5" y="1.5" width="102.583" height="24" transform="matrix(-1 0 0 1 1198.68 21)" fill="white" stroke="#0A0B0F" stroke-width="3"/>
<rect x="-1.5" y="1.5" width="43.2556" height="24" transform="matrix(-1 0 0 1 1093.1 48)" fill="white" stroke="#0A0B0F" stroke-width="3"/>
<rect x="-1.5" y="1.5" width="133.756" height="24" transform="matrix(-1 0 0 1 1046.84 21)" fill="white" stroke="#0A0B0F" stroke-width="3"/>
<rect x="-1.5" y="1.5" width="64.3722" height="24" transform="matrix(-1 0 0 1 522.95 21)" fill="white" stroke="#0A0B0F" stroke-width="3"/>
<rect x="1440" y="27" width="1448" height="27" transform="rotate(180 1440 27)" fill="white"/>
</svg>
