<svg width="1440" height="81" viewBox="0 0 1440 81" fill="none" xmlns="http://www.w3.org/2000/svg">
<rect x="451.49" y="28.5" width="67.9236" height="24" fill="white" stroke="#0A0B0F" stroke-width="3"/>
<rect x="980.378" y="28.5" width="67.9236" height="24" fill="white" stroke="#0A0B0F" stroke-width="3"/>
<rect x="522.414" y="55.5" width="60.8312" height="24" fill="white" stroke="#0A0B0F" stroke-width="3"/>
<rect x="1051.3" y="28.5" width="60.8312" height="51" fill="white" stroke="#0A0B0F" stroke-width="3"/>
<rect x="586.245" y="28.5" width="49.6861" height="24" fill="white" stroke="#0A0B0F" stroke-width="3"/>
<rect x="1115.13" y="28.5" width="49.6861" height="24" fill="white" stroke="#0A0B0F" stroke-width="3"/>
<rect x="638.931" y="55.5" width="49.6861" height="24" fill="white" stroke="#0A0B0F" stroke-width="3"/>
<rect x="1167.82" y="55.5" width="49.6861" height="24" fill="white" stroke="#0A0B0F" stroke-width="3"/>
<rect x="691.617" y="28.5" width="103.385" height="24" fill="white" stroke="#0A0B0F" stroke-width="3"/>
<rect x="691.617" y="55.5" width="103.385" height="24" fill="white" stroke="#0A0B0F" stroke-width="3"/>
<rect x="1220.5" y="28.5" width="103.385" height="24" fill="white" stroke="#0A0B0F" stroke-width="3"/>
<rect x="798.003" y="55.5" width="44.6201" height="24" fill="white" stroke="#0A0B0F" stroke-width="3"/>
<rect x="1327.9" y="55.5" width="43.6069" height="24" fill="white" stroke="#0A0B0F" stroke-width="3"/>
<rect x="845.623" y="28.5" width="63.8708" height="24" fill="white" stroke="#0A0B0F" stroke-width="3"/>
<rect x="1374.51" y="28.5" width="72.9896" height="24" fill="white" stroke="#0A0B0F" stroke-width="3"/>
<rect x="1374.51" y="55.5" width="72.9896" height="24" fill="white" stroke="#0A0B0F" stroke-width="3"/>
<rect x="1.5" y="-1.5" width="67.9236" height="24" transform="matrix(1 0 0 -1 -10 78)" fill="white" stroke="#0A0B0F" stroke-width="3"/>
<rect x="1.5" y="-1.5" width="59.8181" height="24" transform="matrix(1 0 0 -1 60.9236 51)" fill="white" stroke="#0A0B0F" stroke-width="3"/>
<rect x="1.5" y="-1.5" width="50.6993" height="24" transform="matrix(1 0 0 -1 123.742 78)" fill="white" stroke="#0A0B0F" stroke-width="3"/>
<rect x="1.5" y="-1.5" width="49.6861" height="24" transform="matrix(1 0 0 -1 177.441 51)" fill="white" stroke="#0A0B0F" stroke-width="3"/>
<rect x="1.5" y="-1.5" width="49.6861" height="24" transform="matrix(1 0 0 -1 177.441 24)" fill="white" stroke="#0A0B0F" stroke-width="3"/>
<rect x="1.5" y="-1.5" width="103.385" height="24" transform="matrix(1 0 0 -1 230.127 78)" fill="white" stroke="#0A0B0F" stroke-width="3"/>
<rect x="1.5" y="-1.5" width="43.6069" height="24" transform="matrix(1 0 0 -1 336.512 51)" fill="white" stroke="#0A0B0F" stroke-width="3"/>
<rect x="1.5" y="-1.5" width="134.794" height="24" transform="matrix(1 0 0 -1 383.119 78)" fill="white" stroke="#0A0B0F" stroke-width="3"/>
<rect x="1.5" y="-1.5" width="64.884" height="24" transform="matrix(1 0 0 -1 910.994 78)" fill="white" stroke="#0A0B0F" stroke-width="3"/>
</svg>
