<svg width="1440" height="81" viewBox="0 0 1440 81" fill="none" xmlns="http://www.w3.org/2000/svg">
<rect x="-1.5" y="1.5" width="67.3889" height="24" transform="matrix(-1 0 0 1 980.478 27)" fill="white" stroke="#0A0B0F" stroke-width="3"/>
<rect x="-1.5" y="1.5" width="67.3889" height="24" transform="matrix(-1 0 0 1 455.578 27)" fill="white" stroke="#0A0B0F" stroke-width="3"/>
<rect x="-1.5" y="1.5" width="60.35" height="24" transform="matrix(-1 0 0 1 910.089 54)" fill="white" stroke="#0A0B0F" stroke-width="3"/>
<rect x="-1.5" y="1.5" width="60.35" height="24" transform="matrix(-1 0 0 1 385.189 54)" fill="white" stroke="#0A0B0F" stroke-width="3"/>
<rect x="-1.5" y="1.5" width="49.2889" height="24" transform="matrix(-1 0 0 1 846.739 27)" fill="white" stroke="#0A0B0F" stroke-width="3"/>
<rect x="-1.5" y="1.5" width="49.2889" height="24" transform="matrix(-1 0 0 1 321.839 27)" fill="white" stroke="#0A0B0F" stroke-width="3"/>
<rect x="-1.5" y="1.5" width="49.2889" height="24" transform="matrix(-1 0 0 1 794.45 54)" fill="white" stroke="#0A0B0F" stroke-width="3"/>
<rect x="-1.5" y="1.5" width="49.2889" height="24" transform="matrix(-1 0 0 1 269.55 54)" fill="white" stroke="#0A0B0F" stroke-width="3"/>
<rect x="-1.5" y="1.5" width="102.583" height="24" transform="matrix(-1 0 0 1 742.161 27)" fill="white" stroke="#0A0B0F" stroke-width="3"/>
<rect x="-1.5" y="1.5" width="102.583" height="24" transform="matrix(-1 0 0 1 217.261 27)" fill="white" stroke="#0A0B0F" stroke-width="3"/>
<rect x="-1.5" y="1.5" width="44.2611" height="24" transform="matrix(-1 0 0 1 636.578 54)" fill="white" stroke="#0A0B0F" stroke-width="3"/>
<rect x="-1.5" y="1.5" width="43.2556" height="24" transform="matrix(-1 0 0 1 110.672 54)" fill="white" stroke="#0A0B0F" stroke-width="3"/>
<rect x="-1.5" y="1.5" width="63.3667" height="24" transform="matrix(-1 0 0 1 589.317 27)" fill="white" stroke="#0A0B0F" stroke-width="3"/>
<rect x="-1.5" y="1.5" width="63.3667" height="24" transform="matrix(-1 0 0 1 64.4166 27)" fill="white" stroke="#0A0B0F" stroke-width="3"/>
<rect x="1438.5" y="52.5" width="67.3889" height="24" transform="rotate(180 1438.5 52.5)" fill="white" stroke="#0A0B0F" stroke-width="3"/>
<rect x="1368.11" y="52.5" width="59.3444" height="24" transform="rotate(180 1368.11 52.5)" fill="white" stroke="#0A0B0F" stroke-width="3"/>
<rect x="1305.77" y="79.5" width="50.2944" height="24" transform="rotate(180 1305.77 79.5)" fill="white" stroke="#0A0B0F" stroke-width="3"/>
<rect x="1252.47" y="52.5" width="49.2889" height="24" transform="rotate(180 1252.47 52.5)" fill="white" stroke="#0A0B0F" stroke-width="3"/>
<rect x="1200.18" y="79.5" width="102.583" height="24" transform="rotate(180 1200.18 79.5)" fill="white" stroke="#0A0B0F" stroke-width="3"/>
<rect x="1094.6" y="52.5" width="43.2556" height="24" transform="rotate(180 1094.6 52.5)" fill="white" stroke="#0A0B0F" stroke-width="3"/>
<rect x="1048.34" y="79.5" width="64.3722" height="24" transform="rotate(180 1048.34 79.5)" fill="white" stroke="#0A0B0F" stroke-width="3"/>
<rect x="524.45" y="79.5" width="64.3722" height="24" transform="rotate(180 524.45 79.5)" fill="white" stroke="#0A0B0F" stroke-width="3"/>
<rect x="981.978" y="52.5" width="67.3889" height="24" transform="rotate(180 981.978 52.5)" fill="white" stroke="#0A0B0F" stroke-width="3"/>
<rect x="457.078" y="52.5" width="67.3889" height="24" transform="rotate(180 457.078 52.5)" fill="white" stroke="#0A0B0F" stroke-width="3"/>
<rect x="911.589" y="25.5" width="60.35" height="24" transform="rotate(180 911.589 25.5)" fill="white" stroke="#0A0B0F" stroke-width="3"/>
<rect x="386.689" y="52.5" width="60.35" height="51" transform="rotate(180 386.689 52.5)" fill="white" stroke="#0A0B0F" stroke-width="3"/>
<rect x="848.239" y="52.5" width="49.2889" height="24" transform="rotate(180 848.239 52.5)" fill="white" stroke="#0A0B0F" stroke-width="3"/>
<rect x="323.339" y="52.5" width="49.2889" height="24" transform="rotate(180 323.339 52.5)" fill="white" stroke="#0A0B0F" stroke-width="3"/>
<rect x="795.95" y="25.5" width="49.2889" height="24" transform="rotate(180 795.95 25.5)" fill="white" stroke="#0A0B0F" stroke-width="3"/>
<rect x="271.05" y="25.5" width="49.2889" height="24" transform="rotate(180 271.05 25.5)" fill="white" stroke="#0A0B0F" stroke-width="3"/>
<rect x="743.661" y="52.5" width="102.583" height="24" transform="rotate(180 743.661 52.5)" fill="white" stroke="#0A0B0F" stroke-width="3"/>
<rect x="743.661" y="25.5" width="102.583" height="24" transform="rotate(180 743.661 25.5)" fill="white" stroke="#0A0B0F" stroke-width="3"/>
<rect x="218.761" y="52.5" width="102.583" height="24" transform="rotate(180 218.761 52.5)" fill="white" stroke="#0A0B0F" stroke-width="3"/>
<rect x="638.078" y="25.5" width="44.2611" height="24" transform="rotate(180 638.078 25.5)" fill="white" stroke="#0A0B0F" stroke-width="3"/>
<rect x="112.172" y="25.5" width="43.2556" height="24" transform="rotate(180 112.172 25.5)" fill="white" stroke="#0A0B0F" stroke-width="3"/>
<rect x="590.817" y="52.5" width="63.3667" height="24" transform="rotate(180 590.817 52.5)" fill="white" stroke="#0A0B0F" stroke-width="3"/>
<rect x="65.9166" y="52.5" width="72.4167" height="24" transform="rotate(180 65.9166 52.5)" fill="white" stroke="#0A0B0F" stroke-width="3"/>
<rect x="65.9166" y="25.5" width="72.4167" height="24" transform="rotate(180 65.9166 25.5)" fill="white" stroke="#0A0B0F" stroke-width="3"/>
<rect x="-1.5" y="1.5" width="67.3889" height="24" transform="matrix(-1 0 0 1 1437 0)" fill="white" stroke="#0A0B0F" stroke-width="3"/>
<rect x="-1.5" y="1.5" width="59.3444" height="24" transform="matrix(-1 0 0 1 1366.61 27)" fill="white" stroke="#0A0B0F" stroke-width="3"/>
<rect x="-1.5" y="1.5" width="50.2944" height="24" transform="matrix(-1 0 0 1 1304.27 0)" fill="white" stroke="#0A0B0F" stroke-width="3"/>
<rect x="-1.5" y="1.5" width="49.2889" height="24" transform="matrix(-1 0 0 1 1250.97 27)" fill="white" stroke="#0A0B0F" stroke-width="3"/>
<rect x="-1.5" y="1.5" width="49.2889" height="24" transform="matrix(-1 0 0 1 1250.97 54)" fill="white" stroke="#0A0B0F" stroke-width="3"/>
<rect x="-1.5" y="1.5" width="102.583" height="24" transform="matrix(-1 0 0 1 1198.68 0)" fill="white" stroke="#0A0B0F" stroke-width="3"/>
<rect x="-1.5" y="1.5" width="43.2556" height="24" transform="matrix(-1 0 0 1 1093.1 27)" fill="white" stroke="#0A0B0F" stroke-width="3"/>
<rect x="-1.5" y="1.5" width="133.756" height="24" transform="matrix(-1 0 0 1 1046.84 0)" fill="white" stroke="#0A0B0F" stroke-width="3"/>
<rect x="-1.5" y="1.5" width="64.3722" height="24" transform="matrix(-1 0 0 1 522.95 0)" fill="white" stroke="#0A0B0F" stroke-width="3"/>
</svg>
