<svg width="304" height="303" viewBox="0 0 304 303" fill="none" xmlns="http://www.w3.org/2000/svg">
<path d="M243.171 59.9816C222.228 23.6192 189.143 0.0649414 151.932 0.0649414C114.722 0.0649414 81.6362 23.5963 60.694 59.9816C24.3316 80.9238 0.777344 114.01 0.777344 151.22C0.777344 188.43 24.3087 221.516 60.694 242.458C81.6362 278.821 114.722 302.375 151.932 302.375C189.143 302.375 222.228 278.844 243.171 242.458C279.533 221.516 303.087 188.43 303.087 151.22C303.087 114.01 279.556 80.9238 243.171 59.9816ZM255.544 96.6878C244.752 91.647 232.493 87.3623 219.112 84.0629C215.79 70.6589 211.528 58.4007 206.487 47.6317C218.883 51.3436 230.477 56.2469 240.971 62.2271C246.928 72.7211 251.855 84.3149 255.566 96.7106L255.544 96.6878ZM176.197 80.2593C190.471 81.405 204.059 83.5359 216.638 86.5145C219.616 99.0936 221.747 112.681 222.893 126.955C215.4 105.074 198.056 87.7518 176.197 80.2593ZM223.878 151.197C223.878 190.859 191.617 223.12 151.955 223.12C112.293 223.12 80.0323 190.859 80.0323 151.197C80.0323 111.535 112.293 79.2741 151.955 79.2741C191.617 79.2741 223.878 111.535 223.878 151.197ZM151.955 76.2038C129.134 76.2038 107.505 78.7471 88.0747 83.2609C91.5116 69.6508 95.9109 57.255 101.135 46.5089C116.991 42.1326 134.106 39.7497 151.955 39.7497C169.804 39.7497 186.92 42.1326 202.776 46.5089C208 57.255 212.399 69.6508 215.836 83.2609C196.429 78.7471 174.776 76.2038 151.955 76.2038ZM127.714 80.2593C105.832 87.7518 88.5101 105.097 81.0176 126.955C82.1632 112.681 84.2941 99.0936 87.2727 86.5145C99.8518 83.5359 113.439 81.405 127.714 80.2593ZM76.962 151.197C76.962 174.018 79.5054 195.648 84.0192 215.078C70.409 211.641 58.0133 207.241 47.2672 202.017C42.8909 186.162 40.5079 169.046 40.5079 151.197C40.5079 133.348 42.8909 116.232 47.2672 100.377C58.0133 95.1526 70.409 90.7533 84.0192 87.3164C79.5054 106.723 76.962 128.376 76.962 151.197ZM81.0176 175.439C88.5101 197.32 105.855 214.642 127.714 222.135C113.439 220.989 99.8518 218.858 87.2727 215.88C84.2941 203.3 82.1632 189.713 81.0176 175.439ZM151.955 226.19C174.776 226.19 196.406 223.647 215.836 219.133C212.399 232.743 208 245.139 202.776 255.885C186.92 260.261 169.804 262.644 151.955 262.644C134.106 262.644 116.991 260.261 101.135 255.885C95.9109 245.139 91.5116 232.743 88.0747 219.133C107.482 223.647 129.134 226.19 151.955 226.19ZM176.197 222.135C198.078 214.642 215.4 197.297 222.893 175.439C221.747 189.713 219.616 203.3 216.638 215.88C204.059 218.858 190.471 220.989 176.197 222.135ZM226.948 151.197C226.948 128.376 224.405 106.746 219.891 87.3164C233.502 90.7533 245.897 95.1526 256.643 100.377C261.02 116.232 263.403 133.348 263.403 151.197C263.403 169.046 261.02 186.162 256.643 202.017C245.897 207.241 233.502 211.641 219.891 215.078C224.405 195.671 226.948 174.018 226.948 151.197ZM237.947 57.0947C227.705 51.7102 216.546 47.2422 204.7 43.874C195.718 25.9334 184.491 12.5524 171.958 5.54111C198.353 11.9108 221.541 30.6305 237.97 57.0717L237.947 57.0947ZM200.92 42.8658C185.545 38.8561 169.094 36.6565 151.955 36.6565C134.817 36.6565 118.365 38.8561 102.991 42.8658C115.845 18.2347 133.052 3.1123 151.955 3.1123C170.858 3.1123 188.066 18.2347 200.92 42.8658ZM131.952 5.54111C119.419 12.5295 108.192 25.9104 99.2102 43.874C87.3415 47.2422 76.2059 51.6873 65.964 57.0947C82.3924 30.6534 105.58 11.9337 131.952 5.56397V5.54111ZM62.9395 62.1812C73.4335 56.2239 85.0273 51.2977 97.423 47.5858C92.3822 58.3777 88.0976 70.636 84.7982 84.0171C71.3943 87.3394 59.136 91.6011 48.367 96.6419C52.0789 84.2461 56.9822 72.6523 62.9624 62.1583L62.9395 62.1812ZM57.8529 65.2057C52.4684 75.4477 48.0004 86.6062 44.6323 98.452C26.6916 107.434 13.3106 118.661 6.29931 131.194C12.669 104.799 31.3887 81.6112 57.8299 65.2057H57.8529ZM43.6241 102.233C39.6144 117.607 37.4148 134.058 37.4148 151.197C37.4148 168.336 39.6144 184.787 43.6241 200.161C18.993 187.307 3.87057 170.1 3.87057 151.197C3.87057 132.294 18.993 115.087 43.6241 102.233ZM6.29931 171.2C13.2877 183.733 26.6687 194.96 44.6323 203.942C48.0004 215.811 52.4455 226.946 57.8529 237.188C31.4116 220.76 12.692 197.572 6.32224 171.177L6.29931 171.2ZM48.3441 205.729C59.136 210.77 71.3942 215.055 84.7753 218.354C88.0976 231.758 92.3594 244.016 97.4002 254.785C85.0044 251.073 73.4105 246.17 62.9165 240.19C56.9592 229.696 52.033 218.102 48.3212 205.706L48.3441 205.729ZM65.941 245.299C76.183 250.684 87.3415 255.152 99.1874 258.52C108.169 276.461 119.396 289.842 131.93 296.83C105.534 290.46 82.3465 271.741 65.941 245.299ZM102.968 259.528C118.342 263.538 134.794 265.738 151.932 265.738C169.071 265.738 185.522 263.538 200.897 259.528C188.043 284.159 170.835 299.282 151.932 299.282C133.029 299.282 115.822 284.159 102.968 259.528ZM171.935 296.853C184.468 289.865 195.696 276.484 204.677 258.543C216.546 255.175 227.682 250.73 237.924 245.322C221.495 271.764 198.308 290.483 171.912 296.853H171.935ZM240.948 240.213C230.454 246.17 218.86 251.096 206.465 254.808C211.505 244.016 215.79 231.758 219.089 218.377C232.493 215.055 244.752 210.793 255.521 205.752C251.809 218.148 246.905 229.742 240.925 240.236L240.948 240.213ZM246.035 237.188C251.419 226.946 255.887 215.788 259.255 203.942C277.196 194.96 290.577 183.733 297.588 171.2C291.219 197.595 272.499 220.783 246.058 237.188H246.035ZM260.264 200.161C264.273 184.787 266.473 168.336 266.473 151.197C266.473 134.058 264.273 117.607 260.264 102.233C284.895 115.087 300.017 132.294 300.017 151.197C300.017 170.1 284.895 187.307 260.264 200.161ZM259.255 98.452C255.887 86.5832 251.442 75.4477 246.035 65.2057C272.476 81.6341 291.196 104.822 297.565 131.194C290.577 118.661 277.196 107.434 259.232 98.452H259.255Z" fill="white"/>
<g filter="url(#filter0_d_1824_25)">
<path d="M156.613 165.264V160.583V155.901V151.22H147.25V155.901V160.583V165.264V169.945V174.627H156.613V169.945V165.264Z" fill="white"/>
<path d="M161.295 183.99H165.976H170.657H175.339V174.627H170.657H165.976H161.295H156.613V183.99H161.295Z" fill="white"/>
<path d="M165.976 151.22H170.657H175.339V141.858H170.657H165.976H161.295H156.613V151.22H161.295H165.976Z" fill="white"/>
</g>
<g filter="url(#filter1_d_1824_25)">
<path d="M147.25 127.813V132.494V137.176V141.857V146.538V151.22H156.613V146.538V141.857V137.176V132.494V127.813H147.25Z" fill="white"/>
<path d="M137.882 151.22H133.201H128.52V160.583H133.201H137.882H142.563H147.245V151.22H142.563H137.882Z" fill="white"/>
<path d="M142.563 118.45H137.882H133.201H128.52V127.813H133.201H137.882H142.563H147.245V118.45H142.563Z" fill="white"/>
</g>
<defs>
<filter id="filter0_d_1824_25" x="145.189" y="141.858" width="30.1511" height="42.1321" filterUnits="userSpaceOnUse" color-interpolation-filters="sRGB">
<feFlood flood-opacity="0" result="BackgroundImageFix"/>
<feColorMatrix in="SourceAlpha" type="matrix" values="0 0 0 0 0 0 0 0 0 0 0 0 0 0 0 0 0 0 127 0" result="hardAlpha"/>
<feOffset dx="-2.06129"/>
<feComposite in2="hardAlpha" operator="out"/>
<feColorMatrix type="matrix" values="0 0 0 0 0 0 0 0 0 0 0 0 0 0 0 0 0 0 0.25 0"/>
<feBlend mode="normal" in2="BackgroundImageFix" result="effect1_dropShadow_1824_25"/>
<feBlend mode="normal" in="SourceGraphic" in2="effect1_dropShadow_1824_25" result="shape"/>
</filter>
<filter id="filter1_d_1824_25" x="126.458" y="118.45" width="30.155" height="42.1326" filterUnits="userSpaceOnUse" color-interpolation-filters="sRGB">
<feFlood flood-opacity="0" result="BackgroundImageFix"/>
<feColorMatrix in="SourceAlpha" type="matrix" values="0 0 0 0 0 0 0 0 0 0 0 0 0 0 0 0 0 0 127 0" result="hardAlpha"/>
<feOffset dx="-2.06129"/>
<feComposite in2="hardAlpha" operator="out"/>
<feColorMatrix type="matrix" values="0 0 0 0 0 0 0 0 0 0 0 0 0 0 0 0 0 0 0.25 0"/>
<feBlend mode="normal" in2="BackgroundImageFix" result="effect1_dropShadow_1824_25"/>
<feBlend mode="normal" in="SourceGraphic" in2="effect1_dropShadow_1824_25" result="shape"/>
</filter>
</defs>
</svg>
