<svg width="1920" height="1080" viewBox="0 0 1920 1080" fill="none" xmlns="http://www.w3.org/2000/svg">
<g clip-path="url(#clip0_330_132)">
<rect width="1920" height="1080" fill="black"/>
<g opacity="0.25" filter="url(#filter0_f_330_132)">
<path d="M1099.72 476.297C757.668 487.808 546.578 273.164 483.789 164.403C471.542 153.539 450.436 121.225 463.997 78.8855C477.558 36.5463 1439.92 -163.316 1919.41 -257.954C1990.76 28.7577 2128.13 622.069 2106.77 701.622C2080.07 801.062 1680.71 835.004 1568.37 762.211C1456.03 689.419 1527.28 461.909 1099.72 476.297Z" fill="url(#paint0_linear_330_132)"/>
</g>
<rect x="70" y="50" width="1780" height="36.3252" fill="white"/>
<rect x="100" y="60.5461" width="213" height="15.819" fill="black"/>
<rect x="1775" y="60.5461" width="45" height="15.819" fill="black"/>
<rect x="1643" y="60.5461" width="112" height="15.819" fill="black"/>
</g>
<defs>
<filter id="filter0_f_330_132" x="274.213" y="-443.354" width="2020.19" height="1430.02" filterUnits="userSpaceOnUse" color-interpolation-filters="sRGB">
<feFlood flood-opacity="0" result="BackgroundImageFix"/>
<feBlend mode="normal" in="SourceGraphic" in2="BackgroundImageFix" result="shape"/>
<feGaussianBlur stdDeviation="92.7" result="effect1_foregroundBlur_330_132"/>
</filter>
<linearGradient id="paint0_linear_330_132" x1="1801.9" y1="-192.822" x2="908.443" y2="968.591" gradientUnits="userSpaceOnUse">
<stop stop-color="#D7DF23"/>
<stop offset="1"/>
</linearGradient>
<clipPath id="clip0_330_132">
<rect width="1920" height="1080" fill="white"/>
</clipPath>
</defs>
</svg>
